<?xml version="1.0" encoding="utf-8" standalone="no"?>
<!DOCTYPE svg PUBLIC "-//W3C//DTD SVG 1.1//EN"
  "http://www.w3.org/Graphics/SVG/1.1/DTD/svg11.dtd">
<!-- Created with matplotlib (https://matplotlib.org/) -->
<svg height="737.28pt" version="1.1" viewBox="0 0 983.52 737.28" width="983.52pt" xmlns="http://www.w3.org/2000/svg" xmlns:xlink="http://www.w3.org/1999/xlink">
 <defs>
  <style type="text/css">
*{stroke-linecap:butt;stroke-linejoin:round;}
  </style>
 </defs>
 <g id="figure_1">
  <g id="patch_1">
   <path d="M 0 737.28 
L 983.52 737.28 
L 983.52 0 
L 0 0 
z
" style="fill:none;"/>
  </g>
  <g id="axes_1">
   <g id="patch_2">
    <path clip-path="url(#p0bdbbf2e64)" d="M 528.671251 155.0016 
L 529.164 154.80944 
L 529.597045 154.4472 
L 529.722 154.300809 
L 530.058222 153.8928 
L 530.072784 153.3384 
L 530.193961 152.784 
L 530.28 152.700687 
L 530.838 152.545568 
L 531.233615 152.2296 
L 531.396 152.060253 
L 531.704535 151.6752 
L 531.684955 151.1208 
L 531.396 150.789041 
L 531.130871 150.5664 
L 530.838 150.320656 
L 530.28 150.217879 
L 529.722 150.339597 
L 529.448613 150.5664 
L 529.164 150.71161 
L 528.743139 151.1208 
L 528.606 151.257054 
L 528.4409 151.1208 
L 528.048 150.687482 
L 527.965373 150.5664 
L 527.781124 150.012 
L 527.49 149.714364 
L 527.338129 149.4576 
L 527.315287 148.9032 
L 527.297528 148.3488 
L 527.268222 147.7944 
L 527.095118 147.24 
L 526.932 147.03802 
L 526.809467 146.6856 
L 526.739528 146.1312 
L 526.613373 145.5768 
L 526.740455 145.0224 
L 526.932 144.53283 
L 526.997251 144.468 
L 527.268222 143.9136 
L 527.282784 143.3592 
L 527.282784 142.8048 
L 527.282784 142.2504 
L 527.282784 141.696 
L 527.282784 141.1416 
L 527.282784 140.5872 
L 527.282784 140.0328 
L 527.282784 139.4784 
L 527.282784 138.924 
L 527.282784 138.3696 
L 527.282784 137.8152 
L 527.282784 137.2608 
L 527.282784 136.7064 
L 527.282784 136.152 
L 527.282784 135.5976 
L 527.282784 135.0432 
L 527.24694 134.4888 
L 526.932 134.074961 
L 526.848546 133.9344 
L 526.590379 133.38 
L 526.374 133.15697 
L 526.194608 132.8256 
L 526.166784 132.2712 
L 526.166784 131.7168 
L 526.166784 131.1624 
L 526.166784 130.608 
L 526.104955 130.0536 
L 525.816 129.721841 
L 525.550871 129.4992 
L 525.258 129.253456 
L 524.988955 128.9448 
L 524.7 128.613041 
L 524.434871 128.3904 
L 524.142 128.144656 
L 523.584 128.163597 
L 523.321559 128.3904 
L 523.026 128.684052 
L 522.797724 128.9448 
L 522.675216 129.4992 
L 522.675216 130.0536 
L 522.675216 130.608 
L 522.675216 131.1624 
L 522.675216 131.7168 
L 522.675216 132.2712 
L 522.675216 132.8256 
L 522.675216 133.38 
L 522.675216 133.9344 
L 522.675216 134.4888 
L 522.675216 135.0432 
L 522.675216 135.5976 
L 522.675216 136.152 
L 522.675216 136.7064 
L 522.675216 137.2608 
L 522.675216 137.8152 
L 522.675216 138.3696 
L 522.675216 138.924 
L 522.675216 139.4784 
L 522.724216 140.0328 
L 522.960749 140.5872 
L 523.026 140.659562 
L 523.173384 141.1416 
L 523.26906 141.696 
L 523.518749 142.2504 
L 523.584 142.322762 
L 523.731384 142.8048 
L 523.791216 143.3592 
L 523.791216 143.9136 
L 523.791216 144.468 
L 523.840216 145.0224 
L 523.860914 145.5768 
L 523.784629 146.1312 
L 523.769903 146.6856 
L 523.757116 147.24 
L 523.745383 147.7944 
L 523.697533 148.3488 
L 523.584 148.577559 
L 523.313318 148.9032 
L 523.151925 149.4576 
L 523.026 149.625203 
L 522.677508 150.012 
L 522.468 150.291012 
L 522.190824 150.5664 
L 521.91 150.908757 
L 521.69658 151.1208 
L 521.352 151.378685 
L 521.045147 151.6752 
L 520.794 151.828014 
L 520.236 151.877806 
L 519.678 151.869439 
L 519.12 151.861735 
L 518.562 151.853809 
L 518.004 151.818503 
L 517.518832 151.6752 
L 517.446 151.61037 
L 516.888 151.345151 
L 516.33 151.182361 
L 516.242987 151.1208 
L 515.772 150.767869 
L 515.214 150.587662 
L 515.191084 150.5664 
L 514.829807 150.012 
L 515.214 149.883756 
L 515.772 149.829092 
L 516.33 149.750357 
L 516.888 149.60259 
L 517.108037 149.4576 
L 517.446 149.361404 
L 518.004 149.28716 
L 518.562 149.222152 
L 519.12 149.105477 
L 519.476919 148.9032 
L 519.678 148.841639 
L 520.236 148.74148 
L 520.794 148.687897 
L 521.352 148.626144 
L 521.91 148.680242 
L 522.468 148.666341 
L 522.852908 148.3488 
L 523.026 148.167117 
L 523.334535 147.7944 
L 523.320658 147.24 
L 523.026 146.913273 
L 522.854136 146.6856 
L 522.468 146.324945 
L 522.157709 146.1312 
L 521.91 145.893372 
L 521.352 145.618467 
L 521.302947 145.5768 
L 520.794 145.17857 
L 520.574976 145.0224 
L 520.236 144.709492 
L 519.784642 144.468 
L 519.678 144.362046 
L 519.12 144.017117 
L 518.968319 143.9136 
L 518.562 143.584832 
L 518.004 143.420761 
L 517.87479 143.3592 
L 517.446 143.072109 
L 516.888 143.010679 
L 516.33 143.010679 
L 515.772 143.010679 
L 515.214 143.132397 
L 514.940613 143.3592 
L 514.656 143.50441 
L 514.235139 143.9136 
L 514.098 144.049854 
L 513.686153 144.468 
L 513.54 144.66616 
L 513.22506 145.0224 
L 513.014617 145.5768 
L 512.982 145.618609 
L 512.604256 146.1312 
L 512.424 146.475456 
L 512.220409 146.6856 
L 511.987838 147.24 
L 511.866 147.475136 
L 511.6019 147.7944 
L 511.515216 148.3488 
L 511.515216 148.9032 
L 511.515216 149.4576 
L 511.6019 150.012 
L 511.866 150.343796 
L 511.983229 150.5664 
L 512.424 151.030663 
L 512.515195 151.1208 
L 512.982 151.584594 
L 513.073195 151.6752 
L 513.54 152.12906 
L 513.667042 152.2296 
L 514.098 152.578121 
L 514.656 152.763018 
L 514.687686 152.784 
L 515.214 153.132521 
L 515.772 153.317418 
L 515.804499 153.3384 
L 516.33 153.683429 
L 516.888 153.788149 
L 517.173737 153.8928 
L 517.446 154.095077 
L 518.004 154.231897 
L 518.562 154.241321 
L 519.12 154.241321 
L 519.678 154.241321 
L 520.236 154.241321 
L 520.794 154.231897 
L 521.352 154.095077 
L 521.624263 153.8928 
L 521.91 153.788149 
L 522.468 153.686921 
L 522.898958 153.3384 
L 523.026 153.231539 
L 523.424404 152.784 
L 523.584 152.57224 
L 523.905023 152.2296 
L 524.142 151.852974 
L 524.320928 151.6752 
L 524.635782 151.1208 
L 524.7 151.045052 
L 525.159184 150.5664 
L 525.258 150.477734 
L 525.343618 150.5664 
L 525.637072 151.1208 
L 525.816 151.298574 
L 526.032702 151.6752 
L 526.374 152.214874 
L 526.383105 152.2296 
L 526.521384 152.784 
L 526.581216 153.3384 
L 526.581216 153.8928 
L 526.659051 154.4472 
L 526.932 154.775022 
L 527.115138 155.0016 
L 527.49 155.320552 
L 528.048 155.326302 
L 528.606 155.06643 
z
" style="fill:#0000ff;"/>
   </g>
   <g id="patch_3">
    <path clip-path="url(#p0bdbbf2e64)" d="M 549.639553 141.696 
L 549.81 141.488965 
L 550.076256 141.1416 
L 550.098955 140.5872 
L 549.81 140.244176 
L 549.696467 140.0328 
L 549.654609 139.4784 
L 549.654609 138.924 
L 549.654609 138.3696 
L 549.654609 137.8152 
L 549.654609 137.2608 
L 549.654609 136.7064 
L 549.654609 136.152 
L 549.654609 135.5976 
L 549.81 135.10864 
L 549.875865 135.0432 
L 550.146222 134.4888 
L 550.160784 133.9344 
L 550.160784 133.38 
L 550.160784 132.8256 
L 550.111784 132.2712 
L 549.81 131.927263 
L 549.552261 131.7168 
L 549.252 131.463759 
L 548.694 131.463759 
L 548.344008 131.7168 
L 548.136 131.807657 
L 547.578 131.978443 
L 547.249151 132.2712 
L 547.02 132.564852 
L 546.791724 132.8256 
L 546.747051 133.38 
L 547.02 133.707822 
L 547.203138 133.9344 
L 547.578 134.33955 
L 547.66987 134.4888 
L 547.578 134.640461 
L 547.25998 135.0432 
L 547.02 135.53216 
L 546.954135 135.5976 
L 546.747051 136.152 
L 546.669216 136.7064 
L 546.669216 137.2608 
L 546.669216 137.8152 
L 546.669216 138.3696 
L 546.669216 138.924 
L 546.669216 139.4784 
L 546.7559 140.0328 
L 547.02 140.364596 
L 547.137805 140.5872 
L 547.578 141.117605 
L 547.609686 141.1416 
L 548.136 141.569778 
L 548.308107 141.696 
L 548.694 141.988757 
L 549.252 142.002545 
z
" style="fill:#0000ff;"/>
   </g>
   <g id="patch_4">
    <path clip-path="url(#p0bdbbf2e64)" d="M 363.27758 154.4472 
L 363.438 154.347725 
L 363.996 153.95763 
L 364.061251 153.8928 
L 364.554 153.707229 
L 365.112 153.40323 
L 365.177251 153.3384 
L 365.67 153.158079 
L 366.228 152.986277 
L 366.500263 152.784 
L 366.786 152.679349 
L 367.344 152.587833 
L 367.902 152.508873 
L 368.46 152.35596 
L 368.703544 152.2296 
L 369.018 152.1585 
L 369.576 152.069258 
L 370.134 152.032454 
L 370.692 152.023721 
L 371.25 152.023721 
L 371.808 152.023721 
L 372.366 152.023721 
L 372.924 152.023721 
L 373.482 152.023721 
L 374.04 152.023721 
L 374.598 152.023721 
L 375.156 152.023721 
L 375.714 152.131706 
L 375.841042 152.2296 
L 376.272 152.578121 
L 376.83 152.763018 
L 376.86144 152.784 
L 377.388 153.133588 
L 377.946 153.317418 
L 377.97744 153.3384 
L 378.504 153.687988 
L 379.062 153.871818 
L 379.102689 153.8928 
L 379.62 154.205708 
L 380.178 154.226853 
L 380.588658 153.8928 
L 380.736 153.733967 
L 381.057023 153.3384 
L 381.086784 152.784 
L 381.086784 152.2296 
L 381.086784 151.6752 
L 381.086784 151.1208 
L 381.05094 150.5664 
L 380.736 150.152561 
L 380.651702 150.012 
L 380.394379 149.4576 
L 380.178 149.23457 
L 379.986196 148.9032 
L 379.62 148.525022 
L 379.333989 148.3488 
L 379.062 148.103056 
L 378.504 148.133817 
L 378.279521 148.3488 
L 377.946 148.68017 
L 377.729621 148.9032 
L 377.706627 149.4576 
L 377.946 149.779171 
L 378.045174 150.012 
L 378.237529 150.5664 
L 377.946 150.790751 
L 377.388 150.627961 
L 377.314962 150.5664 
L 376.83 150.151245 
L 376.564871 150.012 
L 376.272 149.766256 
L 375.714 149.663479 
L 375.156 149.663479 
L 374.598 149.663479 
L 374.04 149.663479 
L 373.482 149.663479 
L 372.924 149.663479 
L 372.366 149.663479 
L 371.808 149.663479 
L 371.25 149.663479 
L 370.692 149.663479 
L 370.134 149.663479 
L 369.576 149.724909 
L 369.018 149.849934 
L 368.705126 150.012 
L 368.46 150.073561 
L 367.902 150.163506 
L 367.344 150.20323 
L 366.786 150.273643 
L 366.228 150.50157 
L 366.155168 150.5664 
L 365.67 150.714137 
L 365.112 150.820963 
L 364.720058 151.1208 
L 364.554 151.212077 
L 364.426958 151.1208 
L 364.346784 150.5664 
L 364.360592 150.012 
L 364.47298 149.4576 
L 364.554 149.283028 
L 364.826949 148.9032 
L 364.960674 148.3488 
L 365.112 147.905967 
L 365.213462 147.7944 
L 365.448222 147.24 
L 365.462784 146.6856 
L 365.462784 146.1312 
L 365.465027 145.5768 
L 365.67 145.41017 
L 366.228 145.404801 
L 366.786 145.399951 
L 367.344 145.393892 
L 367.902 145.38938 
L 368.46 145.385477 
L 369.018 145.379555 
L 369.576 145.379555 
L 370.134 145.386491 
L 370.692 145.396562 
L 371.25 145.417813 
L 371.808 145.480604 
L 372.256752 145.5768 
L 372.366 145.64163 
L 372.924 145.829841 
L 373.482 145.912075 
L 374.04 145.937911 
L 374.598 145.949219 
L 375.156 145.958373 
L 375.714 146.039965 
L 375.886107 146.1312 
L 376.272 146.423957 
L 376.83 146.479721 
L 377.388 146.479721 
L 377.946 146.465253 
L 378.504 146.19603 
L 378.569251 146.1312 
L 379.062 145.940891 
L 379.62 145.64163 
L 379.685251 145.5768 
L 380.178 145.383701 
L 380.5902 145.0224 
L 380.736 144.853926 
L 381.072222 144.468 
L 381.024955 143.9136 
L 380.736 143.602057 
L 380.41833 143.3592 
L 380.178 143.144217 
L 379.62 143.121372 
L 379.284716 143.3592 
L 379.062 143.449598 
L 378.504 143.587438 
L 378.090424 143.9136 
L 377.946 144.003586 
L 377.388 144.088881 
L 376.83 144.047982 
L 376.564871 143.9136 
L 376.272 143.667856 
L 375.714 143.565079 
L 375.156 143.565079 
L 374.598 143.565079 
L 374.04 143.565079 
L 373.482 143.544771 
L 372.924 143.500013 
L 372.366 143.410589 
L 372.177033 143.3592 
L 371.808 143.170276 
L 371.25 143.066443 
L 370.692 143.010679 
L 370.134 143.010679 
L 369.576 143.010679 
L 369.018 143.010679 
L 368.46 143.010679 
L 367.902 143.010679 
L 367.344 143.010679 
L 366.786 143.010679 
L 366.228 143.010679 
L 365.67 143.010679 
L 365.462784 142.8048 
L 365.462784 142.2504 
L 365.462784 141.696 
L 365.462784 141.1416 
L 365.462784 140.5872 
L 365.43881 140.0328 
L 365.177865 139.4784 
L 365.112 139.41296 
L 364.88081 138.924 
L 364.554 138.406882 
L 364.532882 138.3696 
L 364.352354 137.8152 
L 364.159118 137.2608 
L 363.996 137.05882 
L 363.872887 136.7064 
L 363.797574 136.152 
L 363.788784 135.5976 
L 363.996 135.391721 
L 364.554 135.391721 
L 365.112 135.391721 
L 365.67 135.377253 
L 366.228 135.296241 
L 366.786 135.10803 
L 366.886491 135.0432 
L 367.344 134.938549 
L 367.902 134.87872 
L 368.46 134.830333 
L 369.018 134.691077 
L 369.290263 134.4888 
L 369.576 134.384149 
L 370.134 134.31989 
L 370.692 134.30938 
L 371.25 134.30138 
L 371.808 134.293602 
L 372.366 134.283988 
L 372.924 134.282921 
L 373.482 134.282921 
L 374.04 134.282921 
L 374.598 134.282921 
L 375.156 134.282921 
L 375.714 134.282921 
L 376.272 134.303229 
L 376.513437 134.4888 
L 376.83 134.868577 
L 376.94487 135.0432 
L 377.388 135.509384 
L 377.476789 135.5976 
L 377.946 136.063784 
L 378.036208 136.152 
L 378.504 136.616774 
L 378.594208 136.7064 
L 379.062 137.161325 
L 379.234107 137.2608 
L 379.62 137.553557 
L 380.178 137.567345 
L 380.565553 137.2608 
L 380.736 137.091453 
L 381.044535 136.7064 
L 381.024955 136.152 
L 380.736 135.808976 
L 380.604612 135.5976 
L 380.178 135.17374 
L 380.046612 135.0432 
L 379.62 134.61934 
L 379.488612 134.4888 
L 379.062 134.06494 
L 378.933311 133.9344 
L 378.825023 133.38 
L 378.504 133.018133 
L 378.315568 132.8256 
L 377.946 132.500898 
L 377.388 132.332761 
L 377.25879 132.2712 
L 376.83 131.984109 
L 376.272 131.922679 
L 375.714 131.922679 
L 375.156 131.922679 
L 374.598 131.922679 
L 374.04 131.922679 
L 373.482 131.922679 
L 372.924 131.922679 
L 372.366 131.922679 
L 371.808 131.922679 
L 371.25 131.922679 
L 370.692 131.922679 
L 370.134 131.922679 
L 369.576 131.984109 
L 369.039469 132.2712 
L 369.018 132.280246 
L 368.46 132.430837 
L 367.902 132.519055 
L 367.344 132.636676 
L 366.974967 132.8256 
L 366.786 132.876989 
L 366.228 132.968257 
L 365.67 133.007666 
L 365.112 133.030412 
L 364.554 133.031479 
L 363.996 133.031479 
L 363.438 133.031479 
L 362.88 133.031479 
L 362.322 133.153197 
L 362.059559 133.38 
L 361.764 133.673652 
L 361.535724 133.9344 
L 361.413216 134.4888 
L 361.413216 135.0432 
L 361.413216 135.5976 
L 361.413216 136.152 
L 361.455465 136.7064 
L 361.63682 137.2608 
L 361.764 137.405324 
L 361.903881 137.8152 
L 361.99519 138.3696 
L 362.256135 138.924 
L 362.322 138.98944 
L 362.55319 139.4784 
L 362.88 139.929519 
L 362.941961 140.0328 
L 363.079521 140.5872 
L 363.087216 141.1416 
L 363.087216 141.696 
L 363.087216 142.2504 
L 363.087216 142.8048 
L 363.087216 143.3592 
L 362.88 143.660559 
L 362.60788 143.9136 
L 362.322 144.213009 
L 362.082627 144.468 
L 361.971216 145.0224 
L 361.971216 145.5768 
L 361.971216 146.1312 
L 362.053408 146.6856 
L 362.322 147.009222 
L 362.521069 147.24 
L 362.643462 147.7944 
L 362.507903 148.3488 
L 362.373723 148.9032 
L 362.322 149.017868 
L 362.040914 149.4576 
L 361.971216 150.012 
L 361.971216 150.5664 
L 361.971216 151.1208 
L 361.971216 151.6752 
L 361.971216 152.2296 
L 361.901329 152.784 
L 361.764 153.066777 
L 361.535724 153.3384 
L 361.4999 153.8928 
L 361.764 154.212064 
L 361.971383 154.4472 
L 362.322 154.739957 
L 362.88 154.753745 
z
" style="fill:#0000ff;"/>
   </g>
   <g id="patch_5">
    <path clip-path="url(#p0bdbbf2e64)" d="M 428.010848 154.4472 
L 428.166 154.339756 
L 428.557599 153.8928 
L 428.724 153.626964 
L 428.996949 153.3384 
L 429.282 152.998983 
L 429.567885 152.784 
L 429.84 152.679349 
L 430.398 152.578121 
L 430.820305 152.2296 
L 430.956 152.112487 
L 431.345033 151.6752 
L 431.514 151.409364 
L 431.786949 151.1208 
L 432.030063 150.5664 
L 432.072 150.461642 
L 432.33369 150.012 
L 432.360955 149.4576 
L 432.072 149.136389 
L 431.787819 148.9032 
L 431.514 148.665372 
L 430.956 148.688217 
L 430.731521 148.9032 
L 430.398 149.115534 
L 430.061778 149.4576 
L 429.84 149.728762 
L 429.554923 150.012 
L 429.282 150.287127 
L 428.98345 150.5664 
L 428.724 150.709643 
L 428.166 150.829964 
L 427.855898 151.1208 
L 427.608 151.333827 
L 427.28119 151.6752 
L 427.05 152.146095 
L 426.965953 152.2296 
L 426.492 152.435479 
L 425.934 152.352994 
L 425.805311 152.2296 
L 425.376 151.767343 
L 425.293373 151.6752 
L 425.034379 151.1208 
L 424.818 150.89777 
L 424.639549 150.5664 
L 424.610784 150.012 
L 424.610784 149.4576 
L 424.610784 148.9032 
L 424.610784 148.3488 
L 424.610784 147.7944 
L 424.610784 147.24 
L 424.610784 146.6856 
L 424.610784 146.1312 
L 424.610784 145.5768 
L 424.611966 145.0224 
L 424.818 144.846418 
L 425.376 144.81875 
L 425.934 144.762649 
L 426.492 144.617187 
L 426.816616 144.468 
L 427.05 144.416611 
L 427.608 144.339756 
L 428.166 144.309714 
L 428.724 144.297485 
L 429.282 144.291151 
L 429.84 144.285092 
L 430.398 144.277691 
L 430.956 144.271735 
L 431.514 144.223368 
L 431.904328 143.9136 
L 432.072 143.744253 
L 432.380535 143.3592 
L 432.360955 142.8048 
L 432.072 142.473041 
L 431.806871 142.2504 
L 431.514 142.004656 
L 430.956 141.901879 
L 430.398 141.901879 
L 429.84 141.901879 
L 429.282 141.901879 
L 428.724 141.901879 
L 428.166 141.931448 
L 427.608 141.997359 
L 427.05 142.12404 
L 426.721186 142.2504 
L 426.492 142.291189 
L 425.934 142.37106 
L 425.376 142.414949 
L 424.818 142.444543 
L 424.610784 142.2504 
L 424.610784 141.696 
L 424.610784 141.1416 
L 424.610784 140.5872 
L 424.610784 140.0328 
L 424.610784 139.4784 
L 424.610784 138.924 
L 424.610784 138.3696 
L 424.610784 137.8152 
L 424.610784 137.2608 
L 424.610784 136.7064 
L 424.610784 136.152 
L 424.610784 135.5976 
L 424.610784 135.0432 
L 424.610784 134.4888 
L 424.610784 133.9344 
L 424.548955 133.38 
L 424.26 133.048241 
L 423.994871 132.8256 
L 423.702 132.579856 
L 423.144 132.598797 
L 422.881559 132.8256 
L 422.586 133.119252 
L 422.357724 133.38 
L 422.235216 133.9344 
L 422.235216 134.4888 
L 422.235216 135.0432 
L 422.235216 135.5976 
L 422.235216 136.152 
L 422.235216 136.7064 
L 422.235216 137.2608 
L 422.235216 137.8152 
L 422.235216 138.3696 
L 422.235216 138.924 
L 422.235216 139.4784 
L 422.235216 140.0328 
L 422.235216 140.5872 
L 422.235216 141.1416 
L 422.235216 141.696 
L 422.235216 142.2504 
L 422.234034 142.8048 
L 422.028 142.998943 
L 421.47 143.106159 
L 421.180667 143.3592 
L 420.912 143.507583 
L 420.43858 143.9136 
L 420.354 143.988039 
L 419.796 144.384495 
L 419.711953 144.468 
L 419.238 144.762398 
L 418.967855 145.0224 
L 418.68 145.219326 
L 418.312018 145.5768 
L 418.122 145.899496 
L 417.905621 146.1312 
L 417.855744 146.6856 
L 418.122 146.995363 
L 418.353695 147.24 
L 418.68 147.519273 
L 419.238 147.532757 
L 419.654216 147.24 
L 419.796 147.150788 
L 420.354 146.797086 
L 420.617342 147.24 
L 420.445447 147.7944 
L 420.354 147.951124 
L 420.042221 148.3488 
L 419.886985 148.9032 
L 419.796 149.050114 
L 419.472048 149.4576 
L 419.270617 150.012 
L 419.238 150.052145 
L 418.854947 150.5664 
L 418.68 150.910656 
L 418.476409 151.1208 
L 418.208082 151.6752 
L 418.122 151.755697 
L 417.564 151.822973 
L 417.006 151.684246 
L 416.993462 151.6752 
L 416.448 151.30642 
L 416.213238 151.1208 
L 415.89 150.807892 
L 415.609176 150.5664 
L 415.332 150.291012 
L 415.114112 150.012 
L 414.774 149.62267 
L 414.659926 149.4576 
L 414.577632 148.9032 
L 414.566784 148.3488 
L 414.566784 147.7944 
L 414.566784 147.24 
L 414.566784 146.6856 
L 414.566784 146.1312 
L 414.504955 145.5768 
L 414.216 145.233776 
L 414.078861 145.0224 
L 413.658 144.604254 
L 413.521643 144.468 
L 413.1 144.058 
L 412.834871 143.9136 
L 412.542 143.667856 
L 412.252592 143.3592 
L 411.984 143.047146 
L 411.718871 142.8048 
L 411.426 142.559056 
L 410.868 142.577997 
L 410.594613 142.8048 
L 410.31 142.967332 
L 409.782912 143.3592 
L 409.752 143.385329 
L 409.329655 143.9136 
L 409.194 144.036994 
L 408.636 144.384495 
L 408.551953 144.468 
L 408.078 144.697698 
L 407.708432 145.0224 
L 407.52 145.16761 
L 407.099139 145.5768 
L 406.962 145.713054 
L 406.550153 146.1312 
L 406.404 146.348406 
L 406.109342 146.6856 
L 405.994697 147.24 
L 405.846 147.722038 
L 405.780749 147.7944 
L 405.551342 148.3488 
L 405.495216 148.9032 
L 405.495216 149.4576 
L 405.495216 150.012 
L 405.5819 150.5664 
L 405.846 150.898196 
L 405.963805 151.1208 
L 406.404 151.57466 
L 406.570058 151.6752 
L 406.962 151.975037 
L 407.52 152.062193 
L 408.078 152.124949 
L 408.535509 152.2296 
L 408.636 152.29443 
L 409.194 152.482641 
L 409.752 152.563653 
L 410.31 152.578121 
L 410.868 152.578121 
L 411.426 152.563653 
L 411.984 152.29443 
L 412.049251 152.2296 
L 412.542 152.039291 
L 413.1 151.80156 
L 413.658 152.043049 
L 413.926445 152.2296 
L 414.216 152.508873 
L 414.708749 152.784 
L 414.774 152.84883 
L 415.332 153.235428 
L 415.475243 153.3384 
L 415.89 153.677497 
L 416.448 153.788149 
L 416.733737 153.8928 
L 417.006 154.095077 
L 417.564 154.231897 
L 418.122 154.205708 
L 418.68 153.95763 
L 418.745251 153.8928 
L 419.238 153.698657 
L 419.649306 153.3384 
L 419.796 153.195128 
L 420.169113 152.784 
L 420.354 152.414789 
L 420.532928 152.2296 
L 420.783072 151.6752 
L 420.912 151.464737 
L 421.213784 151.1208 
L 421.428946 150.5664 
L 421.47 150.511062 
L 421.832596 150.012 
L 422.028 149.52243 
L 422.235216 150.012 
L 422.235216 150.5664 
L 422.304914 151.1208 
L 422.586 151.481768 
L 422.687121 151.6752 
L 422.953849 152.2296 
L 423.144 152.418524 
L 423.351216 152.784 
L 423.702 153.203581 
L 423.809932 153.3384 
L 424.26 153.80271 
L 424.350722 153.8928 
L 424.818 154.34717 
L 424.990107 154.4472 
L 425.376 154.739957 
L 425.934 154.795721 
L 426.492 154.795721 
L 427.05 154.795721 
L 427.608 154.760108 
z
" style="fill:#0000ff;"/>
   </g>
   <g id="patch_6">
    <path clip-path="url(#p0bdbbf2e64)" d="M 482.228679 154.4472 
L 482.292 154.426218 
L 482.85 154.302709 
L 483.408 154.244594 
L 483.966 154.095077 
L 484.238263 153.8928 
L 484.524 153.788149 
L 485.082 153.686921 
L 485.524866 153.3384 
L 485.64 153.247794 
L 486.106805 152.784 
L 486.198 152.694374 
L 486.655879 152.2296 
L 486.756 152.070215 
L 487.064535 151.6752 
L 487.106784 151.1208 
L 487.106784 150.5664 
L 487.106784 150.012 
L 487.106784 149.4576 
L 487.106784 148.9032 
L 487.106784 148.3488 
L 487.106784 147.7944 
L 487.044955 147.24 
L 486.756 146.896976 
L 486.625975 146.6856 
L 486.198 146.155978 
L 486.171162 146.1312 
L 485.64 145.6761 
L 485.557373 145.5768 
L 485.310276 145.0224 
L 485.082 144.787413 
L 484.893291 144.468 
L 484.524 144.060164 
L 484.367165 143.9136 
L 483.966 143.533808 
L 483.664655 143.3592 
L 483.408 143.138202 
L 482.85 142.918625 
L 482.647853 142.8048 
L 482.292 142.533612 
L 481.734 142.456279 
L 481.176 142.456279 
L 480.618 142.456279 
L 480.06 142.456279 
L 479.502 142.456279 
L 478.944 142.456279 
L 478.386 142.456279 
L 477.828 142.456279 
L 477.27 142.456279 
L 476.712 142.456279 
L 476.154 142.456279 
L 475.596 142.310467 
L 475.542921 142.2504 
L 475.424453 141.696 
L 475.409224 141.1416 
L 475.389966 140.5872 
L 475.388784 140.0328 
L 475.388784 139.4784 
L 475.388784 138.924 
L 475.388784 138.3696 
L 475.388784 137.8152 
L 475.388784 137.2608 
L 475.412752 136.7064 
L 475.596 136.21683 
L 475.661251 136.152 
L 475.962455 135.5976 
L 476.154 135.258183 
L 476.712 135.367902 
L 477.27 135.442749 
L 477.828 135.556811 
L 477.955844 135.5976 
L 478.386 135.824403 
L 478.944 135.956802 
L 479.502 136.131018 
L 479.533174 136.152 
L 480.06 136.50275 
L 480.618 136.685418 
L 480.64944 136.7064 
L 481.176 137.055988 
L 481.734 137.239818 
L 481.76544 137.2608 
L 482.292 137.610388 
L 482.85 137.794218 
L 482.89248 137.8152 
L 483.408 138.121745 
L 483.966 138.149253 
L 484.354432 137.8152 
L 484.524 137.621947 
L 484.832535 137.2608 
L 484.845023 136.7064 
L 484.524 136.36376 
L 484.316446 136.152 
L 483.966 135.827298 
L 483.408 135.659161 
L 483.310579 135.5976 
L 482.85 135.262325 
L 482.292 135.104761 
L 482.194579 135.0432 
L 481.734 134.707925 
L 481.176 134.550361 
L 481.074587 134.4888 
L 480.618 134.160032 
L 480.06 133.995961 
L 479.946415 133.9344 
L 479.502 133.624632 
L 478.944 133.54891 
L 478.386 133.476196 
L 478.099513 133.38 
L 477.828 133.191417 
L 477.27 132.958726 
L 477.004871 132.8256 
L 476.712 132.579856 
L 476.154 132.477079 
L 475.596 132.477079 
L 475.038 132.598797 
L 474.775559 132.8256 
L 474.48 133.119252 
L 474.251724 133.38 
L 474.105163 133.9344 
L 474.012985 134.4888 
L 473.922 134.626098 
L 473.585778 135.0432 
L 473.454985 135.5976 
L 473.364 135.787541 
L 473.091051 136.152 
L 473.013216 136.7064 
L 473.013216 137.2608 
L 473.013216 137.8152 
L 473.013216 138.3696 
L 473.013216 138.924 
L 473.013216 139.4784 
L 473.013216 140.0328 
L 473.013216 140.5872 
L 473.013216 141.1416 
L 473.013216 141.696 
L 473.013216 142.2504 
L 473.013216 142.8048 
L 473.069342 143.3592 
L 473.364 143.707554 
L 473.520835 143.9136 
L 473.922 144.262121 
L 474.48 144.447018 
L 474.517524 144.468 
L 475.038 144.792702 
L 475.596 144.816521 
L 476.154 144.816521 
L 476.712 144.816521 
L 477.27 144.816521 
L 477.828 144.816521 
L 478.386 144.816521 
L 478.944 144.816521 
L 479.502 144.816521 
L 480.06 144.817588 
L 480.618 144.833094 
L 481.176 144.851147 
L 481.734 144.894404 
L 481.958613 145.0224 
L 482.292 145.317049 
L 482.85 145.500398 
L 482.924554 145.5768 
L 483.191621 146.1312 
L 483.408 146.346183 
L 483.615216 146.6856 
L 483.966 147.105181 
L 484.074528 147.24 
L 484.524 147.703794 
L 484.612744 147.7944 
L 484.731216 148.3488 
L 484.731216 148.9032 
L 484.731216 149.4576 
L 484.731216 150.012 
L 484.731216 150.5664 
L 484.678917 151.1208 
L 484.524 151.271767 
L 483.966 151.674912 
L 483.96571 151.6752 
L 483.408 151.837584 
L 482.85 151.929763 
L 482.292 152.123646 
L 482.145201 152.2296 
L 481.734 152.3424 
L 481.176 152.40902 
L 480.618 152.435479 
L 480.06 152.435479 
L 479.502 152.435479 
L 478.944 152.435479 
L 478.386 152.435479 
L 477.828 152.435479 
L 477.27 152.435479 
L 476.712 152.413445 
L 476.154 152.364995 
L 475.596 152.262007 
L 475.511282 152.2296 
L 475.346535 151.6752 
L 475.359023 151.1208 
L 475.038 150.77816 
L 474.751989 150.5664 
L 474.48 150.320656 
L 473.922 150.273643 
L 473.364 150.50157 
L 473.291168 150.5664 
L 472.806 150.712834 
L 472.248 150.833709 
L 471.924703 151.1208 
L 471.69 151.403148 
L 471.450627 151.6752 
L 471.339216 152.2296 
L 471.4259 152.784 
L 471.69 153.103264 
L 471.894007 153.3384 
L 472.248 153.634745 
L 472.806 153.703494 
L 473.364 153.799713 
L 473.52586 153.8928 
L 473.922 154.197622 
L 474.48 154.28272 
L 475.038 154.342549 
L 475.495509 154.4472 
L 475.596 154.51203 
L 476.154 154.700241 
L 476.712 154.781253 
L 477.27 154.795721 
L 477.828 154.795721 
L 478.386 154.795721 
L 478.944 154.795721 
L 479.502 154.795721 
L 480.06 154.795721 
L 480.618 154.795721 
L 481.176 154.786297 
L 481.734 154.692944 
z
" style="fill:#0000ff;"/>
   </g>
   <g id="patch_7">
    <path clip-path="url(#p0bdbbf2e64)" d="M 392.941099 154.4472 
L 393.012 154.400507 
L 393.57 154.113798 
L 393.826655 153.8928 
L 394.128 153.743173 
L 394.589526 153.3384 
L 394.686 153.236 
L 395.054373 152.784 
L 395.244 152.29504 
L 395.309865 152.2296 
L 395.613273 151.6752 
L 395.802 151.18563 
L 395.867251 151.1208 
L 396.138222 150.5664 
L 396.152784 150.012 
L 396.152784 149.4576 
L 396.152784 148.9032 
L 396.152784 148.3488 
L 396.152784 147.7944 
L 396.152784 147.24 
L 396.152784 146.6856 
L 396.152784 146.1312 
L 396.152784 145.5768 
L 396.152784 145.0224 
L 396.152784 144.468 
L 396.152784 143.9136 
L 396.152784 143.3592 
L 396.12881 142.8048 
L 395.867865 142.2504 
L 395.802 142.18496 
L 395.56202 141.696 
L 395.309865 141.1416 
L 395.244 141.07616 
L 395.036784 140.5872 
L 394.686 140.064281 
L 394.664882 140.0328 
L 394.478784 139.4784 
L 394.128 139.079823 
L 393.974994 138.924 
L 393.57 138.563345 
L 393.284561 138.3696 
L 393.012 138.107204 
L 392.462766 137.8152 
L 392.454 137.80649 
L 391.896 137.374929 
L 391.750354 137.2608 
L 391.338 136.911212 
L 390.970151 136.7064 
L 390.78 136.517476 
L 390.222 136.252468 
L 390.039471 136.152 
L 389.664 135.859243 
L 389.106 135.771186 
L 388.548 135.693796 
L 388.210037 135.5976 
L 387.99 135.45261 
L 387.432 135.304843 
L 386.874 135.229751 
L 386.684238 135.0432 
L 386.316 134.64569 
L 386.058261 134.4888 
L 385.758 134.235759 
L 385.2 134.250972 
L 384.926181 134.4888 
L 384.642 134.771148 
L 384.402627 135.0432 
L 384.285749 135.5976 
L 384.268952 136.152 
L 384.254811 136.7064 
L 384.22033 137.2608 
L 384.084 137.52166 
L 383.813318 137.8152 
L 383.699116 138.3696 
L 383.577723 138.924 
L 383.526 139.018044 
L 383.21106 139.4784 
L 383.11349 140.0328 
L 382.968 140.514838 
L 382.902749 140.5872 
L 382.633021 141.1416 
L 382.497414 141.696 
L 382.41 141.968105 
L 382.23509 142.2504 
L 382.115342 142.8048 
L 382.059216 143.3592 
L 382.059216 143.9136 
L 382.059216 144.468 
L 382.059216 145.0224 
L 382.059216 145.5768 
L 382.059216 146.1312 
L 382.059216 146.6856 
L 382.059216 147.24 
L 382.059216 147.7944 
L 382.059216 148.3488 
L 382.059216 148.9032 
L 382.059216 149.4576 
L 382.059216 150.012 
L 382.1459 150.5664 
L 382.41 150.898196 
L 382.524814 151.1208 
L 382.968 151.587029 
L 383.056744 151.6752 
L 383.526 152.206339 
L 383.556198 152.2296 
L 384.084 152.674162 
L 384.174208 152.784 
L 384.642 153.238925 
L 384.76104 153.3384 
L 385.2 153.728017 
L 385.501345 153.8928 
L 385.758 154.113798 
L 386.316 154.351349 
L 386.457474 154.4472 
L 386.874 154.760108 
L 387.432 154.795721 
L 387.99 154.795721 
L 388.548 154.795721 
L 389.106 154.795721 
L 389.664 154.795721 
L 390.222 154.795721 
L 390.78 154.795721 
L 391.338 154.795721 
L 391.896 154.795721 
L 392.454 154.771902 
z
" style="fill:#0000ff;"/>
   </g>
   <g id="patch_8">
    <path clip-path="url(#p0bdbbf2e64)" d="M 446.409553 162.2088 
L 446.58 162.039453 
L 446.888535 161.6544 
L 446.930784 161.1 
L 446.930784 160.5456 
L 446.930784 159.9912 
L 446.930784 159.4368 
L 446.930784 158.8824 
L 446.930784 158.328 
L 446.930784 157.7736 
L 446.916222 157.2192 
L 446.75491 156.6648 
L 446.58 156.391904 
L 446.486546 156.1104 
L 446.345952 155.556 
L 446.188999 155.0016 
L 446.022 154.795313 
L 445.898887 154.4472 
L 445.823574 153.8928 
L 445.814784 153.3384 
L 445.814784 152.784 
L 445.814784 152.2296 
L 445.814784 151.6752 
L 446.022 151.459897 
L 446.58 151.323077 
L 446.852263 151.1208 
L 447.138 151.016149 
L 447.696 150.914921 
L 448.138866 150.5664 
L 448.254 150.475794 
L 448.720805 150.012 
L 448.812 149.921394 
L 449.278805 149.4576 
L 449.37 149.366994 
L 449.836805 148.9032 
L 449.928 148.813574 
L 450.395792 148.3488 
L 450.486 148.252896 
L 450.885165 147.7944 
L 451.044 147.58264 
L 451.365023 147.24 
L 451.602 146.863374 
L 451.780928 146.6856 
L 452.095428 146.1312 
L 452.16 146.036697 
L 452.501298 145.5768 
L 452.571294 145.0224 
L 452.688348 144.468 
L 452.718 144.356232 
L 452.921909 143.9136 
L 453.03294 143.3592 
L 453.110202 142.8048 
L 453.246348 142.2504 
L 453.276 142.164783 
L 453.523339 141.696 
L 453.617298 141.1416 
L 453.626784 140.5872 
L 453.626784 140.0328 
L 453.597023 139.4784 
L 453.276 139.105956 
L 453.101715 138.924 
L 452.718 138.595232 
L 452.225865 138.3696 
L 452.16 138.30416 
L 451.602 138.053632 
L 451.044 137.878342 
L 450.91479 137.8152 
L 450.486 137.528109 
L 449.928 137.454943 
L 449.37 137.413614 
L 448.812 137.322361 
L 448.566874 137.2608 
L 448.254 137.098734 
L 447.696 136.973709 
L 447.138 136.968043 
L 446.58 137.19597 
L 446.507168 137.2608 
L 446.022 137.408537 
L 445.464 137.515363 
L 445.008389 137.8152 
L 444.906 137.866589 
L 444.348 138.015545 
L 443.79 138.134588 
L 443.391366 138.3696 
L 443.232 138.429507 
L 442.674 138.631243 
L 442.288107 138.924 
L 442.116 139.015277 
L 441.558 139.171855 
L 441.16042 139.4784 
L 441 139.569677 
L 440.442 139.726255 
L 440.109249 140.0328 
L 439.884 140.300196 
L 439.6199 140.5872 
L 439.533216 141.1416 
L 439.533216 141.696 
L 439.533216 142.2504 
L 439.533216 142.8048 
L 439.533216 143.3592 
L 439.533216 143.9136 
L 439.533216 144.468 
L 439.533216 145.0224 
L 439.533216 145.5768 
L 439.533216 146.1312 
L 439.6199 146.6856 
L 439.884 147.004864 
L 440.091383 147.24 
L 440.442 147.532757 
L 441 147.546545 
L 441.387553 147.24 
L 441.558 147.070653 
L 441.866535 146.6856 
L 441.908784 146.1312 
L 441.908784 145.5768 
L 441.908784 145.0224 
L 441.908784 144.468 
L 441.908784 143.9136 
L 441.908784 143.3592 
L 441.908784 142.8048 
L 441.908784 142.2504 
L 441.916479 141.696 
L 442.116 141.54155 
L 442.426661 141.696 
L 442.434627 142.2504 
L 442.674 142.571971 
L 442.7713 142.8048 
L 442.855325 143.3592 
L 442.90519 143.9136 
L 442.937342 144.468 
L 442.982253 145.0224 
L 443.041849 145.5768 
L 443.13638 146.1312 
L 443.232 146.520258 
L 443.250307 146.6856 
L 443.303561 147.24 
L 443.347441 147.7944 
L 443.232 148.226465 
L 443.142373 148.3488 
L 442.802869 148.9032 
L 442.674 149.159276 
L 442.419315 149.4576 
L 442.323216 150.012 
L 442.4099 150.5664 
L 442.674 150.885664 
L 442.881383 151.1208 
L 443.232 151.413557 
L 443.413408 151.6752 
L 443.417816 152.2296 
L 443.423545 152.784 
L 443.428466 153.3384 
L 443.439216 153.8928 
L 443.488216 154.4472 
L 443.61509 155.0016 
L 443.79 155.274496 
L 443.883454 155.556 
L 444.024048 156.1104 
L 444.181001 156.6648 
L 444.348 156.84566 
L 444.495384 157.2192 
L 444.555216 157.7736 
L 444.555216 158.328 
L 444.555216 158.8824 
L 444.555216 159.4368 
L 444.555216 159.9912 
L 444.555216 160.5456 
L 444.555216 161.1 
L 444.6419 161.6544 
L 444.906 161.973664 
L 445.113383 162.2088 
L 445.464 162.501557 
L 446.022 162.515345 
z
" style="fill:#0000ff;"/>
   </g>
   <g id="patch_9">
    <path clip-path="url(#p0bdbbf2e64)" d="M 560.341099 154.4472 
L 560.412 154.405745 
L 560.97 154.163988 
L 561.260438 153.8928 
L 561.528 153.725728 
L 562.086 153.40323 
L 562.151251 153.3384 
L 562.644 153.149997 
L 563.202 152.84883 
L 563.267251 152.784 
L 563.76 152.59184 
L 564.173003 152.2296 
L 564.318 152.074699 
L 564.669858 151.6752 
L 564.770669 151.1208 
L 564.876 150.836906 
L 565.079591 150.5664 
L 565.217298 150.012 
L 565.226784 149.4576 
L 565.226784 148.9032 
L 565.226784 148.3488 
L 565.226784 147.7944 
L 565.226784 147.24 
L 565.19094 146.6856 
L 564.876 146.339477 
L 564.660244 146.1312 
L 564.318 145.824655 
L 563.76 145.700769 
L 563.462999 145.5768 
L 563.202 145.361817 
L 562.644 145.202638 
L 562.086 145.043382 
L 562.055552 145.0224 
L 561.528 144.668448 
L 561.160151 144.468 
L 560.97 144.279076 
L 560.412 144.014068 
L 560.260319 143.9136 
L 559.854 143.584832 
L 559.296 143.420761 
L 559.194587 143.3592 
L 558.738 143.030432 
L 558.18 142.866361 
L 558.068482 142.8048 
L 557.622 142.326374 
L 557.577677 142.2504 
L 557.622 142.209177 
L 558.18 141.977365 
L 558.480645 141.696 
L 558.738 141.533068 
L 559.28491 141.1416 
L 559.296 141.132554 
L 559.854 140.921253 
L 560.273811 140.5872 
L 560.412 140.482161 
L 560.97 140.256865 
L 561.255419 140.0328 
L 561.528 139.912079 
L 562.086 139.640466 
L 562.256217 139.4784 
L 562.644 139.296592 
L 563.059438 138.924 
L 563.202 138.742044 
L 563.523023 138.3696 
L 563.490955 137.8152 
L 563.202 137.503657 
L 562.932867 137.2608 
L 562.644 136.998404 
L 562.086 137.022972 
L 561.78934 137.2608 
L 561.528 137.377842 
L 560.97 137.577372 
L 560.713353 137.8152 
L 560.412 137.974192 
L 559.854 138.263646 
L 559.747358 138.3696 
L 559.296 138.558906 
L 558.805342 138.924 
L 558.738 138.975389 
L 558.18 139.156538 
L 557.81307 139.4784 
L 557.622 139.618329 
L 557.064 139.811802 
L 556.807345 140.0328 
L 556.506 140.229653 
L 556.136432 140.5872 
L 555.948 140.731674 
L 555.526428 141.1416 
L 555.39 141.27426 
L 554.974378 141.696 
L 554.832 141.978777 
L 554.603724 142.2504 
L 554.481216 142.8048 
L 554.559051 143.3592 
L 554.832 143.687022 
L 555.002779 143.9136 
L 555.39 144.246293 
L 555.948 144.345682 
L 556.302709 144.468 
L 556.506 144.630066 
L 557.064 144.828161 
L 557.622 145.001418 
L 557.65064 145.0224 
L 558.18 145.384546 
L 558.738 145.555818 
L 558.765606 145.5768 
L 559.296 145.95124 
L 559.629521 146.1312 
L 559.854 146.346183 
L 560.412 146.603117 
L 560.533026 146.6856 
L 560.97 147.025863 
L 561.528 147.186152 
L 561.679001 147.24 
L 562.086 147.477828 
L 562.644 147.609794 
L 562.831762 147.7944 
L 562.851216 148.3488 
L 562.851216 148.9032 
L 562.851216 149.4576 
L 562.803238 150.012 
L 562.644 150.525529 
L 562.605119 150.5664 
L 562.086 150.814255 
L 561.68842 151.1208 
L 561.528 151.211657 
L 560.97 151.368655 
L 560.617452 151.6752 
L 560.412 151.805048 
L 559.854 152.146095 
L 559.769953 152.2296 
L 559.296 152.423743 
L 558.738 152.435479 
L 558.18 152.385423 
L 558.026994 152.2296 
L 558.18 152.036347 
L 558.488535 151.6752 
L 558.501023 151.1208 
L 558.18 150.77816 
L 557.893989 150.5664 
L 557.622 150.320656 
L 557.064 150.273643 
L 556.506 150.50157 
L 556.433168 150.5664 
L 555.948 150.714137 
L 555.39 150.833709 
L 555.066703 151.1208 
L 554.832 151.403148 
L 554.592627 151.6752 
L 554.481216 152.2296 
L 554.481216 152.784 
L 554.481216 153.3384 
L 554.5679 153.8928 
L 554.832 154.212064 
L 555.039383 154.4472 
L 555.39 154.739957 
L 555.948 154.795721 
L 556.506 154.795721 
L 557.064 154.795721 
L 557.622 154.795721 
L 558.18 154.795721 
L 558.738 154.795721 
L 559.296 154.795721 
L 559.854 154.771902 
z
" style="fill:#0000ff;"/>
   </g>
   <g id="patch_10">
    <path clip-path="url(#p0bdbbf2e64)" d="M 391.896 152.399965 
L 391.338 152.435479 
L 390.78 152.435479 
L 390.222 152.435479 
L 389.664 152.428935 
L 389.106 152.414304 
L 388.548 152.401599 
L 387.99 152.389942 
L 387.432 152.319349 
L 387.27904 152.2296 
L 386.874 151.913632 
L 386.316 151.777681 
L 386.203286 151.6752 
L 385.758 151.25134 
L 385.626612 151.1208 
L 385.2 150.69694 
L 385.065798 150.5664 
L 384.642 150.145336 
L 384.514681 150.012 
L 384.434784 149.4576 
L 384.434784 148.9032 
L 384.434784 148.3488 
L 384.434784 147.7944 
L 384.434784 147.24 
L 384.434784 146.6856 
L 384.434784 146.1312 
L 384.434784 145.5768 
L 384.434784 145.0224 
L 384.434784 144.468 
L 384.434784 143.9136 
L 384.447647 143.3592 
L 384.536669 142.8048 
L 384.642 142.465986 
L 384.796708 142.2504 
L 384.955445 141.696 
L 385.0926 141.1416 
L 385.2 140.875579 
L 385.403591 140.5872 
L 385.550784 140.0328 
L 385.67698 139.4784 
L 385.758 139.303828 
L 386.030949 138.924 
L 386.161881 138.3696 
L 386.316 138.190968 
L 386.874 138.211866 
L 387.093024 138.3696 
L 387.432 138.682508 
L 387.773621 138.924 
L 387.99 139.138983 
L 388.548 139.469197 
L 388.557994 139.4784 
L 389.106 139.928832 
L 389.288529 140.0328 
L 389.664 140.325557 
L 390.222 140.339345 
L 390.609553 140.0328 
L 390.78 139.868878 
L 391.338 139.812329 
L 391.569325 140.0328 
L 391.896 140.402536 
L 392.068595 140.5872 
L 392.454 141.065848 
L 392.508942 141.1416 
L 392.7479 141.696 
L 393.012 141.958396 
L 393.206448 142.2504 
L 393.57 142.722994 
L 393.631961 142.8048 
L 393.767441 143.3592 
L 393.777216 143.9136 
L 393.777216 144.468 
L 393.777216 145.0224 
L 393.777216 145.5768 
L 393.777216 146.1312 
L 393.777216 146.6856 
L 393.777216 147.24 
L 393.777216 147.7944 
L 393.777216 148.3488 
L 393.777216 148.9032 
L 393.777216 149.4576 
L 393.772778 150.012 
L 393.661447 150.5664 
L 393.57 150.716904 
L 393.250541 151.1208 
L 393.102985 151.6752 
L 393.012 151.779627 
L 392.454 152.014617 
L 392.211355 152.2296 
z
" style="fill:#ffffff;"/>
   </g>
   <g id="patch_11">
    <path clip-path="url(#p0bdbbf2e64)" d="M 450.486 140.053782 
L 449.928 140.187189 
L 449.37 140.187189 
L 448.812 140.187189 
L 448.254 140.187189 
L 447.696 140.187189 
L 447.138 140.187189 
L 446.58 140.187189 
L 446.022 140.187189 
L 445.464 140.1039 
L 445.31784 140.0328 
L 445.464 139.9617 
L 446.022 139.831331 
L 446.58 139.680677 
L 446.852263 139.4784 
L 447.138 139.373749 
L 447.696 139.313851 
L 448.254 139.388864 
L 448.665702 139.4784 
L 448.812 139.561905 
L 449.37 139.749588 
L 449.928 139.834566 
L 450.486 140.011818 
L 450.517686 140.0328 
z
" style="fill:#ffffff;"/>
   </g>
   <g id="patch_12">
    <path clip-path="url(#p0bdbbf2e64)" d="M 459.433529 143.3592 
L 459.972 143.278703 
L 460.53 143.218387 
L 461.088 143.191009 
L 461.646 143.162054 
L 462.204 143.123752 
L 462.762 143.067196 
L 463.32 142.982574 
L 463.878 142.81351 
L 463.897529 142.8048 
L 464.436 142.724303 
L 464.994 142.663987 
L 465.552 142.636609 
L 466.11 142.599988 
L 466.668 142.521588 
L 467.226 142.333905 
L 467.386263 142.2504 
L 467.784 142.169903 
L 468.342 142.09205 
L 468.683621 142.2504 
L 468.9 142.48918 
L 469.138822 142.8048 
L 469.458 143.097557 
L 470.016 143.138853 
L 470.404432 142.8048 
L 470.574 142.659052 
L 470.936596 142.2504 
L 471.132 141.76083 
L 471.197251 141.696 
L 471.45881 141.1416 
L 471.453023 140.5872 
L 471.132 140.225333 
L 470.883642 140.0328 
L 470.574 139.770404 
L 470.016 139.684279 
L 469.458 139.684279 
L 468.9 139.684279 
L 468.342 139.745709 
L 467.784 139.870734 
L 467.471126 140.0328 
L 467.226 140.094361 
L 466.668 140.175399 
L 466.11 140.221203 
L 465.552 140.268248 
L 464.994 140.334159 
L 464.436 140.425134 
L 463.930583 140.5872 
L 463.878 140.596246 
L 463.32 140.676736 
L 462.762 140.734914 
L 462.204 140.75764 
L 461.646 140.787545 
L 461.088 140.828692 
L 460.53 140.888559 
L 459.972 140.979534 
L 459.466583 141.1416 
L 459.414 141.150646 
L 458.856 141.231136 
L 458.298 141.289314 
L 457.74 141.31204 
L 457.182 141.341945 
L 456.624 141.469197 
L 456.378633 141.696 
L 456.066 142.006616 
L 455.837724 142.2504 
L 455.818661 142.8048 
L 456.066 143.084899 
L 456.295151 143.3592 
L 456.624 143.651957 
L 457.182 143.707721 
L 457.74 143.678152 
L 458.298 143.621596 
L 458.856 143.536974 
L 459.414 143.36791 
z
" style="fill:#0000ff;"/>
   </g>
   <g id="patch_13">
    <path clip-path="url(#p0bdbbf2e64)" d="M 446.022 149.057344 
L 445.837021 148.9032 
L 445.849635 148.3488 
L 445.848808 147.7944 
L 445.819118 147.24 
L 445.814784 146.6856 
L 445.814784 146.1312 
L 445.814784 145.5768 
L 445.814784 145.0224 
L 445.814784 144.468 
L 445.814784 143.9136 
L 445.77894 143.3592 
L 445.785023 142.8048 
L 445.785023 142.2504 
L 445.464 141.888533 
L 445.275568 141.696 
L 445.464 141.57534 
L 446.022 141.541611 
L 446.58 141.541611 
L 447.138 141.541611 
L 447.696 141.541611 
L 448.254 141.541611 
L 448.812 141.541611 
L 449.37 141.541611 
L 449.928 141.541611 
L 450.486 141.541611 
L 451.044 141.5832 
L 451.157533 141.696 
L 451.044 141.908924 
L 450.756691 142.2504 
L 450.671816 142.8048 
L 450.567572 143.3592 
L 450.486 143.524718 
L 450.206855 143.9136 
L 450.112952 144.468 
L 449.928 144.999027 
L 449.904475 145.0224 
L 449.571749 145.5768 
L 449.37 146.030393 
L 449.268538 146.1312 
L 448.953378 146.6856 
L 448.812 146.849714 
L 448.427575 147.24 
L 448.254 147.40262 
L 447.859676 147.7944 
L 447.696 147.944613 
L 447.268818 148.3488 
L 447.138 148.471407 
L 446.58 148.645407 
L 446.312086 148.9032 
z
" style="fill:#ffffff;"/>
   </g>
   <g id="patch_14">
    <path clip-path="url(#p0bdbbf2e64)" d="M 471.197251 148.3488 
L 471.69 148.154657 
L 472.101306 147.7944 
L 472.248 147.625926 
L 472.584222 147.24 
L 472.536955 146.6856 
L 472.248 146.374057 
L 471.93033 146.1312 
L 471.69 145.916217 
L 471.132 145.893372 
L 470.649389 146.1312 
L 470.574 146.155223 
L 470.016 146.171989 
L 469.716295 146.1312 
L 469.458 146.047695 
L 468.9 145.942276 
L 468.342 145.860012 
L 467.784 145.784957 
L 467.226 145.746509 
L 466.668 145.735086 
L 466.11 145.724514 
L 465.552 145.617329 
L 465.402902 145.5768 
L 464.994 145.377688 
L 464.436 145.265377 
L 463.878 145.215594 
L 463.32 145.190591 
L 462.762 145.157795 
L 462.204 145.063189 
L 462.045129 145.0224 
L 461.646 144.833476 
L 461.088 144.729643 
L 460.53 144.673879 
L 459.972 144.673879 
L 459.414 144.673879 
L 458.856 144.795597 
L 458.593559 145.0224 
L 458.298 145.316052 
L 458.069724 145.5768 
L 458.0339 146.1312 
L 458.298 146.450464 
L 458.505383 146.6856 
L 458.856 146.978357 
L 459.414 147.034121 
L 459.972 147.034121 
L 460.53 147.038531 
L 461.088 147.076878 
L 461.646 147.143804 
L 462.094752 147.24 
L 462.204 147.30483 
L 462.762 147.493041 
L 463.32 147.583914 
L 463.878 147.629851 
L 464.436 147.67374 
L 464.994 147.773418 
L 465.085894 147.7944 
L 465.552 147.983324 
L 466.11 148.073673 
L 466.668 148.142921 
L 467.226 148.225954 
L 467.580709 148.3488 
L 467.784 148.510866 
L 468.342 148.682853 
L 468.9 148.697321 
L 469.458 148.697321 
L 470.016 148.697321 
L 470.574 148.682853 
L 471.132 148.41363 
z
" style="fill:#0000ff;"/>
   </g>
   <g id="patch_15">
    <path clip-path="url(#p0bdbbf2e64)" d="M 411.426 150.101986 
L 410.868 150.187281 
L 410.712609 150.012 
L 410.712609 149.4576 
L 410.712609 148.9032 
L 410.712609 148.3488 
L 410.712609 147.7944 
L 410.712609 147.24 
L 410.712609 146.6856 
L 410.712609 146.1312 
L 410.78698 145.5768 
L 410.868 145.488134 
L 410.983134 145.5768 
L 411.075216 146.1312 
L 411.075216 146.6856 
L 411.131342 147.24 
L 411.426 147.670021 
L 411.487961 147.7944 
L 411.653097 148.3488 
L 411.984 148.802442 
L 412.045961 148.9032 
L 412.183521 149.4576 
L 411.984 149.685838 
L 411.570424 150.012 
z
" style="fill:#ffffff;"/>
   </g>
   <g id="patch_16">
    <path clip-path="url(#p0bdbbf2e64)" d="M 422.028 146.447772 
L 421.47 146.489039 
L 421.175114 146.1312 
L 421.47 145.92624 
L 421.845515 145.5768 
L 422.028 145.429903 
L 422.20396 145.5768 
L 422.235216 146.1312 
z
" style="fill:#ffffff;"/>
   </g>
   <g id="patch_17">
    <path clip-path="url(#p0bdbbf2e64)" d="M 515.214 148.484195 
L 514.656 148.539109 
L 514.098 148.615513 
L 513.924754 148.3488 
L 514.098 148.004544 
L 514.301591 147.7944 
L 514.534162 147.24 
L 514.656 147.046747 
L 514.964535 146.6856 
L 515.172946 146.1312 
L 515.214 146.0848 
L 515.680805 145.5768 
L 515.772 145.488134 
L 516.33 145.370921 
L 516.888 145.386491 
L 517.446 145.555818 
L 517.475952 145.5768 
L 518.004 145.940633 
L 518.298886 146.1312 
L 518.562 146.384241 
L 519.12 146.652484 
L 519.159097 146.6856 
L 519.678 147.091689 
L 519.864997 147.24 
L 519.678 147.377274 
L 519.12 147.465632 
L 518.562 147.579417 
L 518.140823 147.7944 
L 518.004 147.835189 
L 517.446 147.947214 
L 516.888 148.000279 
L 516.33 148.095759 
L 515.772 148.34009 
L 515.761561 148.3488 
z
" style="fill:#ffffff;"/>
   </g>
   <g id="patch_18">
    <path clip-path="url(#p0bdbbf2e64)" d="M 409.194 150.147395 
L 408.636 150.044407 
L 408.513935 150.012 
L 408.078 149.809723 
L 407.870784 149.4576 
L 407.882596 148.9032 
L 407.964467 148.3488 
L 408.078 148.007454 
L 408.241118 147.7944 
L 408.544805 147.24 
L 408.636 147.149394 
L 409.147299 146.6856 
L 409.194 146.643933 
L 409.235054 146.6856 
L 409.349391 147.24 
L 409.349391 147.7944 
L 409.349391 148.3488 
L 409.349391 148.9032 
L 409.349391 149.4576 
L 409.330274 150.012 
z
" style="fill:#ffffff;"/>
   </g>
   <g id="patch_19">
    <path clip-path="url(#p0bdbbf2e64)" d="M 420.912 146.938868 
L 420.471754 146.6856 
L 420.912 146.392616 
L 421.272162 146.6856 
z
" style="fill:#ffffff;"/>
   </g>
   <g id="patch_20">
    <path clip-path="url(#p0bdbbf2e64)" d="M 546.021881 169.416 
L 546.462 169.262876 
L 547.02 169.132788 
L 547.402294 168.8616 
L 547.578 168.781103 
L 548.136 168.652229 
L 548.632062 168.3072 
L 548.694 168.266411 
L 549.252 168.052637 
L 549.59817 167.7528 
L 549.81 167.625335 
L 550.368 167.376174 
L 550.554391 167.1984 
L 550.926 167.017566 
L 551.342283 166.644 
L 551.484 166.499939 
L 551.848592 166.0896 
L 552.042 165.60064 
L 552.107865 165.5352 
L 552.411273 164.9808 
L 552.6 164.49184 
L 552.665865 164.4264 
L 552.953027 163.872 
L 553.07698 163.3176 
L 553.158 163.110112 
L 553.394538 162.7632 
L 553.54096 162.2088 
L 553.716 161.774023 
L 553.817462 161.6544 
L 554.052222 161.1 
L 554.066784 160.5456 
L 554.066784 159.9912 
L 554.066784 159.4368 
L 554.004955 158.8824 
L 553.716 158.539376 
L 553.584612 158.328 
L 553.158 157.90414 
L 553.026612 157.7736 
L 552.6 157.34974 
L 552.464345 157.2192 
L 552.042 156.799579 
L 551.906345 156.6648 
L 551.484 156.254072 
L 551.218871 156.1104 
L 550.926 155.864656 
L 550.368 155.761879 
L 549.81 155.761879 
L 549.252 155.761879 
L 548.694 155.761879 
L 548.136 155.761879 
L 547.578 155.761879 
L 547.370784 155.556 
L 547.370784 155.0016 
L 547.370784 154.4472 
L 547.370784 153.8928 
L 547.370784 153.3384 
L 547.370784 152.784 
L 547.370784 152.2296 
L 547.370784 151.6752 
L 547.370784 151.1208 
L 547.308955 150.5664 
L 547.02 150.234641 
L 546.754871 150.012 
L 546.462 149.766256 
L 545.904 149.663479 
L 545.346 149.663479 
L 544.788 149.663479 
L 544.23 149.663479 
L 543.672 149.663479 
L 543.114 149.663479 
L 542.556 149.663479 
L 541.998 149.758959 
L 541.708667 150.012 
L 541.44 150.294348 
L 541.200627 150.5664 
L 541.068776 151.1208 
L 541.033871 151.6752 
L 540.882 152.204828 
L 540.858475 152.2296 
L 540.662422 152.784 
L 540.568706 153.3384 
L 540.509816 153.8928 
L 540.424091 154.4472 
L 540.324 154.960097 
L 540.300475 155.0016 
L 540.160882 155.556 
L 540.035045 156.1104 
L 540.084627 156.6648 
L 540.324 156.936852 
L 540.558703 157.2192 
L 540.882 157.506291 
L 541.44 157.519037 
L 541.809085 157.2192 
L 541.998 157.047225 
L 542.317603 156.6648 
L 542.392493 156.1104 
L 542.465882 155.556 
L 542.556 155.08545 
L 542.601568 155.0016 
L 542.784276 154.4472 
L 542.875603 153.8928 
L 542.930837 153.3384 
L 543.026932 152.784 
L 543.114 152.362066 
L 543.185879 152.2296 
L 543.672 152.023721 
L 544.23 152.023721 
L 544.788 152.023721 
L 544.995216 152.2296 
L 544.995216 152.784 
L 544.995216 153.3384 
L 544.995216 153.8928 
L 544.995216 154.4472 
L 544.995216 155.0016 
L 544.969408 155.556 
L 544.788 155.796026 
L 544.438222 156.1104 
L 544.23 156.404052 
L 544.001724 156.6648 
L 543.957051 157.2192 
L 544.23 157.547022 
L 544.413138 157.7736 
L 544.788 158.092552 
L 545.346 158.122121 
L 545.904 158.122121 
L 546.462 158.122121 
L 547.02 158.122121 
L 547.578 158.122121 
L 548.136 158.122121 
L 548.694 158.122121 
L 549.252 158.122121 
L 549.81 158.122121 
L 550.368 158.241193 
L 550.456789 158.328 
L 550.926 158.794184 
L 551.016208 158.8824 
L 551.484 159.347174 
L 551.57137 159.4368 
L 551.664585 159.9912 
L 551.654811 160.5456 
L 551.605825 161.1 
L 551.484 161.31005 
L 551.18205 161.6544 
L 551.073097 162.2088 
L 550.926 162.614089 
L 550.803537 162.7632 
L 550.617465 163.3176 
L 550.459447 163.872 
L 550.368 164.020129 
L 550.045573 164.4264 
L 549.891815 164.9808 
L 549.81 165.070426 
L 549.252 165.279878 
L 548.899851 165.5352 
L 548.694 165.647863 
L 548.189096 166.0896 
L 548.136 166.130389 
L 547.578 166.322138 
L 547.140483 166.644 
L 547.02 166.7151 
L 546.462 166.830447 
L 545.904 167.04469 
L 545.734885 167.1984 
L 545.346 167.342354 
L 545.154842 167.1984 
L 545.138784 166.644 
L 545.138784 166.0896 
L 545.056592 165.5352 
L 544.788 165.223146 
L 544.522871 164.9808 
L 544.23 164.735056 
L 543.672 164.753997 
L 543.409559 164.9808 
L 543.114 165.233915 
L 542.845408 165.5352 
L 542.763216 166.0896 
L 542.763216 166.644 
L 542.763216 167.1984 
L 542.763216 167.7528 
L 542.763216 168.3072 
L 542.8499 168.8616 
L 543.114 169.180864 
L 543.321383 169.416 
L 543.672 169.708757 
L 544.23 169.764521 
L 544.788 169.764521 
L 545.346 169.750053 
L 545.904 169.521954 
z
" style="fill:#0000ff;"/>
   </g>
   <g id="patch_21">
    <path clip-path="url(#p0bdbbf2e64)" d="M 378.504 151.182361 
L 378.40338 151.1208 
L 378.504 150.975833 
L 378.567899 151.1208 
z
" style="fill:#ffffff;"/>
   </g>
   <g id="patch_22">
    <path clip-path="url(#p0bdbbf2e64)" d="M 573.634432 158.8824 
L 573.804 158.689147 
L 574.112535 158.328 
L 574.125023 157.7736 
L 573.804 157.43096 
L 573.639434 157.2192 
L 573.804 156.942405 
L 574.067114 156.6648 
L 574.362 156.45984 
L 574.737515 156.1104 
L 574.92 155.963503 
L 575.36587 155.556 
L 575.478 155.386653 
L 575.786535 155.0016 
L 575.744471 154.4472 
L 575.478 154.148011 
L 575.193819 153.8928 
L 574.92 153.654972 
L 574.362 153.690523 
L 574.125287 153.8928 
L 573.804 154.054163 
L 573.246 154.335714 
L 573.13379 154.4472 
L 572.688 154.918095 
L 572.603953 155.0016 
L 572.13 155.295998 
L 571.859855 155.556 
L 571.572 155.752926 
L 571.204018 156.1104 
L 571.014 156.446153 
L 570.810409 156.6648 
L 570.663216 157.2192 
L 570.7499 157.7736 
L 571.014 158.092864 
L 571.1791 158.328 
L 571.572 158.667097 
L 572.13 158.861418 
L 572.17248 158.8824 
L 572.688 159.188945 
L 573.246 159.216453 
z
" style="fill:#0000ff;"/>
   </g>
   <g id="patch_23">
    <path clip-path="url(#p0bdbbf2e64)" d="M 535.367251 168.8616 
L 535.86 168.678692 
L 536.418 168.509477 
L 536.690263 168.3072 
L 536.976 168.202549 
L 537.534 168.10355 
L 537.978435 167.7528 
L 538.092 167.665074 
L 538.561704 167.1984 
L 538.65 167.113376 
L 539.173066 166.644 
L 539.208 166.611325 
L 539.766 166.419777 
L 540.140631 166.0896 
L 540.324 165.945928 
L 540.882 165.692931 
L 541.047745 165.5352 
L 541.44 165.355328 
L 541.857118 164.9808 
L 541.998 164.804011 
L 542.32481 164.4264 
L 542.348784 163.872 
L 542.348784 163.3176 
L 542.348784 162.7632 
L 542.348784 162.2088 
L 542.348784 161.6544 
L 542.348784 161.1 
L 542.348784 160.5456 
L 542.348784 159.9912 
L 542.299784 159.4368 
L 541.998 159.092863 
L 541.792548 158.8824 
L 541.44 158.575855 
L 540.882 158.475737 
L 540.396832 158.328 
L 540.324 158.26317 
L 539.766 158.035243 
L 539.208 157.979479 
L 538.65 157.979479 
L 538.092 157.979479 
L 537.534 157.979479 
L 537.248949 157.7736 
L 537.492276 157.2192 
L 537.534 157.140122 
L 537.842535 156.6648 
L 537.855023 156.1104 
L 537.534 155.758526 
L 537.342023 155.556 
L 536.976 155.224558 
L 536.418 155.063161 
L 536.316587 155.0016 
L 535.86 154.672832 
L 535.302 154.508761 
L 535.17279 154.4472 
L 534.744 154.160109 
L 534.186 154.098679 
L 533.628 154.098679 
L 533.07 154.098679 
L 532.512 154.176012 
L 532.145175 154.4472 
L 531.954 154.538477 
L 531.396 154.695055 
L 530.99842 155.0016 
L 530.838 155.092877 
L 530.28 155.249455 
L 529.927452 155.556 
L 529.722 155.70121 
L 529.301139 156.1104 
L 529.164 156.246654 
L 528.743139 156.6648 
L 528.606 156.79746 
L 528.190378 157.2192 
L 528.048 157.490655 
L 527.808627 157.7736 
L 527.753342 158.328 
L 528.048 158.812719 
L 528.080617 158.8824 
L 528.237627 159.4368 
L 528.442882 159.9912 
L 528.606 160.168015 
L 528.757982 160.5456 
L 528.891051 161.1 
L 529.164 161.440204 
L 529.270833 161.6544 
L 529.400977 162.2088 
L 529.722 162.55144 
L 529.966434 162.7632 
L 530.28 163.050291 
L 530.838 163.063037 
L 531.19526 162.7632 
L 531.396 162.563756 
L 531.697784 162.2088 
L 531.697784 161.6544 
L 531.496933 161.1 
L 531.396 160.994631 
L 531.227664 160.5456 
L 531.041591 159.9912 
L 530.838 159.756014 
L 530.703608 159.4368 
L 530.568955 158.8824 
L 530.288766 158.328 
L 530.770539 157.7736 
L 530.838 157.707277 
L 531.396 157.448697 
L 531.626987 157.2192 
L 531.954 157.045537 
L 532.512 156.72963 
L 532.577251 156.6648 
L 533.07 156.484479 
L 533.628 156.458921 
L 534.186 156.476397 
L 534.744 156.643818 
L 534.771217 156.6648 
L 534.870481 157.2192 
L 534.744 157.42812 
L 534.440576 157.7736 
L 534.186 157.968798 
L 533.628 158.101197 
L 533.365559 158.328 
L 533.07 158.621652 
L 532.841724 158.8824 
L 532.8059 159.4368 
L 533.07 159.756064 
L 533.277383 159.9912 
L 533.628 160.283957 
L 534.186 160.339721 
L 534.744 160.339721 
L 535.302 160.339721 
L 535.86 160.339721 
L 536.418 160.339721 
L 536.976 160.339721 
L 537.534 160.339721 
L 538.092 160.339721 
L 538.65 160.339721 
L 539.208 160.359065 
L 539.766 160.469137 
L 539.845731 160.5456 
L 539.966629 161.1 
L 539.973216 161.6544 
L 539.973216 162.2088 
L 539.973216 162.7632 
L 539.973216 163.3176 
L 539.766 163.609604 
L 539.395713 163.872 
L 539.208 163.976032 
L 538.69208 164.4264 
L 538.65 164.458807 
L 538.092 164.667892 
L 537.743629 164.9808 
L 537.534 165.157734 
L 537.029084 165.5352 
L 536.976 165.58262 
L 536.462203 166.0896 
L 536.418 166.122007 
L 535.86 166.249237 
L 535.302 166.251425 
L 535.015989 166.0896 
L 534.744 165.843856 
L 534.186 165.796843 
L 533.628 166.02477 
L 533.555168 166.0896 
L 533.07 166.236034 
L 532.512 166.356909 
L 532.188703 166.644 
L 531.954 166.926348 
L 531.714627 167.1984 
L 531.603216 167.7528 
L 531.6899 168.3072 
L 531.954 168.626464 
L 532.161383 168.8616 
L 532.512 169.154357 
L 533.07 169.210121 
L 533.628 169.210121 
L 534.186 169.210121 
L 534.744 169.195653 
L 535.302 168.92643 
z
" style="fill:#0000ff;"/>
   </g>
  </g>
 </g>
 <defs>
  <clipPath id="p0bdbbf2e64">
   <rect height="567.7056" width="762.228" x="122.94" y="88.4736"/>
  </clipPath>
 </defs>
</svg>
