<?xml version="1.0" encoding="utf-8" standalone="no"?>
<!DOCTYPE svg PUBLIC "-//W3C//DTD SVG 1.1//EN"
  "http://www.w3.org/Graphics/SVG/1.1/DTD/svg11.dtd">
<!-- Created with matplotlib (https://matplotlib.org/) -->
<svg height="737.28pt" version="1.1" viewBox="0 0 983.52 737.28" width="983.52pt" xmlns="http://www.w3.org/2000/svg" xmlns:xlink="http://www.w3.org/1999/xlink">
 <defs>
  <style type="text/css">
*{stroke-linecap:butt;stroke-linejoin:round;}
  </style>
 </defs>
 <g id="figure_1">
  <g id="patch_1">
   <path d="M 0 737.28 
L 983.52 737.28 
L 983.52 0 
L 0 0 
z
" style="fill:none;"/>
  </g>
  <g id="axes_1">
   <g id="patch_2">
    <path clip-path="url(#p8a411162d9)" d="M 726.525553 178.2864 
L 726.696 178.117053 
L 727.004535 177.732 
L 727.046784 177.1776 
L 727.046784 176.6232 
L 727.046784 176.0688 
L 727.046784 175.5144 
L 727.046784 174.96 
L 727.046784 174.4056 
L 726.984955 173.8512 
L 726.696 173.519441 
L 726.536242 173.2968 
L 726.138 172.772159 
L 726.116882 172.7424 
L 725.960795 172.188 
L 725.943552 171.6336 
L 725.935222 171.0792 
L 725.938378 170.5248 
L 726.138 170.323331 
L 726.696 170.241588 
L 727.254 170.053905 
L 727.400298 169.9704 
L 727.812 169.880864 
L 728.37 169.805851 
L 728.543949 169.9704 
L 728.552239 170.5248 
L 728.569622 171.0792 
L 728.633342 171.6336 
L 728.928 172.063621 
L 728.989961 172.188 
L 729.131922 172.7424 
L 729.486 173.21978 
L 729.540446 173.2968 
L 729.653712 173.8512 
L 729.669163 174.4056 
L 729.685622 174.96 
L 729.749342 175.5144 
L 730.044 175.944421 
L 730.105961 176.0688 
L 730.27519 176.6232 
L 730.602 177.000811 
L 730.785138 177.1776 
L 731.16 177.496552 
L 731.718 177.496552 
L 732.116135 177.1776 
L 732.276 177.031209 
L 732.612222 176.6232 
L 732.626784 176.0688 
L 732.626784 175.5144 
L 732.626784 174.96 
L 732.626784 174.4056 
L 732.626784 173.8512 
L 732.626784 173.2968 
L 732.626784 172.7424 
L 732.564955 172.188 
L 732.276 171.856241 
L 732.010871 171.6336 
L 731.718 171.387856 
L 731.16 171.346509 
L 730.969465 171.0792 
L 730.952784 170.5248 
L 730.952784 169.9704 
L 730.94079 169.416 
L 731.16 169.21235 
L 731.718 169.063877 
L 731.990263 168.8616 
L 732.276 168.756949 
L 732.834 168.66944 
L 733.392 168.655721 
L 733.95 168.738869 
L 734.046821 168.8616 
L 734.127998 169.416 
L 734.226914 169.9704 
L 734.508 170.274216 
L 734.69705 170.5248 
L 735.066 170.868714 
L 735.517358 171.0792 
L 735.624 171.185154 
L 736.182 171.480466 
L 736.451133 171.6336 
L 736.74 171.895996 
L 737.298 172.105907 
L 737.395062 172.188 
L 737.856 172.609064 
L 737.990202 172.7424 
L 738.414 173.17268 
L 738.57172 173.2968 
L 738.972 173.632075 
L 739.53 173.755004 
L 739.740406 173.8512 
L 740.088 174.113596 
L 740.646 174.24444 
L 741.115524 174.4056 
L 741.204 174.489105 
L 741.762 174.734368 
L 742.32 174.754121 
L 742.878 174.754121 
L 743.436 174.754121 
L 743.994 174.754121 
L 744.552 174.730302 
L 745.039099 174.4056 
L 745.11 174.364145 
L 745.668 174.122388 
L 746.050294 173.8512 
L 746.226 173.769107 
L 746.316208 173.8512 
L 746.784 174.315974 
L 746.872296 174.4056 
L 747.0779 174.96 
L 747.342 175.279264 
L 747.549383 175.5144 
L 747.9 175.807157 
L 748.458 175.820945 
L 748.845553 175.5144 
L 749.016 175.345053 
L 749.324535 174.96 
L 749.366784 174.4056 
L 749.366784 173.8512 
L 749.366784 173.2968 
L 749.366784 172.7424 
L 749.366784 172.188 
L 749.366784 171.6336 
L 749.366784 171.0792 
L 749.366784 170.5248 
L 749.366784 169.9704 
L 749.366784 169.416 
L 749.366784 168.8616 
L 749.366784 168.3072 
L 749.366784 167.7528 
L 749.366784 167.1984 
L 749.366784 166.644 
L 749.366784 166.0896 
L 749.366784 165.5352 
L 749.417165 164.9808 
L 749.574 164.858617 
L 749.694665 164.9808 
L 750.03638 165.5352 
L 750.132 165.640487 
L 750.27749 166.0896 
L 750.378221 166.644 
L 750.69 167.03181 
L 750.797932 167.1984 
L 751.248 167.66271 
L 751.337242 167.7528 
L 751.455216 168.3072 
L 751.5419 168.8616 
L 751.806 169.193396 
L 751.922602 169.416 
L 752.364 169.880774 
L 752.454208 169.9704 
L 752.922 170.425325 
L 753.042485 170.5248 
L 753.48 170.889702 
L 753.813521 171.0792 
L 754.038 171.294183 
L 754.596 171.549846 
L 754.728478 171.6336 
L 755.154 171.958302 
L 755.712 172.033149 
L 756.27 172.147211 
L 756.397844 172.188 
L 756.828 172.414803 
L 757.386 172.522053 
L 757.944 172.522053 
L 758.502 172.293954 
L 758.619881 172.188 
L 759.06 172.036933 
L 759.618 171.904788 
L 760.000294 171.6336 
L 760.176 171.553103 
L 760.291134 171.6336 
L 760.439342 172.188 
L 760.734 172.618021 
L 760.795961 172.7424 
L 760.922637 173.2968 
L 761.0279 173.8512 
L 761.292 174.170464 
L 761.499383 174.4056 
L 761.85 174.698357 
L 762.408 174.712145 
L 762.795553 174.4056 
L 762.966 174.236253 
L 763.274535 173.8512 
L 763.316784 173.2968 
L 763.316784 172.7424 
L 763.316784 172.188 
L 763.316784 171.6336 
L 763.316784 171.0792 
L 763.316784 170.5248 
L 763.316784 169.9704 
L 763.317858 169.416 
L 763.3285 168.8616 
L 763.338097 168.3072 
L 763.348438 167.7528 
L 763.356216 167.1984 
L 763.365386 166.644 
L 763.457074 166.0896 
L 763.524 165.955332 
L 763.816903 165.5352 
L 763.903121 164.9808 
L 763.976669 164.4264 
L 764.082 164.142506 
L 764.285591 163.872 
L 764.465949 163.3176 
L 764.64 162.998187 
L 764.839367 163.3176 
L 764.846034 163.872 
L 764.819768 164.4264 
L 764.817998 164.9808 
L 764.844866 165.5352 
L 764.847216 166.0896 
L 764.847216 166.644 
L 764.847216 167.1984 
L 764.847216 167.7528 
L 764.847216 168.3072 
L 764.847216 168.8616 
L 764.847216 169.416 
L 764.847216 169.9704 
L 764.847216 170.5248 
L 764.847216 171.0792 
L 764.847216 171.6336 
L 764.847216 172.188 
L 764.9339 172.7424 
L 765.198 173.061664 
L 765.405383 173.2968 
L 765.756 173.589557 
L 766.314 173.603345 
L 766.71158 173.2968 
L 766.872 173.19626 
L 767.338805 172.7424 
L 767.43 172.651794 
L 767.896805 172.188 
L 767.988 172.089264 
L 768.377033 171.6336 
L 768.546 171.367764 
L 768.818949 171.0792 
L 769.062063 170.5248 
L 769.104 170.442354 
L 769.405784 169.9704 
L 769.385086 169.416 
L 769.104 169.112184 
L 768.78633 168.8616 
L 768.546 168.646617 
L 767.988 168.646617 
L 767.763521 168.8616 
L 767.43 169.077761 
L 767.230633 168.8616 
L 767.222784 168.3072 
L 767.222784 167.7528 
L 767.222784 167.1984 
L 767.222784 166.644 
L 767.222784 166.0896 
L 767.267125 165.5352 
L 767.43 165.394984 
L 767.988 165.287345 
L 768.50352 164.9808 
L 768.546 164.959818 
L 769.104 164.807214 
L 769.662 164.672144 
L 769.993512 164.4264 
L 770.22 164.330204 
L 770.778 164.224931 
L 771.336 164.01699 
L 771.543216 164.4264 
L 771.543216 164.9808 
L 771.543216 165.5352 
L 771.543216 166.0896 
L 771.543216 166.644 
L 771.543216 167.1984 
L 771.543216 167.7528 
L 771.543216 168.3072 
L 771.543216 168.8616 
L 771.543216 169.416 
L 771.543216 169.9704 
L 771.543216 170.5248 
L 771.543216 171.0792 
L 771.543216 171.6336 
L 771.543216 172.188 
L 771.599342 172.7424 
L 771.894 173.090754 
L 772.049907 173.2968 
L 772.452 173.646388 
L 773.01 173.830218 
L 773.047524 173.8512 
L 773.568 174.175902 
L 774.126 174.199721 
L 774.684 174.199721 
L 775.242 174.199721 
L 775.8 174.175902 
L 776.300993 173.8512 
L 776.358 173.818793 
L 776.916 173.609708 
L 777.285348 173.2968 
L 777.474 173.154308 
L 778.032 172.912103 
L 778.215875 172.7424 
L 778.59 172.571585 
L 779.148 172.25283 
L 779.229011 172.188 
L 779.706 172.046761 
L 779.940703 172.188 
L 780.264 172.475091 
L 780.822 172.475091 
L 781.155913 172.188 
L 781.38 171.983873 
L 781.688535 171.6336 
L 781.70828 171.0792 
L 781.938 170.898879 
L 782.496 170.831345 
L 782.883553 170.5248 
L 783.054 170.317765 
L 783.390024 169.9704 
L 783.612 169.747796 
L 783.729805 169.9704 
L 784.17 170.42426 
L 784.342107 170.5248 
L 784.728 170.817557 
L 785.286 170.873321 
L 785.844 170.873321 
L 786.402 170.873321 
L 786.96 170.873321 
L 787.518 170.873321 
L 788.076 170.873321 
L 788.634 170.849502 
L 789.121099 170.5248 
L 789.192 170.483345 
L 789.75 170.241588 
L 790.040438 169.9704 
L 790.308 169.805072 
L 790.802897 169.416 
L 790.866 169.364611 
L 790.945679 169.416 
L 791.424 169.756263 
L 791.982 169.949418 
L 792.026436 169.9704 
L 792.54 170.270237 
L 793.098 170.276945 
L 793.656 170.03523 
L 793.721251 169.9704 
L 794.214 169.77824 
L 794.706835 169.416 
L 794.772 169.361743 
L 794.823948 169.416 
L 795.139849 169.9704 
L 795.33 170.191666 
L 795.530831 170.5248 
L 795.888 170.889362 
L 796.067803 171.0792 
L 796.446 171.413253 
L 797.004 171.528949 
L 797.289737 171.6336 
L 797.562 171.835877 
L 798.12 171.972697 
L 798.678 171.950998 
L 799.236 172.164873 
L 799.267686 172.188 
L 799.794 172.616178 
L 799.960058 172.7424 
L 800.352 173.042237 
L 800.91 173.131633 
L 801.468 173.192149 
L 801.925509 173.2968 
L 802.026 173.36163 
L 802.584 173.549841 
L 803.142 173.630853 
L 803.7 173.645321 
L 804.258 173.645321 
L 804.816 173.645321 
L 805.374 173.645321 
L 805.932 173.645321 
L 806.49 173.645321 
L 807.048 173.645321 
L 807.606 173.645321 
L 808.164 173.645321 
L 808.722 173.645321 
L 809.28 173.645321 
L 809.838 173.645321 
L 810.396 173.645321 
L 810.954 173.645321 
L 811.512 173.645321 
L 812.07 173.630853 
L 812.628 173.36163 
L 812.693251 173.2968 
L 813.186 173.106491 
L 813.744 172.80723 
L 813.809251 172.7424 
L 814.302 172.503968 
L 814.86 172.25344 
L 814.925865 172.188 
L 815.418 171.99584 
L 815.831003 171.6336 
L 815.976 171.478699 
L 816.327858 171.0792 
L 816.428669 170.5248 
L 816.534 170.240906 
L 816.737591 169.9704 
L 816.875298 169.416 
L 816.884784 168.8616 
L 816.884784 168.3072 
L 816.884784 167.7528 
L 816.842535 167.1984 
L 816.534 166.867795 
L 816.342668 166.644 
L 815.976 166.29456 
L 815.588217 166.0896 
L 815.418 165.927534 
L 814.86 165.643292 
L 814.695457 165.5352 
L 814.302 165.233571 
L 813.744 165.068336 
L 813.636048 164.9808 
L 813.186 164.61763 
L 812.838102 164.4264 
L 812.628 164.217653 
L 812.07 164.004317 
L 811.836549 163.872 
L 811.512 163.609604 
L 811.054933 163.3176 
L 810.954 163.217318 
L 810.396 162.86366 
L 810.254216 162.7632 
L 809.838 162.470443 
L 809.462507 162.2088 
L 809.28 162.027471 
L 808.722 161.684958 
L 808.678423 161.6544 
L 808.164 161.293662 
L 807.890674 161.1 
L 807.606 160.859656 
L 807.113865 160.5456 
L 807.048 160.48016 
L 806.49 160.11496 
L 806.313682 159.9912 
L 805.932 159.711734 
L 805.537118 159.4368 
L 805.374 159.253634 
L 804.96651 158.8824 
L 805.374 158.738337 
L 805.932 158.695953 
L 806.49 158.654029 
L 807.048 158.601203 
L 807.606 158.516583 
L 808.164 158.373274 
L 808.276616 158.328 
L 808.722 158.26174 
L 809.28 158.196063 
L 809.838 158.162763 
L 810.396 158.099629 
L 810.800052 157.7736 
L 810.954 157.598456 
L 811.255784 157.2192 
L 811.248658 156.6648 
L 810.954 156.327606 
L 810.680782 156.1104 
L 810.396 155.872572 
L 809.838 155.803855 
L 809.28 155.857359 
L 808.722 155.98404 
L 808.393186 156.1104 
L 808.164 156.151189 
L 807.606 156.23106 
L 807.048 156.272784 
L 806.49 156.30256 
L 805.932 156.345848 
L 805.374 156.411759 
L 804.816 156.53844 
L 804.487186 156.6648 
L 804.258 156.705589 
L 803.7 156.78546 
L 803.142 156.827184 
L 802.584 156.85696 
L 802.026 156.966159 
L 801.75388 157.2192 
L 801.468 157.529816 
L 801.239724 157.7736 
L 801.117216 158.328 
L 801.117216 158.8824 
L 801.117216 159.4368 
L 801.117216 159.9912 
L 801.117216 160.5456 
L 801.117216 161.1 
L 801.117216 161.6544 
L 801.186914 162.2088 
L 801.468 162.533 
L 801.652669 162.7632 
L 802.026 163.091968 
L 802.584 163.221404 
L 802.794406 163.3176 
L 803.142 163.579996 
L 803.7 163.708645 
L 804.169524 163.872 
L 804.258 163.955505 
L 804.816 164.211097 
L 805.374 164.303373 
L 805.869525 164.4264 
L 805.932 164.471674 
L 806.49 164.684193 
L 807.048 164.771541 
L 807.606 164.879384 
L 807.904752 164.9808 
L 808.164 165.158574 
L 808.722 165.319897 
L 809.28 165.488073 
L 809.402112 165.5352 
L 809.838 165.788241 
L 810.396 165.96572 
L 810.686387 166.0896 
L 810.954 166.278183 
L 811.512 166.432387 
L 812.031119 166.644 
L 812.07 166.68263 
L 812.628 167.000166 
L 813.022882 167.1984 
L 813.186 167.360466 
L 813.744 167.612972 
L 813.973151 167.7528 
L 814.302 168.045557 
L 814.509216 168.3072 
L 814.509216 168.8616 
L 814.461238 169.416 
L 814.302 169.929529 
L 814.263119 169.9704 
L 813.744 170.167546 
L 813.186 170.45936 
L 813.116524 170.5248 
L 812.628 170.674416 
L 812.07 170.715937 
L 811.512 170.799927 
L 810.954 170.995695 
L 810.816811 171.0792 
L 810.396 171.175396 
L 809.838 171.236791 
L 809.28 171.246679 
L 808.722 171.256925 
L 808.164 171.268506 
L 807.606 171.281806 
L 807.048 171.285079 
L 806.49 171.280669 
L 805.932 171.276445 
L 805.374 171.269509 
L 804.816 171.265735 
L 804.258 171.262108 
L 803.7 171.256049 
L 803.142 171.245972 
L 802.584 171.214595 
L 802.026 171.111607 
L 801.980116 171.0792 
L 801.866013 170.5248 
L 802.026 170.254206 
L 802.303176 169.9704 
L 802.584 169.782087 
L 803.038997 169.416 
L 803.142 169.306162 
L 803.669802 168.8616 
L 803.7 168.837901 
L 804.157879 168.3072 
L 804.258 168.147815 
L 804.566535 167.7528 
L 804.526592 167.1984 
L 804.258 166.886346 
L 803.992871 166.644 
L 803.7 166.398256 
L 803.142 166.417197 
L 802.879559 166.644 
L 802.584 166.81774 
L 802.078198 167.1984 
L 802.026 167.240156 
L 801.468 167.488262 
L 801.107257 167.7528 
L 800.91 167.843198 
L 800.352 167.995928 
L 799.950499 168.3072 
L 799.794 168.397186 
L 799.236 168.509702 
L 798.84136 168.8616 
L 798.678 168.983731 
L 798.12 169.079396 
L 797.562 169.123243 
L 797.354784 168.8616 
L 797.088047 168.3072 
L 797.004 168.197731 
L 796.882557 167.7528 
L 796.843335 167.1984 
L 796.834716 166.644 
L 796.840561 166.0896 
L 796.840561 165.5352 
L 796.838383 164.9808 
L 796.838383 164.4264 
L 796.830051 163.872 
L 796.802251 163.3176 
L 796.796784 162.7632 
L 796.796784 162.2088 
L 796.796784 161.6544 
L 796.796784 161.1 
L 796.796784 160.5456 
L 796.796784 159.9912 
L 796.796784 159.4368 
L 796.796784 158.8824 
L 796.796784 158.328 
L 796.796784 157.7736 
L 796.796784 157.2192 
L 796.796784 156.6648 
L 796.796784 156.1104 
L 796.796784 155.556 
L 796.796784 155.0016 
L 796.796784 154.4472 
L 796.796784 153.8928 
L 796.796784 153.3384 
L 796.796784 152.784 
L 796.796784 152.2296 
L 796.796784 151.6752 
L 796.796784 151.1208 
L 796.796784 150.5664 
L 796.734955 150.012 
L 796.446 149.680241 
L 796.180871 149.4576 
L 795.888 149.211856 
L 795.33 149.109079 
L 794.772 149.230797 
L 794.509559 149.4576 
L 794.214 149.751252 
L 793.985724 150.012 
L 793.863216 150.5664 
L 793.9499 151.1208 
L 794.214 151.440064 
L 794.348202 151.6752 
L 794.421216 152.2296 
L 794.421216 152.784 
L 794.421216 153.3384 
L 794.421216 153.8928 
L 794.421216 154.4472 
L 794.421216 155.0016 
L 794.421216 155.556 
L 794.421216 156.1104 
L 794.421216 156.6648 
L 794.421216 157.2192 
L 794.421216 157.7736 
L 794.421216 158.328 
L 794.421216 158.8824 
L 794.421216 159.4368 
L 794.421216 159.9912 
L 794.421216 160.5456 
L 794.421216 161.1 
L 794.421216 161.6544 
L 794.421216 162.2088 
L 794.421216 162.7632 
L 794.416778 163.3176 
L 794.392879 163.872 
L 794.377439 164.4264 
L 794.373954 164.9808 
L 794.363266 165.5352 
L 794.214 165.851893 
L 793.983013 166.0896 
L 793.813232 166.644 
L 793.656 166.957752 
L 793.422081 167.1984 
L 793.182339 167.7528 
L 793.098 167.834508 
L 792.621153 167.7528 
L 792.54 167.648609 
L 792.47707 167.1984 
L 792.54 167.087601 
L 792.85494 166.644 
L 792.890784 166.0896 
L 792.890784 165.5352 
L 792.890784 164.9808 
L 792.890784 164.4264 
L 792.876222 163.872 
L 792.768276 163.3176 
L 792.54 162.890219 
L 792.498946 162.7632 
L 792.385495 162.2088 
L 792.283784 161.6544 
L 791.982 161.330341 
L 791.774446 161.1 
L 791.424 160.775298 
L 790.866 160.607161 
L 790.764587 160.5456 
L 790.308 160.216832 
L 789.75 160.052761 
L 789.674254 159.9912 
L 789.192 159.580472 
L 788.926871 159.4368 
L 788.634 159.191056 
L 788.426784 158.8824 
L 788.325747 158.328 
L 788.076 158.045481 
L 787.905178 157.7736 
L 787.518 157.41184 
L 787.232561 157.2192 
L 786.96 156.956804 
L 786.556708 156.6648 
L 786.402 156.51109 
L 785.844 156.240202 
L 785.700188 156.1104 
L 785.286 155.727588 
L 784.984655 155.556 
L 784.728 155.335002 
L 784.17 155.112948 
L 783.975312 155.0016 
L 783.612 154.722327 
L 783.054 154.722327 
L 782.630898 155.0016 
L 782.496 155.063161 
L 781.938 155.214467 
L 781.38 155.378226 
L 781.138123 155.556 
L 780.822 155.679034 
L 780.264 155.932626 
L 780.069496 156.1104 
L 779.706 156.268598 
L 779.148 156.381374 
L 778.626145 156.6648 
L 778.59 156.680313 
L 778.032 156.914378 
L 777.716837 157.2192 
L 777.474 157.519519 
L 777.226661 157.7736 
L 777.123216 158.328 
L 777.118778 158.8824 
L 777.085784 159.4368 
L 776.916 159.578876 
L 776.358 159.631998 
L 775.8 159.860254 
L 775.655164 159.9912 
L 775.242 160.137021 
L 774.684 160.245763 
L 774.208982 160.5456 
L 774.126 160.586389 
L 774.065527 160.5456 
L 773.918784 159.9912 
L 773.918784 159.4368 
L 773.918784 158.8824 
L 773.918784 158.328 
L 773.918784 157.7736 
L 773.918784 157.2192 
L 773.918784 156.6648 
L 773.918784 156.1104 
L 773.918784 155.556 
L 773.918784 155.0016 
L 773.918784 154.4472 
L 773.918784 153.8928 
L 773.918784 153.3384 
L 773.918784 152.784 
L 773.918784 152.2296 
L 773.918784 151.6752 
L 773.918784 151.1208 
L 773.918784 150.5664 
L 773.918784 150.012 
L 773.89481 149.4576 
L 773.606881 148.9032 
L 773.568 148.862329 
L 773.400493 148.3488 
L 773.257339 147.7944 
L 773.01 147.478902 
L 772.902689 147.24 
L 772.77881 146.6856 
L 772.452 146.318417 
L 772.227913 146.1312 
L 771.894 145.844109 
L 771.336 145.868804 
L 771.037232 146.1312 
L 770.778 146.388759 
L 770.5139 146.6856 
L 770.427216 147.24 
L 770.427216 147.7944 
L 770.427216 148.3488 
L 770.427216 148.9032 
L 770.427216 149.4576 
L 770.427216 150.012 
L 770.5139 150.5664 
L 770.778 150.885664 
L 770.904706 151.1208 
L 771.004967 151.6752 
L 771.035877 152.2296 
L 771.07431 152.784 
L 771.125898 153.3384 
L 771.204204 153.8928 
L 771.319754 154.4472 
L 771.336 154.503618 
L 771.387723 155.0016 
L 771.432821 155.556 
L 771.473455 156.1104 
L 771.495954 156.6648 
L 771.498703 157.2192 
L 771.503079 157.7736 
L 771.506007 158.328 
L 771.510713 158.8824 
L 771.513998 159.4368 
L 771.518323 159.9912 
L 771.522776 160.5456 
L 771.527452 161.1 
L 771.336 161.548446 
L 771.218119 161.6544 
L 770.778 161.801514 
L 770.22 161.905564 
L 769.743251 162.2088 
L 769.662 162.249589 
L 769.104 162.389947 
L 768.546 162.498662 
L 768.021569 162.7632 
L 767.988 162.775562 
L 767.43 162.96685 
L 767.222784 162.7632 
L 767.222784 162.2088 
L 767.222784 161.6544 
L 767.222784 161.1 
L 767.193023 160.5456 
L 766.872 160.173156 
L 766.697715 159.9912 
L 766.314 159.662432 
L 765.756 159.498361 
L 765.608248 159.4368 
L 765.198 159.174404 
L 764.64 159.191056 
L 764.384269 159.4368 
L 764.082 159.67636 
L 763.773465 159.9912 
L 763.556617 160.5456 
L 763.524 160.586573 
L 763.143604 161.1 
L 762.966 161.444256 
L 762.762409 161.6544 
L 762.484126 162.2088 
L 762.408 162.282836 
L 762.227349 162.2088 
L 761.85 161.963056 
L 761.292 161.981997 
L 761.029559 162.2088 
L 760.734 162.502452 
L 760.505724 162.7632 
L 760.383216 163.3176 
L 760.383216 163.872 
L 760.383216 164.4264 
L 760.383216 164.9808 
L 760.383216 165.5352 
L 760.383216 166.0896 
L 760.383216 166.644 
L 760.383216 167.1984 
L 760.3715 167.7528 
L 760.349949 168.3072 
L 760.276017 168.8616 
L 760.176 168.972489 
L 759.677033 169.416 
L 759.618 169.467389 
L 759.06 169.60816 
L 758.502 169.792626 
L 758.307496 169.9704 
L 757.944 170.118766 
L 757.386 170.14084 
L 756.828 170.066596 
L 756.560307 169.9704 
L 756.828 169.824009 
L 757.260459 169.416 
L 757.386 169.319026 
L 757.777599 168.8616 
L 757.944 168.595764 
L 758.216949 168.3072 
L 758.460276 167.7528 
L 758.502 167.682356 
L 758.82881 167.1984 
L 758.852784 166.644 
L 758.852784 166.0896 
L 758.790955 165.5352 
L 758.502 165.192176 
L 758.366345 164.9808 
L 757.944 164.561179 
L 757.808345 164.4264 
L 757.386 164.006779 
L 757.250345 163.872 
L 756.828 163.452379 
L 756.692345 163.3176 
L 756.27 162.897979 
L 756.134345 162.7632 
L 755.712 162.352472 
L 755.446871 162.2088 
L 755.154 161.963056 
L 754.596 161.860279 
L 754.038 161.860279 
L 753.48 161.946404 
L 753.191133 162.2088 
L 752.922 162.432595 
L 752.613465 162.7632 
L 752.45587 163.3176 
L 752.364 163.476985 
L 752.000508 163.872 
L 751.806 164.017748 
L 751.668861 163.872 
L 751.248 163.453854 
L 751.111572 163.3176 
L 750.69 162.907674 
L 750.424871 162.7632 
L 750.132 162.517456 
L 749.574 162.414679 
L 749.016 162.414679 
L 748.458 162.536397 
L 748.184613 162.7632 
L 747.9 162.906872 
L 747.486604 163.3176 
L 747.342 163.600377 
L 747.113724 163.872 
L 746.991216 164.4264 
L 746.991216 164.9808 
L 746.991216 165.5352 
L 746.991216 166.0896 
L 746.991216 166.644 
L 746.991216 167.1984 
L 746.950631 167.7528 
L 746.784 167.975441 
L 746.518871 167.7528 
L 746.226 167.507056 
L 745.668 167.525997 
L 745.405559 167.7528 
L 745.11 168.046452 
L 744.881724 168.3072 
L 744.759216 168.8616 
L 744.759216 169.416 
L 744.759216 169.9704 
L 744.759216 170.5248 
L 744.759216 171.0792 
L 744.759216 171.6336 
L 744.552 172.104495 
L 744.467953 172.188 
L 743.994 172.381099 
L 743.436 172.393879 
L 742.878 172.393879 
L 742.32 172.389469 
L 741.762 172.311969 
L 741.464999 172.188 
L 741.204 171.973017 
L 740.646 171.813921 
L 740.088 171.654582 
L 740.062055 171.6336 
L 739.53 171.212536 
L 739.395798 171.0792 
L 738.972 170.658136 
L 738.809047 170.5248 
L 738.414 170.183267 
L 738.06942 169.9704 
L 737.856 169.758357 
L 737.409706 169.416 
L 737.298 169.305015 
L 736.968276 168.8616 
L 736.74 168.634797 
L 736.512903 168.3072 
L 736.74 168.101321 
L 737.298 168.101321 
L 737.856 168.101321 
L 738.414 168.086853 
L 738.972 167.81763 
L 739.037251 167.7528 
L 739.53 167.564397 
L 740.088 167.26323 
L 740.153251 167.1984 
L 740.646 167.00624 
L 741.079045 166.644 
L 741.204 166.497609 
L 741.540222 166.0896 
L 741.554784 165.5352 
L 741.554784 164.9808 
L 741.554784 164.4264 
L 741.554784 163.872 
L 741.554784 163.3176 
L 741.554784 162.7632 
L 741.525023 162.2088 
L 741.204 161.846933 
L 741.015568 161.6544 
L 740.646 161.329698 
L 740.088 161.161561 
L 739.95879 161.1 
L 739.53 160.812909 
L 738.972 160.751479 
L 738.414 160.751479 
L 737.856 160.751479 
L 737.298 160.751479 
L 736.74 160.751479 
L 736.182 160.751479 
L 735.624 160.751479 
L 735.066 160.846959 
L 734.79388 161.1 
L 734.508 161.357776 
L 734.226914 161.6544 
L 734.109238 162.2088 
L 733.982617 162.7632 
L 733.95 162.808755 
L 733.569366 163.3176 
L 733.392 163.493822 
L 733.002868 163.872 
L 732.834 164.165652 
L 732.605724 164.4264 
L 732.483216 164.9808 
L 732.483216 165.5352 
L 732.483216 166.0896 
L 732.276 166.356909 
L 731.739469 166.644 
L 731.718 166.653046 
L 731.16 166.802211 
L 730.602 166.898563 
L 730.044 166.857781 
L 729.920941 166.644 
L 729.83327 166.0896 
L 729.716987 165.5352 
L 729.538733 164.9808 
L 729.486 164.887301 
L 729.390402 164.4264 
L 729.318288 163.872 
L 729.264222 163.3176 
L 729.118151 162.7632 
L 728.928 162.403012 
L 728.872388 162.2088 
L 728.724078 161.6544 
L 728.6341 161.1 
L 728.42907 160.5456 
L 728.37 160.476913 
L 728.230119 159.9912 
L 728.167222 159.4368 
L 728.162784 158.8824 
L 728.162784 158.328 
L 728.162784 157.7736 
L 728.162784 157.2192 
L 728.162784 156.6648 
L 728.162784 156.1104 
L 728.162784 155.556 
L 728.162784 155.0016 
L 728.162784 154.4472 
L 728.162784 153.8928 
L 728.165027 153.3384 
L 728.182253 152.784 
L 728.194438 152.2296 
L 728.226416 151.6752 
L 728.37 151.460864 
L 728.560122 151.6752 
L 728.928 152.074699 
L 729.083907 152.2296 
L 729.486 152.579188 
L 730.005119 152.784 
L 730.044 152.82263 
L 730.232637 153.3384 
L 730.251216 153.8928 
L 730.246778 154.4472 
L 730.228952 155.0016 
L 730.217949 155.556 
L 730.134529 156.1104 
L 730.044 156.331679 
L 729.804627 156.6648 
L 729.827621 157.2192 
L 730.044 157.45798 
L 730.282822 157.7736 
L 730.602 158.066357 
L 731.16 158.107653 
L 731.652135 158.328 
L 731.478627 158.8824 
L 731.501621 159.4368 
L 731.718 159.67558 
L 731.956822 159.9912 
L 732.276 160.283957 
L 732.834 160.325253 
L 733.222432 159.9912 
L 733.392 159.847928 
L 733.757528 159.4368 
L 733.95 158.94723 
L 734.015251 158.8824 
L 734.298492 158.328 
L 734.508 157.879554 
L 734.614642 157.7736 
L 734.936441 157.2192 
L 735.066 157.074507 
L 735.414492 156.6648 
L 735.624 156.268131 
L 735.782755 156.1104 
L 736.118448 155.556 
L 736.182 155.419103 
L 736.459176 155.0016 
L 736.532784 154.4472 
L 736.532784 153.8928 
L 736.532784 153.3384 
L 736.532784 152.784 
L 736.50881 152.2296 
L 736.182 151.712482 
L 736.160882 151.6752 
L 735.966473 151.1208 
L 735.624 150.757707 
L 735.422963 150.5664 
L 735.066 150.234958 
L 734.508 150.073561 
L 734.406587 150.012 
L 733.95 149.683232 
L 733.392 149.519161 
L 733.290587 149.4576 
L 732.834 149.128832 
L 732.314881 148.9032 
L 732.276 148.86457 
L 732.060473 148.3488 
L 731.718 147.9674 
L 731.460261 147.7944 
L 731.16 147.541359 
L 730.602 147.445879 
L 730.044 147.445879 
L 729.486 147.445879 
L 728.928 147.445879 
L 728.37 147.445879 
L 727.812 147.567597 
L 727.549559 147.7944 
L 727.254 147.957558 
L 726.696 147.971249 
L 726.138 147.890596 
L 725.800037 147.7944 
L 725.58 147.64941 
L 725.022 147.501643 
L 724.464 147.501643 
L 723.906 147.72957 
L 723.833168 147.7944 
L 723.348 147.942137 
L 722.79 148.061709 
L 722.466703 148.3488 
L 722.232 148.631148 
L 721.992627 148.9032 
L 721.674 149.151055 
L 721.341249 149.4576 
L 721.116 149.724996 
L 720.8519 150.012 
L 720.765216 150.5664 
L 720.765216 151.1208 
L 720.765216 151.6752 
L 720.814216 152.2296 
L 720.970069 152.784 
L 721.116 153.002617 
L 721.212821 153.3384 
L 721.269977 153.8928 
L 721.332702 154.4472 
L 721.4099 155.0016 
L 721.674 155.361295 
L 721.7622 155.556 
L 721.835317 156.1104 
L 721.849562 156.6648 
L 721.858096 157.2192 
L 721.862637 157.7736 
L 721.877817 158.328 
L 721.881216 158.8824 
L 721.881216 159.4368 
L 721.881216 159.9912 
L 721.881216 160.5456 
L 721.881216 161.1 
L 721.881216 161.6544 
L 721.930216 162.2088 
L 722.024967 162.7632 
L 722.232 163.245712 
L 722.250307 163.3176 
L 722.366805 163.872 
L 722.431521 164.4264 
L 722.504734 164.9808 
L 722.711668 165.5352 
L 722.79 165.668777 
L 722.884233 166.0896 
L 722.965484 166.644 
L 723.002987 167.1984 
L 723.088533 167.7528 
L 723.348 168.249015 
L 723.369118 168.3072 
L 723.348 168.337428 
L 722.79 168.586411 
L 722.232 168.809207 
L 722.161421 168.8616 
L 721.674 168.982311 
L 721.116 169.019191 
L 720.558 169.026149 
L 720 169.035186 
L 719.442 169.042747 
L 718.884 169.050003 
L 718.326 169.036802 
L 717.768 169.07562 
L 717.35787 169.416 
L 717.21 169.562916 
L 716.86741 169.9704 
L 716.82834 170.5248 
L 716.852629 171.0792 
L 716.859216 171.6336 
L 716.859216 172.188 
L 716.859216 172.7424 
L 716.9459 173.2968 
L 717.21 173.628596 
L 717.327805 173.8512 
L 717.768 174.314994 
L 717.857242 174.4056 
L 717.975216 174.96 
L 717.975216 175.5144 
L 717.975216 176.0688 
L 717.975216 176.6232 
L 717.975216 177.1776 
L 718.0619 177.732 
L 718.326 178.051264 
L 718.533383 178.2864 
L 718.884 178.579157 
L 719.442 178.592945 
L 719.83958 178.2864 
L 720 178.18586 
L 720.466805 177.732 
L 720.558 177.64191 
L 721.015372 177.1776 
L 721.116 177.018215 
L 721.424535 176.6232 
L 721.404955 176.0688 
L 721.116 175.737041 
L 720.850871 175.5144 
L 720.558 175.268656 
L 720.350784 174.96 
L 720.350784 174.4056 
L 720.288955 173.8512 
L 720 173.508176 
L 719.876388 173.2968 
L 719.55421 172.7424 
L 719.442 172.619324 
L 719.292032 172.188 
L 719.26566 171.6336 
L 719.442 171.427721 
L 720 171.427721 
L 720.558 171.427721 
L 721.116 171.427721 
L 721.674 171.413253 
L 722.232 171.332241 
L 722.79 171.14403 
L 722.890491 171.0792 
L 723.348 170.974549 
L 723.486494 171.0792 
L 723.555216 171.6336 
L 723.555216 172.188 
L 723.611342 172.7424 
L 723.906 173.172421 
L 723.967961 173.2968 
L 724.117853 173.8512 
L 724.464 174.313943 
L 724.525961 174.4056 
L 724.626703 174.96 
L 724.637116 175.5144 
L 724.644585 176.0688 
L 724.655545 176.6232 
L 724.666778 177.1776 
L 724.7579 177.732 
L 725.022 178.051264 
L 725.229383 178.2864 
L 725.58 178.579157 
L 726.138 178.592945 
z
" style="fill:#0000ff;"/>
   </g>
   <g id="patch_3">
    <path clip-path="url(#p8a411162d9)" d="M 727.254 167.814361 
L 726.696 167.902416 
L 726.138 167.92555 
L 725.58 167.775964 
L 725.561693 167.7528 
L 725.436368 167.1984 
L 725.356979 166.644 
L 725.274354 166.0896 
L 725.100332 165.5352 
L 725.022 165.401623 
L 724.924442 164.9808 
L 724.819222 164.4264 
L 724.753138 163.872 
L 724.627118 163.3176 
L 724.464 162.979714 
L 724.412277 162.7632 
L 724.302617 162.2088 
L 724.261222 161.6544 
L 724.256784 161.1 
L 724.256784 160.5456 
L 724.256784 159.9912 
L 724.256784 159.4368 
L 724.256784 158.8824 
L 724.256784 158.328 
L 724.256784 157.7736 
L 724.256784 157.2192 
L 724.256784 156.6648 
L 724.242222 156.1104 
L 724.134276 155.556 
L 723.906 155.09783 
L 723.876348 155.0016 
L 723.740202 154.4472 
L 723.66294 153.8928 
L 723.576276 153.3384 
L 723.348 152.911019 
L 723.306946 152.784 
L 723.193495 152.2296 
L 723.145222 151.6752 
L 723.148479 151.1208 
L 723.348 150.92864 
L 723.781045 150.5664 
L 723.906 150.449351 
L 724.336347 150.012 
L 724.464 149.907349 
L 725.022 149.859186 
L 725.58 149.971211 
L 725.689825 150.012 
L 725.909724 150.5664 
L 725.787216 151.1208 
L 725.787216 151.6752 
L 725.787216 152.2296 
L 725.787216 152.784 
L 725.787216 153.3384 
L 725.787216 153.8928 
L 725.787216 154.4472 
L 725.787216 155.0016 
L 725.787216 155.556 
L 725.787216 156.1104 
L 725.787216 156.6648 
L 725.787216 157.2192 
L 725.787216 157.7736 
L 725.787216 158.328 
L 725.787216 158.8824 
L 725.787216 159.4368 
L 725.836216 159.9912 
L 725.951632 160.5456 
L 726.138 160.895029 
L 726.196081 161.1 
L 726.329452 161.6544 
L 726.421023 162.2088 
L 726.650432 162.7632 
L 726.696 162.808474 
L 726.859439 163.3176 
L 726.912702 163.872 
L 727.006661 164.4264 
L 727.201267 164.9808 
L 727.254 165.074299 
L 727.348669 165.5352 
L 727.438096 166.0896 
L 727.510216 166.644 
L 727.63709 167.1984 
L 727.415471 167.7528 
z
" style="fill:#ffffff;"/>
   </g>
   <g id="patch_4">
    <path clip-path="url(#p8a411162d9)" d="M 730.602 150.584589 
L 730.583068 150.5664 
L 730.602 150.533949 
L 730.630252 150.5664 
z
" style="fill:#ffffff;"/>
   </g>
   <g id="patch_5">
    <path clip-path="url(#p8a411162d9)" d="M 702.54158 177.732 
L 702.702 177.63146 
L 703.168805 177.1776 
L 703.26 177.086994 
L 703.726805 176.6232 
L 703.818 176.533574 
L 704.285792 176.0688 
L 704.376 175.978194 
L 704.842805 175.5144 
L 704.934 175.423794 
L 705.400805 174.96 
L 705.492 174.856318 
L 705.858455 174.4056 
L 706.05 173.91603 
L 706.115251 173.8512 
L 706.416455 173.2968 
L 706.608 172.80723 
L 706.673251 172.7424 
L 706.976373 172.188 
L 707.166 171.69843 
L 707.231251 171.6336 
L 707.532455 171.0792 
L 707.724 170.58963 
L 708.282 170.818195 
L 708.404012 171.0792 
L 708.452811 171.6336 
L 708.466096 172.188 
L 708.480526 172.7424 
L 708.5759 173.2968 
L 708.84 173.628596 
L 708.953135 173.8512 
L 709.398 174.318793 
L 709.480627 174.4056 
L 709.585747 174.96 
L 709.605216 175.5144 
L 709.6919 176.0688 
L 709.956 176.400596 
L 710.072602 176.6232 
L 710.514 177.078125 
L 710.686107 177.1776 
L 711.072 177.470357 
L 711.63 177.484145 
L 712.017553 177.1776 
L 712.188 177.008253 
L 712.496535 176.6232 
L 712.538784 176.0688 
L 712.538784 175.5144 
L 712.476955 174.96 
L 712.188 174.628241 
L 712.041847 174.4056 
L 711.918955 173.8512 
L 711.63 173.508176 
L 711.492861 173.2968 
L 711.072 172.878654 
L 710.942679 172.7424 
L 710.864784 172.188 
L 710.864784 171.6336 
L 710.84081 171.0792 
L 710.552881 170.5248 
L 710.514 170.483929 
L 710.346493 169.9704 
L 710.203339 169.416 
L 709.956 169.100502 
L 709.849215 168.8616 
L 709.740473 168.3072 
L 709.561118 167.7528 
L 709.398 167.55082 
L 709.274887 167.1984 
L 709.186147 166.644 
L 709.003118 166.0896 
L 708.84 165.88762 
L 708.716887 165.5352 
L 708.628147 164.9808 
L 708.445118 164.4264 
L 708.282 164.22442 
L 708.158887 163.872 
L 708.082479 163.3176 
L 708.074784 162.7632 
L 708.074784 162.2088 
L 708.074784 161.6544 
L 708.074784 161.1 
L 708.074784 160.5456 
L 708.074784 159.9912 
L 708.074784 159.4368 
L 708.074784 158.8824 
L 708.074784 158.328 
L 708.074784 157.7736 
L 708.074784 157.2192 
L 708.074784 156.6648 
L 708.074784 156.1104 
L 708.074784 155.556 
L 708.03894 155.0016 
L 707.724 154.587761 
L 707.640982 154.4472 
L 707.382379 153.8928 
L 707.166 153.66977 
L 706.976238 153.3384 
L 706.608 152.931474 
L 706.473798 152.784 
L 706.05 152.362936 
L 705.922681 152.2296 
L 705.780955 151.6752 
L 705.492 151.343441 
L 705.226871 151.1208 
L 704.934 150.875056 
L 704.376 150.772279 
L 703.818 150.893997 
L 703.555559 151.1208 
L 703.26 151.414452 
L 703.031724 151.6752 
L 702.909216 152.2296 
L 702.909216 152.784 
L 702.909216 153.3384 
L 702.909216 153.8928 
L 702.909216 154.4472 
L 702.909216 155.0016 
L 702.909216 155.556 
L 702.909216 156.1104 
L 702.951465 156.6648 
L 703.13282 157.2192 
L 703.26 157.363724 
L 703.399881 157.7736 
L 703.49119 158.328 
L 703.818 158.779119 
L 703.879961 158.8824 
L 704.045097 159.4368 
L 704.376 159.890442 
L 704.437961 159.9912 
L 704.603097 160.5456 
L 704.868749 161.1 
L 704.934 161.172362 
L 705.081384 161.6544 
L 705.17706 162.2088 
L 705.426749 162.7632 
L 705.492 162.835562 
L 705.639384 163.3176 
L 705.699216 163.872 
L 705.699216 164.4264 
L 705.699216 164.9808 
L 705.699216 165.5352 
L 705.699216 166.0896 
L 705.699216 166.644 
L 705.694778 167.1984 
L 705.680637 167.7528 
L 705.669205 168.3072 
L 705.65831 168.8616 
L 705.648739 169.416 
L 705.492 169.93177 
L 705.255629 169.9704 
L 704.934 170.001637 
L 704.912882 169.9704 
L 704.727858 169.416 
L 704.376 168.892837 
L 704.354882 168.8616 
L 704.169858 168.3072 
L 703.818 167.907701 
L 703.597774 167.7528 
L 703.26 167.473527 
L 702.702 167.404279 
L 702.144 167.404279 
L 701.586 167.404279 
L 701.028 167.404279 
L 700.47 167.404279 
L 699.912 167.481612 
L 699.545175 167.7528 
L 699.354 167.844077 
L 698.796 168.000655 
L 698.39842 168.3072 
L 698.238 168.398477 
L 697.68 168.555055 
L 697.327452 168.8616 
L 697.122 169.00681 
L 696.710153 169.416 
L 696.564 169.620127 
L 696.255465 169.9704 
L 696.09787 170.5248 
L 696.006 170.684185 
L 695.697465 171.0792 
L 695.539404 171.6336 
L 695.448 171.777198 
L 695.119854 172.188 
L 694.89 172.658895 
L 694.805953 172.7424 
L 694.462691 173.2968 
L 694.332 173.560218 
L 694.084661 173.8512 
L 694.0679 174.4056 
L 694.332 174.737396 
L 694.448602 174.96 
L 694.89 175.424774 
L 694.980208 175.5144 
L 695.448 175.969325 
L 695.567758 176.0688 
L 696.006 176.434663 
L 696.339521 176.6232 
L 696.564 176.838183 
L 697.122 177.094247 
L 697.237134 177.1776 
L 697.68 177.526121 
L 698.238 177.711018 
L 698.275524 177.732 
L 698.796 178.056702 
L 699.354 178.080521 
L 699.912 178.080521 
L 700.47 178.080521 
L 701.028 178.080521 
L 701.586 178.080521 
L 702.144 178.038545 
z
" style="fill:#0000ff;"/>
   </g>
   <g id="patch_6">
    <path clip-path="url(#p8a411162d9)" d="M 732.834 156.169231 
L 732.784731 156.1104 
L 732.626784 155.556 
L 732.626784 155.0016 
L 732.626784 154.4472 
L 732.626784 153.8928 
L 732.626784 153.3384 
L 732.60281 152.784 
L 732.276 152.266882 
L 732.254882 152.2296 
L 732.059298 151.6752 
L 732.276 151.470388 
L 732.834 151.654218 
L 732.86544 151.6752 
L 733.392 152.024788 
L 733.911119 152.2296 
L 733.95 152.26823 
L 734.130502 152.784 
L 734.148526 153.3384 
L 734.157216 153.8928 
L 734.141545 154.4472 
L 733.95 154.741598 
L 733.68831 155.0016 
L 733.444549 155.556 
L 733.392 155.622483 
L 732.87321 156.1104 
z
" style="fill:#ffffff;"/>
   </g>
   <g id="patch_7">
    <path clip-path="url(#p8a411162d9)" d="M 669.051553 179.9496 
L 669.222 179.780253 
L 669.530535 179.3952 
L 669.510955 178.8408 
L 669.222 178.509041 
L 668.956871 178.2864 
L 668.664 178.040656 
L 668.106 177.937879 
L 667.548 177.937879 
L 666.99 177.937879 
L 666.432 177.937879 
L 665.874 177.937879 
L 665.316 177.937879 
L 664.758 177.937879 
L 664.2 177.937879 
L 663.642 177.937879 
L 663.084 177.937879 
L 662.526 177.937879 
L 661.968 177.937879 
L 661.41 177.937879 
L 660.852 177.937879 
L 660.294 177.937879 
L 659.736 177.937879 
L 659.178 177.937879 
L 658.62 177.878434 
L 658.134832 177.732 
L 658.062 177.66717 
L 657.504 177.439243 
L 656.946 177.383479 
L 656.388 177.383479 
L 655.83 177.383479 
L 655.272 177.383479 
L 654.714 177.383479 
L 654.156 177.383479 
L 653.598 177.383479 
L 653.04 177.383479 
L 652.482 177.375834 
L 652.274784 177.1776 
L 652.274784 176.6232 
L 652.274784 176.0688 
L 652.274784 175.5144 
L 652.274784 174.96 
L 652.274784 174.4056 
L 652.353937 173.8512 
L 652.482 173.731861 
L 653.04 173.534628 
L 653.296647 173.2968 
L 653.598 173.140797 
L 654.156 172.88739 
L 654.301931 172.7424 
L 654.714 172.566339 
L 655.272 172.557696 
L 655.83 172.567198 
L 656.388 172.575699 
L 656.946 172.582771 
L 657.504 172.614156 
L 658.062 172.701611 
L 658.220871 172.7424 
L 658.62 172.931324 
L 659.178 173.029491 
L 659.736 173.095331 
L 660.294 173.132251 
L 660.852 173.192149 
L 661.348338 173.2968 
L 661.41 173.33543 
L 661.968 173.511783 
L 662.526 173.626849 
L 663.084 173.743031 
L 663.279382 173.8512 
L 663.642 174.143957 
L 664.2 174.157745 
L 664.587553 173.8512 
L 664.758 173.681853 
L 665.066535 173.2968 
L 665.046955 172.7424 
L 664.758 172.399376 
L 664.620861 172.188 
L 664.2 171.66009 
L 664.168314 171.6336 
L 663.642 171.235023 
L 663.447492 171.0792 
L 663.084 170.772655 
L 662.526 170.672537 
L 662.040832 170.5248 
L 661.968 170.45997 
L 661.41 170.232043 
L 660.852 170.176279 
L 660.294 170.176279 
L 659.736 170.176279 
L 659.178 170.176279 
L 658.62 170.176279 
L 658.062 170.176279 
L 657.504 170.176279 
L 656.946 170.176279 
L 656.388 170.176279 
L 655.83 170.176279 
L 655.272 170.176279 
L 654.714 170.176279 
L 654.156 170.262404 
L 653.834663 170.5248 
L 653.598 170.640752 
L 653.04 170.833456 
L 652.768011 171.0792 
L 652.482 171.231628 
L 652.297354 171.0792 
L 652.274784 170.5248 
L 652.274784 169.9704 
L 652.274784 169.416 
L 652.274784 168.8616 
L 652.274784 168.3072 
L 652.274784 167.7528 
L 652.274784 167.1984 
L 652.274784 166.644 
L 652.274784 166.0896 
L 652.274784 165.5352 
L 652.274784 164.9808 
L 652.274784 164.4264 
L 652.274784 163.872 
L 652.218658 163.3176 
L 652.114151 162.7632 
L 651.924 162.300101 
L 651.902882 162.2088 
L 651.802557 161.6544 
L 651.75769 161.1 
L 651.716784 160.5456 
L 651.716784 159.9912 
L 651.716784 159.4368 
L 651.716784 158.8824 
L 651.730592 158.328 
L 651.818669 157.7736 
L 651.924 157.640757 
L 652.482 157.567721 
L 653.04 157.567721 
L 653.598 157.567721 
L 654.156 157.578402 
L 654.714 157.651282 
L 655.068709 157.7736 
L 655.272 157.935666 
L 655.83 158.123188 
L 656.388 158.231804 
L 656.598406 158.328 
L 656.946 158.590396 
L 657.504 158.722005 
L 657.973524 158.8824 
L 658.062 158.965905 
L 658.62 159.211168 
L 659.178 159.244546 
L 659.736 159.262449 
L 660.294 159.380273 
L 660.423539 159.4368 
L 660.852 159.710204 
L 661.41 159.816483 
L 661.879524 159.9912 
L 661.968 160.074705 
L 662.526 160.333873 
L 663.084 160.449404 
L 663.294406 160.5456 
L 663.642 160.807996 
L 664.2 160.940363 
L 664.669524 161.1 
L 664.758 161.183505 
L 665.316 161.440263 
L 665.874 161.558204 
L 666.084406 161.6544 
L 666.432 161.916796 
L 666.99 162.049094 
L 667.459524 162.2088 
L 667.548 162.292305 
L 668.106 162.549063 
L 668.664 162.667004 
L 668.874406 162.7632 
L 669.222 163.025596 
L 669.78 163.15644 
L 670.249524 163.3176 
L 670.338 163.401105 
L 670.896 163.617437 
L 671.454 163.617437 
L 671.81126 163.3176 
L 672.012 163.118156 
L 672.313784 162.7632 
L 672.300955 162.2088 
L 672.012 161.897257 
L 671.789907 161.6544 
L 671.454 161.344632 
L 670.896 161.231081 
L 670.56046 161.1 
L 670.338 160.911076 
L 669.78 160.729445 
L 669.222 160.586389 
L 669.147005 160.5456 
L 668.664 160.229632 
L 668.106 160.122281 
L 667.77046 159.9912 
L 667.548 159.802276 
L 666.99 159.590596 
L 666.5524 159.4368 
L 666.432 159.335993 
L 665.874 159.120832 
L 665.316 159.019004 
L 664.98046 158.8824 
L 664.758 158.693476 
L 664.2 158.511845 
L 663.642 158.368789 
L 663.562409 158.328 
L 663.084 158.021455 
L 662.526 157.905863 
L 662.19046 157.7736 
L 661.968 157.584676 
L 661.41 157.405735 
L 660.852 157.259989 
L 660.762285 157.2192 
L 660.294 156.932109 
L 659.736 156.870679 
L 659.178 156.86845 
L 658.62 156.722794 
L 658.460634 156.6648 
L 658.062 156.429788 
L 657.504 156.303594 
L 656.946 156.151189 
L 656.866409 156.1104 
L 656.388 155.803855 
L 655.83 155.703114 
L 655.344832 155.556 
L 655.272 155.49117 
L 654.714 155.263243 
L 654.156 155.207479 
L 653.598 155.207479 
L 653.04 155.207479 
L 652.482 155.207479 
L 651.924 155.207479 
L 651.366 155.207479 
L 650.808 155.302959 
L 650.53588 155.556 
L 650.25 155.806009 
L 649.961045 156.1104 
L 649.779853 156.6648 
L 649.692 157.090969 
L 649.626749 157.2192 
L 649.397342 157.7736 
L 649.341216 158.328 
L 649.341216 158.8824 
L 649.341216 159.4368 
L 649.341216 159.9912 
L 649.341216 160.5456 
L 649.36519 161.1 
L 649.444661 161.6544 
L 649.626749 162.2088 
L 649.692 162.337031 
L 649.77302 162.7632 
L 649.851314 163.3176 
L 649.881627 163.872 
L 649.899216 164.4264 
L 649.899216 164.9808 
L 649.899216 165.5352 
L 649.899216 166.0896 
L 649.899216 166.644 
L 649.899216 167.1984 
L 649.899216 167.7528 
L 649.899216 168.3072 
L 649.899216 168.8616 
L 649.899216 169.416 
L 649.899216 169.9704 
L 649.899216 170.5248 
L 649.899216 171.0792 
L 649.899216 171.6336 
L 649.899216 172.188 
L 649.759414 172.7424 
L 649.692 172.804924 
L 649.134 172.996963 
L 648.798252 173.2968 
L 648.576 173.571101 
L 648.328661 173.8512 
L 648.294914 174.4056 
L 648.576 174.741194 
L 648.770508 174.96 
L 649.134 175.266545 
L 649.692 175.308521 
L 649.899216 175.5144 
L 649.899216 176.0688 
L 649.899216 176.6232 
L 649.899216 177.1776 
L 649.899216 177.732 
L 649.9859 178.2864 
L 650.25 178.605664 
L 650.414071 178.8408 
L 650.808 179.181063 
L 651.366 179.374218 
L 651.403524 179.3952 
L 651.924 179.719902 
L 652.482 179.743721 
L 653.04 179.743721 
L 653.598 179.743721 
L 654.156 179.743721 
L 654.714 179.743721 
L 655.272 179.743721 
L 655.83 179.743721 
L 656.388 179.743721 
L 656.946 179.752454 
L 657.504 179.827282 
L 657.858709 179.9496 
L 658.062 180.111666 
L 658.62 180.283653 
L 659.178 180.298121 
L 659.736 180.298121 
L 660.294 180.298121 
L 660.852 180.298121 
L 661.41 180.298121 
L 661.968 180.298121 
L 662.526 180.298121 
L 663.084 180.298121 
L 663.642 180.298121 
L 664.2 180.298121 
L 664.758 180.298121 
L 665.316 180.298121 
L 665.874 180.298121 
L 666.432 180.298121 
L 666.99 180.298121 
L 667.548 180.298121 
L 668.106 180.298121 
L 668.664 180.256145 
z
" style="fill:#0000ff;"/>
   </g>
   <g id="patch_8">
    <path clip-path="url(#p8a411162d9)" d="M 705.492 157.01722 
L 705.368887 156.6648 
L 705.293574 156.1104 
L 705.284784 155.556 
L 705.492 155.190524 
L 705.678776 155.556 
L 705.699216 156.1104 
L 705.658631 156.6648 
z
" style="fill:#ffffff;"/>
   </g>
   <g id="patch_9">
    <path clip-path="url(#p8a411162d9)" d="M 783.054 169.103946 
L 782.788871 168.8616 
L 782.496 168.615856 
L 781.938 168.513079 
L 781.38 168.590412 
L 781.013175 168.8616 
L 780.822 168.952877 
L 780.694958 168.8616 
L 780.614784 168.3072 
L 780.614784 167.7528 
L 780.614784 167.1984 
L 780.614784 166.644 
L 780.614784 166.0896 
L 780.614784 165.5352 
L 780.614784 164.9808 
L 780.614784 164.4264 
L 780.614784 163.872 
L 780.614784 163.3176 
L 780.614784 162.7632 
L 780.614784 162.2088 
L 780.614784 161.6544 
L 780.614784 161.1 
L 780.614784 160.5456 
L 780.614784 159.9912 
L 780.552955 159.4368 
L 780.264 159.105041 
L 780.003924 158.8824 
L 780.264 158.534287 
L 780.48008 158.328 
L 780.822 158.20674 
L 781.38 158.052873 
L 781.743312 157.7736 
L 781.938 157.676006 
L 782.496 157.543902 
L 782.996993 157.2192 
L 783.054 157.186793 
L 783.167007 157.2192 
L 783.612 157.434183 
L 784.17 157.691078 
L 784.271217 157.7736 
L 784.728 158.19638 
L 784.949109 158.328 
L 785.286 158.596936 
L 785.737358 158.8824 
L 785.844 158.988354 
L 786.033627 159.4368 
L 786.021998 159.9912 
L 786.011079 160.5456 
L 785.98033 161.1 
L 785.844 161.376795 
L 785.589315 161.6544 
L 785.463917 162.2088 
L 785.337723 162.7632 
L 785.286 162.860936 
L 784.977465 163.3176 
L 784.819404 163.872 
L 784.728 164.031385 
L 784.419465 164.4264 
L 784.26187 164.9808 
L 784.17 165.145787 
L 783.868216 165.5352 
L 783.760697 166.0896 
L 783.612 166.571638 
L 783.546749 166.644 
L 783.317342 167.1984 
L 783.261216 167.7528 
L 783.261216 168.3072 
L 783.220631 168.8616 
z
" style="fill:#ffffff;"/>
   </g>
   <g id="patch_10">
    <path clip-path="url(#p8a411162d9)" d="M 731.718 158.234745 
L 731.548432 157.7736 
L 731.718 157.629539 
L 731.903854 157.7736 
z
" style="fill:#ffffff;"/>
   </g>
   <g id="patch_11">
    <path clip-path="url(#p8a411162d9)" d="M 718.113251 164.9808 
L 718.326 164.787547 
L 718.634535 164.4264 
L 718.662222 163.872 
L 718.504928 163.3176 
L 718.326 163.030699 
L 718.238147 162.7632 
L 718.188737 162.2088 
L 718.326 162.004673 
L 718.634535 161.6544 
L 718.647023 161.1 
L 718.326 160.75736 
L 718.118446 160.5456 
L 717.768 160.220898 
L 717.21 160.052761 
L 717.048733 159.9912 
L 716.652 159.745456 
L 716.094 159.802276 
L 715.896162 159.9912 
L 715.536 160.310613 
L 715.307724 160.5456 
L 715.234216 161.1 
L 715.40882 161.6544 
L 715.536 161.798924 
L 715.675881 162.2088 
L 715.768679 162.7632 
L 715.915072 163.3176 
L 716.094 163.517478 
L 716.233881 163.872 
L 716.330977 164.4264 
L 716.652 164.76904 
L 716.896434 164.9808 
L 717.21 165.267891 
L 717.768 165.267891 
z
" style="fill:#0000ff;"/>
   </g>
   <g id="patch_12">
    <path clip-path="url(#p8a411162d9)" d="M 805.932 162.012565 
L 805.374 161.880032 
L 804.816 161.698681 
L 804.695117 161.6544 
L 804.258 161.408899 
L 803.7 161.298234 
L 803.500479 161.1 
L 803.492784 160.5456 
L 803.617391 159.9912 
L 803.7 159.913772 
L 803.810353 159.9912 
L 804.258 160.307821 
L 804.598033 160.5456 
L 804.816 160.747877 
L 805.374 161.092375 
L 805.38486 161.1 
L 805.932 161.484153 
L 806.17471 161.6544 
z
" style="fill:#ffffff;"/>
   </g>
   <g id="patch_13">
    <path clip-path="url(#p8a411162d9)" d="M 775.242 171.816162 
L 774.684 171.839479 
L 774.126 171.831834 
L 773.918784 171.6336 
L 773.918784 171.0792 
L 773.918784 170.5248 
L 773.918784 169.9704 
L 773.918784 169.416 
L 773.918784 168.8616 
L 773.918784 168.3072 
L 773.918784 167.7528 
L 773.918784 167.1984 
L 773.918784 166.644 
L 773.918784 166.0896 
L 773.918784 165.5352 
L 773.918784 164.9808 
L 773.918784 164.4264 
L 773.918784 163.872 
L 773.918784 163.3176 
L 774.126 162.955473 
L 774.431105 162.7632 
L 774.684 162.682703 
L 775.242 162.557321 
L 775.8 162.370866 
L 776.003291 162.2088 
L 776.358 162.08814 
L 776.916 162.007331 
L 777.474 161.856677 
L 777.746263 161.6544 
L 778.032 161.549749 
L 778.178536 161.6544 
L 778.239216 162.2088 
L 778.239216 162.7632 
L 778.239216 163.3176 
L 778.239216 163.872 
L 778.239216 164.4264 
L 778.239216 164.9808 
L 778.239216 165.5352 
L 778.239216 166.0896 
L 778.239216 166.644 
L 778.239216 167.1984 
L 778.239216 167.7528 
L 778.239216 168.3072 
L 778.239216 168.8616 
L 778.239216 169.416 
L 778.252425 169.9704 
L 778.032 170.208832 
L 777.659854 170.5248 
L 777.474 170.649429 
L 776.916 170.821407 
L 776.553725 171.0792 
L 776.358 171.192596 
L 775.8 171.459819 
L 775.609689 171.6336 
z
" style="fill:#ffffff;"/>
   </g>
   <g id="patch_14">
    <path clip-path="url(#p8a411162d9)" d="M 806.49 162.3216 
L 806.126507 162.2088 
L 806.49 161.964434 
L 806.908395 162.2088 
z
" style="fill:#ffffff;"/>
   </g>
   <g id="patch_15">
    <path clip-path="url(#p8a411162d9)" d="M 738.414 165.626057 
L 737.856 165.736669 
L 737.298 165.741079 
L 736.74 165.741079 
L 736.182 165.741079 
L 735.624 165.741079 
L 735.066 165.741079 
L 734.858784 165.5352 
L 734.978147 164.9808 
L 735.066 164.892134 
L 735.534758 164.4264 
L 735.624 164.312756 
L 735.975858 163.872 
L 736.076669 163.3176 
L 736.182 163.192764 
L 736.74 163.132029 
L 737.298 163.13818 
L 737.856 163.143171 
L 738.414 163.14869 
L 738.972 163.15588 
L 739.174778 163.3176 
L 739.179216 163.872 
L 739.179216 164.4264 
L 739.179216 164.9808 
L 738.972 165.228655 
L 738.57442 165.5352 
z
" style="fill:#ffffff;"/>
   </g>
   <g id="patch_16">
    <path clip-path="url(#p8a411162d9)" d="M 788.076 168.500299 
L 787.518 168.513079 
L 786.96 168.513079 
L 786.402 168.513079 
L 785.844 168.513079 
L 785.663415 168.3072 
L 785.659048 167.7528 
L 785.738669 167.1984 
L 785.844 166.914506 
L 786.047591 166.644 
L 786.221415 166.0896 
L 786.402 165.60003 
L 786.467251 165.5352 
L 786.774097 164.9808 
L 786.96 164.49123 
L 787.025251 164.4264 
L 787.313027 163.872 
L 787.43698 163.3176 
L 787.518 163.185977 
L 787.613369 163.3176 
L 787.781342 163.872 
L 788.076 164.245048 
L 788.178124 164.4264 
L 788.443849 164.9808 
L 788.634 165.169724 
L 788.841216 165.5352 
L 789.192 166.000621 
L 789.253961 166.0896 
L 789.419097 166.644 
L 789.604069 167.1984 
L 789.307981 167.7528 
L 789.192 167.863585 
L 788.634 168.223695 
L 788.549953 168.3072 
z
" style="fill:#ffffff;"/>
   </g>
   <g id="patch_17">
    <path clip-path="url(#p8a411162d9)" d="M 790.308 163.528918 
L 790.209421 163.3176 
L 790.308 163.059875 
L 790.398118 163.3176 
z
" style="fill:#ffffff;"/>
   </g>
   <g id="patch_18">
    <path clip-path="url(#p8a411162d9)" d="M 755.712 167.404279 
L 755.154 167.395546 
L 754.596 167.259961 
L 754.505116 167.1984 
L 754.038 166.852157 
L 753.831858 166.644 
L 753.830784 166.0896 
L 753.859121 165.5352 
L 754.038 165.169383 
L 754.227808 164.9808 
L 754.596 164.443279 
L 755.154 164.891174 
L 755.244208 164.9808 
L 755.712 165.445574 
L 755.802208 165.5352 
L 756.27 165.999974 
L 756.358296 166.0896 
L 756.464353 166.644 
L 756.27 167.114895 
L 756.185953 167.1984 
z
" style="fill:#ffffff;"/>
   </g>
   <g id="patch_19">
    <path clip-path="url(#p8a411162d9)" d="M 676.576491 189.3744 
L 677.034 189.269749 
L 677.592 189.209233 
L 678.15 189.155275 
L 678.708 188.88483 
L 678.773251 188.82 
L 679.266 188.637092 
L 679.824 188.33043 
L 679.889251 188.2656 
L 680.382 188.08618 
L 680.94 187.913477 
L 681.212263 187.7112 
L 681.498 187.606549 
L 682.056 187.50755 
L 682.48007 187.1568 
L 682.614 186.997967 
L 682.935023 186.6024 
L 682.964784 186.048 
L 682.964784 185.4936 
L 682.964784 184.9392 
L 682.964784 184.3848 
L 682.964784 183.8304 
L 682.964784 183.276 
L 682.950222 182.7216 
L 682.777118 182.1672 
L 682.614 181.898777 
L 682.524758 181.6128 
L 682.388192 181.0584 
L 682.056 180.705076 
L 681.848446 180.504 
L 681.498 180.179298 
L 680.94 180.011161 
L 680.838587 179.9496 
L 680.382 179.620832 
L 679.824 179.456761 
L 679.748254 179.3952 
L 679.266 178.975579 
L 679.130345 178.8408 
L 678.708 178.421179 
L 678.554994 178.2864 
L 678.15 177.933469 
L 677.782151 177.732 
L 678.15 177.484145 
L 678.537553 177.1776 
L 678.708 177.008253 
L 679.016535 176.6232 
L 679.058784 176.0688 
L 679.044222 175.5144 
L 678.871118 174.96 
L 678.708 174.75802 
L 678.584887 174.4056 
L 678.480903 173.8512 
L 678.15 173.499106 
L 677.952774 173.2968 
L 677.592 172.961403 
L 677.034 172.783189 
L 676.99114 172.7424 
L 676.692379 172.188 
L 676.476 171.96497 
L 676.284196 171.6336 
L 675.918 171.228442 
L 675.780861 171.0792 
L 675.36 170.661054 
L 675.185715 170.5248 
L 674.802 170.196032 
L 674.244 170.031961 
L 674.11479 169.9704 
L 673.686 169.683309 
L 673.128 169.621879 
L 672.57 169.621879 
L 672.012 169.699212 
L 671.645175 169.9704 
L 671.454 170.061677 
L 670.896 170.232043 
L 670.567151 170.5248 
L 670.338 170.818452 
L 670.109724 171.0792 
L 669.987216 171.6336 
L 669.987216 172.188 
L 669.987216 172.7424 
L 669.987216 173.2968 
L 669.987216 173.8512 
L 669.987216 174.4056 
L 669.987216 174.96 
L 669.987216 175.5144 
L 669.987216 176.0688 
L 669.987216 176.6232 
L 669.987216 177.1776 
L 670.0739 177.732 
L 670.338 178.051264 
L 670.498862 178.2864 
L 670.896 178.630314 
L 671.454 178.819818 
L 671.491524 178.8408 
L 672.012 179.165502 
L 672.57 179.189321 
L 673.128 179.189321 
L 673.686 179.189321 
L 674.244 179.189321 
L 674.802 179.190388 
L 675.36 179.209629 
L 675.918 179.241056 
L 676.208086 179.3952 
L 676.476 179.652993 
L 677.034 179.877062 
L 677.113856 179.9496 
L 677.592 180.414374 
L 677.682208 180.504 
L 678.15 180.958925 
L 678.276234 181.0584 
L 678.708 181.407988 
L 679.200135 181.6128 
L 679.266 181.67824 
L 679.824 181.930198 
L 680.218882 182.1672 
L 680.382 182.344015 
L 680.526233 182.7216 
L 680.563492 183.276 
L 680.570637 183.8304 
L 680.585817 184.3848 
L 680.589216 184.9392 
L 680.561792 185.4936 
L 680.382 185.641337 
L 679.824 185.748163 
L 679.432058 186.048 
L 679.266 186.138857 
L 678.708 186.295855 
L 678.31042 186.6024 
L 678.15 186.693257 
L 677.592 186.837848 
L 677.034 186.967876 
L 676.664967 187.1568 
L 676.476 187.208189 
L 675.918 187.298818 
L 675.36 187.332861 
L 674.802 187.34803 
L 674.244 187.296992 
L 673.971885 187.1568 
L 674.244 187.052149 
L 674.802 186.955331 
L 675.206994 186.6024 
L 675.36 186.409147 
L 675.668535 186.048 
L 675.681023 185.4936 
L 675.36 185.15096 
L 675.073989 184.9392 
L 674.802 184.693456 
L 674.244 184.646443 
L 673.686 184.87437 
L 673.613168 184.9392 
L 673.128 185.086937 
L 672.57 185.180692 
L 672.012 185.42877 
L 671.939168 185.4936 
L 671.454 185.641337 
L 670.896 185.760909 
L 670.589633 186.048 
L 670.338 186.332035 
L 670.083315 186.6024 
L 669.987216 187.1568 
L 669.987216 187.7112 
L 670.0739 188.2656 
L 670.338 188.584864 
L 670.5031 188.82 
L 670.896 189.159097 
L 671.454 189.353418 
L 671.491524 189.3744 
L 672.012 189.699102 
L 672.57 189.722921 
L 673.128 189.722921 
L 673.686 189.722921 
L 674.244 189.722921 
L 674.802 189.722921 
L 675.36 189.708453 
L 675.918 189.627441 
L 676.476 189.43923 
z
" style="fill:#0000ff;"/>
   </g>
   <g id="patch_20">
    <path clip-path="url(#p8a411162d9)" d="M 701.028 175.664016 
L 700.47 175.682591 
L 699.912 175.697308 
L 699.354 175.70656 
L 698.796 175.575961 
L 698.707734 175.5144 
L 698.238 175.16365 
L 697.870151 174.96 
L 697.68 174.771076 
L 697.122 174.505601 
L 697.006764 174.4056 
L 696.836949 173.8512 
L 697.080276 173.2968 
L 697.122 173.244047 
L 697.491273 172.7424 
L 697.68 172.25283 
L 697.745251 172.188 
L 698.053904 171.6336 
L 698.238 171.14403 
L 698.303251 171.0792 
L 698.796 170.58963 
L 698.861251 170.5248 
L 699.354 170.355018 
L 699.912 170.234723 
L 700.223562 169.9704 
L 700.47 169.84974 
L 701.028 169.810771 
L 701.586 169.800691 
L 702.144 169.790162 
L 702.371097 169.9704 
L 702.702 170.424042 
L 702.763961 170.5248 
L 702.929097 171.0792 
L 703.26 171.532842 
L 703.321961 171.6336 
L 703.49119 172.188 
L 703.818 172.536185 
L 703.969188 172.7424 
L 703.877636 173.2968 
L 703.818 173.359922 
L 703.380665 173.8512 
L 703.26 173.978437 
L 702.830063 174.4056 
L 702.702 174.53826 
L 702.277521 174.96 
L 702.144 175.082814 
L 701.586 175.442985 
L 701.51023 175.5144 
z
" style="fill:#ffffff;"/>
   </g>
   <g id="patch_21">
    <path clip-path="url(#p8a411162d9)" d="M 676.476 176.906412 
L 675.918 176.829079 
L 675.36 176.829079 
L 674.802 176.829079 
L 674.244 176.829079 
L 673.686 176.829079 
L 673.128 176.822535 
L 672.57 176.804263 
L 672.362784 176.6232 
L 672.362784 176.0688 
L 672.362784 175.5144 
L 672.362784 174.96 
L 672.362784 174.4056 
L 672.362784 173.8512 
L 672.362784 173.2968 
L 672.57 172.80723 
L 673.128 173.090921 
L 673.686 173.293625 
L 673.693343 173.2968 
L 674.244 173.589557 
L 674.802 173.747783 
L 674.912865 173.8512 
L 675.36 174.277113 
L 675.513006 174.4056 
L 675.918 174.758531 
L 676.312882 174.96 
L 676.476 175.136815 
L 676.623384 175.5144 
L 676.683216 176.0688 
L 676.7699 176.6232 
z
" style="fill:#ffffff;"/>
   </g>
   <g id="patch_22">
    <path clip-path="url(#p8a411162d9)" d="M 677.034 177.22091 
L 676.935303 177.1776 
L 677.034 177.074307 
L 677.120674 177.1776 
z
" style="fill:#ffffff;"/>
   </g>
  </g>
 </g>
 <defs>
  <clipPath id="p8a411162d9">
   <rect height="567.7056" width="762.228" x="122.94" y="88.4736"/>
  </clipPath>
 </defs>
</svg>
