<?xml version="1.0" encoding="utf-8" standalone="no"?>
<!DOCTYPE svg PUBLIC "-//W3C//DTD SVG 1.1//EN"
  "http://www.w3.org/Graphics/SVG/1.1/DTD/svg11.dtd">
<!-- Created with matplotlib (https://matplotlib.org/) -->
<svg height="737.28pt" version="1.1" viewBox="0 0 983.52 737.28" width="983.52pt" xmlns="http://www.w3.org/2000/svg" xmlns:xlink="http://www.w3.org/1999/xlink">
 <defs>
  <style type="text/css">
*{stroke-linecap:butt;stroke-linejoin:round;}
  </style>
 </defs>
 <g id="figure_1">
  <g id="patch_1">
   <path d="M 0 737.28 
L 983.52 737.28 
L 983.52 0 
L 0 0 
z
" style="fill:none;"/>
  </g>
  <g id="axes_1">
   <g id="patch_2">
    <path clip-path="url(#pf85b0bbb23)" d="M 374.427553 321.876 
L 374.598 321.668965 
L 374.864256 321.3216 
L 374.948784 320.7672 
L 374.948784 320.2128 
L 374.948784 319.6584 
L 374.948784 319.104 
L 374.934222 318.5496 
L 374.776928 317.9952 
L 374.598 317.775806 
L 374.474941 317.4408 
L 374.381298 316.8864 
L 374.105865 316.332 
L 374.04 316.26656 
L 373.80002 315.7776 
L 373.482 315.262791 
L 373.460882 315.2232 
L 373.280354 314.6688 
L 373.087118 314.1144 
L 372.924 313.863322 
L 372.824879 313.56 
L 372.688567 313.0056 
L 372.529118 312.4512 
L 372.366 312.24922 
L 372.242887 311.8968 
L 372.167574 311.3424 
L 372.158784 310.788 
L 372.158784 310.2336 
L 372.366 310.027721 
L 372.924 310.027721 
L 373.482 310.027721 
L 374.04 310.027721 
L 374.598 310.027721 
L 375.156 309.985745 
L 375.543553 309.6792 
L 375.714 309.509853 
L 376.022535 309.1248 
L 376.002955 308.5704 
L 375.714 308.238641 
L 375.448871 308.016 
L 375.156 307.770256 
L 374.598 307.667479 
L 374.04 307.667479 
L 373.482 307.667479 
L 372.924 307.667479 
L 372.366 307.667479 
L 372.158784 307.4616 
L 372.158784 306.9072 
L 372.158784 306.3528 
L 372.158784 305.7984 
L 372.158784 305.244 
L 372.158784 304.6896 
L 372.158784 304.1352 
L 372.158784 303.5808 
L 372.158784 303.0264 
L 372.158784 302.472 
L 372.158784 301.9176 
L 372.158784 301.3632 
L 372.158784 300.8088 
L 372.158784 300.2544 
L 372.158784 299.7 
L 372.158784 299.1456 
L 372.158784 298.5912 
L 372.158784 298.0368 
L 372.096955 297.4824 
L 371.808 297.150641 
L 371.542871 296.928 
L 371.25 296.682256 
L 370.692 296.701197 
L 370.429559 296.928 
L 370.134 297.221652 
L 369.905724 297.4824 
L 369.783216 298.0368 
L 369.783216 298.5912 
L 369.783216 299.1456 
L 369.700774 299.7 
L 369.576 299.982777 
L 369.347724 300.2544 
L 369.180207 300.8088 
L 369.018 301.275295 
L 368.933953 301.3632 
L 368.648637 301.9176 
L 368.521961 302.472 
L 368.46 302.560302 
L 368.108034 303.0264 
L 367.902 303.444918 
L 367.765236 303.5808 
L 367.463459 304.1352 
L 367.344 304.269979 
L 366.921655 304.6896 
L 366.786 304.824379 
L 366.363655 305.244 
L 366.228 305.37454 
L 365.801388 305.7984 
L 365.67 305.944148 
L 365.141051 306.3528 
L 365.112 306.377902 
L 364.685388 306.9072 
L 364.554 307.052948 
L 364.025051 307.4616 
L 363.996 307.486702 
L 363.569388 308.016 
L 363.438 308.150779 
L 363.015655 308.5704 
L 362.88 308.705179 
L 362.466604 309.1248 
L 362.322 309.407577 
L 362.093724 309.6792 
L 362.0579 310.2336 
L 362.322 310.552864 
L 362.529383 310.788 
L 362.88 311.080757 
L 363.438 311.136521 
L 363.996 311.136521 
L 364.554 311.122053 
L 365.112 310.893954 
L 365.229881 310.788 
L 365.67 310.639634 
L 366.228 310.543368 
L 366.652914 310.2336 
L 366.786 310.160002 
L 367.344 310.073324 
L 367.902 310.065409 
L 368.46 310.056751 
L 369.018 310.048029 
L 369.576 310.039361 
L 369.783216 310.2336 
L 369.783216 310.788 
L 369.783216 311.3424 
L 369.825465 311.8968 
L 369.95909 312.4512 
L 370.134 312.733495 
L 370.221853 313.0056 
L 370.366679 313.56 
L 370.513072 314.1144 
L 370.692 314.314278 
L 370.831881 314.6688 
L 370.92319 315.2232 
L 371.184135 315.7776 
L 371.25 315.84304 
L 371.470425 316.332 
L 371.808 316.789682 
L 371.869961 316.8864 
L 372.010778 317.4408 
L 372.202882 317.9952 
L 372.366 318.172015 
L 372.512768 318.5496 
L 372.573216 319.104 
L 372.573216 319.6584 
L 372.573216 320.2128 
L 372.573216 320.7672 
L 372.655408 321.3216 
L 372.924 321.645222 
L 373.131383 321.876 
L 373.482 322.168757 
L 374.04 322.182545 
z
" style="fill:#0000ff;"/>
   </g>
   <g id="patch_3">
    <path clip-path="url(#pf85b0bbb23)" d="M 369.576 307.667479 
L 369.018 307.667479 
L 368.46 307.667479 
L 367.902 307.667479 
L 367.344 307.493081 
L 367.314949 307.4616 
L 367.344 307.438339 
L 367.813256 306.9072 
L 367.902 306.80092 
L 368.430949 306.3528 
L 368.46 306.329539 
L 368.929256 305.7984 
L 369.018 305.700221 
L 369.407843 305.244 
L 369.576 304.978164 
L 369.767158 305.244 
L 369.783216 305.7984 
L 369.783216 306.3528 
L 369.783216 306.9072 
L 369.783216 307.4616 
z
" style="fill:#ffffff;"/>
   </g>
   <g id="patch_4">
    <path clip-path="url(#pf85b0bbb23)" d="M 361.035553 334.6272 
L 361.206 334.457853 
L 361.514535 334.0728 
L 361.556784 333.5184 
L 361.556784 332.964 
L 361.556784 332.4096 
L 361.494955 331.8552 
L 361.206 331.523441 
L 360.940871 331.3008 
L 360.648 331.055056 
L 360.09 331.073997 
L 359.882784 330.7464 
L 359.882784 330.192 
L 359.882784 329.6376 
L 359.882784 329.0832 
L 360.09 328.821557 
L 360.648 328.877321 
L 361.206 328.877321 
L 361.764 328.867897 
L 362.322 328.731077 
L 362.594263 328.5288 
L 362.88 328.424149 
L 363.438 328.329465 
L 363.996 328.03923 
L 364.061251 327.9744 
L 364.554 327.785094 
L 365.112 327.48483 
L 365.177251 327.42 
L 365.67 327.229691 
L 366.173814 326.8656 
L 366.228 326.824167 
L 366.786 326.582388 
L 367.076438 326.3112 
L 367.344 326.145872 
L 367.804397 325.7568 
L 367.902 325.658621 
L 368.291843 325.2024 
L 368.46 324.885859 
L 368.682433 324.648 
L 368.976063 324.0936 
L 369.018 324.003476 
L 369.305123 323.5392 
L 369.368784 322.9848 
L 369.368784 322.4304 
L 369.34481 321.876 
L 369.018 321.498389 
L 368.862093 321.3216 
L 368.46 320.972012 
L 368.092151 320.7672 
L 367.902 320.578276 
L 367.344 320.313788 
L 367.192319 320.2128 
L 366.786 319.884032 
L 366.228 319.719961 
L 366.09879 319.6584 
L 365.67 319.371309 
L 365.112 319.309879 
L 364.554 319.309879 
L 364.346784 319.104 
L 364.346784 318.5496 
L 364.346784 317.9952 
L 364.346784 317.4408 
L 364.346784 316.8864 
L 364.346784 316.332 
L 364.346784 315.7776 
L 364.332222 315.2232 
L 364.159118 314.6688 
L 363.996 314.46682 
L 363.872357 314.1144 
L 363.768903 313.56 
L 363.438 313.207906 
L 363.230446 313.0056 
L 362.88 312.680898 
L 362.322 312.512761 
L 362.19279 312.4512 
L 361.764 312.164109 
L 361.206 312.102679 
L 360.648 312.102679 
L 360.09 312.158443 
L 359.532 312.38637 
L 359.459168 312.4512 
L 358.974 312.598937 
L 358.416 312.705763 
L 358.024058 313.0056 
L 357.858 313.096877 
L 357.3 313.253455 
L 356.90242 313.56 
L 356.742 313.650815 
L 356.184 313.807855 
L 355.851249 314.1144 
L 355.626 314.381796 
L 355.3619 314.6688 
L 355.256727 315.2232 
L 355.21094 315.7776 
L 355.068 316.226713 
L 354.97238 316.332 
L 354.813315 316.8864 
L 354.726702 317.4408 
L 354.665106 317.9952 
L 354.551054 318.5496 
L 354.51 318.729849 
L 354.343001 319.104 
L 354.255315 319.6584 
L 354.161508 320.2128 
L 354.115507 320.7672 
L 354.023561 321.3216 
L 353.952 321.608985 
L 353.806069 321.876 
L 353.663045 322.4304 
L 353.601216 322.9848 
L 353.683408 323.5392 
L 353.952 323.862822 
L 354.159383 324.0936 
L 354.51 324.386357 
L 355.068 324.400145 
L 355.455553 324.0936 
L 355.626 323.886565 
L 355.892256 323.5392 
L 355.985574 322.9848 
L 356.029495 322.4304 
L 356.122039 321.876 
L 356.184 321.662544 
L 356.374151 321.3216 
L 356.492535 320.7672 
L 356.556961 320.2128 
L 356.641089 319.6584 
L 356.742 319.535179 
L 356.8574 319.6584 
L 356.976048 320.2128 
L 357.3 320.718666 
L 357.327205 320.7672 
L 357.453806 321.3216 
L 357.468494 321.876 
L 357.477205 322.4304 
L 357.484952 322.9848 
L 357.502778 323.5392 
L 357.507216 324.0936 
L 357.507216 324.648 
L 357.507216 325.2024 
L 357.507216 325.7568 
L 357.507216 326.3112 
L 357.507216 326.8656 
L 357.507216 327.42 
L 357.507216 327.9744 
L 357.507216 328.5288 
L 357.507216 329.0832 
L 357.507216 329.6376 
L 357.507216 330.192 
L 357.507216 330.7464 
L 357.507216 331.3008 
L 357.507216 331.8552 
L 357.507216 332.4096 
L 357.507216 332.964 
L 357.507216 333.5184 
L 357.5939 334.0728 
L 357.858 334.392064 
L 358.065383 334.6272 
L 358.416 334.919957 
L 358.974 334.975721 
L 359.532 334.975721 
L 360.09 334.975721 
L 360.648 334.933745 
z
" style="fill:#0000ff;"/>
   </g>
   <g id="patch_5">
    <path clip-path="url(#pf85b0bbb23)" d="M 362.322 326.320246 
L 361.764 326.465344 
L 361.529238 326.3112 
L 361.527023 325.7568 
L 361.206 325.41416 
L 360.911903 325.2024 
L 360.648 324.964572 
L 360.09 325.013476 
L 359.882784 324.648 
L 359.882784 324.0936 
L 359.882784 323.5392 
L 359.882784 322.9848 
L 359.882784 322.4304 
L 359.882784 321.876 
L 359.882784 321.3216 
L 359.85881 320.7672 
L 359.62762 320.2128 
L 359.532 320.099794 
L 359.35696 319.6584 
L 359.221339 319.104 
L 358.974 318.699174 
L 358.911346 318.5496 
L 358.744146 317.9952 
L 358.416 317.626794 
L 358.176364 317.4408 
L 357.858 317.169612 
L 357.3 317.012622 
L 357.206792 316.8864 
L 357.3 316.449241 
L 357.365865 316.332 
L 357.608535 315.7776 
L 357.858 315.592029 
L 358.416 315.28803 
L 358.481251 315.2232 
L 358.974 315.042053 
L 359.532 314.871077 
L 359.804263 314.6688 
L 360.09 314.564149 
L 360.648 314.485041 
L 361.206 314.497547 
L 361.600882 314.6688 
L 361.764 314.845615 
L 361.907584 315.2232 
L 361.937949 315.7776 
L 361.942879 316.332 
L 361.949903 316.8864 
L 361.956472 317.4408 
L 361.970034 317.9952 
L 361.970034 318.5496 
L 361.953536 319.104 
L 361.925573 319.6584 
L 361.764 319.806137 
L 361.206 319.925709 
L 360.882703 320.2128 
L 360.648 320.495148 
L 360.408627 320.7672 
L 360.297216 321.3216 
L 360.297216 321.876 
L 360.375051 322.4304 
L 360.648 322.758222 
L 360.831138 322.9848 
L 361.206 323.303752 
L 361.764 323.309502 
L 362.322 323.04963 
L 362.387251 322.9848 
L 362.88 322.79264 
L 363.293003 322.4304 
L 363.438 322.286339 
L 363.802592 321.876 
L 363.996 321.699939 
L 364.554 321.689465 
L 365.112 321.693092 
L 365.67 321.855018 
L 365.698202 321.876 
L 366.228 322.247699 
L 366.561521 322.4304 
L 366.786 322.645383 
L 366.955284 322.9848 
L 366.786 323.309435 
L 366.554743 323.5392 
L 366.346331 324.0936 
L 366.228 324.223427 
L 365.67 324.435957 
L 365.430422 324.648 
L 365.112 324.841818 
L 364.691138 325.2024 
L 364.554 325.292798 
L 363.996 325.445528 
L 363.594499 325.7568 
L 363.438 325.847198 
L 362.88 325.985171 
L 362.338307 326.3112 
z
" style="fill:#ffffff;"/>
   </g>
   <g id="patch_6">
    <path clip-path="url(#pf85b0bbb23)" d="M 305.816658 388.9584 
L 305.964 388.799567 
L 306.285023 388.404 
L 306.314784 387.8496 
L 306.314784 387.2952 
L 306.314784 386.7408 
L 306.314784 386.1864 
L 306.314784 385.632 
L 306.252955 385.0776 
L 305.964 384.745841 
L 305.698871 384.5232 
L 305.406 384.277456 
L 305.198784 383.9688 
L 305.198784 383.4144 
L 305.198784 382.86 
L 305.198784 382.3056 
L 305.198784 381.7512 
L 305.198784 381.1968 
L 305.198784 380.6424 
L 305.198784 380.088 
L 305.198784 379.5336 
L 305.198784 378.9792 
L 305.198784 378.4248 
L 305.198784 377.8704 
L 305.184222 377.316 
L 305.051909 376.7616 
L 304.848 376.318968 
L 304.818348 376.2072 
L 304.69903 375.6528 
L 304.654592 375.0984 
L 304.60009 374.544 
L 304.472864 373.9896 
L 304.29 373.719874 
L 304.197556 373.4352 
L 304.154416 372.8808 
L 304.29 372.6016 
L 304.461123 372.8808 
L 304.848 373.246663 
L 305.181521 373.4352 
L 305.406 373.650183 
L 305.6999 373.9896 
L 305.964 374.321396 
L 306.152915 374.544 
L 306.522 374.843837 
L 307.08 374.930993 
L 307.638 374.993749 
L 308.095509 375.0984 
L 308.196 375.16323 
L 308.754 375.351441 
L 309.312 375.432453 
L 309.87 375.437497 
L 310.428 375.344144 
L 310.922679 375.0984 
L 310.986 375.077418 
L 311.544 374.95264 
L 312.102 374.883097 
L 312.595524 374.544 
L 312.66 374.502333 
L 313.218 374.260788 
L 313.508438 373.9896 
L 313.776 373.822528 
L 314.235184 373.4352 
L 314.334 373.344594 
L 314.800805 372.8808 
L 314.892 372.790194 
L 315.358805 372.3264 
L 315.45 372.197795 
L 315.780903 371.772 
L 315.77681 371.2176 
L 315.488881 370.6632 
L 315.45 370.616156 
L 315.27496 370.1088 
L 315.139339 369.5544 
L 314.892 369.238902 
L 314.784689 369 
L 314.675298 368.4456 
L 314.497118 367.8912 
L 314.334 367.68922 
L 314.210357 367.3368 
L 314.106903 366.7824 
L 313.776 366.430306 
L 313.568446 366.228 
L 313.218 365.903298 
L 312.66 365.735161 
L 312.564884 365.6736 
L 312.305591 365.1192 
L 312.42002 364.5648 
L 312.559499 364.0104 
L 312.66 363.711 
L 312.823118 363.456 
L 313.028373 362.9016 
L 313.218 362.41203 
L 313.283251 362.3472 
L 313.543321 361.7928 
L 313.776 361.30323 
L 313.841251 361.2384 
L 314.098567 360.684 
L 314.334 360.19443 
L 314.399251 360.1296 
L 314.64894 359.5752 
L 314.670222 359.0208 
L 314.573373 358.4664 
L 314.892 358.257029 
L 315.33239 357.912 
L 315.45 357.822374 
L 315.917792 357.3576 
L 316.008 357.266994 
L 316.474805 356.8032 
L 316.566 356.712594 
L 317.032805 356.2488 
L 317.124 356.131158 
L 317.470147 355.6944 
L 317.617904 355.14 
L 317.682 354.981662 
L 317.918538 354.5856 
L 318.06496 354.0312 
L 318.24 353.596423 
L 318.341462 353.4768 
L 318.576222 352.9224 
L 318.590784 352.368 
L 318.590784 351.8136 
L 318.590784 351.2592 
L 318.590784 350.7048 
L 318.590784 350.1504 
L 318.590784 349.596 
L 318.55494 349.0416 
L 318.24 348.695477 
L 318.028799 348.4872 
L 317.682 348.175928 
L 317.124 348.079234 
L 316.638832 347.9328 
L 316.566 347.86797 
L 316.008 347.640043 
L 315.780903 347.3784 
L 315.800784 346.824 
L 315.800784 346.2696 
L 315.800784 345.7152 
L 315.800784 345.1608 
L 315.800784 344.6064 
L 315.800784 344.052 
L 315.800784 343.4976 
L 315.800784 342.9432 
L 315.800784 342.3888 
L 315.771023 341.8344 
L 315.45 341.472533 
L 315.261568 341.28 
L 314.892 340.955298 
L 314.334 340.787161 
L 314.199102 340.7256 
L 313.776 340.446327 
L 313.218 340.463204 
L 312.896663 340.7256 
L 312.66 340.856795 
L 312.186533 341.28 
L 312.102 341.355219 
L 311.544 341.79577 
L 311.505119 341.8344 
L 310.986 342.161997 
L 310.757724 342.3888 
L 310.428 342.636655 
L 310.111115 342.9432 
L 309.87 343.136945 
L 309.465006 343.4976 
L 309.312 343.640872 
L 308.754 343.935606 
L 308.63685 344.052 
L 308.196 344.400703 
L 307.988967 344.6064 
L 307.638 344.896262 
L 307.326225 345.1608 
L 307.08 345.364927 
L 306.653455 345.7152 
L 306.522 345.814272 
L 306.144443 346.2696 
L 305.964 346.598397 
L 305.760409 346.824 
L 305.613216 347.3784 
L 305.6999 347.9328 
L 305.964 348.252064 
L 306.171383 348.4872 
L 306.522 348.779957 
L 307.08 348.793745 
L 307.467553 348.4872 
L 307.638 348.359207 
L 308.196 348.239345 
L 308.754 348.300665 
L 309.312 348.372313 
L 309.87 348.477862 
L 309.909139 348.4872 
L 310.428 348.692587 
L 310.986 348.79218 
L 311.544 348.847457 
L 312.102 348.942155 
L 312.424351 349.0416 
L 312.66 349.199331 
L 313.218 349.419071 
L 313.776 349.575018 
L 313.81318 349.596 
L 314.334 349.922029 
L 314.892 349.957111 
L 315.45 349.971873 
L 316.008 350.028657 
L 316.160694 350.1504 
L 316.215216 350.7048 
L 316.215216 351.2592 
L 316.215216 351.8136 
L 316.215216 352.368 
L 316.14794 352.9224 
L 316.008 353.144541 
L 315.697755 353.4768 
L 315.56991 354.0312 
L 315.45 354.217223 
L 315.139755 354.5856 
L 314.892 354.977934 
L 314.728882 355.14 
L 314.456404 355.6944 
L 314.334 355.822259 
L 313.835737 356.2488 
L 313.776 356.300189 
L 313.218 356.411854 
L 312.66 356.310361 
L 312.558587 356.2488 
L 312.102 355.920032 
L 311.544 355.755961 
L 311.396248 355.6944 
L 310.986 355.432004 
L 310.428 355.407309 
L 309.87 355.532334 
L 309.557126 355.6944 
L 309.312 355.755961 
L 308.754 355.847214 
L 308.196 355.888543 
L 307.638 355.969527 
L 307.195413 356.2488 
L 307.08 356.300189 
L 306.522 356.44096 
L 305.964 356.625426 
L 305.762824 356.8032 
L 305.406 356.944073 
L 304.848 357.064843 
L 304.497383 357.3576 
L 304.29 357.474642 
L 303.732 357.674172 
L 303.475353 357.912 
L 303.174 358.070992 
L 302.616 358.360446 
L 302.509358 358.4664 
L 302.058 358.665735 
L 301.572192 359.0208 
L 301.5 359.072189 
L 300.942 359.275363 
L 300.631822 359.5752 
L 300.384 359.919456 
L 300.180409 360.1296 
L 300.019502 360.684 
L 299.977871 361.2384 
L 299.826 361.744935 
L 299.780432 361.7928 
L 299.662882 362.3472 
L 299.537045 362.9016 
L 299.451163 363.456 
L 299.357703 364.0104 
L 299.268 364.445896 
L 299.202749 364.5648 
L 299.077849 365.1192 
L 298.966216 365.6736 
L 298.898727 366.228 
L 298.853584 366.7824 
L 298.761723 367.3368 
L 298.71 367.524548 
L 298.519849 367.8912 
L 298.287655 368.4456 
L 298.152 368.580379 
L 297.738604 369 
L 297.594 369.282777 
L 297.365724 369.5544 
L 297.325408 370.1088 
L 297.594 370.432422 
L 297.801383 370.6632 
L 298.152 370.955957 
L 298.71 370.969745 
L 299.10758 370.6632 
L 299.268 370.541871 
L 299.795802 370.1088 
L 299.826 370.085101 
L 300.283879 369.5544 
L 300.384 369.413068 
L 300.715033 369 
L 300.778493 368.4456 
L 300.851882 367.8912 
L 300.942 367.482154 
L 301.026047 367.3368 
L 301.214949 366.7824 
L 301.28927 366.228 
L 301.336493 365.6736 
L 301.409882 365.1192 
L 301.5 364.671108 
L 301.55907 364.5648 
L 301.733919 364.0104 
L 301.81802 363.456 
L 301.896617 362.9016 
L 301.986439 362.3472 
L 302.058 361.947756 
L 302.129879 361.7928 
L 302.352658 361.2384 
L 302.616 360.959388 
L 303.036214 360.684 
L 303.174 360.620513 
L 303.732 360.391996 
L 304.030768 360.1296 
L 304.29 359.989135 
L 304.848 359.72019 
L 304.993931 359.5752 
L 305.406 359.386797 
L 305.964 359.126754 
L 306.081881 359.0208 
L 306.522 358.869799 
L 307.08 358.745673 
L 307.48567 358.4664 
L 307.638 358.3953 
L 308.196 358.27907 
L 308.754 358.232347 
L 309.312 358.18954 
L 309.6059 358.4664 
L 309.87 358.785664 
L 310.077383 359.0208 
L 310.428 359.313557 
L 310.986 359.369321 
L 311.544 359.369321 
L 312.102 359.439881 
L 312.193447 359.5752 
L 312.102 359.734585 
L 311.793465 360.1296 
L 311.544 360.638726 
L 311.498432 360.684 
L 311.221573 361.2384 
L 310.986 361.734111 
L 310.92693 361.7928 
L 310.68773 362.3472 
L 310.581743 362.9016 
L 310.428 363.117761 
L 310.095679 363.456 
L 309.87 363.894006 
L 309.75285 364.0104 
L 309.362119 364.5648 
L 309.312 364.611072 
L 308.754 364.974638 
L 308.59461 365.1192 
L 308.196 365.266251 
L 307.638 365.380843 
L 307.298616 365.6736 
L 307.08 365.817272 
L 306.657655 366.228 
L 306.522 366.362779 
L 306.327492 366.228 
L 306.314784 365.6736 
L 306.29081 365.1192 
L 306.002881 364.5648 
L 305.964 364.523929 
L 305.799584 364.0104 
L 305.653339 363.456 
L 305.406 363.140502 
L 305.299167 362.9016 
L 305.176146 362.3472 
L 304.848 361.978794 
L 304.623913 361.7928 
L 304.29 361.505709 
L 303.732 361.530404 
L 303.433232 361.7928 
L 303.174 362.050359 
L 302.9099 362.3472 
L 302.818778 362.9016 
L 302.808472 363.456 
L 302.797408 364.0104 
L 302.789116 364.5648 
L 302.779439 365.1192 
L 302.765266 365.6736 
L 302.616 366.071667 
L 302.465423 366.228 
L 302.260778 366.7824 
L 302.146104 367.3368 
L 302.058 367.613684 
L 301.88309 367.8912 
L 301.769045 368.4456 
L 301.707216 369 
L 301.707216 369.5544 
L 301.707216 370.1088 
L 301.707216 370.6632 
L 301.707216 371.2176 
L 301.707216 371.772 
L 301.707216 372.3264 
L 301.707216 372.8808 
L 301.756216 373.4352 
L 301.854091 373.9896 
L 302.058 374.432232 
L 302.087652 374.544 
L 302.223798 375.0984 
L 302.30106 375.6528 
L 302.412091 376.2072 
L 302.616 376.649832 
L 302.645652 376.7616 
L 302.793998 377.316 
L 302.823216 377.8704 
L 302.823216 378.4248 
L 302.823216 378.9792 
L 302.823216 379.5336 
L 302.823216 380.088 
L 302.823216 380.6424 
L 302.823216 381.1968 
L 302.823216 381.7512 
L 302.823216 382.3056 
L 302.823216 382.86 
L 302.823216 383.4144 
L 302.823216 383.9688 
L 302.823216 384.5232 
L 302.823216 385.0776 
L 302.823216 385.632 
L 302.823216 386.1864 
L 302.823216 386.7408 
L 302.823216 387.2952 
L 302.885045 387.8496 
L 303.174 388.192624 
L 303.329907 388.404 
L 303.732 388.753588 
L 304.29 388.937418 
L 304.330689 388.9584 
L 304.848 389.271308 
L 305.406 389.292453 
z
" style="fill:#0000ff;"/>
   </g>
   <g id="patch_7">
    <path clip-path="url(#pf85b0bbb23)" d="M 312.102 347.54012 
L 311.544 347.4495 
L 311.276213 347.3784 
L 310.986 347.216334 
L 310.428 347.085643 
L 309.87 347.014309 
L 309.312 346.961763 
L 309.075049 346.824 
L 309.312 346.600205 
L 309.628885 346.2696 
L 309.87 346.019904 
L 310.266056 345.7152 
L 310.428 345.582214 
L 310.936325 345.1608 
L 310.986 345.119588 
L 311.544 344.689905 
L 311.628047 344.6064 
L 312.102 344.237166 
L 312.288368 344.052 
L 312.66 343.804145 
L 312.976885 343.4976 
L 313.218 343.303855 
L 313.417367 343.4976 
L 313.425216 344.052 
L 313.425216 344.6064 
L 313.425216 345.1608 
L 313.425216 345.7152 
L 313.425216 346.2696 
L 313.218 346.531243 
L 312.889151 346.824 
L 312.66 347.117652 
L 312.431724 347.3784 
z
" style="fill:#ffffff;"/>
   </g>
   <g id="patch_8">
    <path clip-path="url(#pf85b0bbb23)" d="M 305.964 366.953715 
L 305.852281 366.7824 
L 305.964 366.671402 
L 306.036892 366.7824 
z
" style="fill:#ffffff;"/>
   </g>
   <g id="patch_9">
    <path clip-path="url(#pf85b0bbb23)" d="M 310.986 372.377789 
L 310.428 372.461795 
L 309.87 372.503249 
L 309.312 372.546747 
L 308.754 372.601334 
L 308.196 372.632904 
L 307.638 372.483252 
L 307.482093 372.3264 
L 307.08 371.976812 
L 306.712151 371.772 
L 306.522 371.583076 
L 305.964 371.318068 
L 305.729659 371.2176 
L 305.406 370.979772 
L 304.848 371.002617 
L 304.623521 371.2176 
L 304.29 371.54897 
L 304.122493 371.2176 
L 304.110313 370.6632 
L 304.104184 370.1088 
L 304.096592 369.5544 
L 304.100464 369 
L 304.184669 368.4456 
L 304.29 368.121094 
L 304.456999 367.8912 
L 304.60802 367.3368 
L 304.848 367.088945 
L 305.406 367.088945 
L 305.735724 367.3368 
L 305.613216 367.8912 
L 305.691051 368.4456 
L 305.964 368.773422 
L 306.147138 369 
L 306.522 369.318952 
L 307.08 369.324702 
L 307.638 369.06483 
L 307.703251 369 
L 308.196 368.80784 
L 308.699087 368.4456 
L 308.754 368.404811 
L 309.312 368.191037 
L 309.65817 367.8912 
L 309.87 367.761882 
L 310.428 367.514574 
L 310.986 367.431803 
L 311.544 367.773579 
L 311.670099 367.8912 
L 312.102 368.335867 
L 312.201569 368.4456 
L 312.331854 369 
L 312.66 369.51746 
L 312.681118 369.5544 
L 312.790854 370.1088 
L 312.815391 370.6632 
L 312.815391 371.2176 
L 312.773533 371.772 
L 312.66 371.887952 
L 312.102 371.994958 
L 311.544 372.18141 
L 311.224674 372.3264 
z
" style="fill:#ffffff;"/>
   </g>
   <g id="patch_10">
    <path clip-path="url(#pf85b0bbb23)" d="M 272.313553 476.5536 
L 272.484 476.389678 
L 272.79894 475.9992 
L 272.834784 475.4448 
L 272.834784 474.8904 
L 272.834784 474.336 
L 272.834784 473.7816 
L 272.834784 473.2272 
L 272.834784 472.6728 
L 272.834784 472.1184 
L 272.834784 471.564 
L 272.834784 471.0096 
L 272.834784 470.4552 
L 272.834784 469.9008 
L 272.834784 469.3464 
L 273.042 469.110952 
L 273.6 469.116702 
L 274.158 468.85683 
L 274.223251 468.792 
L 274.716 468.609092 
L 275.274 468.586121 
L 275.832 468.586121 
L 276.39 468.544145 
L 276.78758 468.2376 
L 276.948 468.13706 
L 277.414805 467.6832 
L 277.506 467.592594 
L 277.972805 467.1288 
L 278.064 467.038194 
L 278.530805 466.5744 
L 278.622 466.463085 
L 279.149322 466.02 
L 279.18 465.996161 
L 279.647325 465.4656 
L 279.738 465.374994 
L 280.204805 464.9112 
L 280.296 464.820594 
L 280.752807 464.3568 
L 280.854 464.160816 
L 281.120256 463.8024 
L 281.204784 463.248 
L 281.204784 462.6936 
L 281.204784 462.1392 
L 281.190222 461.5848 
L 281.017118 461.0304 
L 280.854 460.82842 
L 280.730357 460.476 
L 280.626903 459.9216 
L 280.296 459.569506 
L 280.088446 459.3672 
L 279.738 459.042498 
L 279.18 458.874361 
L 279.078587 458.8128 
L 278.622 458.484032 
L 278.227118 458.2584 
L 278.453843 457.704 
L 278.622 457.387459 
L 278.844433 457.1496 
L 279.164935 456.5952 
L 279.18 456.566242 
L 279.467123 456.0408 
L 279.738 455.779157 
L 280.296 455.834921 
L 280.854 455.834921 
L 281.412 455.834921 
L 281.97 455.834921 
L 282.528 455.834921 
L 283.086 455.834921 
L 283.644 455.834921 
L 284.202 455.834921 
L 284.76 455.834921 
L 285.318 455.834921 
L 285.876 455.834921 
L 286.434 455.811102 
L 286.921099 455.4864 
L 286.992 455.444733 
L 287.55 455.185041 
L 287.813114 454.932 
L 288.108 454.753851 
L 288.666 454.539666 
L 288.892878 454.3776 
L 289.224 454.272949 
L 289.782 454.18544 
L 290.34 454.171721 
L 290.898 454.129745 
L 291.285553 453.8232 
L 291.456 453.616165 
L 291.722256 453.2688 
L 291.744955 452.7144 
L 291.456 452.382641 
L 291.190871 452.16 
L 290.898 451.914256 
L 290.34 451.811479 
L 289.782 451.811479 
L 289.224 451.867243 
L 288.666 452.09517 
L 288.593168 452.16 
L 288.108 452.306434 
L 287.55 452.414563 
L 287.20383 452.7144 
L 286.992 452.844963 
L 286.434 452.979554 
L 286.10588 453.2688 
L 285.876 453.397285 
L 285.318 453.436279 
L 284.76 453.446525 
L 284.202 453.459109 
L 283.644 453.47245 
L 283.086 453.474679 
L 282.528 453.474679 
L 281.97 453.474679 
L 281.412 453.474679 
L 281.243506 453.2688 
L 281.254016 452.7144 
L 281.330185 452.16 
L 281.412 451.869242 
L 281.571159 451.6056 
L 281.787108 451.0512 
L 281.97 450.733324 
L 282.19552 450.4968 
L 282.528 450.058794 
L 282.64515 449.9424 
L 283.020374 449.388 
L 283.086 449.284719 
L 283.468912 448.8336 
L 283.644 448.599313 
L 283.90569 448.2792 
L 284.202 447.87851 
L 284.356708 447.7248 
L 284.695428 447.1704 
L 284.76 447.033503 
L 285.037176 446.616 
L 285.110784 446.0616 
L 285.110784 445.5072 
L 285.110784 444.9528 
L 285.110784 444.3984 
L 285.07494 443.844 
L 284.76 443.430161 
L 284.675702 443.2896 
L 284.424433 442.7352 
L 284.202 442.480201 
L 284.001169 442.1808 
L 283.644 441.826167 
L 283.40159 441.6264 
L 283.086 441.347127 
L 282.528 441.347127 
L 282.064046 441.6264 
L 281.97 441.667189 
L 281.412 441.81382 
L 280.854 441.916262 
L 280.329569 442.1808 
L 280.296 442.193162 
L 279.738 442.39482 
L 279.18 442.529503 
L 278.846333 442.7352 
L 278.622 442.813467 
L 278.064 443.010327 
L 277.74841 443.2896 
L 277.506 443.571948 
L 277.266627 443.844 
L 277.155216 444.3984 
L 277.2419 444.9528 
L 277.506 445.272064 
L 277.713383 445.5072 
L 278.064 445.799957 
L 278.622 445.813745 
L 279.009553 445.5072 
L 279.18 445.356497 
L 279.534381 444.9528 
L 279.738 444.813821 
L 280.296 444.711308 
L 280.836086 444.3984 
L 280.854 444.389354 
L 281.412 444.227147 
L 281.611521 444.3984 
L 281.558706 444.9528 
L 281.412 445.396201 
L 281.311067 445.5072 
L 281.1479 446.0616 
L 281.071888 446.616 
L 280.988387 447.1704 
L 280.860166 447.7248 
L 280.854 447.742671 
L 280.594533 448.2792 
L 280.472681 448.8336 
L 280.296 449.288119 
L 280.20038 449.388 
L 279.738 449.830914 
L 279.62579 449.9424 
L 279.224854 450.4968 
L 279.18 450.574489 
L 278.902824 451.0512 
L 278.653686 451.6056 
L 278.622 451.63209 
L 278.590314 451.6056 
L 278.064 451.216756 
L 277.798871 451.0512 
L 277.506 450.805456 
L 276.948 450.702679 
L 276.39 450.702679 
L 275.832 450.771927 
L 275.389413 451.0512 
L 275.274 451.102589 
L 274.716 451.251545 
L 274.158 451.370588 
L 273.759366 451.6056 
L 273.6 451.665507 
L 273.042 451.880727 
L 272.74345 452.16 
L 272.484 452.373027 
L 272.15719 452.7144 
L 271.926 453.26009 
L 271.917234 453.2688 
L 271.528758 453.8232 
L 271.368 454.075015 
L 271.080877 454.3776 
L 270.81 454.78701 
L 270.664069 454.932 
L 270.424365 455.4864 
L 270.252 455.80839 
L 270.018081 456.0408 
L 269.728033 456.5952 
L 269.694 456.654122 
L 269.387039 457.1496 
L 269.177054 457.704 
L 269.136 457.754336 
L 268.752947 458.2584 
L 268.578 458.602656 
L 268.374409 458.8128 
L 268.129919 459.3672 
L 268.02 459.589804 
L 267.7559 459.9216 
L 267.669216 460.476 
L 267.7559 461.0304 
L 268.02 461.349664 
L 268.227383 461.5848 
L 268.578 461.877557 
L 269.136 461.891345 
L 269.523553 461.5848 
L 269.694 461.415453 
L 270.002535 461.0304 
L 270.080422 460.476 
L 270.252 460.156587 
L 270.451367 460.476 
L 270.459216 461.0304 
L 270.459216 461.5848 
L 270.459216 462.1392 
L 270.459216 462.6936 
L 270.459216 463.248 
L 270.459216 463.8024 
L 270.459216 464.3568 
L 270.458034 464.9112 
L 270.432585 465.4656 
L 270.42834 466.02 
L 270.450526 466.5744 
L 270.459216 467.1288 
L 270.459216 467.6832 
L 270.459216 468.2376 
L 270.459216 468.792 
L 270.459216 469.3464 
L 270.459216 469.9008 
L 270.459216 470.4552 
L 270.459216 471.0096 
L 270.459216 471.564 
L 270.459216 472.1184 
L 270.459216 472.6728 
L 270.252 473.038276 
L 270.054162 473.2272 
L 269.694 473.571456 
L 269.490409 473.7816 
L 269.454627 474.336 
L 269.694 474.657571 
L 269.795121 474.8904 
L 270.061849 475.4448 
L 270.252 475.633724 
L 270.458142 475.9992 
L 270.81 476.408893 
L 270.998915 476.5536 
L 271.368 476.853437 
L 271.926 476.860145 
z
" style="fill:#0000ff;"/>
   </g>
   <g id="patch_11">
    <path clip-path="url(#pf85b0bbb23)" d="M 221.771251 472.6728 
L 222.264 472.478657 
L 222.695511 472.1184 
L 222.822 471.972009 
L 223.158222 471.564 
L 223.172784 471.0096 
L 223.172784 470.4552 
L 223.110955 469.9008 
L 222.822 469.569041 
L 222.556871 469.3464 
L 222.264 469.100656 
L 222.056784 468.792 
L 222.056784 468.2376 
L 222.056784 467.6832 
L 222.056784 467.1288 
L 222.070592 466.5744 
L 222.18298 466.02 
L 222.264 465.812512 
L 222.500538 465.4656 
L 222.661561 464.9112 
L 222.822 464.753451 
L 223.38 464.42163 
L 223.445251 464.3568 
L 223.938 464.166491 
L 224.496 463.86723 
L 224.561251 463.8024 
L 225.054 463.61489 
L 225.612 463.39299 
L 225.771845 463.248 
L 226.17 463.097585 
L 226.728 462.980691 
L 227.13984 462.6936 
L 227.286 462.6225 
L 227.844 462.487721 
L 228.286866 462.1392 
L 228.402 462.048594 
L 228.868805 461.5848 
L 228.96 461.470409 
L 229.486314 461.0304 
L 229.518 461.00684 
L 229.986255 460.476 
L 230.076 460.363168 
L 230.602826 459.9216 
L 230.634 459.897605 
L 231.090807 459.3672 
L 231.192 459.207815 
L 231.500535 458.8128 
L 231.542784 458.2584 
L 231.542784 457.704 
L 231.542784 457.1496 
L 231.480955 456.5952 
L 231.192 456.252176 
L 231.054861 456.0408 
L 230.634 455.622654 
L 230.497572 455.4864 
L 230.076 455.076474 
L 229.810871 454.932 
L 229.518 454.686256 
L 228.96 454.583479 
L 228.402 454.583479 
L 227.844 454.583479 
L 227.54769 454.3776 
L 227.844 454.000974 
L 228.022928 453.8232 
L 228.338101 453.2688 
L 228.402 453.131903 
L 228.679176 452.7144 
L 228.752784 452.16 
L 228.752784 451.6056 
L 228.752784 451.0512 
L 228.752784 450.4968 
L 228.752784 449.9424 
L 228.752784 449.388 
L 228.690955 448.8336 
L 228.402 448.501841 
L 228.136871 448.2792 
L 227.844 448.033456 
L 227.286 447.921065 
L 226.728 447.853416 
L 226.462871 447.7248 
L 226.17 447.479056 
L 225.612 447.376279 
L 225.054 447.376279 
L 224.496 447.376279 
L 223.938 447.376279 
L 223.38 447.453612 
L 223.013175 447.7248 
L 222.822 447.816077 
L 222.264 447.972655 
L 221.911452 448.2792 
L 221.706 448.410971 
L 221.148 448.750095 
L 221.063953 448.8336 
L 220.59 449.063298 
L 220.25501 449.388 
L 220.032 449.669237 
L 219.765529 449.9424 
L 219.644007 450.4968 
L 219.594995 451.0512 
L 219.515054 451.6056 
L 219.483105 452.16 
L 219.474 452.190593 
L 219.237462 452.7144 
L 219.192914 453.2688 
L 219.132702 453.8232 
L 219.085096 454.3776 
L 219.057727 454.932 
L 218.977961 455.4864 
L 218.916 455.844554 
L 218.831953 456.0408 
L 218.676627 456.5952 
L 218.594977 457.1496 
L 218.565216 457.704 
L 218.6519 458.2584 
L 218.916 458.577664 
L 219.123383 458.8128 
L 219.474 459.105557 
L 220.032 459.119345 
L 220.419553 458.8128 
L 220.59 458.643453 
L 220.709899 458.8128 
L 220.783408 459.3672 
L 220.796034 459.9216 
L 220.797216 460.476 
L 220.797216 461.0304 
L 220.797216 461.5848 
L 220.797216 462.1392 
L 220.796034 462.6936 
L 220.59 462.955418 
L 220.287087 463.248 
L 220.032 463.567413 
L 219.803724 463.8024 
L 219.743045 464.3568 
L 220.032 464.700103 
L 220.155989 464.9112 
L 220.032 465.326008 
L 219.879107 465.4656 
L 219.474 465.596006 
L 219.265492 465.4656 
L 218.916 465.190212 
L 218.554831 464.9112 
L 218.358 464.715639 
L 217.8 464.426064 
L 217.727823 464.3568 
L 217.242 463.94853 
L 217.062785 463.8024 
L 216.684 463.457371 
L 216.378354 463.248 
L 216.126 462.997274 
L 215.576766 462.6936 
L 215.568 462.68489 
L 215.01 462.240616 
L 214.89787 462.1392 
L 214.452 461.714692 
L 214.320612 461.5848 
L 214.285519 461.0304 
L 214.452 460.764564 
L 214.724949 460.476 
L 214.968276 459.9216 
L 215.01 459.872212 
L 215.403162 459.3672 
L 215.568 459.050659 
L 215.790433 458.8128 
L 216.111896 458.2584 
L 216.126 458.24066 
L 216.482354 457.704 
L 216.578669 457.1496 
L 216.684 456.838652 
L 216.862928 456.5952 
L 217.025298 456.0408 
L 217.242 455.792945 
L 217.629553 455.4864 
L 217.8 455.317053 
L 218.108535 454.932 
L 218.150784 454.3776 
L 218.150784 453.8232 
L 218.088955 453.2688 
L 217.8 452.937041 
L 217.534871 452.7144 
L 217.242 452.468656 
L 216.684 452.487597 
L 216.410613 452.7144 
L 216.126 452.858072 
L 215.703655 453.2688 
L 215.568 453.403579 
L 215.154604 453.8232 
L 215.01 454.105977 
L 214.781724 454.3776 
L 214.659216 454.932 
L 214.659216 455.4864 
L 214.611238 456.0408 
L 214.452 456.458081 
L 214.320204 456.5952 
L 214.135584 457.1496 
L 213.894 457.63917 
L 213.828749 457.704 
L 213.353502 458.2584 
L 213.336 458.283684 
L 212.967285 458.8128 
L 212.778 459.264321 
L 212.693953 459.3672 
L 212.22 459.544049 
L 211.662 459.463396 
L 211.324037 459.3672 
L 211.104 459.22221 
L 210.546 459.074443 
L 209.988 459.018679 
L 209.43 459.018679 
L 208.872 459.018679 
L 208.314 459.140397 
L 208.040613 459.3672 
L 207.756 459.51241 
L 207.335139 459.9216 
L 207.198 460.057854 
L 206.777139 460.476 
L 206.64 460.612254 
L 206.219139 461.0304 
L 206.082 461.166654 
L 205.661139 461.5848 
L 205.524 461.719579 
L 205.101655 462.1392 
L 204.966 462.273979 
L 204.543655 462.6936 
L 204.408 462.828379 
L 203.994604 463.248 
L 203.85 463.530777 
L 203.621724 463.8024 
L 203.499216 464.3568 
L 203.499216 464.9112 
L 203.499216 465.4656 
L 203.499216 466.02 
L 203.499216 466.5744 
L 203.499216 467.1288 
L 203.5859 467.6832 
L 203.85 468.002464 
L 204.057383 468.2376 
L 204.408 468.530357 
L 204.966 468.586121 
L 205.524 468.586121 
L 206.082 468.586121 
L 206.64 468.586121 
L 207.198 468.586121 
L 207.756 468.550508 
L 208.187166 468.2376 
L 208.314 468.163161 
L 208.872 467.766705 
L 208.956047 467.6832 
L 209.43 467.381841 
L 209.693114 467.1288 
L 209.988 466.922589 
L 210.362325 466.5744 
L 210.546 466.427503 
L 211.009658 466.02 
L 211.104 465.910162 
L 211.631802 465.4656 
L 211.662 465.435597 
L 212.189802 464.9112 
L 212.22 464.887501 
L 212.687792 464.3568 
L 212.778 464.267174 
L 213.336 463.84103 
L 213.894 464.178168 
L 214.132947 464.3568 
L 214.452 464.656637 
L 214.816478 464.9112 
L 215.01 465.103473 
L 215.522432 465.4656 
L 215.568 465.510874 
L 216.126 465.843066 
L 216.310769 466.02 
L 216.684 466.359097 
L 216.994661 466.5744 
L 217.242 466.820144 
L 217.791234 467.1288 
L 217.8 467.13751 
L 218.358 467.579232 
L 218.540529 467.6832 
L 218.916 467.975957 
L 219.474 467.996108 
L 219.681216 468.2376 
L 219.681216 468.792 
L 219.681216 469.3464 
L 219.681216 469.9008 
L 219.681216 470.4552 
L 219.681216 471.0096 
L 219.681216 471.564 
L 219.759051 472.1184 
L 220.032 472.446222 
L 220.215138 472.6728 
L 220.59 472.991752 
L 221.148 472.997502 
L 221.706 472.73763 
z
" style="fill:#0000ff;"/>
   </g>
   <g id="patch_12">
    <path clip-path="url(#pf85b0bbb23)" d="M 223.938 450.109909 
L 223.509064 449.9424 
L 223.938 449.843664 
L 224.053134 449.9424 
z
" style="fill:#ffffff;"/>
   </g>
   <g id="patch_13">
    <path clip-path="url(#pf85b0bbb23)" d="M 222.264 452.346083 
L 222.157641 452.16 
L 222.09171 451.6056 
L 222.090884 451.0512 
L 222.264 450.708843 
L 222.503578 450.4968 
L 222.822 450.330017 
L 223.38 450.00723 
L 223.65672 450.4968 
L 223.38 450.90621 
L 223.234069 451.0512 
L 222.903161 451.6056 
L 222.822 451.734723 
L 222.471922 452.16 
z
" style="fill:#ffffff;"/>
   </g>
   <g id="patch_14">
    <path clip-path="url(#pf85b0bbb23)" d="M 223.38 455.143727 
L 223.172784 454.932 
L 223.168147 454.3776 
L 223.17329 453.8232 
L 223.38 453.453798 
L 223.562507 453.2688 
L 223.873428 452.7144 
L 223.938 452.634185 
L 224.312022 452.16 
L 224.496 451.825652 
L 224.70942 451.6056 
L 225.038827 451.0512 
L 225.054 451.029198 
L 225.423568 450.4968 
L 225.612 450.264724 
L 226.17 450.235157 
L 226.377216 450.4968 
L 226.377216 451.0512 
L 226.377216 451.6056 
L 226.359627 452.16 
L 226.17 452.439012 
L 225.892824 452.7144 
L 225.612 453.132918 
L 225.475236 453.2688 
L 225.054 453.822912 
L 225.05371 453.8232 
L 224.496 454.12205 
L 224.238791 454.3776 
L 223.938 454.646729 
L 223.650877 454.932 
z
" style="fill:#ffffff;"/>
   </g>
   <g id="patch_15">
    <path clip-path="url(#pf85b0bbb23)" d="M 276.948 453.351674 
L 276.415286 453.2688 
L 276.948 453.198399 
L 277.018858 453.2688 
z
" style="fill:#ffffff;"/>
   </g>
   <g id="patch_16">
    <path clip-path="url(#pf85b0bbb23)" d="M 273.6 458.349257 
L 273.042 458.520043 
L 272.834784 458.2584 
L 272.834784 457.704 
L 272.834784 457.1496 
L 272.849528 456.5952 
L 272.871189 456.0408 
L 273.042 455.664174 
L 273.220928 455.4864 
L 273.478082 454.932 
L 273.6 454.725855 
L 273.859467 454.3776 
L 274.158 454.179266 
L 274.716 454.217275 
L 275.274 454.368554 
L 275.293643 454.3776 
L 275.832 454.677437 
L 276.39 454.771605 
L 276.948 454.922954 
L 276.958124 454.932 
L 277.115784 455.4864 
L 276.948 455.757374 
L 276.662734 456.0408 
L 276.403585 456.5952 
L 276.39 456.614337 
L 276.012036 457.1496 
L 275.832 457.300033 
L 275.274 457.559438 
L 275.11461 457.704 
L 274.716 457.847303 
L 274.158 457.930928 
L 273.743381 458.2584 
z
" style="fill:#ffffff;"/>
   </g>
   <g id="patch_17">
    <path clip-path="url(#pf85b0bbb23)" d="M 223.938 461.675657 
L 223.38 461.829432 
L 223.172784 461.5848 
L 223.172784 461.0304 
L 223.172784 460.476 
L 223.172784 459.9216 
L 223.172784 459.3672 
L 223.172784 458.8128 
L 223.271472 458.2584 
L 223.38 458.141287 
L 223.934313 457.704 
L 223.938 457.701125 
L 224.496 457.560757 
L 225.054 457.50035 
L 225.612 457.351877 
L 225.884263 457.1496 
L 226.17 457.044949 
L 226.728 456.95744 
L 227.286 456.943721 
L 227.844 456.943721 
L 228.402 456.943721 
L 228.96 457.062793 
L 229.044706 457.1496 
L 229.150535 457.704 
L 229.077225 458.2584 
L 228.96 458.384289 
L 228.528706 458.8128 
L 228.402 458.944723 
L 227.97678 459.3672 
L 227.844 459.498395 
L 227.300512 459.9216 
L 227.286 459.934022 
L 226.728 460.213821 
L 226.455658 460.476 
L 226.17 460.63716 
L 225.612 460.727164 
L 225.1539 461.0304 
L 225.054 461.082908 
L 224.496 461.276711 
L 224.097134 461.5848 
z
" style="fill:#ffffff;"/>
   </g>
   <g id="patch_18">
    <path clip-path="url(#pf85b0bbb23)" d="M 275.274 466.165092 
L 274.716 466.202908 
L 274.158 466.222502 
L 273.6 466.128119 
L 273.46711 466.02 
L 273.042 465.647408 
L 272.886919 465.4656 
L 272.837134 464.9112 
L 272.834784 464.3568 
L 272.834784 463.8024 
L 272.834784 463.248 
L 272.834784 462.6936 
L 272.834784 462.1392 
L 272.834784 461.5848 
L 272.834784 461.0304 
L 273.042 460.794952 
L 273.6 460.810053 
L 274.158 460.729041 
L 274.716 460.54083 
L 274.816491 460.476 
L 275.274 460.371349 
L 275.832 460.308593 
L 276.39 460.234508 
L 276.948 460.276665 
L 277.434121 460.476 
L 277.506 460.547415 
L 278.064 460.912779 
L 278.190099 461.0304 
L 278.622 461.475067 
L 278.721569 461.5848 
L 278.809747 462.1392 
L 278.760594 462.6936 
L 278.622 463.002631 
L 278.408881 463.248 
L 278.064 463.76377 
L 278.025119 463.8024 
L 277.632706 464.3568 
L 277.506 464.48734 
L 277.079388 464.9112 
L 276.948 465.032252 
L 276.462377 465.4656 
L 276.39 465.533091 
L 275.832 465.711756 
L 275.504621 466.02 
z
" style="fill:#ffffff;"/>
   </g>
   <g id="patch_19">
    <path clip-path="url(#pf85b0bbb23)" d="M 207.198 466.198149 
L 206.64 466.225879 
L 206.082 466.225879 
L 205.874784 466.02 
L 205.874784 465.4656 
L 205.874784 464.9112 
L 205.994147 464.3568 
L 206.082 464.268134 
L 206.550758 463.8024 
L 206.64 463.713734 
L 207.108758 463.248 
L 207.198 463.162094 
L 207.67687 462.6936 
L 207.756 462.618521 
L 208.314 462.284617 
L 208.460361 462.1392 
L 208.872 461.93555 
L 209.316435 461.5848 
L 209.43 461.503891 
L 209.988 461.414285 
L 210.546 461.433908 
L 211.015524 461.5848 
L 211.104 461.668305 
L 211.555358 462.1392 
L 211.278393 462.6936 
L 211.104 462.869822 
L 210.723366 463.248 
L 210.546 463.424222 
L 210.165366 463.8024 
L 209.988 463.978622 
L 209.589758 464.3568 
L 209.43 464.505188 
L 208.872 464.780254 
L 208.740204 464.9112 
L 208.314 465.236103 
L 208.065873 465.4656 
L 207.756 465.719433 
L 207.462461 466.02 
z
" style="fill:#ffffff;"/>
   </g>
   <g id="patch_20">
    <path clip-path="url(#pf85b0bbb23)" d="M 173.592459 528.1128 
L 173.718 527.982264 
L 174.079255 527.5584 
L 174.276 527.309827 
L 174.548949 527.004 
L 174.792063 526.4496 
L 174.834 526.398601 
L 175.223033 525.8952 
L 175.392 525.629364 
L 175.664949 525.3408 
L 175.908063 524.7864 
L 175.95 524.724392 
L 176.296147 524.232 
L 176.411179 523.6776 
L 176.508 523.526897 
L 176.659681 523.6776 
L 177.066 524.081297 
L 177.167121 524.232 
L 177.433849 524.7864 
L 177.624 524.975324 
L 177.830142 525.3408 
L 178.182 525.740299 
L 178.330431 525.8952 
L 178.74 526.261063 
L 179.073521 526.4496 
L 179.298 526.664583 
L 179.856 526.921084 
L 180.007781 527.004 
L 180.414 527.303837 
L 180.972 527.316908 
L 181.374848 527.004 
L 181.53 526.849849 
L 181.84494 526.4496 
L 181.880784 525.8952 
L 181.818955 525.3408 
L 181.53 525.009041 
L 181.264871 524.7864 
L 180.972 524.540656 
L 180.414 524.499309 
L 179.856 524.325574 
L 179.762748 524.232 
L 179.488151 523.6776 
L 179.298 523.488676 
L 179.103456 523.1232 
L 178.74 522.597478 
L 178.718882 522.5688 
L 178.539371 522.0144 
L 178.182 521.490003 
L 178.160882 521.46 
L 177.977027 520.9056 
L 177.802928 520.3512 
L 177.975858 519.7968 
L 178.05118 519.2424 
L 178.182 518.81693 
L 178.288642 518.688 
L 178.490535 518.1336 
L 178.572288 517.5792 
L 178.688277 517.0248 
L 178.74 516.836712 
L 178.929808 516.4704 
L 179.104498 515.916 
L 179.192669 515.3616 
L 179.298 515.037094 
L 179.464999 514.8072 
L 179.627599 514.2528 
L 179.76301 513.6984 
L 179.856 513.416896 
L 180.03091 513.144 
L 180.197298 512.5896 
L 180.206784 512.0352 
L 180.206784 511.4808 
L 180.206784 510.9264 
L 180.230752 510.372 
L 180.414 509.88243 
L 180.479251 509.8176 
L 180.972 509.569745 
L 181.359553 509.2632 
L 181.53 509.093853 
L 181.838535 508.7088 
L 181.818955 508.1544 
L 181.53 507.822641 
L 181.264871 507.6 
L 180.972 507.354256 
L 180.414 507.251479 
L 179.856 507.251479 
L 179.298 507.373197 
L 179.035559 507.6 
L 178.74 507.893652 
L 178.511724 508.1544 
L 178.384778 508.7088 
L 178.273447 509.2632 
L 178.182 509.453141 
L 177.909051 509.8176 
L 177.831216 510.372 
L 177.831216 510.9264 
L 177.831216 511.4808 
L 177.831216 512.0352 
L 177.783987 512.5896 
L 177.624 512.970931 
L 177.457001 513.144 
L 177.30598 513.6984 
L 177.160444 514.2528 
L 177.066 514.534304 
L 176.89109 514.8072 
L 176.764216 515.3616 
L 176.679547 515.916 
L 176.508 516.398985 
L 176.436121 516.4704 
L 176.222714 517.0248 
L 175.95 517.192196 
L 175.815111 517.0248 
L 175.392 516.496343 
L 175.360314 516.4704 
L 174.834 516.081556 
L 174.568871 515.916 
L 174.276 515.670256 
L 173.718 515.567479 
L 173.16 515.567479 
L 172.602 515.567479 
L 172.044 515.644812 
L 171.746295 515.916 
L 171.486 516.124951 
L 171.128831 516.4704 
L 170.928 516.921921 
L 170.843953 517.0248 
L 170.500691 517.5792 
L 170.37 517.783327 
L 170.061465 518.1336 
L 169.903447 518.688 
L 169.812 518.847385 
L 169.503465 519.2424 
L 169.345447 519.7968 
L 169.254 519.967797 
L 168.959342 520.3512 
L 168.837788 520.9056 
L 168.696 521.260122 
L 168.517072 521.46 
L 168.331408 522.0144 
L 168.189723 522.5688 
L 168.138 522.683468 
L 167.856914 523.1232 
L 167.787216 523.6776 
L 167.787216 524.232 
L 167.787216 524.7864 
L 167.8739 525.3408 
L 168.138 525.672596 
L 168.255171 525.8952 
L 168.696 526.35951 
L 168.787195 526.4496 
L 169.254 526.913394 
L 169.345195 527.004 
L 169.812 527.534405 
L 169.843686 527.5584 
L 170.37 527.986578 
L 170.542107 528.1128 
L 170.928 528.405557 
L 171.486 528.461321 
L 172.044 528.461321 
L 172.602 528.461321 
L 173.16 528.446853 
z
" style="fill:#0000ff;"/>
   </g>
   <g id="patch_21">
    <path clip-path="url(#pf85b0bbb23)" d="M 221.535553 535.8744 
L 221.706 535.667365 
L 221.972256 535.32 
L 222.056784 534.7656 
L 222.056784 534.2112 
L 222.056784 533.6568 
L 222.056784 533.1024 
L 222.056784 532.548 
L 222.056784 531.9936 
L 222.056784 531.4392 
L 222.056784 530.8848 
L 222.056784 530.3304 
L 222.056784 529.776 
L 222.056784 529.2216 
L 222.056784 528.6672 
L 222.056784 528.1128 
L 222.056784 527.5584 
L 222.056784 527.004 
L 222.056784 526.4496 
L 222.264 526.243721 
L 222.822 526.243721 
L 223.38 526.243721 
L 223.938 526.243721 
L 224.496 526.243721 
L 225.054 526.243721 
L 225.612 526.243721 
L 226.17 526.243721 
L 226.728 526.229253 
L 227.286 525.96003 
L 227.351251 525.8952 
L 227.844 525.706797 
L 228.298935 525.3408 
L 228.402 525.251174 
L 228.869792 524.7864 
L 228.96 524.695794 
L 229.426805 524.232 
L 229.518 524.128318 
L 229.884455 523.6776 
L 230.076 523.18864 
L 230.141865 523.1232 
L 230.412222 522.5688 
L 230.426784 522.0144 
L 230.370658 521.46 
L 230.076 521.111646 
L 229.920093 520.9056 
L 229.518 520.556012 
L 229.150151 520.3512 
L 228.96 520.162276 
L 228.402 519.897268 
L 228.28546 519.7968 
L 227.844 519.377179 
L 227.708345 519.2424 
L 227.286 518.831672 
L 227.086553 518.688 
L 227.078784 518.1336 
L 227.180669 517.5792 
L 227.286 517.295306 
L 227.489591 517.0248 
L 227.627298 516.4704 
L 227.636784 515.916 
L 227.636784 515.3616 
L 227.636784 514.8072 
L 227.636784 514.2528 
L 227.636784 513.6984 
L 227.574955 513.144 
L 227.286 512.812241 
L 227.020871 512.5896 
L 226.728 512.343856 
L 226.17 512.241079 
L 225.612 512.241079 
L 225.054 512.241079 
L 224.496 512.362797 
L 224.222613 512.5896 
L 223.938 512.733272 
L 223.515655 513.144 
L 223.38 513.27454 
L 222.96215 513.6984 
L 222.822 513.881877 
L 222.491097 514.2528 
L 222.264 514.604923 
L 222.060409 514.8072 
L 221.758813 515.3616 
L 221.706 515.422756 
L 221.297274 515.916 
L 221.148 516.156846 
L 220.866914 516.4704 
L 220.707802 517.0248 
L 220.59 517.269166 
L 220.335315 517.5792 
L 220.170165 518.1336 
L 220.032 518.446015 
L 219.821898 518.688 
L 219.623968 519.2424 
L 219.474 519.637986 
L 219.328069 519.7968 
L 219.096585 520.3512 
L 218.916 520.84077 
L 218.850749 520.9056 
L 218.553404 521.46 
L 218.379118 522.0144 
L 218.358 522.048094 
L 218.016702 522.5688 
L 217.8 523.012215 
L 217.688294 523.1232 
L 217.474679 523.6776 
L 217.333447 524.232 
L 217.242 524.421941 
L 216.969051 524.7864 
L 216.891216 525.3408 
L 216.891216 525.8952 
L 216.973408 526.4496 
L 217.242 526.773222 
L 217.449383 527.004 
L 217.8 527.296757 
L 218.358 527.310545 
L 218.745553 527.004 
L 218.916 526.796965 
L 219.182256 526.4496 
L 219.266784 525.8952 
L 219.284373 525.3408 
L 219.452882 524.7864 
L 219.474 524.752986 
L 219.502007 524.7864 
L 219.65034 525.3408 
L 219.674629 525.8952 
L 219.681216 526.4496 
L 219.681216 527.004 
L 219.681216 527.5584 
L 219.681216 528.1128 
L 219.681216 528.6672 
L 219.681216 529.2216 
L 219.681216 529.776 
L 219.681216 530.3304 
L 219.681216 530.8848 
L 219.681216 531.4392 
L 219.681216 531.9936 
L 219.681216 532.548 
L 219.681216 533.1024 
L 219.681216 533.6568 
L 219.681216 534.2112 
L 219.681216 534.7656 
L 219.763408 535.32 
L 220.032 535.643622 
L 220.239383 535.8744 
L 220.59 536.167157 
L 221.148 536.180945 
z
" style="fill:#0000ff;"/>
   </g>
   <g id="patch_22">
    <path clip-path="url(#pf85b0bbb23)" d="M 223.938 518.224457 
L 223.38 518.395243 
L 222.822 518.355892 
L 222.680874 518.1336 
L 222.822 517.87274 
L 223.092682 517.5792 
L 223.247248 517.0248 
L 223.38 516.857847 
L 223.734183 516.4704 
L 223.938 516.082306 
L 224.105386 515.916 
L 224.422209 515.3616 
L 224.496 515.283127 
L 224.964758 514.8072 
L 225.054 514.719914 
L 225.169134 514.8072 
L 225.261216 515.3616 
L 225.261216 515.916 
L 225.210508 516.4704 
L 225.054 516.851337 
L 224.886614 517.0248 
L 224.647257 517.5792 
L 224.496 517.741025 
L 224.048061 518.1336 
z
" style="fill:#ffffff;"/>
   </g>
   <g id="patch_23">
    <path clip-path="url(#pf85b0bbb23)" d="M 172.044 526.026281 
L 171.814849 525.8952 
L 171.486 525.602443 
L 170.928 525.381554 
L 170.884453 525.3408 
L 170.37 524.905685 
L 170.245157 524.7864 
L 170.162784 524.232 
L 170.180373 523.6776 
L 170.298439 523.1232 
L 170.37 522.977983 
L 170.658955 522.5688 
L 170.778671 522.0144 
L 170.928 521.618814 
L 171.073931 521.46 
L 171.297273 520.9056 
L 171.486 520.41603 
L 171.551251 520.3512 
L 171.855273 519.7968 
L 172.044 519.30723 
L 172.109251 519.2424 
L 172.432133 518.688 
L 172.602 518.422164 
L 172.874949 518.1336 
L 173.16 517.967599 
L 173.718 518.084945 
L 173.772014 518.1336 
L 174.276 518.677941 
L 174.285105 518.688 
L 174.423384 519.2424 
L 174.51906 519.7968 
L 174.834 520.187278 
L 174.935121 520.3512 
L 175.025545 520.9056 
L 174.939331 521.46 
L 174.834 521.644497 
L 174.528633 522.0144 
L 174.436665 522.5688 
L 174.276 522.938382 
L 174.089982 523.1232 
L 173.887284 523.6776 
L 173.718 523.935655 
L 173.41973 524.232 
L 173.284179 524.7864 
L 173.16 524.950904 
L 172.808034 525.3408 
L 172.602 525.811695 
L 172.498606 525.8952 
z
" style="fill:#ffffff;"/>
   </g>
   <g id="patch_24">
    <path clip-path="url(#pf85b0bbb23)" d="M 226.728 523.768457 
L 226.17 523.879069 
L 225.612 523.883479 
L 225.054 523.883479 
L 224.496 523.883479 
L 223.938 523.883479 
L 223.38 523.883479 
L 222.822 523.883479 
L 222.272766 523.6776 
L 222.467591 523.1232 
L 222.558658 522.5688 
L 222.621371 522.0144 
L 222.68072 521.46 
L 222.778366 520.9056 
L 222.822 520.774232 
L 223.38 520.670152 
L 223.938 520.699721 
L 224.496 520.699721 
L 225.054 520.699721 
L 225.612 520.699721 
L 226.17 520.817874 
L 226.260208 520.9056 
L 226.728 521.360525 
L 226.847758 521.46 
L 227.286 521.825863 
L 227.619521 522.0144 
L 227.844 522.324488 
L 227.934985 522.5688 
L 227.844 522.675661 
L 227.311945 523.1232 
L 227.286 523.147677 
L 226.830925 523.6776 
z
" style="fill:#ffffff;"/>
   </g>
   <g id="patch_25">
    <path clip-path="url(#pf85b0bbb23)" d="M 344.853553 534.2112 
L 345.024 534.004165 
L 345.290256 533.6568 
L 345.312955 533.1024 
L 345.024 532.759376 
L 344.888345 532.548 
L 344.466 532.128379 
L 344.330345 531.9936 
L 343.908 531.573979 
L 343.752093 531.4392 
L 343.35 531.058422 
L 343.048655 530.8848 
L 342.792 530.663802 
L 342.234 530.355011 
L 342.212882 530.3304 
L 341.99402 529.776 
L 341.741865 529.2216 
L 341.676 529.15616 
L 341.468784 528.6672 
L 341.118 528.157047 
L 341.078525 528.1128 
L 340.625251 527.5584 
L 340.56 527.49357 
L 340.283086 527.004 
L 340.002 526.716313 
L 339.812238 526.4496 
L 339.50307 525.8952 
L 339.444 525.835689 
L 339.236524 525.3408 
L 339.049118 524.7864 
L 338.886 524.579031 
L 338.742004 524.232 
L 338.561919 523.6776 
L 338.328 523.31479 
L 338.247251 523.1232 
L 338.05128 522.5688 
L 337.77 522.148287 
L 337.708039 522.0144 
L 337.549452 521.46 
L 337.212 521.10167 
L 336.959789 520.9056 
L 336.654 520.626327 
L 336.096 520.643204 
L 335.823439 520.9056 
L 335.538 521.189197 
L 335.2739 521.46 
L 335.243342 522.0144 
L 335.44238 522.5688 
L 335.538 522.672615 
L 335.727043 523.1232 
L 335.913136 523.6776 
L 336.096 523.922308 
L 336.226001 524.232 
L 336.412095 524.7864 
L 336.654 525.171074 
L 336.725918 525.3408 
L 336.926734 525.8952 
L 337.212 526.270527 
L 337.303447 526.4496 
L 337.439097 527.004 
L 337.77 527.396147 
L 337.881504 527.5584 
L 338.169245 528.1128 
L 338.328 528.270531 
L 338.56798 528.6672 
L 338.886 529.051324 
L 339.015559 529.2216 
L 339.337358 529.776 
L 339.444 529.881954 
L 339.645749 530.3304 
L 339.936135 530.8848 
L 340.002 530.95024 
L 340.227808 531.4392 
L 340.56 531.821579 
L 340.708431 531.9936 
L 341.118 532.359463 
L 341.451521 532.548 
L 341.676 532.762983 
L 342.234 533.029121 
L 342.313856 533.1024 
L 342.792 533.633101 
L 342.822198 533.6568 
L 343.35 534.089871 
L 343.522107 534.2112 
L 343.908 534.503957 
L 344.466 534.517745 
z
" style="fill:#0000ff;"/>
   </g>
   <g id="patch_26">
    <path clip-path="url(#pf85b0bbb23)" d="M 339.273553 534.2112 
L 339.444 534.041853 
L 339.752535 533.6568 
L 339.794784 533.1024 
L 339.745784 532.548 
L 339.444 532.214418 
L 339.209297 531.9936 
L 338.886 531.706509 
L 338.328 531.608909 
L 337.956018 531.4392 
L 337.77 531.254382 
L 337.362156 530.8848 
L 337.212 530.735613 
L 336.847522 530.3304 
L 336.654 530.138127 
L 336.324276 529.776 
L 336.096 529.549197 
L 335.795209 529.2216 
L 335.538 528.941703 
L 335.287641 528.6672 
L 334.98 528.335387 
L 334.819247 528.1128 
L 334.422 527.697726 
L 334.320389 527.5584 
L 334.225632 527.004 
L 334.214784 526.4496 
L 334.214784 525.8952 
L 334.132592 525.3408 
L 333.864 525.028746 
L 333.598871 524.7864 
L 333.306 524.540656 
L 332.748 524.559597 
L 332.485559 524.7864 
L 332.19 525.039515 
L 331.921408 525.3408 
L 331.839216 525.8952 
L 331.632 526.222797 
L 331.369559 526.4496 
L 331.074 526.743252 
L 330.845724 527.004 
L 330.516 527.331597 
L 330.253559 527.5584 
L 329.958 527.852052 
L 329.729724 528.1128 
L 329.607216 528.6672 
L 329.6939 529.2216 
L 329.958 529.540864 
L 330.165383 529.776 
L 330.516 530.068757 
L 331.074 530.096347 
L 331.632 530.090374 
L 332.19 530.082545 
L 332.688787 529.776 
L 332.748 529.738887 
L 332.779817 529.776 
L 333.083567 530.3304 
L 333.306 530.585399 
L 333.506831 530.8848 
L 333.864 531.282794 
L 333.972528 531.4392 
L 334.422 531.902994 
L 334.513195 531.9936 
L 334.98 532.457394 
L 335.071195 532.548 
L 335.538 533.00186 
L 335.68359 533.1024 
L 336.096 533.427102 
L 336.654 533.501949 
L 337.212 533.616011 
L 337.284924 533.6568 
L 337.77 534.030501 
L 337.977383 534.2112 
L 338.328 534.503957 
L 338.886 534.517745 
z
" style="fill:#0000ff;"/>
   </g>
   <g id="patch_27">
    <path clip-path="url(#pf85b0bbb23)" d="M 311.373553 541.4184 
L 311.544 541.219417 
L 311.818977 540.864 
L 311.914253 540.3096 
L 311.927287 539.7552 
L 311.97029 539.2008 
L 312.102 538.752391 
L 312.186047 538.6464 
L 312.398563 538.092 
L 312.533691 537.5376 
L 312.66 537.177258 
L 312.796764 536.9832 
L 312.970245 536.4288 
L 313.121182 535.8744 
L 313.218 535.58883 
L 313.39291 535.32 
L 313.574251 534.7656 
L 313.709332 534.2112 
L 313.776 534.090033 
L 314.081205 533.6568 
L 314.160128 533.1024 
L 314.334 532.768998 
L 314.556433 532.548 
L 314.701465 531.9936 
L 314.892 531.50464 
L 314.957865 531.4392 
L 315.239382 530.8848 
L 315.45 530.39584 
L 315.515865 530.3304 
L 315.76494 529.776 
L 315.771023 529.2216 
L 315.45 528.87896 
L 315.155903 528.6672 
L 314.892 528.429372 
L 314.334 528.478276 
L 314.136162 528.6672 
L 313.776 528.920468 
L 313.481342 529.2216 
L 313.309404 529.776 
L 313.218 529.927661 
L 312.89998 530.3304 
L 312.66 530.81936 
L 312.594135 530.8848 
L 312.34198 531.4392 
L 312.102 531.92816 
L 311.865023 531.4392 
L 311.544 531.077333 
L 311.295642 530.8848 
L 310.986 530.622404 
L 310.428 530.592043 
L 309.87 530.81997 
L 309.797168 530.8848 
L 309.312 531.031234 
L 308.754 531.152109 
L 308.456593 531.4392 
L 308.196 531.705913 
L 307.914914 531.9936 
L 307.779788 532.548 
L 307.638 532.902522 
L 307.459072 533.1024 
L 307.255136 533.6568 
L 307.08 534.091577 
L 306.978538 534.2112 
L 306.798914 534.7656 
L 306.729216 535.32 
L 306.729216 535.8744 
L 306.729216 536.4288 
L 306.729216 536.9832 
L 306.729216 537.5376 
L 306.811408 538.092 
L 307.08 538.415622 
L 307.287383 538.6464 
L 307.638 538.939157 
L 308.196 538.952945 
L 308.583553 538.6464 
L 308.754 538.439365 
L 309.020256 538.092 
L 309.104784 537.5376 
L 309.105966 536.9832 
L 309.118592 536.4288 
L 309.130592 535.8744 
L 309.143506 535.32 
L 309.238154 534.7656 
L 309.312 534.619408 
L 309.604724 534.2112 
L 309.712322 533.6568 
L 309.87 533.400515 
L 310.428 533.395157 
L 310.986 533.408945 
L 311.22598 533.6568 
L 310.986 534.14576 
L 310.920135 534.2112 
L 310.677465 534.7656 
L 310.51987 535.32 
L 310.428 535.471661 
L 310.10998 535.8744 
L 309.87 536.36336 
L 309.804135 536.4288 
L 309.597051 536.9832 
L 309.519216 537.5376 
L 309.519216 538.092 
L 309.519216 538.6464 
L 309.519216 539.2008 
L 309.519216 539.7552 
L 309.519216 540.3096 
L 309.601408 540.864 
L 309.87 541.187622 
L 310.077383 541.4184 
L 310.428 541.711157 
L 310.986 541.724945 
z
" style="fill:#0000ff;"/>
   </g>
   <g id="patch_28">
    <path clip-path="url(#pf85b0bbb23)" d="M 329.79758 546.9624 
L 329.958 546.86186 
L 330.414807 546.408 
L 330.516 546.248615 
L 330.824535 545.8536 
L 330.804955 545.2992 
L 330.516 544.967441 
L 330.250871 544.7448 
L 329.958 544.499056 
L 329.4 544.517997 
L 329.126613 544.7448 
L 328.842 544.86546 
L 328.284 544.899189 
L 327.726 544.806361 
L 327.653823 544.7448 
L 327.168 544.215178 
L 327.140783 544.1904 
L 326.61 543.663041 
L 326.583888 543.636 
L 326.052 543.178574 
L 325.969373 543.0816 
L 325.722276 542.5272 
L 325.494 542.263688 
L 325.299565 541.9728 
L 324.936 541.56486 
L 324.841108 541.4184 
L 324.936 541.274025 
L 325.275035 540.864 
L 325.494 540.538719 
L 325.716433 540.3096 
L 326.052 539.912931 
L 326.210755 539.7552 
L 326.61 539.259489 
L 326.66907 539.2008 
L 327.12225 538.6464 
L 327.168 538.593658 
L 327.606038 538.092 
L 327.726 537.948936 
L 328.083461 537.5376 
L 328.284 537.292622 
L 328.552592 536.9832 
L 328.842 536.646961 
L 329.061578 536.4288 
L 329.4 536.023587 
L 329.550156 535.8744 
L 329.958 535.372393 
L 330.010733 535.32 
L 330.422308 534.7656 
L 330.516 534.563385 
L 330.775467 534.2112 
L 330.797086 533.6568 
L 330.516 533.343246 
L 330.231819 533.1024 
L 329.958 532.864572 
L 329.4 532.900123 
L 329.179934 533.1024 
L 328.842 533.300306 
L 328.49155 533.6568 
L 328.284 533.901242 
L 327.941396 534.2112 
L 327.726 534.511807 
L 327.509621 534.7656 
L 327.168 535.105017 
L 326.951621 535.32 
L 326.61 535.725213 
L 326.459844 535.8744 
L 326.052 536.383526 
L 326.006432 536.4288 
L 325.540394 536.9832 
L 325.494 537.036735 
L 325.059656 537.5376 
L 324.936 537.68507 
L 324.582612 538.092 
L 324.378 538.342126 
L 324.111744 538.6464 
L 323.82 538.982639 
L 323.600422 539.2008 
L 323.262 539.488341 
L 322.704 539.229663 
L 322.674949 539.2008 
L 322.146 538.675263 
L 322.116949 538.6464 
L 321.588 538.237748 
L 321.456612 538.092 
L 321.03 537.66814 
L 320.894345 537.5376 
L 320.472 537.117979 
L 320.336345 536.9832 
L 319.914 536.563579 
L 319.778345 536.4288 
L 319.356 536.018072 
L 319.090871 535.8744 
L 318.798 535.628656 
L 318.24 535.647597 
L 317.977559 535.8744 
L 317.682 536.168052 
L 317.453724 536.4288 
L 317.331216 536.9832 
L 317.4179 537.5376 
L 317.682 537.856864 
L 317.889383 538.092 
L 318.24 538.384757 
L 318.798 538.623549 
L 318.826844 538.6464 
L 319.356 539.172142 
L 319.384844 539.2008 
L 319.914 539.726542 
L 319.942844 539.7552 
L 320.472 540.280942 
L 320.500844 540.3096 
L 321.03 540.835342 
L 321.05862 540.864 
L 321.588 541.313467 
L 321.671854 541.4184 
L 321.588 541.704377 
L 321.424882 541.9728 
L 321.144046 542.5272 
L 321.03 542.731509 
L 320.772791 543.0816 
L 320.482059 543.636 
L 320.472 543.661304 
L 320.2079 544.1904 
L 320.121216 544.7448 
L 320.121216 545.2992 
L 320.121216 545.8536 
L 320.2079 546.408 
L 320.472 546.727264 
L 320.679383 546.9624 
L 321.03 547.255157 
L 321.588 547.268945 
L 321.975553 546.9624 
L 322.146 546.793053 
L 322.454535 546.408 
L 322.496784 545.8536 
L 322.496784 545.2992 
L 322.532422 544.7448 
L 322.704 544.400544 
L 322.907591 544.1904 
L 323.157293 543.636 
L 323.262 543.478681 
L 323.483446 543.636 
L 323.82 543.899512 
L 324.018499 544.1904 
L 324.378 544.588394 
L 324.486528 544.7448 
L 324.936 545.208594 
L 325.027195 545.2992 
L 325.494 545.762994 
L 325.584722 545.8536 
L 326.052 546.30797 
L 326.179042 546.408 
L 326.61 546.756521 
L 327.168 546.941418 
L 327.205524 546.9624 
L 327.726 547.287102 
L 328.284 547.310921 
L 328.842 547.310921 
L 329.4 547.268945 
z
" style="fill:#0000ff;"/>
   </g>
  </g>
 </g>
 <defs>
  <clipPath id="pf85b0bbb23">
   <rect height="567.7056" width="762.228" x="122.94" y="88.4736"/>
  </clipPath>
 </defs>
</svg>
