<?xml version="1.0" encoding="utf-8" standalone="no"?>
<!DOCTYPE svg PUBLIC "-//W3C//DTD SVG 1.1//EN"
  "http://www.w3.org/Graphics/SVG/1.1/DTD/svg11.dtd">
<!-- Created with matplotlib (https://matplotlib.org/) -->
<svg height="737.28pt" version="1.1" viewBox="0 0 983.52 737.28" width="983.52pt" xmlns="http://www.w3.org/2000/svg" xmlns:xlink="http://www.w3.org/1999/xlink">
 <defs>
  <style type="text/css">
*{stroke-linecap:butt;stroke-linejoin:round;}
  </style>
 </defs>
 <g id="figure_1">
  <g id="patch_1">
   <path d="M 0 737.28 
L 983.52 737.28 
L 983.52 0 
L 0 0 
z
" style="fill:none;"/>
  </g>
  <g id="axes_1">
   <g id="patch_2">
    <path clip-path="url(#p369f15e357)" d="M 669.051553 179.9496 
L 669.222 179.780253 
L 669.530535 179.3952 
L 669.510955 178.8408 
L 669.222 178.509041 
L 668.956871 178.2864 
L 668.664 178.040656 
L 668.106 177.937879 
L 667.548 177.937879 
L 666.99 177.937879 
L 666.432 177.937879 
L 665.874 177.937879 
L 665.316 177.937879 
L 664.758 177.937879 
L 664.2 177.937879 
L 663.642 177.937879 
L 663.084 177.937879 
L 662.526 177.937879 
L 661.968 177.937879 
L 661.41 177.937879 
L 660.852 177.937879 
L 660.294 177.937879 
L 659.736 177.937879 
L 659.178 177.937879 
L 658.62 177.878434 
L 658.134832 177.732 
L 658.062 177.66717 
L 657.504 177.439243 
L 656.946 177.383479 
L 656.388 177.383479 
L 655.83 177.383479 
L 655.272 177.383479 
L 654.714 177.383479 
L 654.156 177.383479 
L 653.598 177.383479 
L 653.04 177.383479 
L 652.482 177.375834 
L 652.274784 177.1776 
L 652.274784 176.6232 
L 652.274784 176.0688 
L 652.274784 175.5144 
L 652.274784 174.96 
L 652.274784 174.4056 
L 652.353937 173.8512 
L 652.482 173.731861 
L 653.04 173.534628 
L 653.296647 173.2968 
L 653.598 173.140797 
L 654.156 172.88739 
L 654.301931 172.7424 
L 654.714 172.566339 
L 655.272 172.557696 
L 655.83 172.567198 
L 656.388 172.575699 
L 656.946 172.582771 
L 657.504 172.614156 
L 658.062 172.701611 
L 658.220871 172.7424 
L 658.62 172.931324 
L 659.178 173.029491 
L 659.736 173.095331 
L 660.294 173.132251 
L 660.852 173.192149 
L 661.348338 173.2968 
L 661.41 173.33543 
L 661.968 173.511783 
L 662.526 173.626849 
L 663.084 173.743031 
L 663.279382 173.8512 
L 663.642 174.143957 
L 664.2 174.157745 
L 664.587553 173.8512 
L 664.758 173.681853 
L 665.066535 173.2968 
L 665.046955 172.7424 
L 664.758 172.399376 
L 664.620861 172.188 
L 664.2 171.66009 
L 664.168314 171.6336 
L 663.642 171.235023 
L 663.447492 171.0792 
L 663.084 170.772655 
L 662.526 170.672537 
L 662.040832 170.5248 
L 661.968 170.45997 
L 661.41 170.232043 
L 660.852 170.176279 
L 660.294 170.176279 
L 659.736 170.176279 
L 659.178 170.176279 
L 658.62 170.176279 
L 658.062 170.176279 
L 657.504 170.176279 
L 656.946 170.176279 
L 656.388 170.176279 
L 655.83 170.176279 
L 655.272 170.176279 
L 654.714 170.176279 
L 654.156 170.262404 
L 653.834663 170.5248 
L 653.598 170.640752 
L 653.04 170.833456 
L 652.768011 171.0792 
L 652.482 171.231628 
L 652.297354 171.0792 
L 652.274784 170.5248 
L 652.274784 169.9704 
L 652.274784 169.416 
L 652.274784 168.8616 
L 652.274784 168.3072 
L 652.274784 167.7528 
L 652.274784 167.1984 
L 652.274784 166.644 
L 652.274784 166.0896 
L 652.274784 165.5352 
L 652.274784 164.9808 
L 652.274784 164.4264 
L 652.274784 163.872 
L 652.218658 163.3176 
L 652.114151 162.7632 
L 651.924 162.300101 
L 651.902882 162.2088 
L 651.802557 161.6544 
L 651.75769 161.1 
L 651.716784 160.5456 
L 651.716784 159.9912 
L 651.716784 159.4368 
L 651.716784 158.8824 
L 651.730592 158.328 
L 651.818669 157.7736 
L 651.924 157.640757 
L 652.482 157.567721 
L 653.04 157.567721 
L 653.598 157.567721 
L 654.156 157.578402 
L 654.714 157.651282 
L 655.068709 157.7736 
L 655.272 157.935666 
L 655.83 158.123188 
L 656.388 158.231804 
L 656.598406 158.328 
L 656.946 158.590396 
L 657.504 158.722005 
L 657.973524 158.8824 
L 658.062 158.965905 
L 658.62 159.211168 
L 659.178 159.244546 
L 659.736 159.262449 
L 660.294 159.380273 
L 660.423539 159.4368 
L 660.852 159.710204 
L 661.41 159.816483 
L 661.879524 159.9912 
L 661.968 160.074705 
L 662.526 160.333873 
L 663.084 160.449404 
L 663.294406 160.5456 
L 663.642 160.807996 
L 664.2 160.940363 
L 664.669524 161.1 
L 664.758 161.183505 
L 665.316 161.440263 
L 665.874 161.558204 
L 666.084406 161.6544 
L 666.432 161.916796 
L 666.99 162.049094 
L 667.459524 162.2088 
L 667.548 162.292305 
L 668.106 162.549063 
L 668.664 162.667004 
L 668.874406 162.7632 
L 669.222 163.025596 
L 669.78 163.15644 
L 670.249524 163.3176 
L 670.338 163.401105 
L 670.896 163.617437 
L 671.454 163.617437 
L 671.81126 163.3176 
L 672.012 163.118156 
L 672.313784 162.7632 
L 672.300955 162.2088 
L 672.012 161.897257 
L 671.789907 161.6544 
L 671.454 161.344632 
L 670.896 161.231081 
L 670.56046 161.1 
L 670.338 160.911076 
L 669.78 160.729445 
L 669.222 160.586389 
L 669.147005 160.5456 
L 668.664 160.229632 
L 668.106 160.122281 
L 667.77046 159.9912 
L 667.548 159.802276 
L 666.99 159.590596 
L 666.5524 159.4368 
L 666.432 159.335993 
L 665.874 159.120832 
L 665.316 159.019004 
L 664.98046 158.8824 
L 664.758 158.693476 
L 664.2 158.511845 
L 663.642 158.368789 
L 663.562409 158.328 
L 663.084 158.021455 
L 662.526 157.905863 
L 662.19046 157.7736 
L 661.968 157.584676 
L 661.41 157.405735 
L 660.852 157.259989 
L 660.762285 157.2192 
L 660.294 156.932109 
L 659.736 156.870679 
L 659.178 156.86845 
L 658.62 156.722794 
L 658.460634 156.6648 
L 658.062 156.429788 
L 657.504 156.303594 
L 656.946 156.151189 
L 656.866409 156.1104 
L 656.388 155.803855 
L 655.83 155.703114 
L 655.344832 155.556 
L 655.272 155.49117 
L 654.714 155.263243 
L 654.156 155.207479 
L 653.598 155.207479 
L 653.04 155.207479 
L 652.482 155.207479 
L 651.924 155.207479 
L 651.366 155.207479 
L 650.808 155.302959 
L 650.53588 155.556 
L 650.25 155.806009 
L 649.961045 156.1104 
L 649.779853 156.6648 
L 649.692 157.090969 
L 649.626749 157.2192 
L 649.397342 157.7736 
L 649.341216 158.328 
L 649.341216 158.8824 
L 649.341216 159.4368 
L 649.341216 159.9912 
L 649.341216 160.5456 
L 649.36519 161.1 
L 649.444661 161.6544 
L 649.626749 162.2088 
L 649.692 162.337031 
L 649.77302 162.7632 
L 649.851314 163.3176 
L 649.881627 163.872 
L 649.899216 164.4264 
L 649.899216 164.9808 
L 649.899216 165.5352 
L 649.899216 166.0896 
L 649.899216 166.644 
L 649.899216 167.1984 
L 649.899216 167.7528 
L 649.899216 168.3072 
L 649.899216 168.8616 
L 649.899216 169.416 
L 649.899216 169.9704 
L 649.899216 170.5248 
L 649.899216 171.0792 
L 649.899216 171.6336 
L 649.899216 172.188 
L 649.759414 172.7424 
L 649.692 172.804924 
L 649.134 172.996963 
L 648.798252 173.2968 
L 648.576 173.571101 
L 648.328661 173.8512 
L 648.294914 174.4056 
L 648.576 174.741194 
L 648.770508 174.96 
L 649.134 175.266545 
L 649.692 175.308521 
L 649.899216 175.5144 
L 649.899216 176.0688 
L 649.899216 176.6232 
L 649.899216 177.1776 
L 649.899216 177.732 
L 649.9859 178.2864 
L 650.25 178.605664 
L 650.414071 178.8408 
L 650.808 179.181063 
L 651.366 179.374218 
L 651.403524 179.3952 
L 651.924 179.719902 
L 652.482 179.743721 
L 653.04 179.743721 
L 653.598 179.743721 
L 654.156 179.743721 
L 654.714 179.743721 
L 655.272 179.743721 
L 655.83 179.743721 
L 656.388 179.743721 
L 656.946 179.752454 
L 657.504 179.827282 
L 657.858709 179.9496 
L 658.062 180.111666 
L 658.62 180.283653 
L 659.178 180.298121 
L 659.736 180.298121 
L 660.294 180.298121 
L 660.852 180.298121 
L 661.41 180.298121 
L 661.968 180.298121 
L 662.526 180.298121 
L 663.084 180.298121 
L 663.642 180.298121 
L 664.2 180.298121 
L 664.758 180.298121 
L 665.316 180.298121 
L 665.874 180.298121 
L 666.432 180.298121 
L 666.99 180.298121 
L 667.548 180.298121 
L 668.106 180.298121 
L 668.664 180.256145 
z
" style="fill:#0000ff;"/>
   </g>
   <g id="patch_3">
    <path clip-path="url(#p369f15e357)" d="M 733.321099 195.4728 
L 733.392 195.428011 
L 733.95 195.171441 
L 734.299992 194.9184 
L 734.508 194.823884 
L 735.066 194.541774 
L 735.252391 194.364 
L 735.624 194.180306 
L 736.077019 193.8096 
L 736.182 193.703966 
L 736.74 193.300474 
L 736.785568 193.2552 
L 737.298 192.862866 
L 737.461118 192.7008 
L 737.856 192.408796 
L 738.1201 192.1464 
L 738.414 191.856538 
L 738.72025 191.592 
L 738.972 191.388709 
L 739.381573 191.0376 
L 739.53 190.940369 
L 739.985128 190.4832 
L 740.088 190.364215 
L 740.448559 189.9288 
L 740.629933 189.3744 
L 740.646 189.338488 
L 740.931266 188.82 
L 741.124806 188.2656 
L 741.204 188.122518 
L 741.485086 187.7112 
L 741.622777 187.1568 
L 741.762 186.883254 
L 741.978379 186.6024 
L 742.118695 186.048 
L 742.32 185.597415 
L 742.41562 185.4936 
L 742.661298 184.9392 
L 742.670784 184.3848 
L 742.670784 183.8304 
L 742.670784 183.276 
L 742.670784 182.7216 
L 742.670784 182.1672 
L 742.670784 181.6128 
L 742.670784 181.0584 
L 742.670784 180.504 
L 742.670784 179.9496 
L 742.670784 179.3952 
L 742.670784 178.8408 
L 742.670784 178.2864 
L 742.670784 177.732 
L 742.878 177.32259 
L 743.023931 177.1776 
L 743.436 176.98637 
L 743.950429 176.6232 
L 743.994 176.590793 
L 744.552 176.387752 
L 744.950135 176.0688 
L 745.11 175.968846 
L 745.668 175.767441 
L 745.947408 175.5144 
L 746.226 175.364187 
L 746.784 175.10499 
L 746.929931 174.96 
L 747.342 174.765857 
L 747.804914 174.4056 
L 747.9 174.330381 
L 748.458 173.934705 
L 748.542047 173.8512 
L 749.016 173.549841 
L 749.279114 173.2968 
L 749.574 173.08944 
L 749.947231 172.7424 
L 750.132 172.593299 
L 750.594055 172.188 
L 750.69 172.083696 
L 751.154728 171.6336 
L 751.248 171.559962 
L 751.327856 171.6336 
L 751.806 172.098374 
L 751.896208 172.188 
L 752.364 172.652774 
L 752.454208 172.7424 
L 752.922 173.197325 
L 753.063339 173.2968 
L 753.48 173.626849 
L 754.038 173.711576 
L 754.55018 173.8512 
L 754.596 173.88983 
L 755.154 174.143957 
L 755.712 174.228751 
L 756.27 174.325103 
L 756.498763 174.4056 
L 756.828 174.620583 
L 757.386 174.739653 
L 757.944 174.754121 
L 758.502 174.754121 
L 759.06 174.754121 
L 759.618 174.754121 
L 760.176 174.754121 
L 760.734 174.754121 
L 761.292 174.754121 
L 761.85 174.744697 
L 762.408 174.607877 
L 762.680263 174.4056 
L 762.966 174.300949 
L 763.524 174.204131 
L 764.023348 173.8512 
L 764.082 173.809533 
L 764.64 173.567988 
L 764.930438 173.2968 
L 765.198 173.129728 
L 765.657184 172.7424 
L 765.756 172.652774 
L 766.223792 172.188 
L 766.314 172.098374 
L 766.771879 171.6336 
L 766.872 171.474215 
L 767.180535 171.0792 
L 767.222784 170.5248 
L 767.222784 169.9704 
L 767.160955 169.416 
L 766.872 169.084241 
L 766.606871 168.8616 
L 766.314 168.615856 
L 765.756 168.634797 
L 765.493559 168.8616 
L 765.198 169.155252 
L 764.969724 169.416 
L 764.847216 169.9704 
L 764.768689 170.5248 
L 764.64 170.659579 
L 764.217655 171.0792 
L 764.082 171.199638 
L 763.524 171.550095 
L 763.439953 171.6336 
L 762.966 171.840557 
L 762.456789 172.188 
L 762.408 172.220407 
L 761.85 172.344151 
L 761.292 172.390606 
L 760.734 172.381289 
L 760.176 172.373571 
L 759.618 172.365725 
L 759.06 172.359253 
L 758.502 172.351798 
L 757.944 172.346286 
L 757.386 172.323395 
L 756.97851 172.188 
L 756.828 172.057054 
L 756.27 171.867514 
L 755.712 171.809661 
L 755.154 171.75426 
L 754.758137 171.6336 
L 754.596 171.50724 
L 754.038 171.212536 
L 753.903798 171.0792 
L 753.48 170.658136 
L 753.345798 170.5248 
L 752.922 170.103736 
L 752.787798 169.9704 
L 752.402881 169.416 
L 752.712492 168.8616 
L 752.84098 168.3072 
L 752.922 168.132628 
L 753.194949 167.7528 
L 753.327952 167.1984 
L 753.48 166.761121 
L 753.586642 166.644 
L 753.816222 166.0896 
L 753.830784 165.5352 
L 753.830784 164.9808 
L 753.830784 164.4264 
L 753.830784 163.872 
L 753.830784 163.3176 
L 753.80681 162.7632 
L 753.48 162.246082 
L 753.458882 162.2088 
L 753.272784 161.6544 
L 752.922 161.131481 
L 752.900882 161.1 
L 752.705298 160.5456 
L 752.364 160.18362 
L 752.138751 159.9912 
L 751.806 159.684655 
L 751.248 159.584537 
L 750.762832 159.4368 
L 750.69 159.37197 
L 750.132 159.144043 
L 749.574 159.144043 
L 749.016 159.37197 
L 748.943168 159.4368 
L 748.458 159.584537 
L 747.9 159.698443 
L 747.560616 159.9912 
L 747.342 160.13641 
L 746.921139 160.5456 
L 746.784 160.681854 
L 746.372153 161.1 
L 746.226 161.382777 
L 745.997724 161.6544 
L 745.875216 162.2088 
L 745.875216 162.7632 
L 745.875216 163.3176 
L 745.875216 163.872 
L 745.931342 164.4264 
L 746.226 164.856421 
L 746.287961 164.9808 
L 746.453097 165.5352 
L 746.784 165.988842 
L 746.845961 166.0896 
L 747.011097 166.644 
L 747.342 167.097642 
L 747.403961 167.1984 
L 747.569097 167.7528 
L 747.9 168.156497 
L 748.007397 168.3072 
L 748.458 168.771974 
L 748.548208 168.8616 
L 749.016 169.326374 
L 749.106208 169.416 
L 749.345724 169.9704 
L 749.136059 170.5248 
L 749.016 170.654627 
L 748.541554 171.0792 
L 748.458 171.152515 
L 747.9 171.550095 
L 747.815953 171.6336 
L 747.342 171.900727 
L 747.044411 172.188 
L 746.784 172.365299 
L 746.364656 172.7424 
L 746.226 172.856282 
L 745.668 172.980832 
L 745.332997 173.2968 
L 745.11 173.449188 
L 744.552 173.745246 
L 744.445358 173.8512 
L 743.994 174.034959 
L 743.500733 174.4056 
L 743.436 174.456989 
L 742.878 174.653455 
L 742.670784 174.4056 
L 742.670784 173.8512 
L 742.670784 173.2968 
L 742.670784 172.7424 
L 742.656222 172.188 
L 742.559373 171.6336 
L 742.32 171.109199 
L 742.310895 171.0792 
L 742.190924 170.5248 
L 742.134961 169.9704 
L 742.063784 169.416 
L 741.925118 168.8616 
L 741.762 168.573259 
L 741.690439 168.3072 
L 741.598561 167.7528 
L 741.572373 167.1984 
L 741.583121 166.644 
L 741.594921 166.0896 
L 741.611412 165.5352 
L 741.740882 164.9808 
L 741.762 164.932867 
L 742.051321 164.4264 
L 742.227228 163.872 
L 742.32 163.734702 
L 742.656222 163.3176 
L 742.621784 162.7632 
L 742.32 162.419263 
L 742.062261 162.2088 
L 741.762 161.955759 
L 741.204 161.955759 
L 740.854008 162.2088 
L 740.646 162.300077 
L 740.088 162.456655 
L 739.755249 162.7632 
L 739.53 163.030596 
L 739.2659 163.3176 
L 739.138631 163.872 
L 738.972 164.064533 
L 738.732364 163.872 
L 738.414 163.600812 
L 737.856 163.514746 
L 737.298 163.485791 
L 736.74 163.458413 
L 736.182 163.398097 
L 735.643529 163.3176 
L 735.624 163.30889 
L 735.066 163.139826 
L 734.508 163.055204 
L 733.95 163.011055 
L 733.392 163.055204 
L 733.103133 163.3176 
L 732.834 163.541395 
L 732.525465 163.872 
L 732.367404 164.4264 
L 732.276 164.585785 
L 731.967465 164.9808 
L 731.80987 165.5352 
L 731.718 165.725141 
L 731.445051 166.0896 
L 731.367216 166.644 
L 731.367216 167.1984 
L 731.470661 167.7528 
L 731.718 168.032899 
L 731.878643 168.3072 
L 732.276 168.693782 
L 732.495024 168.8616 
L 732.834 169.174508 
L 733.175621 169.416 
L 733.392 169.630983 
L 733.727282 169.9704 
L 733.392 170.204453 
L 732.983091 170.5248 
L 732.834 170.615198 
L 732.276 170.741283 
L 731.844056 171.0792 
L 731.718 171.162099 
L 731.16 171.247391 
L 730.602 171.262108 
L 730.044 171.261266 
L 729.686405 171.0792 
L 729.486 170.880088 
L 728.928 170.565991 
L 728.886981 170.5248 
L 728.601528 169.9704 
L 728.37 169.740366 
L 728.169371 169.416 
L 727.812 168.891603 
L 727.790882 168.8616 
L 727.604784 168.3072 
L 727.254 167.784281 
L 727.232882 167.7528 
L 727.062455 167.1984 
L 727.046784 166.644 
L 727.046784 166.0896 
L 727.046784 165.5352 
L 726.984955 164.9808 
L 726.696 164.637776 
L 726.560345 164.4264 
L 726.138 164.006779 
L 726.002345 163.872 
L 725.58 163.461272 
L 725.314871 163.3176 
L 725.022 163.071856 
L 724.464 163.090797 
L 724.201559 163.3176 
L 723.906 163.611252 
L 723.677724 163.872 
L 723.555216 164.4264 
L 723.348 164.735056 
L 722.79 164.632279 
L 722.232 164.632279 
L 721.674 164.632279 
L 721.116 164.632279 
L 720.558 164.632279 
L 720 164.709612 
L 719.702295 164.9808 
L 719.442 165.187015 
L 719.11519 165.5352 
L 718.884 166.006095 
L 718.676784 165.5352 
L 718.676784 164.9808 
L 718.676784 164.4264 
L 718.676784 163.872 
L 718.676784 163.3176 
L 718.65281 162.7632 
L 718.391865 162.2088 
L 718.326 162.14336 
L 718.123222 161.6544 
L 717.768 161.13048 
L 717.746882 161.1 
L 717.552473 160.5456 
L 717.21 160.182507 
L 717.002446 159.9912 
L 716.652 159.666498 
L 716.094 159.498361 
L 716.001747 159.4368 
L 715.536 159.065806 
L 715.223245 158.8824 
L 714.978 158.667417 
L 714.42 158.442492 
L 714.217853 158.328 
L 713.862 158.056812 
L 713.304 157.979479 
L 712.746 157.979479 
L 712.188 157.979479 
L 711.63 157.979479 
L 711.072 157.979479 
L 710.514 157.979479 
L 709.956 157.979479 
L 709.398 157.979479 
L 708.84 157.979479 
L 708.282 157.979479 
L 707.724 158.056812 
L 707.357175 158.328 
L 707.166 158.419277 
L 706.608 158.566432 
L 706.05 158.81696 
L 705.984135 158.8824 
L 705.492 159.120832 
L 705.086646 159.4368 
L 704.934 159.527657 
L 704.376 159.698443 
L 704.072912 159.9912 
L 703.818 160.250112 
L 703.529045 160.5456 
L 703.384774 161.1 
L 703.26 161.395084 
L 703.043621 161.6544 
L 702.814071 162.2088 
L 702.702 162.696101 
L 702.663119 162.7632 
L 702.359527 163.3176 
L 702.144 163.813311 
L 702.08493 163.872 
L 701.837039 164.4264 
L 701.645049 164.9808 
L 701.586 165.18663 
L 701.407072 165.5352 
L 701.177721 166.0896 
L 701.049118 166.644 
L 701.028 166.677978 
L 700.687888 167.1984 
L 700.576312 167.7528 
L 700.47 167.984499 
L 700.215315 168.3072 
L 700.066867 168.8616 
L 699.912 169.298879 
L 699.805358 169.416 
L 699.551441 169.9704 
L 699.405723 170.5248 
L 699.354 170.639468 
L 699.072914 171.0792 
L 699.003216 171.6336 
L 699.003216 172.188 
L 699.085408 172.7424 
L 699.354 173.066022 
L 699.561383 173.2968 
L 699.912 173.589557 
L 700.47 173.603345 
L 700.857553 173.2968 
L 701.028 173.089765 
L 701.294256 172.7424 
L 701.378784 172.188 
L 701.396373 171.6336 
L 701.534277 171.0792 
L 701.586 170.981464 
L 701.894535 170.5248 
L 702.019226 169.9704 
L 702.144 169.687623 
L 702.372276 169.416 
L 702.533664 168.8616 
L 702.702 168.375589 
L 702.767251 168.3072 
L 703.044473 167.7528 
L 703.195089 167.1984 
L 703.26 167.074783 
L 703.548955 166.644 
L 703.669448 166.0896 
L 703.818 165.769675 
L 704.008151 165.5352 
L 704.154347 164.9808 
L 704.366636 164.4264 
L 704.376 164.414746 
L 704.389815 164.4264 
L 704.583216 164.9808 
L 704.583216 165.5352 
L 704.583216 166.0896 
L 704.583216 166.644 
L 704.583216 167.1984 
L 704.583216 167.7528 
L 704.583216 168.3072 
L 704.583216 168.8616 
L 704.583216 169.416 
L 704.583216 169.9704 
L 704.583216 170.5248 
L 704.583216 171.0792 
L 704.583216 171.6336 
L 704.583216 172.188 
L 704.583216 172.7424 
L 704.583216 173.2968 
L 704.583216 173.8512 
L 704.583216 174.4056 
L 704.583216 174.96 
L 704.639342 175.5144 
L 704.868135 176.0688 
L 704.934 176.13424 
L 705.16519 176.6232 
L 705.492 177.074319 
L 705.553961 177.1776 
L 705.691521 177.732 
L 705.699216 178.2864 
L 705.699216 178.8408 
L 705.699216 179.3952 
L 705.699216 179.9496 
L 705.699216 180.504 
L 705.699216 181.0584 
L 705.762877 181.6128 
L 706.05 181.979184 
L 706.149174 182.1672 
L 706.3822 182.7216 
L 706.608 182.945943 
L 706.772862 183.276 
L 706.799545 183.8304 
L 706.9019 184.3848 
L 707.166 184.704064 
L 707.373383 184.9392 
L 707.724 185.231957 
L 708.282 185.287721 
L 708.84 185.258152 
L 709.238135 184.9392 
L 709.398 184.792809 
L 709.734222 184.3848 
L 709.71294 183.8304 
L 709.398 183.316426 
L 709.376882 183.276 
L 709.186147 182.7216 
L 708.84 182.284842 
L 708.755702 182.1672 
L 708.498379 181.6128 
L 708.282 181.38977 
L 708.102695 181.0584 
L 708.074784 180.504 
L 708.074784 179.9496 
L 708.074784 179.3952 
L 708.074784 178.8408 
L 708.074784 178.2864 
L 708.074784 177.732 
L 708.05081 177.1776 
L 707.789865 176.6232 
L 707.724 176.55776 
L 707.49281 176.0688 
L 707.166 175.551682 
L 707.144882 175.5144 
L 706.975465 174.96 
L 706.958784 174.4056 
L 706.958784 173.8512 
L 706.958784 173.2968 
L 706.958784 172.7424 
L 706.958784 172.188 
L 706.958784 171.6336 
L 706.958784 171.0792 
L 706.958784 170.5248 
L 706.958784 169.9704 
L 706.958784 169.416 
L 706.958784 168.8616 
L 706.958784 168.3072 
L 706.958784 167.7528 
L 706.958784 167.1984 
L 706.958784 166.644 
L 706.958784 166.0896 
L 706.958784 165.5352 
L 706.958784 164.9808 
L 706.958784 164.4264 
L 706.958784 163.872 
L 706.896955 163.3176 
L 706.608 162.974576 
L 706.472345 162.7632 
L 706.05 162.343579 
L 705.915798 162.2088 
L 705.725919 161.6544 
L 706.05 161.465997 
L 706.608 161.16483 
L 706.673251 161.1 
L 707.166 160.911597 
L 707.724 160.61043 
L 707.789251 160.5456 
L 708.282 160.369539 
L 708.84 160.363619 
L 709.398 160.372773 
L 709.956 160.383216 
L 710.514 160.396643 
L 711.072 160.484039 
L 711.317126 160.5456 
L 711.63 160.707666 
L 712.188 160.824873 
L 712.746 160.898531 
L 713.304 160.93828 
L 713.862 161.0289 
L 714.065444 161.1 
L 714.42 161.321281 
L 714.978 161.480814 
L 715.497119 161.6544 
L 715.536 161.69303 
L 715.765854 162.2088 
L 716.094 162.660746 
L 716.155961 162.7632 
L 716.292426 163.3176 
L 716.301216 163.872 
L 716.301216 164.4264 
L 716.301216 164.9808 
L 716.117277 165.5352 
L 716.094 165.556292 
L 715.536 165.802327 
L 715.136341 166.0896 
L 714.978 166.186287 
L 714.530674 166.644 
L 714.42 166.738971 
L 713.862 166.952656 
L 713.563327 167.1984 
L 713.304 167.364326 
L 712.91793 167.7528 
L 712.746 167.887246 
L 712.291563 168.3072 
L 712.188 168.399253 
L 711.63 168.479199 
L 711.072 168.499454 
L 710.514 168.471748 
L 710.189208 168.3072 
L 709.956 168.092217 
L 709.398 168.069372 
L 709.062716 168.3072 
L 708.84 168.398477 
L 708.282 168.568843 
L 707.953151 168.8616 
L 707.724 169.155252 
L 707.495724 169.416 
L 707.451051 169.9704 
L 707.724 170.298222 
L 707.931383 170.5248 
L 708.282 170.817557 
L 708.84 170.873321 
L 709.398 170.873321 
L 709.956 170.873321 
L 710.514 170.873321 
L 711.072 170.873321 
L 711.63 170.873321 
L 712.188 170.873321 
L 712.746 170.831345 
L 713.14358 170.5248 
L 713.304 170.42426 
L 713.770805 169.9704 
L 713.862 169.880774 
L 714.350699 169.416 
L 714.42 169.352513 
L 714.978 169.063877 
L 715.181591 168.8616 
L 715.536 168.652229 
L 715.94454 168.3072 
L 716.094 168.194795 
L 716.652 167.81763 
L 716.717251 167.7528 
L 717.21 167.446535 
L 717.683953 167.7528 
L 717.342626 168.3072 
L 717.21 168.563276 
L 716.955315 168.8616 
L 716.928914 169.416 
L 717.21 169.776968 
L 717.312124 169.9704 
L 717.577849 170.5248 
L 717.768 170.713724 
L 717.975216 171.0792 
L 718.326 171.477777 
L 718.481907 171.6336 
L 718.884 171.983188 
L 719.442 172.167018 
L 719.479524 172.188 
L 720 172.512702 
L 720.558 172.536521 
L 721.116 172.536521 
L 721.674 172.536521 
L 722.232 172.536521 
L 722.79 172.536521 
L 723.348 172.512702 
L 723.835099 172.188 
L 723.906 172.146333 
L 724.464 171.904788 
L 724.754438 171.6336 
L 725.022 171.465723 
L 725.480623 171.0792 
L 725.58 170.980464 
L 726.038623 170.5248 
L 726.138 170.439734 
L 726.223201 170.5248 
L 726.505849 171.0792 
L 726.696 171.268124 
L 726.903216 171.6336 
L 727.254 172.032177 
L 727.404211 172.188 
L 727.812 172.574834 
L 728.113345 172.7424 
L 728.37 172.963398 
L 728.928 173.202046 
L 729.069474 173.2968 
L 729.486 173.609708 
L 730.044 173.645321 
L 730.602 173.645321 
L 731.16 173.645321 
L 731.718 173.630853 
L 732.276 173.36163 
L 732.341251 173.2968 
L 732.834 173.058368 
L 733.392 172.80784 
L 733.457865 172.7424 
L 733.95 172.548257 
L 734.452302 172.188 
L 734.508 172.147211 
L 735.066 171.933437 
L 735.41217 171.6336 
L 735.624 171.504282 
L 736.182 171.256974 
L 736.368391 171.0792 
L 736.74 170.892649 
L 737.19103 170.5248 
L 737.298 170.433142 
L 737.697422 169.9704 
L 737.856 169.815781 
L 738.323745 169.416 
L 738.414 169.328274 
L 738.883704 168.8616 
L 738.972 168.770994 
L 739.53 168.70375 
L 739.601561 168.8616 
L 739.691383 169.416 
L 739.74073 169.9704 
L 739.833315 170.5248 
L 740.049119 171.0792 
L 740.088 171.127789 
L 740.217076 171.6336 
L 740.268585 172.188 
L 740.295216 172.7424 
L 740.295216 173.2968 
L 740.295216 173.8512 
L 740.295216 174.4056 
L 740.295216 174.96 
L 740.295216 175.5144 
L 740.275762 176.0688 
L 740.088 176.247893 
L 739.53 176.61449 
L 739.521234 176.6232 
L 738.972 176.833686 
L 738.506253 177.1776 
L 738.414 177.240431 
L 737.856 177.425455 
L 737.492508 177.732 
L 737.298 177.865336 
L 736.837062 178.2864 
L 736.74 178.371466 
L 736.182 178.83209 
L 736.173234 178.8408 
L 735.624 179.217426 
L 735.445072 179.3952 
L 735.066 179.651413 
L 734.672137 179.9496 
L 734.508 180.073064 
L 734.12596 180.504 
L 733.95 180.65695 
L 733.392 180.880626 
L 733.213072 181.0584 
L 732.834 181.323734 
L 732.429128 181.6128 
L 732.276 181.705189 
L 731.816206 182.1672 
L 731.718 182.252684 
L 731.16 182.475856 
L 730.861327 182.7216 
L 730.602 182.88854 
L 730.235332 183.276 
L 730.044 183.453165 
L 729.486 183.785126 
L 729.440432 183.8304 
L 728.985675 184.3848 
L 728.928 184.437831 
L 728.37 184.87437 
L 728.304749 184.9392 
L 727.812 185.229062 
L 727.50575 185.4936 
L 727.254 185.696891 
L 726.844427 186.048 
L 726.696 186.166769 
L 726.326995 186.6024 
L 726.138 186.888768 
L 725.885646 187.1568 
L 725.787216 187.7112 
L 725.787216 188.2656 
L 725.787216 188.82 
L 725.787216 189.3744 
L 725.787216 189.9288 
L 725.787216 190.4832 
L 725.787216 191.0376 
L 725.787216 191.592 
L 725.787216 192.1464 
L 725.787216 192.7008 
L 725.787216 193.2552 
L 725.856914 193.8096 
L 726.138 194.1338 
L 726.318938 194.364 
L 726.696 194.696818 
L 727.254 194.861873 
L 727.413366 194.9184 
L 727.812 195.153412 
L 728.37 195.28016 
L 728.839524 195.4728 
L 728.928 195.556305 
L 729.486 195.801568 
L 730.044 195.821321 
L 730.602 195.821321 
L 731.16 195.821321 
L 731.718 195.821321 
L 732.276 195.821321 
L 732.834 195.797502 
z
" style="fill:#0000ff;"/>
   </g>
   <g id="patch_4">
    <path clip-path="url(#p369f15e357)" d="M 750.69 167.762053 
L 750.678757 167.7528 
L 750.132 167.331736 
L 749.997798 167.1984 
L 749.574 166.669777 
L 749.552882 166.644 
L 749.387224 166.0896 
L 749.025529 165.5352 
L 749.016 165.525732 
L 748.84969 164.9808 
L 748.747138 164.4264 
L 748.458 164.047721 
L 748.367841 163.872 
L 748.296617 163.3176 
L 748.282438 162.7632 
L 748.373294 162.2088 
L 748.458 162.125884 
L 749.016 161.907441 
L 749.340797 161.6544 
L 749.574 161.549749 
L 749.704645 161.6544 
L 750.066749 162.2088 
L 750.132 162.27363 
L 750.323545 162.7632 
L 750.56282 163.3176 
L 750.69 163.449984 
L 750.863246 163.872 
L 751.102069 164.4264 
L 751.248 164.577987 
L 751.401806 164.9808 
L 751.432096 165.5352 
L 751.396697 166.0896 
L 751.248 166.485186 
L 751.102069 166.644 
L 750.887441 167.1984 
L 750.699105 167.7528 
z
" style="fill:#ffffff;"/>
   </g>
   <g id="patch_5">
    <path clip-path="url(#p369f15e357)" d="M 736.74 167.380208 
L 736.182 167.490404 
L 735.624 167.404279 
L 735.066 167.353251 
L 734.508 167.249764 
L 734.392587 167.1984 
L 733.95 166.919127 
L 733.785819 166.644 
L 733.95 166.184064 
L 734.045078 166.0896 
L 734.329121 165.5352 
L 734.508 165.380811 
L 735.066 165.439004 
L 735.624 165.514218 
L 735.748695 165.5352 
L 736.182 165.68019 
L 736.74 165.788241 
L 737.298 165.940358 
L 737.505383 166.0896 
L 737.856 166.459216 
L 737.957477 166.644 
L 737.856 166.746792 
L 737.298 166.950265 
L 737.039848 167.1984 
z
" style="fill:#ffffff;"/>
   </g>
   <g id="patch_6">
    <path clip-path="url(#p369f15e357)" d="M 718.326 166.769126 
L 718.236759 166.644 
L 718.326 166.452483 
L 718.410413 166.644 
z
" style="fill:#ffffff;"/>
   </g>
   <g id="patch_7">
    <path clip-path="url(#p369f15e357)" d="M 722.79 170.160617 
L 722.232 170.164639 
L 721.674 170.156935 
L 721.116 170.149009 
L 720.558 170.14084 
L 720 170.011189 
L 719.958946 169.9704 
L 719.844609 169.416 
L 719.844609 168.8616 
L 719.958946 168.3072 
L 720 168.262386 
L 720.477371 167.7528 
L 720.558 167.67943 
L 721.116 167.532453 
L 721.658618 167.1984 
L 721.674 167.189354 
L 722.232 167.037405 
L 722.79 167.017253 
L 723.348 166.955272 
L 723.864857 166.644 
L 723.906 166.622549 
L 723.928097 166.644 
L 724.273849 167.1984 
L 724.464 167.387324 
L 724.645492 167.7528 
L 724.657408 168.3072 
L 724.464 168.739927 
L 724.341537 168.8616 
L 724.000452 169.416 
L 723.906 169.509843 
L 723.348 169.848727 
L 723.225537 169.9704 
z
" style="fill:#ffffff;"/>
   </g>
   <g id="patch_8">
    <path clip-path="url(#p369f15e357)" d="M 717.768 167.639617 
L 717.511096 167.1984 
L 717.768 167.064192 
L 717.951258 167.1984 
z
" style="fill:#ffffff;"/>
   </g>
   <g id="patch_9">
    <path clip-path="url(#p369f15e357)" d="M 683.559553 201.0168 
L 683.73 200.847453 
L 684.038535 200.4624 
L 684.080784 199.908 
L 684.080784 199.3536 
L 684.080784 198.7992 
L 684.080784 198.2448 
L 684.018955 197.6904 
L 683.73 197.358641 
L 683.464871 197.136 
L 683.172 196.890256 
L 682.964784 196.5816 
L 682.950222 196.0272 
L 682.784805 195.4728 
L 682.614 195.262311 
L 682.49204 194.9184 
L 682.440128 194.364 
L 682.430837 193.8096 
L 682.423465 193.2552 
L 682.41646 192.7008 
L 682.38281 192.1464 
L 682.157462 191.592 
L 682.056 191.472377 
L 681.904348 191.0376 
L 681.81294 190.4832 
L 681.498 190.004323 
L 681.457208 189.9288 
L 681.333138 189.3744 
L 681.324128 188.82 
L 681.314837 188.2656 
L 681.302596 187.7112 
L 681.290784 187.1568 
L 681.290784 186.6024 
L 681.290784 186.048 
L 681.290784 185.4936 
L 681.290784 184.9392 
L 681.290784 184.3848 
L 681.290784 183.8304 
L 681.290784 183.276 
L 681.290784 182.7216 
L 681.290784 182.1672 
L 681.290784 181.6128 
L 681.290784 181.0584 
L 681.290784 180.504 
L 681.290784 179.9496 
L 681.290784 179.3952 
L 681.290784 178.8408 
L 681.228955 178.2864 
L 680.94 177.954641 
L 680.674871 177.732 
L 680.382 177.486256 
L 679.824 177.505197 
L 679.561559 177.732 
L 679.266 178.025652 
L 679.037724 178.2864 
L 678.915216 178.8408 
L 678.915216 179.3952 
L 678.915216 179.9496 
L 678.901502 180.504 
L 678.877284 181.0584 
L 678.708 181.491127 
L 678.490472 181.6128 
L 678.15 181.787372 
L 678.06898 181.6128 
L 677.979993 181.0584 
L 677.900535 180.504 
L 677.630881 179.9496 
L 677.592 179.904076 
L 677.453917 179.3952 
L 677.412313 178.8408 
L 677.397456 178.2864 
L 677.356427 177.732 
L 677.034 177.36884 
L 676.850631 177.1776 
L 676.476 176.847423 
L 676.24481 176.6232 
L 675.918 176.256017 
L 675.669642 176.0688 
L 675.36 175.806404 
L 674.802 175.776043 
L 674.244 176.00397 
L 674.171168 176.0688 
L 673.686 176.216537 
L 673.128 176.336109 
L 672.830593 176.6232 
L 672.57 176.869423 
L 672.268216 177.1776 
L 672.063723 177.732 
L 672.012 177.804775 
L 671.656778 178.2864 
L 671.454 178.734846 
L 671.347358 178.8408 
L 671.059151 179.3952 
L 670.896 179.694609 
L 670.656627 179.9496 
L 670.456974 180.504 
L 670.338 180.739136 
L 670.0739 181.0584 
L 669.987216 181.6128 
L 669.987216 182.1672 
L 669.987216 182.7216 
L 669.987216 183.276 
L 669.987216 183.8304 
L 669.987216 184.3848 
L 670.049045 184.9392 
L 670.338 185.282224 
L 670.493907 185.4936 
L 670.896 185.843188 
L 671.454 186.027018 
L 671.491524 186.048 
L 672.012 186.372702 
L 672.57 186.396521 
L 673.128 186.396521 
L 673.686 186.396521 
L 674.244 186.396521 
L 674.802 186.396521 
L 675.36 186.382053 
L 675.918 186.11283 
L 675.983251 186.048 
L 676.476 185.858694 
L 677.034 185.55843 
L 677.099251 185.4936 
L 677.592 185.303291 
L 678.095814 184.9392 
L 678.15 184.897767 
L 678.708 184.655988 
L 678.915216 184.9392 
L 678.915216 185.4936 
L 678.915216 186.048 
L 678.915216 186.6024 
L 678.915216 187.1568 
L 678.915216 187.7112 
L 678.915216 188.2656 
L 678.915216 188.82 
L 678.915216 189.3744 
L 678.964216 189.9288 
L 679.164538 190.4832 
L 679.266 190.602823 
L 679.44104 191.0376 
L 679.587462 191.592 
L 679.824 191.872067 
L 679.949319 192.1464 
L 680.026778 192.7008 
L 680.031216 193.2552 
L 680.031216 193.8096 
L 680.031216 194.364 
L 680.080216 194.9184 
L 680.211195 195.4728 
L 680.382 195.65762 
L 680.530697 196.0272 
L 680.589216 196.5816 
L 680.589216 197.136 
L 680.589216 197.6904 
L 680.6759 198.2448 
L 680.94 198.576596 
L 681.054814 198.7992 
L 681.498 199.265429 
L 681.582706 199.3536 
L 681.704142 199.908 
L 681.7919 200.4624 
L 682.056 200.781664 
L 682.263383 201.0168 
L 682.614 201.309557 
L 683.172 201.323345 
z
" style="fill:#0000ff;"/>
   </g>
   <g id="patch_10">
    <path clip-path="url(#p369f15e357)" d="M 675.36 183.921257 
L 674.802 184.028634 
L 674.244 184.023689 
L 673.686 184.015971 
L 673.128 184.008125 
L 672.57 184.000035 
L 672.362784 183.8304 
L 672.362784 183.276 
L 672.362784 182.7216 
L 672.362784 182.1672 
L 672.396754 181.6128 
L 672.57 181.251131 
L 672.756368 181.0584 
L 673.003226 180.504 
L 673.128 180.356458 
L 673.499224 179.9496 
L 673.686 179.684446 
L 673.977124 179.3952 
L 674.244 179.002866 
L 674.407118 178.8408 
L 674.802 178.647606 
L 675.004778 178.8408 
L 675.058216 179.3952 
L 675.23282 179.9496 
L 675.36 180.110691 
L 675.481443 180.504 
L 675.559521 181.0584 
L 675.670661 181.6128 
L 675.918 182.053346 
L 675.959054 182.1672 
L 676.085008 182.7216 
L 676.167465 183.276 
L 675.918 183.519128 
L 675.516499 183.8304 
z
" style="fill:#ffffff;"/>
   </g>
   <g id="patch_11">
    <path clip-path="url(#p369f15e357)" d="M 732.276 193.433832 
L 731.718 193.444506 
L 731.16 193.433809 
L 730.602 193.423391 
L 730.044 193.414187 
L 729.486 193.276182 
L 729.44352 193.2552 
L 728.928 192.948655 
L 728.37 192.876782 
L 728.170479 192.7008 
L 728.162784 192.1464 
L 728.162784 191.592 
L 728.162784 191.0376 
L 728.162784 190.4832 
L 728.162784 189.9288 
L 728.162784 189.3744 
L 728.162784 188.82 
L 728.162784 188.2656 
L 728.37 187.74983 
L 728.408881 187.7112 
L 728.928 187.322722 
L 729.094999 187.1568 
L 729.486 186.873588 
L 729.767422 186.6024 
L 730.044 186.331806 
L 730.369441 186.048 
L 730.602 185.859463 
L 731.024233 185.4936 
L 731.16 185.403463 
L 731.648286 184.9392 
L 731.718 184.876676 
L 732.276 184.599783 
L 732.492379 184.3848 
L 732.834 184.126745 
L 733.244656 183.8304 
L 733.392 183.74997 
L 733.95 183.359505 
L 734.034047 183.276 
L 734.508 182.967344 
L 734.806673 182.7216 
L 735.066 182.587392 
L 735.563193 182.1672 
L 735.624 182.105283 
L 736.182 181.724286 
L 736.29421 181.6128 
L 736.74 181.285203 
L 736.968276 181.0584 
L 737.298 180.853695 
L 737.665982 180.504 
L 737.856 180.328162 
L 738.381894 179.9496 
L 738.414 179.925466 
L 738.972 179.624965 
L 739.203257 179.3952 
L 739.53 179.220771 
L 740.027543 178.8408 
L 740.088 178.789411 
L 740.163452 178.8408 
L 740.290778 179.3952 
L 740.272096 179.9496 
L 740.263562 180.504 
L 740.256494 181.0584 
L 740.246614 181.6128 
L 740.1119 182.1672 
L 740.088 182.271306 
L 739.901632 182.7216 
L 739.791437 183.276 
L 739.732778 183.8304 
L 739.69277 184.3848 
L 739.53 184.90057 
L 739.491119 184.9392 
L 739.301724 185.4936 
L 739.192425 186.048 
L 739.146713 186.6024 
L 739.064693 187.1568 
L 738.972 187.418012 
L 738.768091 187.7112 
L 738.588051 188.2656 
L 738.414 188.744719 
L 738.342121 188.82 
L 737.856 189.30957 
L 737.790749 189.3744 
L 737.343608 189.9288 
L 737.298 189.970942 
L 736.74 190.399695 
L 736.655953 190.4832 
L 736.182 190.762212 
L 735.856559 191.0376 
L 735.624 191.227421 
L 735.20316 191.592 
L 735.066 191.702121 
L 734.65916 192.1464 
L 734.508 192.265685 
L 733.95 192.498523 
L 733.738492 192.7008 
L 733.392 192.888387 
L 732.834 193.081419 
L 732.643689 193.2552 
z
" style="fill:#ffffff;"/>
   </g>
  </g>
 </g>
 <defs>
  <clipPath id="p369f15e357">
   <rect height="567.7056" width="762.228" x="122.94" y="88.4736"/>
  </clipPath>
 </defs>
</svg>
