<?xml version="1.0" encoding="utf-8" standalone="no"?>
<!DOCTYPE svg PUBLIC "-//W3C//DTD SVG 1.1//EN"
  "http://www.w3.org/Graphics/SVG/1.1/DTD/svg11.dtd">
<!-- Created with matplotlib (https://matplotlib.org/) -->
<svg height="737.28pt" version="1.1" viewBox="0 0 983.52 737.28" width="983.52pt" xmlns="http://www.w3.org/2000/svg" xmlns:xlink="http://www.w3.org/1999/xlink">
 <defs>
  <style type="text/css">
*{stroke-linecap:butt;stroke-linejoin:round;}
  </style>
 </defs>
 <g id="figure_1">
  <g id="patch_1">
   <path d="M 0 737.28 
L 983.52 737.28 
L 983.52 0 
L 0 0 
z
" style="fill:none;"/>
  </g>
  <g id="axes_1">
   <g id="patch_2">
    <path clip-path="url(#p32498cbce2)" d="M 557.451553 173.2968 
L 557.622 173.127453 
L 557.930535 172.7424 
L 557.972784 172.188 
L 557.972784 171.6336 
L 557.972784 171.0792 
L 557.972784 170.5248 
L 557.972784 169.9704 
L 557.910955 169.416 
L 557.622 169.084241 
L 557.356871 168.8616 
L 557.064 168.615856 
L 556.83281 168.3072 
L 556.571865 167.7528 
L 556.506 167.68736 
L 556.26602 167.1984 
L 555.948 166.683591 
L 555.926882 166.644 
L 555.749574 166.0896 
L 555.631905 165.5352 
L 555.461879 164.9808 
L 555.39 164.851271 
L 555.298985 164.4264 
L 555.221506 163.872 
L 555.15881 163.3176 
L 554.933462 162.7632 
L 554.832 162.643577 
L 554.65696 162.2088 
L 554.510538 161.6544 
L 554.274 161.349672 
L 554.167167 161.1 
L 554.182328 160.5456 
L 554.274 160.465103 
L 554.832 160.34195 
L 555.39 160.097154 
L 555.507881 159.9912 
L 555.948 159.84085 
L 556.506 159.707988 
L 556.888294 159.4368 
L 557.064 159.356303 
L 557.622 159.245663 
L 558.18 159.230921 
L 558.738 159.188945 
L 559.125553 158.8824 
L 559.296 158.713053 
L 559.604535 158.328 
L 559.564592 157.7736 
L 559.296 157.461546 
L 559.030871 157.2192 
L 558.738 156.973456 
L 558.18 156.870679 
L 557.622 156.870679 
L 557.064 156.939927 
L 556.621413 157.2192 
L 556.506 157.270589 
L 555.948 157.417434 
L 555.39 157.538588 
L 554.991366 157.7736 
L 554.832 157.832866 
L 554.274 158.035243 
L 554.066784 157.7736 
L 554.066784 157.2192 
L 554.052222 156.6648 
L 553.89091 156.1104 
L 553.716 155.837504 
L 553.622546 155.556 
L 553.479023 155.0016 
L 553.324999 154.4472 
L 553.158 154.240913 
L 553.034887 153.8928 
L 552.958479 153.3384 
L 552.950784 152.784 
L 552.950784 152.2296 
L 552.950784 151.6752 
L 552.950784 151.1208 
L 552.92681 150.5664 
L 552.69562 150.012 
L 552.6 149.912119 
L 552.432493 149.4576 
L 552.289339 148.9032 
L 552.042 148.587702 
L 551.935215 148.3488 
L 551.842479 147.7944 
L 551.834784 147.24 
L 551.834784 146.6856 
L 551.834784 146.1312 
L 551.834784 145.5768 
L 551.820222 145.0224 
L 551.712276 144.468 
L 551.484 144.00983 
L 551.454348 143.9136 
L 551.330194 143.3592 
L 551.281222 142.8048 
L 551.276784 142.2504 
L 551.276784 141.696 
L 551.276784 141.1416 
L 551.394444 140.5872 
L 551.484 140.481178 
L 551.545961 140.5872 
L 551.711097 141.1416 
L 552.042 141.533747 
L 552.152936 141.696 
L 552.409849 142.2504 
L 552.6 142.439324 
L 552.817888 142.8048 
L 553.158 143.184308 
L 553.284962 143.3592 
L 553.345747 143.9136 
L 553.447408 144.468 
L 553.716 144.791622 
L 553.923383 145.0224 
L 554.274 145.315157 
L 554.832 145.328945 
L 555.219553 145.0224 
L 555.39 144.815365 
L 555.656256 144.468 
L 555.740784 143.9136 
L 555.740784 143.3592 
L 555.667176 142.8048 
L 555.39 142.315528 
L 555.354412 142.2504 
L 554.897251 141.696 
L 554.832 141.63117 
L 554.568658 141.1416 
L 554.274 140.831598 
L 554.098875 140.5872 
L 554.274 140.393904 
L 554.832 140.435011 
L 555.39 140.546411 
L 555.517844 140.5872 
L 555.948 140.814003 
L 556.506 141.098658 
L 556.550283 141.1416 
L 557.018432 141.696 
L 557.064 141.741274 
L 557.242879 142.2504 
L 557.336923 142.8048 
L 557.622 143.169357 
L 557.721174 143.3592 
L 557.873039 143.9136 
L 558.18 144.242455 
L 558.321966 144.468 
L 558.357205 145.0224 
L 558.374544 145.5768 
L 558.450877 146.1312 
L 558.738 146.656642 
L 558.752199 146.6856 
L 559.105849 147.24 
L 559.296 147.428924 
L 559.502142 147.7944 
L 559.854 148.260436 
L 559.915961 148.3488 
L 560.08519 148.9032 
L 560.412 149.251385 
L 560.625135 149.4576 
L 560.97 149.776552 
L 561.528 149.764145 
L 561.891492 149.4576 
L 562.086 149.289126 
L 562.422222 148.9032 
L 562.387784 148.3488 
L 562.086 147.838549 
L 562.064882 147.7944 
L 561.879858 147.24 
L 561.528 146.703946 
L 561.513801 146.6856 
L 561.186379 146.1312 
L 560.97 145.90817 
L 560.791549 145.5768 
L 560.762784 145.0224 
L 560.762784 144.468 
L 560.699123 143.9136 
L 560.412 143.521852 
L 560.327702 143.3592 
L 560.070379 142.8048 
L 559.854 142.58177 
L 559.674695 142.2504 
L 559.646784 141.696 
L 559.564592 141.1416 
L 559.296 140.817978 
L 559.158861 140.5872 
L 558.738 140.169054 
L 558.600861 140.0328 
L 558.18 139.614654 
L 558.043572 139.4784 
L 557.622 139.059548 
L 557.414617 138.924 
L 557.064 138.631243 
L 556.506 138.544029 
L 555.948 138.465796 
L 555.610037 138.3696 
L 555.39 138.22461 
L 554.832 138.076843 
L 554.274 138.008299 
L 553.716 137.966706 
L 553.158 137.876761 
L 553.020214 137.8152 
L 552.6 137.539812 
L 552.258379 137.2608 
L 552.042 137.03777 
L 551.853291 136.7064 
L 551.484 136.221671 
L 551.431451 136.152 
L 551.192471 135.5976 
L 550.926 135.298411 
L 550.786593 135.0432 
L 550.49518 134.4888 
L 550.368 134.36244 
L 550.163027 133.9344 
L 549.81 133.533897 
L 549.678612 133.38 
L 549.252 132.95614 
L 549.116345 132.8256 
L 548.694 132.414872 
L 548.428871 132.2712 
L 548.136 132.025456 
L 547.578 131.922679 
L 547.02 131.922679 
L 546.462 131.922679 
L 545.904 131.922679 
L 545.346 131.922679 
L 544.788 132.044397 
L 544.525559 132.2712 
L 544.23 132.564852 
L 544.001724 132.8256 
L 543.861627 133.38 
L 543.848419 133.9344 
L 543.76257 134.4888 
L 543.672 134.619369 
L 543.326987 135.0432 
L 543.114 135.53216 
L 543.048135 135.5976 
L 542.841051 136.152 
L 542.763216 136.7064 
L 542.763216 137.2608 
L 542.763216 137.8152 
L 542.763216 138.3696 
L 542.763216 138.924 
L 542.763216 139.4784 
L 542.763216 140.0328 
L 542.763216 140.5872 
L 542.763216 141.1416 
L 542.763216 141.696 
L 542.763216 142.2504 
L 542.763216 142.8048 
L 542.763216 143.3592 
L 542.763216 143.9136 
L 542.763216 144.468 
L 542.763216 145.0224 
L 542.763216 145.5768 
L 542.763216 146.1312 
L 542.763216 146.6856 
L 542.763216 147.24 
L 542.763216 147.7944 
L 542.763216 148.3488 
L 542.763216 148.9032 
L 542.763216 149.4576 
L 542.763216 150.012 
L 542.763216 150.5664 
L 542.763216 151.1208 
L 542.763216 151.6752 
L 542.763216 152.2296 
L 542.763216 152.784 
L 542.763216 153.3384 
L 542.763216 153.8928 
L 542.763216 154.4472 
L 542.763216 155.0016 
L 542.763216 155.556 
L 542.763216 156.1104 
L 542.763216 156.6648 
L 542.812216 157.2192 
L 542.93909 157.7736 
L 543.114 158.046496 
L 543.204126 158.328 
L 543.306472 158.8824 
L 543.379276 159.4368 
L 543.672 159.874956 
L 543.728648 159.9912 
L 543.818037 160.5456 
L 543.831378 161.1 
L 543.84504 161.6544 
L 543.851687 162.2088 
L 543.859657 162.7632 
L 543.874778 163.3176 
L 543.928216 163.872 
L 544.05509 164.4264 
L 544.23 164.933105 
L 544.239208 164.9808 
L 544.23 164.989998 
L 543.672 165.228655 
L 543.319452 165.5352 
L 543.114 165.67589 
L 542.556 165.868602 
L 542.299345 166.0896 
L 541.998 166.275279 
L 541.822258 166.0896 
L 541.708592 165.5352 
L 541.44 165.223146 
L 541.174871 164.9808 
L 540.882 164.735056 
L 540.324 164.753997 
L 540.061559 164.9808 
L 539.766 165.233915 
L 539.497408 165.5352 
L 539.408629 166.0896 
L 539.393903 166.644 
L 539.381116 167.1984 
L 539.270178 167.7528 
L 539.208 167.851233 
L 539.146167 167.7528 
L 538.866379 167.1984 
L 538.65 166.97537 
L 538.470695 166.644 
L 538.442784 166.0896 
L 538.442784 165.5352 
L 538.442784 164.9808 
L 538.442784 164.4264 
L 538.442784 163.872 
L 538.442784 163.3176 
L 538.442784 162.7632 
L 538.442784 162.2088 
L 538.442784 161.6544 
L 538.442784 161.1 
L 538.442784 160.5456 
L 538.380955 159.9912 
L 538.092 159.659441 
L 537.826871 159.4368 
L 537.534 159.191056 
L 536.976 159.209997 
L 536.713559 159.4368 
L 536.418 159.730452 
L 536.189724 159.9912 
L 536.067216 160.5456 
L 536.067216 161.1 
L 536.067216 161.6544 
L 536.067216 162.2088 
L 536.067216 162.7632 
L 536.067216 163.3176 
L 536.067216 163.872 
L 536.067216 164.4264 
L 536.067216 164.9808 
L 536.067216 165.5352 
L 536.067216 166.0896 
L 536.067216 166.644 
L 536.136914 167.1984 
L 536.418 167.559368 
L 536.517174 167.7528 
L 536.7502 168.3072 
L 536.976 168.531543 
L 537.140862 168.8616 
L 537.167545 169.416 
L 537.183216 169.9704 
L 537.183216 170.5248 
L 537.261051 171.0792 
L 537.534 171.407022 
L 537.717138 171.6336 
L 538.092 171.952552 
L 538.65 171.958302 
L 539.208 171.69843 
L 539.273251 171.6336 
L 539.766 171.445197 
L 540.220935 171.0792 
L 540.324 170.981021 
L 540.713843 170.5248 
L 540.882 170.258964 
L 541.154949 169.9704 
L 541.44 169.447113 
L 541.998 169.708757 
L 542.556 169.722545 
L 542.943553 169.416 
L 543.114 169.208965 
L 543.380256 168.8616 
L 543.464784 168.3072 
L 543.672 167.970961 
L 544.23 167.776173 
L 544.411492 168.3072 
L 544.571621 168.8616 
L 544.788 169.120916 
L 544.912774 169.416 
L 544.990778 169.9704 
L 545.0819 170.5248 
L 545.346 170.844064 
L 545.553383 171.0792 
L 545.904 171.371957 
L 546.462 171.385745 
L 546.849553 171.0792 
L 547.02 170.909853 
L 547.328535 170.5248 
L 547.370784 169.9704 
L 547.370784 169.416 
L 547.370784 168.8616 
L 547.370784 168.3072 
L 547.370784 167.7528 
L 547.370784 167.1984 
L 547.356222 166.644 
L 547.183118 166.0896 
L 547.578 165.904896 
L 548.136 165.871804 
L 548.694 165.60003 
L 548.759251 165.5352 
L 549.252 165.380811 
L 549.81 165.445664 
L 549.982107 165.5352 
L 550.368 165.827957 
L 550.926 165.841745 
L 551.313553 165.5352 
L 551.484 165.365853 
L 551.792535 164.9808 
L 551.772955 164.4264 
L 551.484 164.083376 
L 551.346861 163.872 
L 550.926 163.46281 
L 550.660871 163.3176 
L 550.368 163.071856 
L 549.81 162.969079 
L 549.252 162.969079 
L 548.694 162.937772 
L 548.564559 162.7632 
L 548.694 162.67007 
L 549.252 162.319785 
L 549.363706 162.2088 
L 549.81 162.018491 
L 550.368 161.918938 
L 550.728743 161.6544 
L 550.926 161.564864 
L 551.484 161.494771 
L 551.940538 161.6544 
L 552.042 161.775675 
L 552.197939 162.2088 
L 552.331408 162.7632 
L 552.6 163.075254 
L 552.723113 163.3176 
L 552.792472 163.872 
L 552.872923 164.4264 
L 553.09893 164.9808 
L 553.158 165.084515 
L 553.252233 165.5352 
L 553.343903 166.0896 
L 553.421342 166.644 
L 553.650135 167.1984 
L 553.716 167.26384 
L 553.912466 167.7528 
L 554.142204 168.3072 
L 554.274 168.447628 
L 554.424913 168.8616 
L 554.445547 169.416 
L 554.458096 169.9704 
L 554.472526 170.5248 
L 554.5679 171.0792 
L 554.832 171.410996 
L 554.949805 171.6336 
L 555.39 172.097394 
L 555.479242 172.188 
L 555.6839 172.7424 
L 555.948 173.061664 
L 556.155383 173.2968 
L 556.506 173.589557 
L 557.064 173.603345 
z
" style="fill:#0000ff;"/>
   </g>
   <g id="patch_3">
    <path clip-path="url(#p32498cbce2)" d="M 547.578 160.6167 
L 547.368363 160.5456 
L 547.02 160.330617 
L 546.462 160.171521 
L 546.261371 159.9912 
L 546.07891 159.4368 
L 545.904 159.163904 
L 545.806457 158.8824 
L 545.66402 158.328 
L 545.512999 157.7736 
L 545.346 157.567313 
L 545.222941 157.2192 
L 545.146479 156.6648 
L 545.138784 156.1104 
L 545.138784 155.556 
L 545.138784 155.0016 
L 545.138784 154.4472 
L 545.138784 153.8928 
L 545.138784 153.3384 
L 545.138784 152.784 
L 545.138784 152.2296 
L 545.138784 151.6752 
L 545.138784 151.1208 
L 545.138784 150.5664 
L 545.138784 150.012 
L 545.138784 149.4576 
L 545.138784 148.9032 
L 545.138784 148.3488 
L 545.138784 147.7944 
L 545.138784 147.24 
L 545.138784 146.6856 
L 545.138784 146.1312 
L 545.138784 145.5768 
L 545.138784 145.0224 
L 545.138784 144.468 
L 545.138784 143.9136 
L 545.138784 143.3592 
L 545.138784 142.8048 
L 545.138784 142.2504 
L 545.138784 141.696 
L 545.138784 141.1416 
L 545.138784 140.5872 
L 545.138784 140.0328 
L 545.138784 139.4784 
L 545.138784 138.924 
L 545.138784 138.3696 
L 545.138784 137.8152 
L 545.138784 137.2608 
L 545.162752 136.7064 
L 545.346 136.21683 
L 545.411251 136.152 
L 545.66402 135.5976 
L 545.904 135.10803 
L 545.969251 135.0432 
L 546.240222 134.4888 
L 546.462 134.282921 
L 547.02 134.282921 
L 547.578 134.364171 
L 547.712202 134.4888 
L 548.136 134.928708 
L 548.235174 135.0432 
L 548.441646 135.5976 
L 548.694 135.865632 
L 548.856396 136.152 
L 549.243234 136.7064 
L 549.252 136.71511 
L 549.472548 137.2608 
L 549.738121 137.8152 
L 549.396604 138.3696 
L 549.252 138.652377 
L 549.023724 138.924 
L 548.901216 139.4784 
L 548.901216 140.0328 
L 548.901216 140.5872 
L 548.901216 141.1416 
L 548.901216 141.696 
L 548.901216 142.2504 
L 548.901216 142.8048 
L 548.950216 143.3592 
L 549.048091 143.9136 
L 549.252 144.198702 
L 549.348821 144.468 
L 549.426713 145.0224 
L 549.459216 145.5768 
L 549.459216 146.1312 
L 549.459216 146.6856 
L 549.459216 147.24 
L 549.459216 147.7944 
L 549.508216 148.3488 
L 549.81 148.859051 
L 549.831118 148.9032 
L 549.977784 149.4576 
L 550.041325 150.012 
L 550.368 150.538845 
L 550.383466 150.5664 
L 550.514095 151.1208 
L 550.535784 151.6752 
L 550.54434 152.2296 
L 550.55201 152.784 
L 550.569749 153.3384 
L 550.624216 153.8928 
L 550.75109 154.4472 
L 550.926 154.720096 
L 551.019454 155.0016 
L 551.160048 155.556 
L 551.317001 156.1104 
L 551.484 156.29126 
L 551.631384 156.6648 
L 551.691216 157.2192 
L 551.691216 157.7736 
L 551.691216 158.328 
L 551.688866 158.8824 
L 551.484 159.120832 
L 550.926 159.247876 
L 550.582842 159.4368 
L 550.368 159.498361 
L 549.81 159.589614 
L 549.252 159.630943 
L 548.694 159.753372 
L 548.409218 159.9912 
L 548.136 160.13641 
L 547.666172 160.5456 
z
" style="fill:#ffffff;"/>
   </g>
   <g id="patch_4">
    <path clip-path="url(#p32498cbce2)" d="M 521.624263 173.2968 
L 521.91 173.192149 
L 522.468 173.095331 
L 522.967348 172.7424 
L 523.026 172.700733 
L 523.584 172.459188 
L 523.874438 172.188 
L 524.142 172.020123 
L 524.600623 171.6336 
L 524.7 171.508869 
L 525.036222 171.0792 
L 525.050784 170.5248 
L 525.074837 169.9704 
L 525.258 169.48083 
L 525.323251 169.416 
L 525.624455 168.8616 
L 525.816 168.37203 
L 525.881251 168.3072 
L 526.152222 167.7528 
L 526.166784 167.1984 
L 526.166784 166.644 
L 526.190837 166.0896 
L 526.374 165.60003 
L 526.439251 165.5352 
L 526.740455 164.9808 
L 526.932 164.49123 
L 526.997251 164.4264 
L 527.268222 163.872 
L 527.282784 163.3176 
L 527.282784 162.7632 
L 527.49 162.397724 
L 527.676776 162.7632 
L 527.697216 163.3176 
L 527.7839 163.872 
L 528.048 164.203796 
L 528.165805 164.4264 
L 528.606 164.890194 
L 528.697195 164.9808 
L 529.164 165.444594 
L 529.253242 165.5352 
L 529.371216 166.0896 
L 529.371216 166.644 
L 529.4579 167.1984 
L 529.722 167.517664 
L 529.886071 167.7528 
L 530.28 168.093063 
L 530.565051 168.3072 
L 530.838 168.635022 
L 531.045383 168.8616 
L 531.396 169.154357 
L 531.954 169.168145 
L 532.35158 168.8616 
L 532.512 168.761621 
L 532.979325 168.3072 
L 533.07 168.216594 
L 533.526807 167.7528 
L 533.628 167.593415 
L 533.936535 167.1984 
L 533.978784 166.644 
L 533.978784 166.0896 
L 533.916955 165.5352 
L 533.628 165.203441 
L 533.362871 164.9808 
L 533.07 164.735056 
L 532.512 164.753997 
L 532.249559 164.9808 
L 531.954 165.274452 
L 531.719297 164.9808 
L 531.396 164.637776 
L 531.267937 164.4264 
L 530.838 163.999237 
L 530.717886 163.872 
L 530.28 163.369512 
L 530.230786 163.3176 
L 530.101922 162.7632 
L 530.041603 162.2088 
L 529.722 161.791416 
L 529.638546 161.6544 
L 529.380379 161.1 
L 529.164 160.87697 
L 528.976238 160.5456 
L 528.606 160.06041 
L 528.553738 159.9912 
L 528.329086 159.4368 
L 528.048 159.123246 
L 527.907264 158.8824 
L 527.596642 158.328 
L 527.49 158.222046 
L 527.299465 157.7736 
L 527.282784 157.2192 
L 527.282784 156.6648 
L 527.282784 156.1104 
L 527.282784 155.556 
L 527.282784 155.0016 
L 527.282784 154.4472 
L 527.24694 153.8928 
L 526.932 153.478961 
L 526.850185 153.3384 
L 526.71279 152.784 
L 526.374 152.282277 
L 526.341113 152.2296 
L 526.223412 151.6752 
L 526.206921 151.1208 
L 526.195121 150.5664 
L 526.181434 150.012 
L 526.108724 149.4576 
L 525.816 149.111048 
L 525.692388 148.9032 
L 525.258 148.402466 
L 525.20903 148.3488 
L 525.090921 147.7944 
L 525.071224 147.24 
L 525.051858 146.6856 
L 525.050784 146.1312 
L 525.050784 145.5768 
L 525.050784 145.0224 
L 524.988955 144.468 
L 524.7 144.136241 
L 524.434871 143.9136 
L 524.142 143.667856 
L 523.584 143.686797 
L 523.321559 143.9136 
L 523.026 144.207252 
L 522.797724 144.468 
L 522.675216 145.0224 
L 522.675216 145.5768 
L 522.675216 146.1312 
L 522.675216 146.6856 
L 522.675216 147.24 
L 522.675216 147.7944 
L 522.675216 148.3488 
L 522.675216 148.9032 
L 522.675216 149.4576 
L 522.675216 150.012 
L 522.724216 150.5664 
L 522.960749 151.1208 
L 523.026 151.193162 
L 523.174697 151.6752 
L 523.26906 152.2296 
L 523.518749 152.784 
L 523.584 152.856362 
L 523.732069 153.3384 
L 523.791216 153.8928 
L 523.791216 154.4472 
L 523.791216 155.0016 
L 523.840216 155.556 
L 524.142 156.066251 
L 524.163118 156.1104 
L 524.323492 156.6648 
L 524.483621 157.2192 
L 524.7 157.478516 
L 524.824774 157.7736 
L 524.902778 158.328 
L 524.907216 158.8824 
L 524.907216 159.4368 
L 524.907216 159.9912 
L 524.907216 160.5456 
L 524.907216 161.1 
L 524.907216 161.6544 
L 524.7 161.860279 
L 524.142 161.860279 
L 523.584 161.860279 
L 523.026 161.860279 
L 522.468 161.860279 
L 521.91 161.916043 
L 521.352 162.14397 
L 521.279168 162.2088 
L 520.794 162.355851 
L 520.236 162.470443 
L 519.907151 162.7632 
L 519.678 162.910026 
L 519.180807 163.3176 
L 519.12 163.370072 
L 518.562 163.669723 
L 518.358409 163.872 
L 518.004 164.097632 
L 517.649619 164.4264 
L 517.446 164.632615 
L 517.11919 164.9808 
L 516.888 165.451695 
L 516.803953 165.5352 
L 516.453553 166.0896 
L 516.33 166.225854 
L 515.909139 166.644 
L 515.772 166.780254 
L 515.351139 167.1984 
L 515.214 167.334654 
L 514.802153 167.7528 
L 514.656 168.035577 
L 514.427724 168.3072 
L 514.305216 168.8616 
L 514.305216 169.416 
L 514.305216 169.9704 
L 514.305216 170.5248 
L 514.305216 171.0792 
L 514.383051 171.6336 
L 514.656 171.961422 
L 514.830285 172.188 
L 515.214 172.516768 
L 515.772 172.619554 
L 516.126709 172.7424 
L 516.33 172.904466 
L 516.888 173.096455 
L 517.446 173.275818 
L 517.483524 173.2968 
L 518.004 173.621502 
L 518.562 173.645321 
L 519.12 173.645321 
L 519.678 173.645321 
L 520.236 173.645321 
L 520.794 173.635897 
L 521.352 173.499077 
z
" style="fill:#0000ff;"/>
   </g>
   <g id="patch_5">
    <path clip-path="url(#p32498cbce2)" d="M 630.011781 171.0792 
L 630.162 170.979725 
L 630.629792 170.5248 
L 630.72 170.434194 
L 631.186805 169.9704 
L 631.278 169.856009 
L 631.628784 169.416 
L 631.730669 168.8616 
L 631.836 168.501258 
L 631.972764 168.3072 
L 632.303325 167.7528 
L 632.394 167.662194 
L 632.850807 167.1984 
L 632.952 167.039015 
L 633.260535 166.644 
L 633.302784 166.0896 
L 633.302784 165.5352 
L 633.220592 164.9808 
L 632.952 164.668746 
L 632.686871 164.4264 
L 632.394 164.180656 
L 631.836 164.199597 
L 631.573559 164.4264 
L 631.278 164.679515 
L 631.009408 164.9808 
L 630.911452 165.5352 
L 630.837225 166.0896 
L 630.72 166.21555 
L 630.297319 166.644 
L 630.162 166.866641 
L 629.873045 167.1984 
L 629.760508 167.7528 
L 629.604 168.046016 
L 629.349549 168.3072 
L 629.083187 168.8616 
L 629.046 168.894007 
L 628.973315 168.8616 
L 628.488 168.574509 
L 628.251023 168.3072 
L 627.93 167.923543 
L 627.824669 167.7528 
L 627.766561 167.1984 
L 627.751121 166.644 
L 627.737528 166.0896 
L 627.722784 165.5352 
L 627.722784 164.9808 
L 627.722784 164.4264 
L 627.722784 163.872 
L 627.722784 163.3176 
L 627.722784 162.7632 
L 627.722784 162.2088 
L 627.722784 161.6544 
L 627.722784 161.1 
L 627.722784 160.5456 
L 627.722784 159.9912 
L 627.722784 159.4368 
L 627.93 159.244546 
L 628.488 159.223933 
L 629.046 159.128144 
L 629.540679 158.8824 
L 629.604 158.861418 
L 630.162 158.737909 
L 630.72 158.686233 
L 631.278 158.634545 
L 631.665553 158.328 
L 631.836 158.158653 
L 632.199492 157.7736 
L 632.394 157.542822 
L 632.601383 157.7736 
L 632.952 158.066357 
L 633.51 158.080145 
L 633.717216 158.328 
L 633.717216 158.8824 
L 633.717216 159.4368 
L 633.717216 159.9912 
L 633.717216 160.5456 
L 633.717216 161.1 
L 633.717216 161.6544 
L 633.717216 162.2088 
L 633.717216 162.7632 
L 633.717216 163.3176 
L 633.717216 163.872 
L 633.717216 164.4264 
L 633.717216 164.9808 
L 633.717216 165.5352 
L 633.717216 166.0896 
L 633.717216 166.644 
L 633.717216 167.1984 
L 633.717216 167.7528 
L 633.717216 168.3072 
L 633.8039 168.8616 
L 634.068 169.193396 
L 634.185805 169.416 
L 634.626 169.879794 
L 634.717195 169.9704 
L 635.184 170.42426 
L 635.356107 170.5248 
L 635.742 170.817557 
L 636.3 170.831345 
L 636.69758 170.5248 
L 636.858 170.42426 
L 637.324805 169.9704 
L 637.416 169.879794 
L 637.872807 169.416 
L 637.974 169.256615 
L 638.282535 168.8616 
L 638.262955 168.3072 
L 637.974 167.975441 
L 637.814242 167.7528 
L 637.487879 167.1984 
L 637.416 167.100712 
L 637.275823 166.644 
L 637.163205 166.0896 
L 637.008156 165.5352 
L 636.858 165.29596 
L 636.759652 164.9808 
L 636.628146 164.4264 
L 636.503591 163.872 
L 636.3 163.492478 
L 636.247738 163.3176 
L 636.13369 162.7632 
L 636.122795 162.2088 
L 636.107528 161.6544 
L 636.092784 161.1 
L 636.092784 160.5456 
L 636.092784 159.9912 
L 636.092784 159.4368 
L 636.092784 158.8824 
L 636.092784 158.328 
L 636.092784 157.7736 
L 636.092784 157.2192 
L 636.010592 156.6648 
L 635.742 156.332075 
L 635.585791 156.1104 
L 635.742 155.959138 
L 636.3 155.729781 
L 636.511359 155.556 
L 636.858 155.411263 
L 637.416 155.367597 
L 637.974 155.311215 
L 638.351884 155.0016 
L 638.532 154.813904 
L 638.833784 154.4472 
L 638.804949 153.8928 
L 638.532 153.604236 
L 638.238711 153.3384 
L 637.974 153.092656 
L 637.416 152.978143 
L 636.858 152.936814 
L 636.3 152.845561 
L 636.054874 152.784 
L 635.742 152.621934 
L 635.184 152.496909 
L 634.626 152.521604 
L 634.353439 152.784 
L 634.068 153.02356 
L 633.759465 153.3384 
L 633.542617 153.8928 
L 633.51 153.934609 
L 633.132256 154.4472 
L 632.952 154.791456 
L 632.748409 155.0016 
L 632.404582 155.556 
L 632.394 155.581304 
L 632.1299 156.1104 
L 632.002631 156.6648 
L 631.836 156.887441 
L 631.570871 156.6648 
L 631.278 156.419056 
L 630.72 156.316279 
L 630.162 156.377709 
L 629.604 156.558846 
L 629.457201 156.6648 
L 629.046 156.7776 
L 628.488 156.843409 
L 627.93 156.870679 
L 627.722784 156.6648 
L 627.722784 156.1104 
L 627.722784 155.556 
L 627.722784 155.0016 
L 627.722784 154.4472 
L 627.722784 153.8928 
L 627.722784 153.3384 
L 627.722784 152.784 
L 627.722784 152.2296 
L 627.722784 151.6752 
L 627.722784 151.1208 
L 627.722784 150.5664 
L 627.722784 150.012 
L 627.722784 149.4576 
L 627.722784 148.9032 
L 627.722784 148.3488 
L 627.722784 147.7944 
L 627.722784 147.24 
L 627.722784 146.6856 
L 627.68694 146.1312 
L 627.372 145.717361 
L 627.287702 145.5768 
L 627.030379 145.0224 
L 626.814 144.79937 
L 626.622196 144.468 
L 626.256 144.089822 
L 625.977408 143.9136 
L 625.698 143.660559 
L 625.14 143.675772 
L 624.892291 143.9136 
L 624.582 144.233013 
L 624.353724 144.468 
L 624.211747 145.0224 
L 624.162083 145.5768 
L 624.045118 146.1312 
L 624.024 146.202338 
L 623.795724 146.6856 
L 623.691808 147.24 
L 623.631548 147.7944 
L 623.556118 148.3488 
L 623.466 148.697138 
L 623.33882 148.9032 
L 623.177045 149.4576 
L 623.211315 150.012 
L 623.466 150.299467 
L 623.695151 150.5664 
L 624.024 150.859157 
L 624.582 150.879308 
L 624.962814 150.5664 
L 625.14 150.399486 
L 625.262188 150.5664 
L 625.323163 151.1208 
L 625.330535 151.6752 
L 625.344973 152.2296 
L 625.347216 152.784 
L 625.347216 153.3384 
L 625.347216 153.8928 
L 625.347216 154.4472 
L 625.347216 155.0016 
L 625.347216 155.556 
L 625.347216 156.1104 
L 625.347216 156.6648 
L 625.14 156.939927 
L 624.697413 157.2192 
L 624.582 157.270589 
L 624.024 157.413343 
L 623.466 157.595826 
L 623.264824 157.7736 
L 622.908 157.914473 
L 622.35 158.029981 
L 621.994439 158.328 
L 621.792 158.447339 
L 621.234 158.680123 
L 621.022492 158.8824 
L 620.676 159.072967 
L 620.118 159.274734 
L 619.947783 159.4368 
L 619.56 159.659834 
L 619.226482 159.9912 
L 619.002 160.299489 
L 618.762627 160.5456 
L 618.747315 161.1 
L 619.002 161.377605 
L 619.233837 161.6544 
L 619.56 161.954237 
L 620.118 161.954237 
L 620.593018 161.6544 
L 620.676 161.613611 
L 621.234 161.399837 
L 621.58017 161.1 
L 621.792 160.972535 
L 622.35 160.723374 
L 622.536391 160.5456 
L 622.908 160.367365 
L 623.466 160.097154 
L 623.583881 159.9912 
L 624.024 159.833716 
L 624.582 159.765568 
L 625.14 159.542754 
L 625.347216 159.9912 
L 625.347216 160.5456 
L 625.347216 161.1 
L 625.347216 161.6544 
L 625.347216 162.2088 
L 625.347216 162.7632 
L 625.347216 163.3176 
L 625.347216 163.872 
L 625.347216 164.4264 
L 625.347216 164.9808 
L 625.347216 165.5352 
L 625.347216 166.0896 
L 625.347216 166.644 
L 625.347216 167.1984 
L 625.347216 167.7528 
L 625.410877 168.3072 
L 625.698 168.673584 
L 625.800124 168.8616 
L 626.065849 169.416 
L 626.256 169.604924 
L 626.463216 169.9704 
L 626.814 170.379209 
L 626.99984 170.5248 
L 627.372 170.828036 
L 627.93 170.89978 
L 628.488 171.058218 
L 628.528689 171.0792 
L 629.046 171.392108 
L 629.604 171.398152 
z
" style="fill:#0000ff;"/>
   </g>
   <g id="patch_6">
    <path clip-path="url(#p32498cbce2)" d="M 654.814491 174.96 
L 655.272 174.855349 
L 655.83 174.794833 
L 656.388 174.731629 
L 656.889496 174.4056 
L 656.946 174.369737 
L 657.504 174.122388 
L 657.911668 173.8512 
L 658.062 173.781933 
L 658.62 173.549841 
L 658.899408 173.2968 
L 659.178 173.146587 
L 659.736 172.88739 
L 659.881931 172.7424 
L 660.294 172.548257 
L 660.74503 172.188 
L 660.852 172.091564 
L 661.250404 171.6336 
L 661.41 171.363804 
L 661.67169 171.0792 
L 661.968 170.702574 
L 662.146928 170.5248 
L 662.46175 169.9704 
L 662.526 169.891228 
L 662.894373 169.416 
L 663.084 168.92643 
L 663.149251 168.8616 
L 663.452373 168.3072 
L 663.642 167.81763 
L 663.707251 167.7528 
L 663.978222 167.1984 
L 663.931138 166.644 
L 663.642 166.250594 
L 663.558106 166.0896 
L 663.306433 165.5352 
L 663.084 165.280201 
L 662.883169 164.9808 
L 662.526 164.605736 
L 662.351715 164.4264 
L 661.968 164.097632 
L 661.418766 163.872 
L 661.41 163.86329 
L 660.852 163.424461 
L 660.646364 163.3176 
L 660.294 163.06205 
L 659.736 162.871627 
L 659.553471 162.7632 
L 659.178 162.470443 
L 658.62 162.40096 
L 658.062 162.371184 
L 657.504 162.32946 
L 656.946 162.249589 
L 656.716814 162.2088 
L 656.388 162.08244 
L 655.83 161.955759 
L 655.272 161.825313 
L 654.977934 161.6544 
L 654.714 161.414056 
L 654.156 161.136293 
L 654.111797 161.1 
L 653.598 160.715077 
L 653.365186 160.5456 
L 653.04 160.242962 
L 652.730016 159.9912 
L 652.482 159.750856 
L 652.13742 159.4368 
L 651.924 159.224757 
L 651.544928 158.8824 
L 651.366 158.704626 
L 650.939796 158.328 
L 650.808 158.197054 
L 650.328332 157.7736 
L 650.25 157.695774 
L 649.842577 157.2192 
L 650.161704 156.6648 
L 650.25 156.578424 
L 650.721064 156.1104 
L 650.808 156.024494 
L 651.310573 155.556 
L 651.366 155.497348 
L 651.924 155.14659 
L 652.069931 155.0016 
L 652.482 154.746872 
L 652.792013 154.4472 
L 653.04 154.253455 
L 653.444994 153.8928 
L 653.598 153.78 
L 654.156 153.78 
L 654.70086 153.8928 
L 654.714 153.90151 
L 655.272 154.095077 
L 655.83 154.185557 
L 656.388 154.248966 
L 656.946 154.284816 
L 657.504 154.3344 
L 658.04886 154.4472 
L 658.062 154.45591 
L 658.62 154.649477 
L 659.178 154.739957 
L 659.736 154.795721 
L 660.294 154.753745 
L 660.669137 154.4472 
L 660.852 154.271157 
L 661.16694 153.8928 
L 661.146658 153.3384 
L 660.852 153.021281 
L 660.605575 152.784 
L 660.294 152.498914 
L 659.736 152.409921 
L 659.178 152.331509 
L 658.62 152.24468 
L 658.541289 152.2296 
L 658.062 152.059897 
L 657.504 151.958412 
L 656.946 151.900702 
L 656.388 151.858959 
L 655.83 151.82603 
L 655.272 151.7463 
L 654.891176 151.6752 
L 654.714 151.591695 
L 654.156 151.429456 
L 653.598 151.368655 
L 653.04 151.460217 
L 652.789886 151.6752 
L 652.482 151.836563 
L 651.924 152.118114 
L 651.81179 152.2296 
L 651.366 152.700495 
L 651.281953 152.784 
L 650.808 153.085359 
L 650.544886 153.3384 
L 650.25 153.54576 
L 649.867187 153.8928 
L 649.692 154.0372 
L 649.525369 153.8928 
L 649.484784 153.3384 
L 649.484784 152.784 
L 649.484784 152.2296 
L 649.484784 151.6752 
L 649.484784 151.1208 
L 649.484784 150.5664 
L 649.484784 150.012 
L 649.484784 149.4576 
L 649.430563 148.9032 
L 649.378646 148.3488 
L 649.300999 147.7944 
L 649.165315 147.24 
L 649.134 147.150342 
L 649.074681 146.6856 
L 649.028669 146.1312 
L 648.978609 145.5768 
L 648.959287 145.0224 
L 648.877784 144.468 
L 648.576 144.113044 
L 648.330048 143.9136 
L 648.018 143.660559 
L 647.46 143.675772 
L 647.186181 143.9136 
L 646.902 144.195948 
L 646.662627 144.468 
L 646.551216 145.0224 
L 646.620914 145.5768 
L 646.698409 146.1312 
L 646.738882 146.6856 
L 646.878475 147.24 
L 646.902 147.309283 
L 646.961319 147.7944 
L 647.018492 148.3488 
L 647.072007 148.9032 
L 647.104778 149.4576 
L 647.109216 150.012 
L 647.109216 150.5664 
L 647.109216 151.1208 
L 647.109216 151.6752 
L 647.109216 152.2296 
L 647.109216 152.784 
L 647.109216 153.3384 
L 647.109216 153.8928 
L 647.109216 154.4472 
L 647.109216 155.0016 
L 647.109216 155.556 
L 647.103749 156.1104 
L 647.07834 156.6648 
L 647.075192 157.2192 
L 647.087903 157.7736 
L 647.105922 158.328 
L 647.109216 158.8824 
L 647.109216 159.4368 
L 647.109216 159.9912 
L 647.109216 160.5456 
L 647.109216 161.1 
L 647.076051 161.6544 
L 646.902 161.907668 
L 646.607342 162.2088 
L 646.435404 162.7632 
L 646.344 162.922585 
L 646.035465 163.3176 
L 645.87787 163.872 
L 645.786 164.024956 
L 645.4354 163.872 
L 645.228 163.710909 
L 645.104941 163.3176 
L 645.028479 162.7632 
L 645.020784 162.2088 
L 645.020784 161.6544 
L 645.020784 161.1 
L 644.99681 160.5456 
L 644.708881 159.9912 
L 644.67 159.950329 
L 644.502493 159.4368 
L 644.359339 158.8824 
L 644.112 158.566902 
L 644.004689 158.328 
L 643.884903 157.7736 
L 643.554 157.347805 
L 643.469702 157.2192 
L 643.212379 156.6648 
L 642.996 156.44177 
L 642.816695 156.1104 
L 642.788784 155.556 
L 642.726955 155.0016 
L 642.438 154.669841 
L 642.172871 154.4472 
L 641.88 154.201456 
L 641.322 154.098679 
L 640.764 154.201456 
L 640.482082 154.4472 
L 640.206 154.721501 
L 639.958661 155.0016 
L 639.904216 155.556 
L 639.951315 156.1104 
L 639.854142 156.6648 
L 639.84554 157.2192 
L 639.838535 157.7736 
L 639.831163 158.328 
L 639.825205 158.8824 
L 639.818811 159.4368 
L 639.812862 159.9912 
L 639.807954 160.5456 
L 639.796673 161.1 
L 639.738118 161.6544 
L 639.657105 162.2088 
L 639.648 162.261044 
L 639.484882 162.7632 
L 639.356876 163.3176 
L 639.270585 163.872 
L 639.18057 164.4264 
L 639.09 164.616341 
L 638.817051 164.9808 
L 638.739216 165.5352 
L 638.739216 166.0896 
L 638.739216 166.644 
L 638.801045 167.1984 
L 639.09 167.541424 
L 639.246835 167.7528 
L 639.648 168.101321 
L 640.206 168.286218 
L 640.230151 168.3072 
L 640.764 168.76106 
L 640.936107 168.8616 
L 641.322 169.154357 
L 641.88 169.168145 
L 642.27758 168.8616 
L 642.438 168.76106 
L 642.904805 168.3072 
L 642.996 168.216594 
L 643.462805 167.7528 
L 643.554 167.636806 
L 643.902492 167.1984 
L 644.03098 166.644 
L 644.112 166.512377 
L 644.67 166.54346 
L 644.842107 166.644 
L 645.228 166.936757 
L 645.786 166.992521 
L 646.344 166.992521 
L 646.902 166.950545 
L 647.108034 167.1984 
L 647.079998 167.7528 
L 647.075192 168.3072 
L 647.125021 168.8616 
L 647.46 169.296653 
L 647.536564 169.416 
L 647.659521 169.9704 
L 647.770661 170.5248 
L 647.95893 171.0792 
L 648.018 171.137889 
L 648.186494 171.6336 
L 648.26106 172.188 
L 648.576 172.631601 
L 648.637961 172.7424 
L 648.803097 173.2968 
L 649.068135 173.8512 
L 649.134 173.91664 
L 649.361097 174.4056 
L 649.692 174.78684 
L 649.875138 174.96 
L 650.25 175.278952 
L 650.808 175.308521 
L 651.366 175.308521 
L 651.924 175.308521 
L 652.482 175.308521 
L 653.04 175.308521 
L 653.598 175.294053 
L 654.156 175.213041 
L 654.714 175.02483 
z
" style="fill:#0000ff;"/>
   </g>
   <g id="patch_7">
    <path clip-path="url(#p32498cbce2)" d="M 474.87758 179.3952 
L 475.038 179.295221 
L 475.505325 178.8408 
L 475.596 178.750194 
L 476.062805 178.2864 
L 476.154 178.172009 
L 476.504784 177.732 
L 476.606669 177.1776 
L 476.712 176.893706 
L 476.915591 176.6232 
L 477.067222 176.0688 
L 477.164669 175.5144 
L 477.27 175.230506 
L 477.473591 174.96 
L 477.611298 174.4056 
L 477.558955 173.8512 
L 477.27 173.539657 
L 477.025566 173.2968 
L 476.712 173.009709 
L 476.154 173.069997 
L 475.917487 173.2968 
L 475.596 173.563513 
L 475.314914 173.8512 
L 475.195895 174.4056 
L 475.047105 174.96 
L 475.038 174.975133 
L 475.021693 174.96 
L 474.48 174.44254 
L 474.458882 174.4056 
L 474.304438 173.8512 
L 474.161373 173.2968 
L 473.922 172.971709 
L 473.826349 172.7424 
L 473.761335 172.188 
L 473.751993 171.6336 
L 473.739677 171.0792 
L 473.728498 170.5248 
L 473.701452 169.9704 
L 473.527118 169.416 
L 473.364 169.21402 
L 473.240357 168.8616 
L 473.152147 168.3072 
L 472.969118 167.7528 
L 472.806 167.55082 
L 472.682357 167.1984 
L 472.589298 166.644 
L 472.248 166.123294 
L 472.226882 166.0896 
L 472.040784 165.5352 
L 471.69 165.012281 
L 471.668882 164.9808 
L 471.482784 164.4264 
L 471.132 163.903481 
L 471.110882 163.872 
L 470.941465 163.3176 
L 470.924784 162.7632 
L 470.924784 162.2088 
L 470.924784 161.6544 
L 470.924784 161.1 
L 470.90081 160.5456 
L 470.574 160.028482 
L 470.552882 159.9912 
L 470.372251 159.4368 
L 470.016 158.912651 
L 469.994882 158.8824 
L 469.825465 158.328 
L 469.808784 157.7736 
L 469.808784 157.2192 
L 469.808784 156.6648 
L 469.808784 156.1104 
L 469.808784 155.556 
L 469.808784 155.0016 
L 469.745123 154.4472 
L 469.458 154.055452 
L 469.374982 153.8928 
L 469.116379 153.3384 
L 468.9 153.11537 
L 468.720608 152.784 
L 468.692784 152.2296 
L 468.678222 151.6752 
L 468.512805 151.1208 
L 468.342 150.910311 
L 468.218887 150.5664 
L 468.143574 150.012 
L 468.072955 149.4576 
L 467.784 149.114576 
L 467.648345 148.9032 
L 467.226 148.483579 
L 467.097311 148.3488 
L 467.018784 147.7944 
L 466.989023 147.24 
L 466.668 146.878133 
L 466.479568 146.6856 
L 466.11 146.360898 
L 465.873023 146.1312 
L 465.552 145.769333 
L 465.363568 145.5768 
L 464.994 145.252098 
L 464.436 145.083961 
L 464.295045 145.0224 
L 463.878 144.751212 
L 463.32 144.795597 
L 463.046613 145.0224 
L 462.762 145.166072 
L 462.348604 145.5768 
L 462.204 145.859577 
L 461.975724 146.1312 
L 461.853216 146.6856 
L 461.853216 147.24 
L 461.853216 147.7944 
L 461.853216 148.3488 
L 461.895465 148.9032 
L 462.07682 149.4576 
L 462.204 149.602124 
L 462.345126 150.012 
L 462.431097 150.5664 
L 462.583072 151.1208 
L 462.762 151.320678 
L 462.901881 151.6752 
L 462.989097 152.2296 
L 463.19282 152.784 
L 463.32 152.928524 
L 463.459881 153.3384 
L 463.543021 153.8928 
L 463.699072 154.4472 
L 463.878 154.647078 
L 464.017881 155.0016 
L 464.110679 155.556 
L 464.257072 156.1104 
L 464.436 156.310278 
L 464.575881 156.6648 
L 464.66719 157.2192 
L 464.994 157.716961 
L 465.026617 157.7736 
L 465.183627 158.328 
L 465.388882 158.8824 
L 465.552 159.059215 
L 465.702676 159.4368 
L 465.8459 159.9912 
L 466.11 160.322996 
L 466.216833 160.5456 
L 466.34119 161.1 
L 466.668 161.488647 
L 466.784037 161.6544 
L 467.226 162.18524 
L 467.247476 162.2088 
L 467.593849 162.7632 
L 467.784 162.952124 
L 468.033465 163.3176 
L 468.342 163.641198 
L 468.50599 163.872 
L 468.549216 164.4264 
L 468.549216 164.9808 
L 468.549216 165.5352 
L 468.549216 166.0896 
L 468.549216 166.644 
L 468.544778 167.1984 
L 468.531627 167.7528 
L 468.519998 168.3072 
L 468.509079 168.8616 
L 468.499359 169.416 
L 468.342 169.953521 
L 468.134784 169.416 
L 468.134784 168.8616 
L 468.105023 168.3072 
L 467.784 167.934756 
L 467.609715 167.7528 
L 467.226 167.424032 
L 466.668 167.259961 
L 466.53879 167.1984 
L 466.11 166.911309 
L 465.552 166.849879 
L 464.994 166.849879 
L 464.436 166.905643 
L 463.878 167.13357 
L 463.805168 167.1984 
L 463.32 167.346137 
L 462.762 167.460043 
L 462.433151 167.7528 
L 462.204 167.923555 
L 461.826443 168.3072 
L 461.646 168.486479 
L 461.134927 168.8616 
L 461.088 168.894007 
L 460.53 169.021995 
L 459.972 169.136727 
L 459.67345 169.416 
L 459.414 169.629027 
L 459.08719 169.9704 
L 458.856 170.441295 
L 458.771953 170.5248 
L 458.428691 171.0792 
L 458.298 171.335276 
L 458.043315 171.6336 
L 457.947216 172.188 
L 457.947216 172.7424 
L 457.947216 173.2968 
L 457.947216 173.8512 
L 457.947216 174.4056 
L 457.947216 174.96 
L 458.003342 175.5144 
L 458.298 175.862754 
L 458.446431 176.0688 
L 458.856 176.434663 
L 459.189521 176.6232 
L 459.414 176.838183 
L 459.972 177.094287 
L 460.087134 177.1776 
L 460.53 177.526121 
L 461.088 177.711018 
L 461.119686 177.732 
L 461.646 178.080521 
L 462.204 178.265418 
L 462.236499 178.2864 
L 462.762 178.631429 
L 463.32 178.736149 
L 463.605737 178.8408 
L 463.878 179.043077 
L 464.436 179.179897 
L 464.994 179.189321 
L 465.552 179.189321 
L 466.11 179.189321 
L 466.668 179.189321 
L 467.226 179.189321 
L 467.784 179.147345 
L 468.171553 178.8408 
L 468.342 178.671453 
L 468.650535 178.2864 
L 468.692784 177.732 
L 468.716752 177.1776 
L 468.9 176.68803 
L 468.965251 176.6232 
L 469.266455 176.0688 
L 469.458 175.57923 
L 469.523251 175.5144 
L 469.794222 174.96 
L 469.808784 174.4056 
L 469.808784 173.8512 
L 469.808784 173.2968 
L 469.808784 172.7424 
L 469.832752 172.188 
L 470.016 171.69843 
L 470.081251 171.6336 
L 470.382455 171.0792 
L 470.574 170.58963 
L 470.639251 170.5248 
L 470.926748 169.9704 
L 471.132 169.488362 
L 471.278768 169.9704 
L 471.339216 170.5248 
L 471.339216 171.0792 
L 471.339216 171.6336 
L 471.339216 172.188 
L 471.339216 172.7424 
L 471.395342 173.2968 
L 471.69 173.726821 
L 471.751961 173.8512 
L 471.917097 174.4056 
L 472.248 174.859242 
L 472.309961 174.96 
L 472.447521 175.5144 
L 472.455216 176.0688 
L 472.511342 176.6232 
L 472.806 177.053221 
L 472.867961 177.1776 
L 473.005521 177.732 
L 473.013216 178.2864 
L 473.0999 178.8408 
L 473.364 179.160064 
L 473.571383 179.3952 
L 473.922 179.687957 
L 474.48 179.701745 
z
" style="fill:#0000ff;"/>
   </g>
   <g id="patch_8">
    <path clip-path="url(#p32498cbce2)" d="M 464.436 149.25562 
L 464.313988 148.9032 
L 464.264453 148.3488 
L 464.436 148.148455 
L 464.611562 148.3488 
L 464.679919 148.9032 
z
" style="fill:#ffffff;"/>
   </g>
   <g id="patch_9">
    <path clip-path="url(#p32498cbce2)" d="M 467.226 157.380345 
L 467.14498 157.2192 
L 467.010473 156.6648 
L 466.813931 156.1104 
L 466.668 155.884366 
L 466.566422 155.556 
L 466.45727 155.0016 
L 466.272723 154.4472 
L 466.11 154.24566 
L 465.986887 153.8928 
L 465.89927 153.3384 
L 465.715118 152.784 
L 465.552 152.58202 
L 465.428887 152.2296 
L 465.34127 151.6752 
L 465.172928 151.1208 
L 464.994 150.901406 
L 464.870887 150.5664 
L 464.78327 150.012 
L 464.662878 149.4576 
L 464.994 149.239281 
L 465.110602 149.4576 
L 465.552 149.922374 
L 465.640296 150.012 
L 465.808216 150.5664 
L 465.939195 151.1208 
L 466.11 151.30562 
L 466.257384 151.6752 
L 466.317216 152.2296 
L 466.317216 152.784 
L 466.386914 153.3384 
L 466.668 153.699368 
L 466.768138 153.8928 
L 467.009621 154.4472 
L 467.226 154.662183 
L 467.412776 155.0016 
L 467.433216 155.556 
L 467.433216 156.1104 
L 467.433216 156.6648 
L 467.341134 157.2192 
z
" style="fill:#ffffff;"/>
   </g>
   <g id="patch_10">
    <path clip-path="url(#p32498cbce2)" d="M 537.921553 156.6648 
L 538.092 156.495453 
L 538.400535 156.1104 
L 538.360592 155.556 
L 538.092 155.232378 
L 537.958479 155.0016 
L 537.534 154.496588 
L 537.492946 154.4472 
L 537.534 154.368122 
L 537.842535 153.8928 
L 537.822955 153.3384 
L 537.534 153.006641 
L 537.268871 152.784 
L 536.976 152.538256 
L 536.418 152.435479 
L 535.86 152.435479 
L 535.302 152.435479 
L 534.744 152.435479 
L 534.186 152.546172 
L 533.912181 152.784 
L 533.628 153.066348 
L 533.388627 153.3384 
L 533.346914 153.8928 
L 533.628 154.228394 
L 533.768958 154.4472 
L 534.186 154.82164 
L 534.448606 155.0016 
L 534.744 155.286686 
L 535.156069 155.556 
L 535.302 155.70099 
L 535.86 155.995908 
L 535.973961 156.1104 
L 536.418 156.542023 
L 536.613382 156.6648 
L 536.976 156.957557 
L 537.534 156.971345 
z
" style="fill:#0000ff;"/>
   </g>
   <g id="patch_11">
    <path clip-path="url(#p32498cbce2)" d="M 583.119553 171.6336 
L 583.29 171.464253 
L 583.598535 171.0792 
L 583.640784 170.5248 
L 583.640784 169.9704 
L 583.640784 169.416 
L 583.640784 168.8616 
L 583.640784 168.3072 
L 583.640784 167.7528 
L 583.640784 167.1984 
L 583.640784 166.644 
L 583.640784 166.0896 
L 583.65046 165.5352 
L 583.67166 164.9808 
L 583.674051 164.4264 
L 583.646251 163.872 
L 583.640784 163.3176 
L 583.640784 162.7632 
L 583.640784 162.2088 
L 583.640784 161.6544 
L 583.640784 161.1 
L 583.640784 160.5456 
L 583.717355 159.9912 
L 583.848 159.886549 
L 584.406 159.814351 
L 584.964 159.800891 
L 585.522 159.840308 
L 585.991524 159.9912 
L 586.08 160.074705 
L 586.638 160.365362 
L 586.838629 160.5456 
L 587.196 160.95475 
L 587.333782 161.1 
L 587.196 161.364649 
L 586.967724 161.6544 
L 586.9319 162.2088 
L 587.196 162.528064 
L 587.403383 162.7632 
L 587.754 163.055957 
L 588.312 163.190702 
L 588.428037 163.3176 
L 588.87 163.84844 
L 588.901686 163.872 
L 589.428 164.312009 
L 589.519195 164.4264 
L 589.986 164.890194 
L 590.071618 164.9808 
L 590.353849 165.5352 
L 590.544 165.724124 
L 590.751216 166.0896 
L 591.102 166.469175 
L 591.336703 166.644 
L 591.66 166.931091 
L 592.218 167.030993 
L 592.776 167.093749 
L 593.207174 167.1984 
L 593.334 167.281905 
L 593.892 167.469588 
L 594.45 167.554566 
L 595.008 167.731818 
L 595.045524 167.7528 
L 595.566 168.077502 
L 596.124 168.139793 
L 596.682 168.202549 
L 597.139509 168.3072 
L 597.24 168.37203 
L 597.798 168.560241 
L 598.356 168.641253 
L 598.914 168.655721 
L 599.472 168.655721 
L 600.03 168.613745 
L 600.42758 168.3072 
L 600.588 168.207725 
L 601.055792 167.7528 
L 601.146 167.662194 
L 601.612805 167.1984 
L 601.704 167.107794 
L 602.160807 166.644 
L 602.262 166.484615 
L 602.673554 166.0896 
L 602.82 165.998994 
L 602.909242 166.0896 
L 603.027216 166.644 
L 603.1139 167.1984 
L 603.378 167.517664 
L 603.5431 167.7528 
L 603.936 168.091897 
L 604.494 168.286218 
L 604.534689 168.3072 
L 605.052 168.620108 
L 605.61 168.641253 
L 606.020658 168.3072 
L 606.168 168.148367 
L 606.489023 167.7528 
L 606.518784 167.1984 
L 606.518784 166.644 
L 606.518784 166.0896 
L 606.518784 165.5352 
L 606.518784 164.9808 
L 606.518784 164.4264 
L 606.518784 163.872 
L 606.518784 163.3176 
L 606.532592 162.7632 
L 606.620669 162.2088 
L 606.726 161.924906 
L 606.929591 161.6544 
L 607.082354 161.1 
L 607.178669 160.5456 
L 607.284 160.261706 
L 607.487591 159.9912 
L 607.667949 159.4368 
L 607.842 159.117387 
L 608.070276 158.8824 
L 608.281615 158.328 
L 608.4 158.161775 
L 608.73879 157.7736 
L 608.925113 157.2192 
L 608.958 157.184491 
L 609.516 157.129574 
L 609.606208 157.2192 
L 610.074 157.683974 
L 610.162296 157.7736 
L 610.632 158.240274 
L 610.71937 158.328 
L 611.19 158.795593 
L 611.27737 158.8824 
L 611.748 159.349993 
L 611.834039 159.4368 
L 612.306 159.905716 
L 612.388666 159.9912 
L 612.666839 160.5456 
L 612.864 160.741489 
L 613.077102 161.1 
L 613.422 161.640059 
L 613.431105 161.6544 
L 613.566233 162.2088 
L 613.601768 162.7632 
L 613.606096 163.3176 
L 613.6175 163.872 
L 613.626973 164.4264 
L 613.629216 164.9808 
L 613.629216 165.5352 
L 613.629216 166.0896 
L 613.629216 166.644 
L 613.629216 167.1984 
L 613.7159 167.7528 
L 613.98 168.072064 
L 614.187383 168.3072 
L 614.538 168.599957 
L 615.096 168.613745 
L 615.483553 168.3072 
L 615.654 168.157651 
L 615.986321 167.7528 
L 616.212 167.563494 
L 616.627438 167.1984 
L 616.77 167.029926 
L 617.106222 166.644 
L 617.058955 166.0896 
L 616.77 165.778057 
L 616.45233 165.5352 
L 616.212 165.320217 
L 616.004784 164.9808 
L 616.004784 164.4264 
L 616.004784 163.872 
L 616.004784 163.3176 
L 616.004784 162.7632 
L 615.990222 162.2088 
L 615.817118 161.6544 
L 615.654 161.45242 
L 615.530941 161.1 
L 615.437298 160.5456 
L 615.096 160.112282 
L 615.012146 159.9912 
L 614.754379 159.4368 
L 614.538 159.21377 
L 614.346196 158.8824 
L 613.98 158.477242 
L 613.842861 158.328 
L 613.422 157.909854 
L 613.284861 157.7736 
L 612.864 157.355454 
L 612.727643 157.2192 
L 612.306 156.800277 
L 612.170345 156.6648 
L 611.748 156.245179 
L 611.612345 156.1104 
L 611.19 155.690779 
L 611.054345 155.556 
L 610.632 155.027729 
L 610.601088 155.0016 
L 610.074 154.609732 
L 609.808871 154.4472 
L 609.516 154.201456 
L 608.958 154.220397 
L 608.684613 154.4472 
L 608.4 154.611704 
L 607.873415 155.0016 
L 607.842 155.02809 
L 607.430153 155.556 
L 607.284 155.75416 
L 606.96906 156.1104 
L 606.758617 156.6648 
L 606.726 156.706609 
L 606.348256 157.2192 
L 606.168 157.563456 
L 605.964409 157.7736 
L 605.728974 158.328 
L 605.61 158.527444 
L 605.308216 158.8824 
L 605.199384 159.4368 
L 605.052 159.918838 
L 604.986749 159.9912 
L 604.73706 160.5456 
L 604.641384 161.1 
L 604.494 161.582038 
L 604.428749 161.6544 
L 604.199342 162.2088 
L 604.143216 162.7632 
L 604.102402 163.3176 
L 603.936 163.629222 
L 603.806098 163.3176 
L 603.751904 162.7632 
L 603.706146 162.2088 
L 603.378 161.69134 
L 603.356882 161.6544 
L 603.171858 161.1 
L 602.82 160.576837 
L 602.798882 160.5456 
L 602.604473 159.9912 
L 602.262 159.6098 
L 602.004261 159.4368 
L 601.704 159.183759 
L 601.146 159.198972 
L 600.872181 159.4368 
L 600.588 159.730452 
L 600.359724 159.9912 
L 600.237216 160.5456 
L 600.3239 161.1 
L 600.588 161.419264 
L 600.737358 161.6544 
L 601.146 162.124736 
L 601.207961 162.2088 
L 601.345521 162.7632 
L 601.353216 163.3176 
L 601.353216 163.872 
L 601.146 164.199597 
L 600.883559 164.4264 
L 600.588 164.714289 
L 600.354081 164.9808 
L 600.150609 165.5352 
L 600.03 165.663751 
L 599.601386 166.0896 
L 599.472 166.216159 
L 598.914 166.295479 
L 598.356 166.270747 
L 597.798 166.224995 
L 597.24 166.122007 
L 597.126993 166.0896 
L 596.682 165.874617 
L 596.124 165.730398 
L 595.566 165.596761 
L 595.444477 165.5352 
L 595.008 165.237181 
L 594.45 165.148279 
L 593.916248 164.9808 
L 593.892 164.956708 
L 593.334 164.49236 
L 593.217172 164.4264 
L 592.776 164.122096 
L 592.443234 163.872 
L 592.218 163.654127 
L 591.71907 163.3176 
L 592.218 163.097253 
L 592.776 162.82803 
L 592.841251 162.7632 
L 593.334 162.572891 
L 593.892 162.27363 
L 593.957251 162.2088 
L 594.45 162.020397 
L 594.904935 161.6544 
L 595.008 161.567114 
L 595.566 161.16483 
L 595.631251 161.1 
L 596.124 160.90877 
L 596.557763 160.5456 
L 596.682 160.406144 
L 597.026898 159.9912 
L 597.24 159.729557 
L 597.552015 159.4368 
L 597.798 159.272252 
L 598.258938 158.8824 
L 598.356 158.757669 
L 598.692222 158.328 
L 598.706784 157.7736 
L 598.706784 157.2192 
L 598.706784 156.6648 
L 598.657784 156.1104 
L 598.356 155.766463 
L 598.150548 155.556 
L 597.798 155.249455 
L 597.24 155.149337 
L 596.754832 155.0016 
L 596.682 154.93677 
L 596.124 154.708843 
L 595.566 154.714509 
L 595.008 154.839534 
L 594.695126 155.0016 
L 594.45 155.063161 
L 593.892 155.154414 
L 593.334 155.195743 
L 592.776 155.268909 
L 592.218 155.450046 
L 592.071201 155.556 
L 591.66 155.6688 
L 591.102 155.738908 
L 590.544 155.839212 
L 590.225636 156.1104 
L 589.986 156.25561 
L 589.565139 156.6648 
L 589.428 156.801054 
L 589.007139 157.2192 
L 588.87 157.355454 
L 588.458153 157.7736 
L 588.312 158.045055 
L 587.754 158.048727 
L 587.196 157.950449 
L 586.638 157.869796 
L 586.300037 157.7736 
L 586.08 157.62861 
L 585.522 157.480843 
L 584.964 157.425079 
L 584.406 157.425079 
L 583.848 157.480843 
L 583.29 157.70877 
L 583.217168 157.7736 
L 582.732 157.920651 
L 582.174 158.040909 
L 581.850703 158.328 
L 581.616 158.610348 
L 581.376627 158.8824 
L 581.265216 159.4368 
L 581.265216 159.9912 
L 581.265216 160.5456 
L 581.265216 161.1 
L 581.265216 161.6544 
L 581.265216 162.2088 
L 581.265216 162.7632 
L 581.257367 163.3176 
L 581.058 163.584313 
L 580.885632 163.3176 
L 580.850784 162.7632 
L 580.850784 162.2088 
L 580.850784 161.6544 
L 580.850784 161.1 
L 580.850784 160.5456 
L 580.788955 159.9912 
L 580.5 159.659441 
L 580.234871 159.4368 
L 579.942 159.191056 
L 579.384 159.209997 
L 579.121559 159.4368 
L 578.826 159.730452 
L 578.597724 159.9912 
L 578.475216 160.5456 
L 578.475216 161.1 
L 578.475216 161.6544 
L 578.475216 162.2088 
L 578.475216 162.7632 
L 578.475216 163.3176 
L 578.5619 163.872 
L 578.826 164.203796 
L 578.935868 164.4264 
L 579.167326 164.9808 
L 579.384 165.196076 
L 579.556365 165.5352 
L 579.384 165.736669 
L 578.949715 166.0896 
L 578.826 166.179998 
L 578.268 166.334232 
L 577.867742 166.644 
L 577.71 166.734857 
L 577.152 166.845469 
L 576.594 166.842334 
L 576.036 166.834309 
L 575.478 166.816827 
L 574.92 166.784813 
L 574.362 166.695389 
L 574.173033 166.644 
L 573.804 166.455076 
L 573.246 166.351243 
L 572.688 166.295479 
L 572.13 166.286845 
L 571.572 166.28083 
L 571.014 166.275171 
L 570.456 166.260853 
L 569.898 166.224995 
L 569.34 166.122007 
L 569.217935 166.0896 
L 568.782 165.887323 
L 568.224 165.718894 
L 567.981163 165.5352 
L 567.666 165.22429 
L 567.330298 164.9808 
L 567.666 164.493819 
L 567.766491 164.4264 
L 568.224 164.321749 
L 568.782 164.258993 
L 569.34 164.206053 
L 569.898 163.977954 
L 570.015881 163.872 
L 570.456 163.718876 
L 571.014 163.588788 
L 571.396294 163.3176 
L 571.572 163.237103 
L 572.13 163.112788 
L 572.688 162.82803 
L 572.753251 162.7632 
L 573.246 162.572891 
L 573.804 162.27363 
L 573.869251 162.2088 
L 574.362 162.018491 
L 574.815645 161.6544 
L 574.92 161.56528 
L 575.388301 161.1 
L 575.478 160.966251 
L 575.835169 160.5456 
L 576.036 160.297027 
L 576.308949 159.9912 
L 576.552063 159.4368 
L 576.594 159.363696 
L 576.915023 158.8824 
L 576.895784 158.328 
L 576.594 157.973044 
L 576.456861 157.7736 
L 576.036 157.355454 
L 575.898861 157.2192 
L 575.478 156.69129 
L 575.456882 156.6648 
L 575.262473 156.1104 
L 574.92 155.747307 
L 574.718963 155.556 
L 574.362 155.224558 
L 573.804 155.063161 
L 573.702587 155.0016 
L 573.246 154.672832 
L 572.688 154.508761 
L 572.55879 154.4472 
L 572.13 154.160109 
L 571.572 154.098679 
L 571.014 154.098679 
L 570.456 154.098679 
L 569.898 154.098679 
L 569.34 154.098679 
L 568.782 154.098679 
L 568.224 154.098679 
L 567.666 154.154443 
L 567.108 154.38237 
L 567.035168 154.4472 
L 566.55 154.594937 
L 565.992 154.714509 
L 565.685633 155.0016 
L 565.434 155.214627 
L 565.10719 155.556 
L 564.876 156.026895 
L 564.791953 156.1104 
L 564.450626 156.6648 
L 564.318 156.920876 
L 564.063315 157.2192 
L 563.967216 157.7736 
L 563.967216 158.328 
L 563.967216 158.8824 
L 563.967216 159.4368 
L 563.967216 159.9912 
L 563.967216 160.5456 
L 563.967216 161.1 
L 563.967216 161.6544 
L 563.967216 162.2088 
L 563.967216 162.7632 
L 563.967216 163.3176 
L 563.967216 163.872 
L 563.967216 164.4264 
L 564.068253 164.9808 
L 564.318 165.263319 
L 564.473644 165.5352 
L 564.876 165.926899 
L 565.090508 166.0896 
L 565.434 166.407141 
L 565.775621 166.644 
L 565.992 166.858983 
L 566.55 167.189197 
L 566.559994 167.1984 
L 567.108 167.648832 
L 567.271738 167.7528 
L 567.666 168.067174 
L 568.224 168.142033 
L 568.782 168.202549 
L 569.239509 168.3072 
L 569.34 168.37203 
L 569.898 168.560241 
L 570.456 168.641253 
L 571.014 168.655721 
L 571.572 168.655721 
L 572.13 168.655721 
L 572.688 168.661255 
L 573.246 168.698478 
L 573.804 168.765404 
L 574.252752 168.8616 
L 574.362 168.92643 
L 574.92 169.114641 
L 575.478 169.195653 
L 576.036 169.210121 
L 576.594 169.210121 
L 577.152 169.210121 
L 577.71 169.195653 
L 578.268 168.92643 
L 578.333251 168.8616 
L 578.826 168.673197 
L 579.384 168.37203 
L 579.449251 168.3072 
L 579.942 168.116891 
L 580.218914 168.3072 
L 580.5 168.668168 
L 580.600138 168.8616 
L 580.867849 169.416 
L 581.058 169.604924 
L 581.23434 169.9704 
L 581.265216 170.5248 
L 581.3519 171.0792 
L 581.616 171.398464 
L 581.823383 171.6336 
L 582.174 171.926357 
L 582.732 171.940145 
z
" style="fill:#0000ff;"/>
   </g>
   <g id="patch_12">
    <path clip-path="url(#p32498cbce2)" d="M 409.023553 185.4936 
L 409.194 185.324253 
L 409.502535 184.9392 
L 409.544784 184.3848 
L 409.752 184.164453 
L 410.162658 183.8304 
L 410.31 183.704727 
L 410.672596 183.276 
L 410.868 182.78643 
L 410.933251 182.7216 
L 411.18294 182.1672 
L 411.189023 181.6128 
L 410.868 181.27016 
L 410.573903 181.0584 
L 410.31 180.820572 
L 409.752 180.869476 
L 409.544784 180.504 
L 409.544784 179.9496 
L 409.544784 179.3952 
L 409.544784 178.8408 
L 409.752 178.579157 
L 410.31 178.592945 
L 410.697553 178.2864 
L 410.868 178.079365 
L 411.134256 177.732 
L 411.218784 177.1776 
L 411.218784 176.6232 
L 411.426 176.375345 
L 411.813553 176.0688 
L 411.984 175.899453 
L 412.292535 175.5144 
L 412.530016 174.96 
L 412.542 174.950954 
L 412.602387 174.96 
L 413.1 175.10499 
L 413.658 175.174983 
L 414.216 175.213041 
L 414.774 175.266545 
L 415.332 175.299097 
L 415.89 175.317254 
L 416.448 175.349163 
L 417.006 175.433903 
L 417.110981 175.5144 
L 417.564 175.885106 
L 417.832445 176.0688 
L 418.122 176.348073 
L 418.521245 176.6232 
L 418.68 176.780931 
L 419.238 177.062495 
L 419.366824 177.1776 
L 419.796 177.542502 
L 420.129521 177.732 
L 420.354 177.946983 
L 420.912 178.203484 
L 421.017614 178.2864 
L 421.47 178.656194 
L 421.803521 178.8408 
L 422.028 179.055783 
L 422.586 179.311847 
L 422.701134 179.3952 
L 423.144 179.743721 
L 423.702 179.928618 
L 423.725853 179.9496 
L 424.26 180.414374 
L 424.348296 180.504 
L 424.545051 181.0584 
L 424.818 181.386222 
L 425.01874 181.6128 
L 425.376 181.912637 
L 425.934 181.925708 
L 426.336848 181.6128 
L 426.492 181.505356 
L 426.883599 181.0584 
L 427.05 180.792564 
L 427.322949 180.504 
L 427.566276 179.9496 
L 427.608 179.867154 
L 427.909784 179.3952 
L 427.896955 178.8408 
L 427.608 178.519589 
L 427.323819 178.2864 
L 427.05 178.048572 
L 426.492 178.071417 
L 426.267521 178.2864 
L 425.934 178.498734 
L 425.376 178.421179 
L 425.211929 178.2864 
L 424.818 177.946137 
L 424.26 177.793561 
L 424.171734 177.732 
L 423.702 177.38125 
L 423.334151 177.1776 
L 423.144 176.988676 
L 422.586 176.642236 
L 422.555155 176.6232 
L 422.028 176.290382 
L 421.660151 176.0688 
L 421.47 175.879876 
L 420.912 175.613387 
L 420.783862 175.5144 
L 420.354 175.148634 
L 420.068561 174.96 
L 419.796 174.697604 
L 419.246766 174.4056 
L 419.238 174.39689 
L 418.68 173.964192 
L 418.533464 173.8512 
L 418.122 173.502679 
L 417.754151 173.2968 
L 417.564 173.107876 
L 417.006 172.843865 
L 416.803853 172.7424 
L 416.448 172.471212 
L 415.89 172.393879 
L 415.332 172.393879 
L 414.774 172.393879 
L 414.216 172.393879 
L 413.658 172.393879 
L 413.131315 172.188 
L 413.476784 171.6336 
L 413.658 171.314187 
L 413.886276 171.0792 
L 414.14429 170.5248 
L 414.216 170.406239 
L 414.512389 169.9704 
L 414.774 169.526985 
L 414.885706 169.416 
L 415.201155 168.8616 
L 415.332 168.637689 
L 415.584354 168.3072 
L 415.89 167.76151 
L 415.898766 167.7528 
L 416.255528 167.1984 
L 416.448 166.78899 
L 416.593931 166.644 
L 416.837741 166.0896 
L 417.006 165.768824 
L 417.203161 165.5352 
L 417.458627 164.9808 
L 417.564 164.777382 
L 417.813747 164.4264 
L 418.078508 163.872 
L 418.122 163.792681 
L 418.42027 163.3176 
L 418.68 162.77191 
L 418.688766 162.7632 
L 419.206826 162.2088 
L 419.238 162.184805 
L 419.694807 161.6544 
L 419.796 161.495015 
L 420.104535 161.1 
L 420.154479 160.5456 
L 420.354 160.363534 
L 420.912 160.297745 
L 421.275492 159.9912 
L 421.47 159.822726 
L 421.806222 159.4368 
L 421.771784 158.8824 
L 421.47 158.372149 
L 421.448882 158.328 
L 421.254473 157.7736 
L 420.912 157.3922 
L 420.654261 157.2192 
L 420.354 156.966159 
L 419.796 156.981372 
L 419.522181 157.2192 
L 419.238 157.512852 
L 419.009724 157.7736 
L 418.887216 158.328 
L 418.68 158.589643 
L 418.351151 158.8824 
L 418.122 159.176052 
L 417.893724 159.4368 
L 417.755545 159.9912 
L 417.653042 160.5456 
L 417.564 160.641227 
L 417.141255 161.1 
L 417.006 161.304127 
L 416.697465 161.6544 
L 416.448 162.097314 
L 416.33579 162.2088 
L 416.091749 162.7632 
L 415.89 163.132434 
L 415.703632 163.3176 
L 415.447451 163.872 
L 415.332 164.094873 
L 415.090095 164.4264 
L 414.833737 164.9808 
L 414.774 165.091581 
L 414.486877 165.5352 
L 414.219428 166.0896 
L 414.216 166.095912 
L 413.90106 166.644 
L 413.667105 167.1984 
L 413.658 167.209571 
L 413.17171 167.7528 
L 413.1 167.870104 
L 412.80173 168.3072 
L 412.542 168.750615 
L 412.430294 168.8616 
L 412.112062 169.416 
L 411.984 169.636185 
L 411.731646 169.9704 
L 411.426 170.516851 
L 411.417999 170.5248 
L 411.117465 171.0792 
L 410.959447 171.6336 
L 410.868 171.770898 
L 410.531778 172.188 
L 410.31 172.711287 
L 410.278685 172.7424 
L 409.950526 173.2968 
L 409.752 173.756197 
L 409.544784 173.2968 
L 409.544784 172.7424 
L 409.544784 172.188 
L 409.544784 171.6336 
L 409.544784 171.0792 
L 409.544784 170.5248 
L 409.544784 169.9704 
L 409.544784 169.416 
L 409.544784 168.8616 
L 409.544784 168.3072 
L 409.544784 167.7528 
L 409.544784 167.1984 
L 409.544784 166.644 
L 409.544784 166.0896 
L 409.530222 165.5352 
L 409.36891 164.9808 
L 409.194 164.707904 
L 409.096457 164.4264 
L 408.95402 163.872 
L 408.802999 163.3176 
L 408.636 163.111313 
L 408.512941 162.7632 
L 408.437574 162.2088 
L 408.428784 161.6544 
L 408.428784 161.1 
L 408.428784 160.5456 
L 408.428784 159.9912 
L 408.428784 159.4368 
L 408.428784 158.8824 
L 408.428784 158.328 
L 408.428784 157.7736 
L 408.428784 157.2192 
L 408.428784 156.6648 
L 408.366955 156.1104 
L 408.078 155.778641 
L 407.812871 155.556 
L 407.52 155.310256 
L 406.962 155.329197 
L 406.699559 155.556 
L 406.404 155.770364 
L 406.061756 156.1104 
L 405.846 156.404052 
L 405.617724 156.6648 
L 405.495216 157.2192 
L 405.495216 157.7736 
L 405.544216 158.328 
L 405.655849 158.8824 
L 405.846 159.249052 
L 405.897723 159.4368 
L 405.989584 159.9912 
L 406.033747 160.5456 
L 406.053216 161.1 
L 406.053216 161.6544 
L 406.053216 162.2088 
L 406.102216 162.7632 
L 406.22909 163.3176 
L 406.404 163.590496 
L 406.494126 163.872 
L 406.596472 164.4264 
L 406.671057 164.9808 
L 406.962 165.408655 
L 407.02372 165.5352 
L 407.11397 166.0896 
L 407.12831 166.644 
L 407.135116 167.1984 
L 407.142585 167.7528 
L 407.150637 168.3072 
L 407.165817 168.8616 
L 407.169216 169.416 
L 407.169216 169.9704 
L 407.169216 170.5248 
L 407.169216 171.0792 
L 407.169216 171.6336 
L 407.169216 172.188 
L 407.169216 172.7424 
L 407.169216 173.2968 
L 407.169216 173.8512 
L 407.169216 174.4056 
L 407.169216 174.96 
L 407.169216 175.5144 
L 407.169216 176.0688 
L 407.169216 176.6232 
L 407.169216 177.1776 
L 407.169216 177.732 
L 407.169216 178.2864 
L 407.169216 178.8408 
L 407.169216 179.3952 
L 407.169216 179.9496 
L 407.169216 180.504 
L 407.169216 181.0584 
L 407.169216 181.6128 
L 407.169216 182.1672 
L 407.169216 182.7216 
L 407.169216 183.276 
L 407.169216 183.8304 
L 407.169216 184.3848 
L 407.2559 184.9392 
L 407.52 185.258464 
L 407.727383 185.4936 
L 408.078 185.786357 
L 408.636 185.800145 
z
" style="fill:#0000ff;"/>
   </g>
   <g id="patch_13">
    <path clip-path="url(#p32498cbce2)" d="M 567.666 162.260189 
L 567.108 162.350818 
L 566.55 162.394459 
L 566.342784 162.2088 
L 566.342784 161.6544 
L 566.342784 161.1 
L 566.342784 160.5456 
L 566.342784 159.9912 
L 566.342784 159.4368 
L 566.342784 158.8824 
L 566.342784 158.328 
L 566.390702 157.7736 
L 566.55 157.575807 
L 566.89259 157.2192 
L 567.108 157.021955 
L 567.537098 156.6648 
L 567.666 156.568604 
L 568.224 156.475494 
L 568.782 156.458921 
L 569.34 156.458921 
L 569.898 156.458921 
L 570.456 156.458921 
L 571.014 156.458921 
L 571.572 156.476397 
L 572.13 156.643818 
L 572.161174 156.6648 
L 572.688 157.01555 
L 573.207119 157.2192 
L 573.246 157.25783 
L 573.471808 157.7736 
L 573.804 158.178346 
L 573.900821 158.328 
L 573.95933 158.8824 
L 573.917533 159.4368 
L 573.804 159.568061 
L 573.351778 159.9912 
L 573.246 160.081598 
L 572.688 160.222377 
L 572.13 160.48016 
L 572.064135 160.5456 
L 571.572 160.775298 
L 571.102007 161.1 
L 571.014 161.151389 
L 570.456 161.283759 
L 569.898 161.476626 
L 569.696824 161.6544 
L 569.34 161.792221 
L 568.782 161.861357 
L 568.224 161.999445 
L 567.83549 162.2088 
z
" style="fill:#ffffff;"/>
   </g>
   <g id="patch_14">
    <path clip-path="url(#p32498cbce2)" d="M 591.66 160.701944 
L 591.102 160.711601 
L 590.544 160.722449 
L 590.336784 160.5456 
L 590.336784 159.9912 
L 590.336784 159.4368 
L 590.458424 158.8824 
L 590.544 158.799917 
L 591.102 158.444883 
L 591.219642 158.328 
L 591.66 158.138694 
L 592.218 157.845015 
L 592.29377 157.7736 
L 592.776 157.622032 
L 593.334 157.56995 
L 593.892 157.490388 
L 594.45 157.302705 
L 594.627176 157.2192 
L 595.008 157.1481 
L 595.566 157.064811 
L 596.124 157.09854 
L 596.276694 157.2192 
L 596.124 157.664131 
L 596.039953 157.7736 
L 595.566 158.003298 
L 595.206363 158.328 
L 595.008 158.610348 
L 594.768627 158.8824 
L 594.45 159.130255 
L 594.097452 159.4368 
L 593.892 159.58201 
L 593.444061 159.9912 
L 593.334 160.081598 
L 592.776 160.191545 
L 592.218 160.528721 
L 592.201011 160.5456 
z
" style="fill:#ffffff;"/>
   </g>
   <g id="patch_15">
    <path clip-path="url(#p32498cbce2)" d="M 437.023099 179.9496 
L 437.094 179.908167 
L 437.652 179.666388 
L 437.942438 179.3952 
L 438.21 179.227323 
L 438.668623 178.8408 
L 438.768 178.750194 
L 439.234805 178.2864 
L 439.326 178.195794 
L 439.792805 177.732 
L 439.884 177.642374 
L 440.351792 177.1776 
L 440.442 177.088934 
L 440.910758 176.6232 
L 441 176.502955 
L 441.342473 176.0688 
L 441.411905 175.5144 
L 441.528348 174.96 
L 441.558 174.848232 
L 441.761909 174.4056 
L 441.899298 173.8512 
L 441.908784 173.2968 
L 441.908784 172.7424 
L 441.908784 172.188 
L 441.908784 171.6336 
L 441.908784 171.0792 
L 441.908784 170.5248 
L 441.908784 169.9704 
L 441.908784 169.416 
L 441.908784 168.8616 
L 441.908784 168.3072 
L 441.908784 167.7528 
L 441.908784 167.1984 
L 441.908784 166.644 
L 441.908784 166.0896 
L 441.835176 165.5352 
L 441.558 165.052591 
L 441.520646 164.9808 
L 441.065251 164.4264 
L 441 164.36157 
L 440.723086 163.872 
L 440.442 163.584313 
L 440.254238 163.3176 
L 439.884 162.908948 
L 439.709715 162.7632 
L 439.326 162.434432 
L 438.768 162.270361 
L 438.63879 162.2088 
L 438.21 161.921709 
L 437.652 161.860279 
L 437.094 161.860279 
L 436.536 161.860279 
L 435.978 161.860279 
L 435.42 161.860279 
L 434.862 161.860279 
L 434.592955 161.6544 
L 434.304 161.322641 
L 434.038871 161.1 
L 433.746 160.854256 
L 433.188 160.751479 
L 432.63 160.751479 
L 432.072 160.751479 
L 431.514 160.751479 
L 430.956 160.751479 
L 430.398 160.751479 
L 429.84 160.751479 
L 429.282 160.873197 
L 429.008613 161.1 
L 428.724 161.24521 
L 428.303139 161.6544 
L 428.166 161.790654 
L 427.745139 162.2088 
L 427.608 162.345054 
L 427.187139 162.7632 
L 427.05 162.899454 
L 426.638153 163.3176 
L 426.492 163.5478 
L 426.210914 163.872 
L 426.125545 164.4264 
L 426.038498 164.9808 
L 425.949178 165.5352 
L 425.934 165.731247 
L 425.868749 166.0896 
L 425.705724 166.644 
L 425.612977 167.1984 
L 425.583216 167.7528 
L 425.583216 168.3072 
L 425.583216 168.8616 
L 425.583216 169.416 
L 425.583216 169.9704 
L 425.583216 170.5248 
L 425.583216 171.0792 
L 425.583216 171.6336 
L 425.583216 172.188 
L 425.645045 172.7424 
L 425.934 173.120921 
L 426.027692 173.2968 
L 426.237315 173.8512 
L 426.492 174.198934 
L 426.615715 174.4056 
L 426.886882 174.96 
L 427.05 175.122066 
L 427.266702 175.5144 
L 427.608 175.926481 
L 427.714813 176.0688 
L 428.166 176.53408 
L 428.25337 176.6232 
L 428.724 177.090793 
L 428.810464 177.1776 
L 429.282 177.646094 
L 429.365058 177.732 
L 429.649849 178.2864 
L 429.84 178.475324 
L 430.043922 178.8408 
L 430.398 179.223397 
L 430.62903 179.3952 
L 430.956 179.686036 
L 431.514 179.784433 
L 432.072 179.844949 
L 432.529509 179.9496 
L 432.63 180.01443 
L 433.188 180.202641 
L 433.746 180.283653 
L 434.304 180.298121 
L 434.862 180.298121 
L 435.42 180.298121 
L 435.978 180.298121 
L 436.536 180.274302 
z
" style="fill:#0000ff;"/>
   </g>
   <g id="patch_16">
    <path clip-path="url(#p32498cbce2)" d="M 654.714 172.774807 
L 654.156 172.884418 
L 653.598 172.913653 
L 653.04 172.925308 
L 652.482 172.932709 
L 651.924 172.936639 
L 651.366 172.942848 
L 651.162078 172.7424 
L 650.808 172.2751 
L 650.746039 172.188 
L 650.623904 171.6336 
L 650.504685 171.0792 
L 650.25 170.731466 
L 650.159882 170.5248 
L 650.079993 169.9704 
L 650.132765 169.416 
L 650.25 169.246653 
L 650.558535 168.8616 
L 650.538955 168.3072 
L 650.25 167.975441 
L 649.984871 167.7528 
L 649.692 167.507056 
L 649.489118 167.1984 
L 649.484784 166.644 
L 649.484784 166.0896 
L 649.484784 165.5352 
L 649.484784 164.9808 
L 649.484784 164.4264 
L 649.484784 163.872 
L 649.484784 163.3176 
L 649.484784 162.7632 
L 649.484784 162.2088 
L 649.484784 161.6544 
L 649.692 161.262066 
L 650.25 161.531483 
L 650.455636 161.6544 
L 650.808 161.90995 
L 651.366 162.126735 
L 651.465715 162.2088 
L 651.924 162.561731 
L 652.35482 162.7632 
L 652.482 162.88956 
L 653.04 163.21706 
L 653.245636 163.3176 
L 653.598 163.57315 
L 654.156 163.791298 
L 654.267283 163.872 
L 654.714 164.207275 
L 655.272 164.258209 
L 655.83 164.291005 
L 656.388 164.364839 
L 656.74848 164.4264 
L 656.946 164.509905 
L 657.504 164.653203 
L 658.062 164.726237 
L 658.62 164.822496 
L 658.931062 164.9808 
L 659.178 165.204587 
L 659.736 165.45751 
L 659.833326 165.5352 
L 660.294 165.887098 
L 660.588119 166.0896 
L 660.852 166.351779 
L 661.121045 166.644 
L 661.41 167.022521 
L 661.500118 167.1984 
L 661.41 167.357785 
L 661.101465 167.7528 
L 660.943447 168.3072 
L 660.852 168.435142 
L 660.503508 168.8616 
L 660.294 169.132762 
L 660.008923 169.416 
L 659.736 169.679564 
L 659.423692 169.9704 
L 659.178 170.192818 
L 658.771979 170.5248 
L 658.62 170.629166 
L 658.062 170.917134 
L 657.898882 171.0792 
L 657.504 171.340669 
L 657.209167 171.6336 
L 656.946 171.808802 
L 656.409437 172.188 
L 656.388 172.205906 
L 655.83 172.396157 
L 655.272 172.540123 
L 654.836065 172.7424 
z
" style="fill:#ffffff;"/>
   </g>
   <g id="patch_17">
    <path clip-path="url(#p32498cbce2)" d="M 548.136 163.408877 
L 547.578 163.519069 
L 547.02 163.523479 
L 546.462 163.518048 
L 546.263574 163.3176 
L 546.262633 162.7632 
L 546.462 162.576649 
L 546.931524 162.7632 
L 547.02 162.846705 
L 547.578 163.091968 
L 548.136 163.176166 
L 548.327175 163.3176 
z
" style="fill:#ffffff;"/>
   </g>
   <g id="patch_18">
    <path clip-path="url(#p32498cbce2)" d="M 641.88 166.146903 
L 641.322 166.266899 
L 641.168194 166.0896 
L 641.149635 165.5352 
L 641.322 165.04563 
L 641.387251 164.9808 
L 641.688455 164.4264 
L 641.88 163.93683 
L 641.945251 163.872 
L 642.216222 163.3176 
L 642.271369 162.7632 
L 642.438 162.468116 
L 642.562233 162.7632 
L 642.638629 163.3176 
L 642.645216 163.872 
L 642.579788 164.4264 
L 642.438 164.780922 
L 642.259072 164.9808 
L 642.073408 165.5352 
L 641.931723 166.0896 
z
" style="fill:#ffffff;"/>
   </g>
   <g id="patch_19">
    <path clip-path="url(#p32498cbce2)" d="M 435.978 177.92416 
L 435.42 177.929245 
L 434.862 177.922309 
L 434.304 177.915759 
L 433.746 177.902515 
L 433.188 177.867395 
L 432.63 177.764407 
L 432.516993 177.732 
L 432.072 177.517017 
L 431.730379 177.1776 
L 431.514 176.95457 
L 431.322196 176.6232 
L 430.956 176.218042 
L 430.818861 176.0688 
L 430.398 175.650654 
L 430.261643 175.5144 
L 429.84 175.007172 
L 429.781784 174.96 
L 429.282 174.429138 
L 429.266031 174.4056 
L 429.081371 173.8512 
L 428.85118 173.2968 
L 428.724 173.082798 
L 428.636747 172.7424 
L 428.528596 172.188 
L 428.472961 171.6336 
L 428.373033 171.0792 
L 428.166 170.562448 
L 428.156895 170.5248 
L 428.049862 169.9704 
L 428.000452 169.416 
L 427.991287 168.8616 
L 427.982837 168.3072 
L 427.975373 167.7528 
L 428.002561 167.1984 
L 428.044557 166.644 
L 428.166 166.206589 
L 428.256182 166.0896 
L 428.491321 165.5352 
L 428.539904 164.9808 
L 428.724 164.532866 
L 428.831157 164.4264 
L 429.196424 163.872 
L 429.282 163.784714 
L 429.752147 163.3176 
L 429.84 163.233846 
L 430.023442 163.3176 
L 430.398 163.636864 
L 430.605383 163.872 
L 430.956 164.164757 
L 431.514 164.220521 
L 431.763465 164.4264 
L 431.604889 164.9808 
L 431.514 165.257684 
L 431.33909 165.5352 
L 431.225045 166.0896 
L 431.259315 166.644 
L 431.514 166.921605 
L 431.727135 167.1984 
L 432.072 167.517352 
L 432.63 167.504945 
L 432.993492 167.1984 
L 433.188 167.043499 
L 433.539858 166.644 
L 433.640669 166.0896 
L 433.746 165.778652 
L 433.924928 165.5352 
L 434.071321 164.9808 
L 434.198669 164.4264 
L 434.304 164.296598 
L 434.862 164.220521 
L 435.42 164.220521 
L 435.978 164.220521 
L 436.536 164.220521 
L 437.094 164.220521 
L 437.652 164.246079 
L 438.023632 164.4264 
L 438.21 164.611566 
L 438.51102 164.9808 
L 438.768 165.236122 
L 439.040923 165.5352 
L 439.326 165.826845 
L 439.499246 166.0896 
L 439.533216 166.644 
L 439.533216 167.1984 
L 439.533216 167.7528 
L 439.533216 168.3072 
L 439.533216 168.8616 
L 439.533216 169.416 
L 439.533216 169.9704 
L 439.533216 170.5248 
L 439.521404 171.0792 
L 439.515536 171.6336 
L 439.510952 172.188 
L 439.505687 172.7424 
L 439.501562 173.2968 
L 439.490862 173.8512 
L 439.361282 174.4056 
L 439.326 174.542959 
L 439.132478 174.96 
L 438.941484 175.5144 
L 438.768 175.685872 
L 438.382585 176.0688 
L 438.21 176.227366 
L 437.811596 176.6232 
L 437.652 176.777837 
L 437.213345 177.1776 
L 437.094 177.28422 
L 436.536 177.569934 
L 436.372882 177.732 
z
" style="fill:#ffffff;"/>
   </g>
   <g id="patch_20">
    <path clip-path="url(#p32498cbce2)" d="M 520.794 171.194077 
L 520.236 171.280669 
L 519.678 171.271454 
L 519.12 171.262108 
L 518.562 171.250379 
L 518.004 171.140761 
L 517.908954 171.0792 
L 517.446 170.739985 
L 516.888 170.624216 
L 516.785116 170.5248 
L 516.708232 169.9704 
L 516.742571 169.416 
L 516.888 169.119141 
L 517.129905 168.8616 
L 517.38125 168.3072 
L 517.446 168.239421 
L 517.917961 167.7528 
L 518.004 167.657474 
L 518.39801 167.1984 
L 518.562 166.970763 
L 518.873779 166.644 
L 519.12 166.255906 
L 519.287386 166.0896 
L 519.678 165.804344 
L 519.948891 165.5352 
L 520.236 165.324714 
L 520.60495 164.9808 
L 520.794 164.828372 
L 521.352 164.628677 
L 521.624263 164.4264 
L 521.91 164.321749 
L 522.468 164.254401 
L 523.026 164.240829 
L 523.584 164.232161 
L 524.142 164.221588 
L 524.346866 164.4264 
L 524.232985 164.9808 
L 524.142 165.170741 
L 523.869051 165.5352 
L 523.783622 166.0896 
L 523.767163 166.644 
L 523.752494 167.1984 
L 523.667438 167.7528 
L 523.584 167.877178 
L 523.242702 168.3072 
L 523.116985 168.8616 
L 523.026 169.035769 
L 522.735057 169.416 
L 522.552298 169.9704 
L 522.468 170.054154 
L 521.91 170.51609 
L 521.901234 170.5248 
L 521.352 170.766292 
L 520.979715 171.0792 
z
" style="fill:#ffffff;"/>
   </g>
   <g id="patch_21">
    <path clip-path="url(#p32498cbce2)" d="M 489.088491 186.6024 
L 489.546 186.497749 
L 490.104 186.437233 
L 490.662 186.383275 
L 491.22 186.11283 
L 491.285251 186.048 
L 491.778 185.857691 
L 492.336 185.55843 
L 492.401251 185.4936 
L 492.894 185.303291 
L 493.347645 184.9392 
L 493.452 184.848594 
L 493.918805 184.3848 
L 494.01 184.295174 
L 494.467879 183.8304 
L 494.568 183.671015 
L 494.876535 183.276 
L 494.918784 182.7216 
L 494.918784 182.1672 
L 494.918784 181.6128 
L 494.856955 181.0584 
L 494.568 180.715376 
L 494.430861 180.504 
L 494.01 179.97609 
L 493.978585 179.9496 
L 493.452 179.508769 
L 493.368982 179.3952 
L 493.122276 178.8408 
L 492.894 178.605813 
L 492.704238 178.2864 
L 492.336 177.879474 
L 492.202479 177.732 
L 491.778 177.31026 
L 491.640861 177.1776 
L 491.22 176.759454 
L 491.063165 176.6232 
L 490.662 176.274679 
L 490.294151 176.0688 
L 490.104 175.879876 
L 489.546 175.615388 
L 489.410305 175.5144 
L 489.260949 174.96 
L 489.504298 174.4056 
L 489.546 174.315476 
L 489.833123 173.8512 
L 489.896784 173.2968 
L 489.896784 172.7424 
L 489.896784 172.188 
L 489.896784 171.6336 
L 489.896784 171.0792 
L 489.896784 170.5248 
L 489.833123 169.9704 
L 489.546 169.444958 
L 489.531981 169.416 
L 489.204379 168.8616 
L 488.988 168.63857 
L 488.801175 168.3072 
L 488.43 167.781458 
L 488.408882 167.7528 
L 488.21575 167.1984 
L 487.872 166.834097 
L 487.664446 166.644 
L 487.314 166.319298 
L 486.756 166.151161 
L 486.654587 166.0896 
L 486.198 165.760832 
L 485.64 165.596761 
L 485.484762 165.5352 
L 485.082 165.282159 
L 484.524 165.248109 
L 483.987469 165.5352 
L 483.966 165.544246 
L 483.408 165.695595 
L 482.85 165.741079 
L 482.292 165.741079 
L 481.734 165.741079 
L 481.176 165.741079 
L 480.618 165.827204 
L 480.329133 166.0896 
L 480.06 166.313395 
L 479.751465 166.644 
L 479.59387 167.1984 
L 479.502 167.388341 
L 479.229051 167.7528 
L 479.151216 168.3072 
L 479.151216 168.8616 
L 479.151216 169.416 
L 479.151216 169.9704 
L 479.151216 170.5248 
L 479.233408 171.0792 
L 479.502 171.402822 
L 479.709383 171.6336 
L 480.06 171.926357 
L 480.618 171.940145 
L 481.005553 171.6336 
L 481.176 171.426565 
L 481.442256 171.0792 
L 481.526784 170.5248 
L 481.526784 169.9704 
L 481.526784 169.416 
L 481.526784 168.8616 
L 481.646147 168.3072 
L 481.734 168.226703 
L 482.292 168.142651 
L 482.85 168.122496 
L 483.408 168.102388 
L 483.966 168.043813 
L 484.524 167.990628 
L 485.082 168.077367 
L 485.64 168.140499 
L 486.159119 168.3072 
L 486.198 168.34583 
L 486.425097 168.8616 
L 486.756 169.39463 
L 486.770473 169.416 
L 487.097621 169.9704 
L 487.314 170.185383 
L 487.500776 170.5248 
L 487.521216 171.0792 
L 487.521216 171.6336 
L 487.521216 172.188 
L 487.521216 172.7424 
L 487.507408 173.2968 
L 487.314 173.621435 
L 487.082743 173.8512 
L 486.756 174.043454 
L 486.198 174.057079 
L 485.64 174.057079 
L 485.082 174.057079 
L 484.524 174.057079 
L 483.966 174.057079 
L 483.408 174.057079 
L 482.85 174.134412 
L 482.483175 174.4056 
L 482.292 174.496457 
L 481.734 174.667243 
L 481.405151 174.96 
L 481.176 175.253652 
L 480.947724 175.5144 
L 480.825216 176.0688 
L 480.825216 176.6232 
L 480.9119 177.1776 
L 481.176 177.496864 
L 481.383383 177.732 
L 481.734 178.024757 
L 482.292 178.080521 
L 482.85 178.080521 
L 483.408 178.080521 
L 483.966 178.071097 
L 484.524 177.977744 
L 485.018679 177.732 
L 485.082 177.711018 
L 485.64 177.587509 
L 486.198 177.519133 
L 486.692574 177.1776 
L 486.756 177.136167 
L 487.314 176.98544 
L 487.872 177.095892 
L 487.979628 177.1776 
L 488.43 177.544509 
L 488.74579 177.732 
L 488.988 177.96441 
L 489.546 178.213862 
L 489.623727 178.2864 
L 490.104 178.817805 
L 490.133495 178.8408 
L 490.662 179.287538 
L 490.745894 179.3952 
L 490.991724 179.9496 
L 491.22 180.176403 
L 491.426142 180.504 
L 491.778 180.924421 
L 491.880608 181.0584 
L 492.263523 181.6128 
L 492.336 181.68481 
L 492.506737 182.1672 
L 492.458976 182.7216 
L 492.336 182.846289 
L 491.870894 183.276 
L 491.778 183.359322 
L 491.22 183.502928 
L 490.805381 183.8304 
L 490.662 183.920798 
L 490.104 184.064453 
L 489.546 184.195876 
L 489.176967 184.3848 
L 488.988 184.436189 
L 488.43 184.526818 
L 487.872 184.555315 
L 487.314 184.566781 
L 486.756 184.573203 
L 486.198 184.578089 
L 485.64 184.585248 
L 485.082 184.590679 
L 484.524 184.584135 
L 483.966 184.569504 
L 483.408 184.556799 
L 482.85 184.545142 
L 482.292 184.4976 
L 482.097637 184.3848 
L 481.734 184.078099 
L 481.176 183.928484 
L 480.973853 183.8304 
L 480.618 183.559212 
L 480.06 183.462535 
L 479.502 183.391389 
L 479.373937 183.276 
L 478.944 182.857393 
L 478.678871 182.7216 
L 478.386 182.475856 
L 477.828 182.494797 
L 477.565559 182.7216 
L 477.27 183.015252 
L 477.041724 183.276 
L 477.0059 183.8304 
L 477.27 184.162196 
L 477.387805 184.3848 
L 477.828 184.848594 
L 477.919195 184.9392 
L 478.386 185.39306 
L 478.558107 185.4936 
L 478.944 185.786357 
L 479.502 185.842121 
L 480.06 185.873283 
L 480.393521 186.048 
L 480.618 186.262983 
L 481.176 186.518646 
L 481.317474 186.6024 
L 481.734 186.915308 
L 482.292 186.950921 
L 482.85 186.950921 
L 483.408 186.950921 
L 483.966 186.950921 
L 484.524 186.950921 
L 485.082 186.950921 
L 485.64 186.950921 
L 486.198 186.950921 
L 486.756 186.950921 
L 487.314 186.950921 
L 487.872 186.936453 
L 488.43 186.855441 
L 488.988 186.66723 
z
" style="fill:#0000ff;"/>
   </g>
   <g id="patch_22">
    <path clip-path="url(#p32498cbce2)" d="M 466.11 176.803438 
L 465.552 176.824669 
L 464.994 176.812506 
L 464.436 176.767751 
L 463.950832 176.6232 
L 463.878 176.55837 
L 463.32 176.293151 
L 462.762 176.130361 
L 462.664579 176.0688 
L 462.204 175.733525 
L 461.646 175.575961 
L 461.55963 175.5144 
L 461.088 175.160345 
L 460.720151 174.96 
L 460.53 174.771076 
L 460.322784 174.4056 
L 460.322784 173.8512 
L 460.322784 173.2968 
L 460.322784 172.7424 
L 460.370702 172.188 
L 460.53 171.990207 
L 460.87259 171.6336 
L 461.088 171.41958 
L 461.51851 171.0792 
L 461.646 170.993923 
L 462.204 170.879865 
L 462.651448 170.5248 
L 462.762 170.438424 
L 463.233064 169.9704 
L 463.32 169.887484 
L 463.878 169.661744 
L 464.18271 169.416 
L 464.436 169.3032 
L 464.6011 169.416 
L 464.994 169.849318 
L 465.076627 169.9704 
L 465.263045 170.5248 
L 465.552 170.955583 
L 465.614495 171.0792 
L 465.733408 171.6336 
L 465.841408 172.188 
L 466.11 172.511622 
L 466.317383 172.7424 
L 466.668 173.035157 
L 467.226 173.048945 
L 467.400713 173.2968 
L 467.393079 173.8512 
L 467.383359 174.4056 
L 467.226 174.943121 
L 467.209011 174.96 
L 466.869646 175.5144 
L 466.758985 176.0688 
L 466.668 176.233787 
L 466.366216 176.6232 
z
" style="fill:#ffffff;"/>
   </g>
  </g>
 </g>
 <defs>
  <clipPath id="p32498cbce2">
   <rect height="567.7056" width="762.228" x="122.94" y="88.4736"/>
  </clipPath>
 </defs>
</svg>
