<?xml version="1.0" encoding="utf-8" standalone="no"?>
<!DOCTYPE svg PUBLIC "-//W3C//DTD SVG 1.1//EN"
  "http://www.w3.org/Graphics/SVG/1.1/DTD/svg11.dtd">
<!-- Created with matplotlib (https://matplotlib.org/) -->
<svg height="737.28pt" version="1.1" viewBox="0 0 983.52 737.28" width="983.52pt" xmlns="http://www.w3.org/2000/svg" xmlns:xlink="http://www.w3.org/1999/xlink">
 <defs>
  <style type="text/css">
*{stroke-linecap:butt;stroke-linejoin:round;}
  </style>
 </defs>
 <g id="figure_1">
  <g id="patch_1">
   <path d="M 0 737.28 
L 983.52 737.28 
L 983.52 0 
L 0 0 
z
" style="fill:none;"/>
  </g>
  <g id="axes_1">
   <g id="patch_2">
    <path clip-path="url(#p6faee370fa)" d="M 528.467811 150.012 
L 528.606 149.902649 
L 528.995033 149.4576 
L 529.164 149.141059 
L 529.386433 148.9032 
L 529.680063 148.3488 
L 529.722 148.28777 
L 530.070492 147.7944 
L 530.183179 147.24 
L 530.28 147.014973 
L 530.527339 146.6856 
L 530.633027 146.1312 
L 530.825558 145.5768 
L 530.838 145.551795 
L 531.146535 145.0224 
L 531.254874 144.468 
L 531.396 144.047173 
L 531.51315 143.9136 
L 531.732222 143.3592 
L 531.746784 142.8048 
L 531.746784 142.2504 
L 531.746784 141.696 
L 531.746784 141.1416 
L 531.746784 140.5872 
L 531.746784 140.0328 
L 531.72281 139.4784 
L 531.396 138.961282 
L 531.374882 138.924 
L 531.188784 138.3696 
L 530.838 137.846681 
L 530.816882 137.8152 
L 530.630784 137.2608 
L 530.28 136.737881 
L 530.258882 136.7064 
L 530.072784 136.152 
L 529.722 135.753423 
L 529.584861 135.5976 
L 529.164 135.179454 
L 529.026861 135.0432 
L 528.606 134.625054 
L 528.468861 134.4888 
L 528.048 134.070654 
L 527.910861 133.9344 
L 527.49 133.516254 
L 527.354345 133.38 
L 526.932 132.960379 
L 526.757715 132.8256 
L 526.374 132.496832 
L 525.816 132.332761 
L 525.714587 132.2712 
L 525.258 131.942432 
L 524.7 131.778361 
L 524.57079 131.7168 
L 524.142 131.429709 
L 523.584 131.368279 
L 523.026 131.368279 
L 522.468 131.368279 
L 521.91 131.489997 
L 521.647559 131.7168 
L 521.352 132.010452 
L 521.123724 132.2712 
L 521.001216 132.8256 
L 521.079051 133.38 
L 521.352 133.707822 
L 521.502211 133.9344 
L 521.91 134.298233 
L 522.243521 134.4888 
L 522.468 134.703783 
L 523.026 134.959446 
L 523.188191 135.0432 
L 523.584 135.330291 
L 523.847342 135.5976 
L 523.67587 136.152 
L 523.584 136.311385 
L 523.275465 136.7064 
L 523.11787 137.2608 
L 523.026 137.450741 
L 522.753051 137.8152 
L 522.663404 138.3696 
L 522.621806 138.924 
L 522.529961 139.4784 
L 522.468 139.721945 
L 522.304882 140.0328 
L 522.179045 140.5872 
L 522.117216 141.1416 
L 522.117216 141.696 
L 522.117216 142.2504 
L 522.117216 142.8048 
L 522.117216 143.3592 
L 522.117216 143.9136 
L 522.117216 144.468 
L 522.166216 145.0224 
L 522.264091 145.5768 
L 522.468 146.019432 
L 522.497652 146.1312 
L 522.645998 146.6856 
L 522.731342 147.24 
L 523.026 147.613048 
L 523.128124 147.7944 
L 523.393849 148.3488 
L 523.584 148.570066 
L 523.784831 148.9032 
L 524.142 149.257833 
L 524.376703 149.4576 
L 524.7 149.744691 
L 525.258 149.844593 
L 525.816 149.907349 
L 526.273509 150.012 
L 526.374 150.07683 
L 526.932 150.265041 
L 527.49 150.346053 
L 528.048 150.346053 
z
" style="fill:#0000ff;"/>
   </g>
   <g id="patch_3">
    <path clip-path="url(#p6faee370fa)" d="M 525.258 134.535081 
L 525.20964 134.4888 
L 525.258 134.467818 
L 525.281561 134.4888 
z
" style="fill:#ffffff;"/>
   </g>
   <g id="patch_4">
    <path clip-path="url(#p6faee370fa)" d="M 524.7 141.732242 
L 524.668314 141.696 
L 524.500479 141.1416 
L 524.53723 140.5872 
L 524.628439 140.0328 
L 524.7 139.720373 
L 524.82718 139.4784 
L 524.981086 138.924 
L 525.070253 138.3696 
L 525.258 137.88003 
L 525.323251 137.8152 
L 525.816 137.547891 
L 526.374 137.680448 
L 526.695287 137.8152 
L 526.932 138.017477 
L 527.367537 138.3696 
L 527.017618 138.924 
L 526.932 139.025149 
L 526.540292 139.4784 
L 526.374 139.696011 
L 526.05906 140.0328 
L 525.816 140.334159 
L 525.561315 140.5872 
L 525.258 140.98789 
L 525.103292 141.1416 
L 524.727795 141.696 
z
" style="fill:#ffffff;"/>
   </g>
   <g id="patch_5">
    <path clip-path="url(#p6faee370fa)" d="M 527.49 147.272407 
L 526.932 147.396876 
L 526.374 147.452867 
L 525.816 147.477002 
L 525.497373 147.24 
L 525.258 146.993889 
L 525.094375 146.6856 
L 524.990943 146.1312 
L 524.7 145.642083 
L 524.670348 145.5768 
L 524.546823 145.0224 
L 524.53369 144.468 
L 524.7 144.112712 
L 524.900405 143.9136 
L 525.258 143.36791 
L 525.266766 143.3592 
L 525.709712 142.8048 
L 525.816 142.634108 
L 526.151791 142.2504 
L 526.374 141.965476 
L 526.615905 141.696 
L 526.932 141.272546 
L 527.063796 141.1416 
L 527.449734 140.5872 
L 527.49 140.551137 
L 527.89639 140.0328 
L 528.048 139.839549 
L 528.378903 139.4784 
L 528.606 139.281155 
L 529.164 139.409546 
L 529.225961 139.4784 
L 529.361441 140.0328 
L 529.371216 140.5872 
L 529.371216 141.1416 
L 529.371216 141.696 
L 529.371216 142.2504 
L 529.371216 142.8048 
L 529.313329 143.3592 
L 529.164 143.688295 
L 528.953898 143.9136 
L 528.821527 144.468 
L 528.712833 145.0224 
L 528.606 145.238539 
L 528.335109 145.5768 
L 528.187395 146.1312 
L 528.089054 146.6856 
L 528.048 146.736921 
L 527.531213 147.24 
z
" style="fill:#ffffff;"/>
   </g>
   <g id="patch_6">
    <path clip-path="url(#p6faee370fa)" d="M 505.106679 187.1568 
L 505.17 187.135818 
L 505.728 187.01104 
L 506.286 186.941497 
L 506.779524 186.6024 
L 506.844 186.554861 
L 507.402 186.268998 
L 507.658655 186.048 
L 507.96 185.894411 
L 508.418623 185.4936 
L 508.518 185.402994 
L 508.984805 184.9392 
L 509.076 184.824809 
L 509.602314 184.3848 
L 509.634 184.360805 
L 510.100805 183.8304 
L 510.192 183.741234 
L 510.660255 183.276 
L 510.75 183.186834 
L 511.218255 182.7216 
L 511.308 182.605606 
L 511.656492 182.1672 
L 511.78498 181.6128 
L 511.866 181.438228 
L 512.138949 181.0584 
L 512.271952 180.504 
L 512.424 180.066721 
L 512.530642 179.9496 
L 512.760222 179.3952 
L 512.774784 178.8408 
L 512.774784 178.2864 
L 512.774784 177.732 
L 512.774784 177.1776 
L 512.774784 176.6232 
L 512.774784 176.0688 
L 512.774784 175.5144 
L 512.774784 174.96 
L 512.774784 174.4056 
L 512.774784 173.8512 
L 512.774784 173.2968 
L 512.774784 172.7424 
L 512.774784 172.188 
L 512.774784 171.6336 
L 512.760222 171.0792 
L 512.613808 170.5248 
L 512.424 170.164958 
L 512.368388 169.9704 
L 512.219027 169.416 
L 512.132256 168.8616 
L 511.931865 168.3072 
L 511.866 168.23079 
L 511.725469 167.7528 
L 511.638903 167.1984 
L 511.308 166.69475 
L 511.270138 166.644 
L 510.815251 166.0896 
L 510.75 166.02477 
L 510.45369 165.5352 
L 510.192 165.215087 
L 510.016912 164.9808 
L 509.634 164.603189 
L 509.456063 164.4264 
L 509.076 164.101698 
L 508.518 163.892982 
L 508.489779 163.872 
L 507.96 163.462323 
L 507.671952 163.3176 
L 507.402 163.102617 
L 506.844 162.848419 
L 506.693668 162.7632 
L 506.286 162.492012 
L 505.728 162.307775 
L 505.570258 162.2088 
L 505.17 161.899032 
L 504.612 161.730648 
L 504.387667 161.6544 
L 504.054 161.448703 
L 503.496 161.30365 
L 502.938 161.112362 
L 502.904431 161.1 
L 502.38 160.835462 
L 501.822 160.732135 
L 501.264 160.566582 
L 501.222857 160.5456 
L 500.706 160.234328 
L 500.148 160.07971 
L 499.85579 159.9912 
L 499.59 159.825278 
L 499.032 159.678292 
L 498.474 159.539873 
L 498.143502 159.4368 
L 497.916 159.29181 
L 497.358 159.130255 
L 496.8 159.048085 
L 496.242 158.891446 
L 496.23168 158.8824 
L 495.77962 158.328 
L 495.684 158.232997 
L 495.409192 157.7736 
L 495.126 157.327179 
L 495.07169 157.2192 
L 494.860903 156.6648 
L 494.568 156.124555 
L 494.561467 156.1104 
L 494.32802 155.556 
L 494.048881 155.0016 
L 494.01 154.96297 
L 493.84796 154.4472 
L 493.837635 153.8928 
L 494.01 153.40323 
L 494.075251 153.3384 
L 494.331023 152.784 
L 494.568 152.29504 
L 494.633865 152.2296 
L 494.930596 151.6752 
L 495.084946 151.1208 
L 495.126 151.02274 
L 495.398949 150.5664 
L 495.5807 150.012 
L 495.684 149.761849 
L 495.891033 149.4576 
L 496.06443 148.9032 
L 496.242 148.513406 
L 496.387931 148.3488 
L 496.8 147.982983 
L 496.995604 147.7944 
L 497.358 147.600893 
L 497.785465 147.24 
L 497.916 147.138535 
L 498.474 146.791554 
L 498.580642 146.6856 
L 499.032 146.388993 
L 499.358045 146.1312 
L 499.59 146.009301 
L 500.148 145.754574 
L 500.349176 145.5768 
L 500.706 145.409914 
L 501.264 145.265467 
L 501.680717 145.0224 
L 501.822 144.971011 
L 502.38 144.841253 
L 502.938 144.846339 
L 503.496 144.861405 
L 503.908069 145.0224 
L 504.054 145.16739 
L 504.612 145.378566 
L 504.991072 145.5768 
L 505.17 145.878068 
L 505.247918 146.1312 
L 505.371749 146.6856 
L 505.511621 147.24 
L 505.728 147.747585 
L 505.740304 147.7944 
L 505.901949 148.3488 
L 505.995057 148.9032 
L 506.163537 149.4576 
L 506.286 149.650127 
L 506.388266 150.012 
L 506.507653 150.5664 
L 506.680882 151.1208 
L 506.844 151.346214 
L 506.949331 151.6752 
L 507.036472 152.2296 
L 507.131318 152.784 
L 507.402 153.239021 
L 507.443054 153.3384 
L 507.56824 153.8928 
L 507.609216 154.4472 
L 507.691408 155.0016 
L 507.96 155.325222 
L 508.167383 155.556 
L 508.518 155.848757 
L 509.076 155.862545 
L 509.463553 155.556 
L 509.634 155.348965 
L 509.900256 155.0016 
L 509.984784 154.4472 
L 509.970222 153.8928 
L 509.837591 153.3384 
L 509.634 152.97758 
L 509.572816 152.784 
L 509.431222 152.2296 
L 509.348949 151.6752 
L 509.076 151.144614 
L 509.066895 151.1208 
L 508.92128 150.5664 
L 508.81644 150.012 
L 508.659618 149.4576 
L 508.518 149.229076 
L 508.423691 148.9032 
L 508.322596 148.3488 
L 508.182433 147.7944 
L 507.96 147.39821 
L 507.908277 147.24 
L 507.791506 146.6856 
L 507.679176 146.1312 
L 507.486047 145.5768 
L 507.402 145.457651 
L 507.2761 145.0224 
L 507.165023 144.468 
L 506.844 144.12536 
L 506.63786 143.9136 
L 506.286 143.587438 
L 505.793865 143.3592 
L 505.728 143.29376 
L 505.17 143.043232 
L 504.612 142.867942 
L 504.48279 142.8048 
L 504.054 142.517709 
L 503.496 142.456279 
L 502.938 142.456279 
L 502.38 142.456279 
L 501.822 142.525527 
L 501.379413 142.8048 
L 501.264 142.856189 
L 500.706 143.003034 
L 500.148 143.124188 
L 499.749366 143.3592 
L 499.59 143.417838 
L 499.032 143.60862 
L 498.680935 143.9136 
L 498.474 144.048684 
L 497.926517 144.468 
L 497.916 144.477046 
L 497.358 144.729643 
L 496.941784 145.0224 
L 496.8 145.108946 
L 496.340206 145.5768 
L 496.242 145.661824 
L 495.684 145.883065 
L 495.379775 146.1312 
L 495.126 146.295517 
L 494.759332 146.6856 
L 494.568 146.928457 
L 494.279045 147.24 
L 494.041511 147.7944 
L 494.01 147.89063 
L 493.781724 148.3488 
L 493.557999 148.9032 
L 493.452 149.17603 
L 493.258478 149.4576 
L 493.075883 150.012 
L 492.894 150.489025 
L 492.822121 150.5664 
L 492.556425 151.1208 
L 492.426985 151.6752 
L 492.336 151.814436 
L 492.002278 152.2296 
L 491.778 152.725311 
L 491.71893 152.784 
L 491.505051 153.3384 
L 491.427216 153.8928 
L 491.427216 154.4472 
L 491.427216 155.0016 
L 491.427216 155.556 
L 491.427216 156.1104 
L 491.427216 156.6648 
L 491.509408 157.2192 
L 491.778 157.555281 
L 491.895805 157.7736 
L 492.336 158.304005 
L 492.367686 158.328 
L 492.894 158.768009 
L 492.985195 158.8824 
L 493.452 159.412805 
L 493.483686 159.4368 
L 494.01 159.959719 
L 494.041415 159.9912 
L 494.568 160.420261 
L 494.704198 160.5456 
L 495.126 160.882204 
L 495.684 161.013673 
L 495.97621 161.1 
L 496.242 161.265922 
L 496.8 161.415968 
L 497.358 161.552923 
L 497.683246 161.6544 
L 497.916 161.803587 
L 498.474 161.965672 
L 499.032 162.058587 
L 499.444537 162.2088 
L 499.59 162.33516 
L 500.148 162.541493 
L 500.706 162.67906 
L 500.96367 162.7632 
L 501.264 162.955473 
L 501.822 163.10358 
L 502.38 163.293042 
L 502.446381 163.3176 
L 502.938 163.575393 
L 503.496 163.692994 
L 503.985167 163.872 
L 504.054 163.93683 
L 504.612 164.231202 
L 505.079818 164.4264 
L 505.17 164.516001 
L 505.728 164.854417 
L 505.915253 164.9808 
L 506.286 165.301147 
L 506.668719 165.5352 
L 506.844 165.709351 
L 507.402 165.999621 
L 507.524586 166.0896 
L 507.96 166.446176 
L 508.155361 166.644 
L 508.518 166.976818 
L 508.738548 167.1984 
L 509.076 167.550058 
L 509.244967 167.7528 
L 509.426967 168.3072 
L 509.634 168.711108 
L 509.677875 168.8616 
L 509.809562 169.416 
L 509.850702 169.9704 
L 509.950095 170.5248 
L 510.192 170.856327 
L 510.284444 171.0792 
L 510.346763 171.6336 
L 510.356862 172.188 
L 510.362737 172.7424 
L 510.369125 173.2968 
L 510.375163 173.8512 
L 510.382535 174.4056 
L 510.396973 174.96 
L 510.399216 175.5144 
L 510.399216 176.0688 
L 510.399216 176.6232 
L 510.399216 177.1776 
L 510.399216 177.732 
L 510.399216 178.2864 
L 510.399216 178.8408 
L 510.333788 179.3952 
L 510.192 179.749722 
L 510.013072 179.9496 
L 509.827408 180.504 
L 509.685723 181.0584 
L 509.634 181.121096 
L 509.210889 181.6128 
L 509.076 181.74546 
L 508.651521 182.1672 
L 508.518 182.29774 
L 508.091388 182.7216 
L 507.96 182.846229 
L 507.527438 183.276 
L 507.402 183.40195 
L 506.970768 183.8304 
L 506.844 183.951452 
L 506.286 184.163802 
L 506.03473 184.3848 
L 505.728 184.567373 
L 505.17 184.833246 
L 505.012891 184.9392 
L 504.612 185.043851 
L 504.054 185.093589 
L 503.496 185.093589 
L 502.938 185.074595 
L 502.38 184.971607 
L 502.257935 184.9392 
L 501.822 184.736923 
L 501.264 184.621659 
L 500.706 184.515302 
L 500.209284 184.3848 
L 500.148 184.339526 
L 499.59 184.124798 
L 499.032 184.03405 
L 498.474 183.953778 
L 498.078137 183.8304 
L 497.916 183.70404 
L 497.358 183.517492 
L 496.8 183.429508 
L 496.242 183.285046 
L 496.228295 183.276 
L 495.684 182.926412 
L 495.289118 182.7216 
L 495.126 182.559534 
L 494.568 182.268188 
L 494.416319 182.1672 
L 494.01 181.838432 
L 493.802784 181.6128 
L 493.802784 181.0584 
L 493.740955 180.504 
L 493.452 180.172241 
L 493.186871 179.9496 
L 492.894 179.703856 
L 492.336 179.722797 
L 492.073559 179.9496 
L 491.778 180.243252 
L 491.549724 180.504 
L 491.427216 181.0584 
L 491.427216 181.6128 
L 491.427216 182.1672 
L 491.5139 182.7216 
L 491.778 183.040864 
L 491.934835 183.276 
L 492.336 183.624521 
L 492.894 183.809418 
L 492.922202 183.8304 
L 493.452 184.220302 
L 493.764755 184.3848 
L 494.01 184.599783 
L 494.568 184.848071 
L 494.684747 184.9392 
L 495.126 185.285443 
L 495.684 185.388949 
L 495.969737 185.4936 
L 496.242 185.695877 
L 496.8 185.842121 
L 497.358 185.930113 
L 497.823766 186.048 
L 497.916 186.11344 
L 498.474 186.312538 
L 499.032 186.402055 
L 499.59 186.520731 
L 499.818763 186.6024 
L 500.148 186.817383 
L 500.706 186.936453 
L 501.264 186.989393 
L 501.822 187.052149 
L 502.279509 187.1568 
L 502.38 187.22163 
L 502.938 187.409841 
L 503.496 187.490853 
L 504.054 187.495897 
L 504.612 187.402544 
z
" style="fill:#0000ff;"/>
   </g>
   <g id="patch_7">
    <path clip-path="url(#p6faee370fa)" d="M 438.597553 185.4936 
L 438.768 185.286565 
L 439.034256 184.9392 
L 439.036592 184.3848 
L 438.768 184.061178 
L 438.643157 183.8304 
L 438.355931 183.276 
L 438.21 183.13101 
L 437.955424 182.7216 
L 437.652 182.180346 
L 437.645764 182.1672 
L 437.482716 181.6128 
L 437.466097 181.0584 
L 437.431452 180.504 
L 437.26891 179.9496 
L 437.094 179.672084 
L 437.003564 179.3952 
L 436.861459 178.8408 
L 436.706805 178.2864 
L 436.536 178.017853 
L 436.442779 177.732 
L 436.303459 177.1776 
L 436.144999 176.6232 
L 435.978 176.363596 
L 435.881714 176.0688 
L 435.743952 175.5144 
L 435.583118 174.96 
L 435.42 174.75802 
L 435.296887 174.4056 
L 435.221574 173.8512 
L 435.42 173.635897 
L 435.978 173.534628 
L 436.390619 173.2968 
L 436.536 173.245411 
L 437.094 173.12636 
L 437.652 173.048945 
L 438.21 172.848354 
L 438.339767 172.7424 
L 438.768 172.61248 
L 439.326 172.53875 
L 439.884 172.33299 
L 440.043845 172.188 
L 440.442 172.03957 
L 441 171.920691 
L 441.41184 171.6336 
L 441.558 171.5625 
L 442.116 171.44144 
L 442.674 171.358473 
L 443.232 171.20556 
L 443.475544 171.0792 
L 443.79 171.0081 
L 444.348 170.922172 
L 444.906 170.903998 
L 445.464 170.895441 
L 446.022 170.88797 
L 446.58 170.881955 
L 447.138 170.88797 
L 447.696 170.927011 
L 448.22084 171.0792 
L 447.842153 171.6336 
L 447.696 171.8638 
L 447.414914 172.188 
L 447.312713 172.7424 
L 447.209561 173.2968 
L 447.138 173.493649 
L 446.909724 173.8512 
L 446.787216 174.4056 
L 446.632823 174.96 
L 446.58 175.147423 
L 446.390192 175.5144 
L 446.291045 176.0688 
L 446.285342 176.6232 
L 446.478538 177.1776 
L 446.58 177.297223 
L 446.75504 177.732 
L 446.901462 178.2864 
L 447.138 178.682462 
L 447.202096 178.8408 
L 447.38106 179.3952 
L 447.696 179.785678 
L 447.804528 179.9496 
L 448.254 180.413394 
L 448.345195 180.504 
L 448.812 180.967794 
L 448.903195 181.0584 
L 449.37 181.51226 
L 449.512353 181.6128 
L 449.928 181.941568 
L 450.486 182.028221 
L 450.99818 182.1672 
L 451.044 182.20583 
L 451.602 182.459957 
L 452.16 182.546398 
L 452.718 182.641103 
L 452.946763 182.7216 
L 453.276 182.936583 
L 453.834 183.055653 
L 454.392 183.070121 
L 454.95 183.034508 
L 455.508 182.959428 
L 456.066 182.827554 
L 456.329167 182.7216 
L 456.624 182.670211 
L 457.182 182.593356 
L 457.74 182.556363 
L 458.298 182.507463 
L 458.748046 182.1672 
L 458.856 182.092354 
L 459.414 181.696305 
L 459.498047 181.6128 
L 459.972 181.311441 
L 460.235114 181.0584 
L 460.53 180.85104 
L 460.903231 180.504 
L 461.088 180.353368 
L 461.530764 179.9496 
L 461.646 179.814781 
L 461.996784 179.3952 
L 462.143269 178.8408 
L 462.204 178.692789 
L 462.445905 178.2864 
L 462.595479 177.732 
L 462.762 177.320635 
L 462.87915 177.1776 
L 463.216935 176.6232 
L 463.32 176.536393 
L 463.411195 176.6232 
L 463.878 177.086994 
L 463.969195 177.1776 
L 464.436 177.641394 
L 464.527195 177.732 
L 464.994 178.18586 
L 465.115295 178.2864 
L 465.552 178.650233 
L 465.885521 178.8408 
L 466.11 179.055783 
L 466.4039 179.3952 
L 466.668 179.714464 
L 466.875383 179.9496 
L 467.226 180.242357 
L 467.784 180.256145 
L 468.171553 179.9496 
L 468.342 179.780253 
L 468.650535 179.3952 
L 468.692784 178.8408 
L 468.692784 178.2864 
L 468.692784 177.732 
L 468.692784 177.1776 
L 468.692784 176.6232 
L 468.692784 176.0688 
L 468.692784 175.5144 
L 468.692784 174.96 
L 468.692784 174.4056 
L 468.692784 173.8512 
L 468.692784 173.2968 
L 468.711363 172.7424 
L 468.9 172.459188 
L 469.190438 172.188 
L 469.458 172.013044 
L 469.923298 171.6336 
L 470.016 171.559564 
L 470.574 171.268124 
L 470.764151 171.0792 
L 471.132 170.909418 
L 471.69 170.91472 
L 472.248 170.974549 
L 472.705509 171.0792 
L 472.806 171.14403 
L 473.364 171.332241 
L 473.922 171.420733 
L 474.48 171.480786 
L 475.038 171.592811 
L 475.165844 171.6336 
L 475.596 171.860403 
L 476.154 171.978629 
L 476.712 172.065682 
L 477.066709 172.188 
L 477.27 172.350066 
L 477.828 172.549206 
L 478.386 172.721418 
L 478.42848 172.7424 
L 478.944 173.048945 
L 479.502 173.076453 
L 479.890432 172.7424 
L 480.06 172.549147 
L 480.368535 172.188 
L 480.381023 171.6336 
L 480.06 171.29096 
L 479.852446 171.0792 
L 479.502 170.754498 
L 478.944 170.586361 
L 478.832482 170.5248 
L 478.386 170.211892 
L 477.828 170.117514 
L 477.342832 169.9704 
L 477.27 169.90557 
L 476.712 169.656026 
L 476.154 169.58644 
L 475.596 169.512196 
L 475.258037 169.416 
L 475.038 169.27101 
L 474.48 169.116163 
L 473.922 169.048135 
L 473.364 169.004257 
L 472.806 168.912989 
L 472.617033 168.8616 
L 472.248 168.672676 
L 471.69 168.548692 
L 471.132 168.454937 
L 470.646832 168.3072 
L 470.574 168.24237 
L 470.016 168.014443 
L 469.458 168.061456 
L 469.114993 168.3072 
L 468.9 168.398477 
L 468.342 168.555055 
L 467.989452 168.8616 
L 467.784 169.00681 
L 467.363139 169.416 
L 467.226 169.552254 
L 466.814153 169.9704 
L 466.668 170.253177 
L 466.439724 170.5248 
L 466.317216 171.0792 
L 466.317216 171.6336 
L 466.309622 172.188 
L 466.11 172.530357 
L 465.877655 172.7424 
L 465.552 172.974292 
L 465.09866 173.2968 
L 464.994 173.363701 
L 464.512694 173.8512 
L 464.436 173.913694 
L 464.348395 173.8512 
L 463.878 173.327513 
L 463.856882 173.2968 
L 463.676148 172.7424 
L 463.32 172.218274 
L 463.298882 172.188 
L 463.104473 171.6336 
L 462.762 171.270507 
L 462.559618 171.0792 
L 462.204 170.749151 
L 461.712478 170.5248 
L 461.646 170.458751 
L 461.088 170.122191 
L 460.786647 169.9704 
L 460.53 169.732572 
L 459.972 169.515954 
L 459.769853 169.416 
L 459.414 169.144812 
L 458.856 169.067479 
L 458.298 169.067479 
L 457.74 169.067479 
L 457.182 169.067479 
L 456.624 169.067479 
L 456.066 169.067479 
L 455.508 169.067479 
L 455.300784 168.8616 
L 455.238955 168.3072 
L 454.95 167.975441 
L 454.684871 167.7528 
L 454.392 167.507056 
L 453.834 167.404279 
L 453.276 167.481612 
L 452.909175 167.7528 
L 452.718 167.844077 
L 452.16 168.000655 
L 451.76242 168.3072 
L 451.602 168.398477 
L 451.044 168.555055 
L 450.691452 168.8616 
L 450.486 169.005272 
L 449.928 169.116328 
L 449.37 169.035951 
L 448.812 168.957796 
L 448.474037 168.8616 
L 448.254 168.71661 
L 447.696 168.568843 
L 447.138 168.513079 
L 446.58 168.513079 
L 446.022 168.513079 
L 445.464 168.513079 
L 444.906 168.513079 
L 444.348 168.574509 
L 443.79 168.699534 
L 443.477126 168.8616 
L 443.232 168.923161 
L 442.674 169.013789 
L 442.116 169.055743 
L 441.558 169.136727 
L 441.115413 169.416 
L 441 169.467389 
L 440.442 169.60816 
L 439.884 169.792626 
L 439.673579 169.9704 
L 439.326 170.10272 
L 438.768 170.211892 
L 438.21 170.418846 
L 438.080233 170.5248 
L 437.652 170.654175 
L 437.094 170.710371 
L 436.536 170.799734 
L 436.097602 171.0792 
L 435.978 171.132801 
L 435.42 171.236165 
L 435.212784 171.0792 
L 435.212784 170.5248 
L 435.14328 169.9704 
L 435.058831 169.416 
L 434.914733 168.8616 
L 434.862 168.738883 
L 434.792745 168.3072 
L 434.71748 167.7528 
L 434.692716 167.1984 
L 434.654784 166.644 
L 434.654784 166.0896 
L 434.654784 165.5352 
L 434.654784 164.9808 
L 434.654784 164.4264 
L 434.654784 163.872 
L 434.654784 163.3176 
L 434.640222 162.7632 
L 434.494151 162.2088 
L 434.304 161.848612 
L 434.24808 161.6544 
L 434.097966 161.1 
L 434.0101 160.5456 
L 433.80507 159.9912 
L 433.746 159.922513 
L 433.605469 159.4368 
L 433.543222 158.8824 
L 433.538784 158.328 
L 433.538784 157.7736 
L 433.538784 157.2192 
L 433.538784 156.6648 
L 433.538784 156.1104 
L 433.538784 155.556 
L 433.538784 155.0016 
L 433.538784 154.4472 
L 433.476955 153.8928 
L 433.188 153.549776 
L 433.053798 153.3384 
L 432.63 152.917336 
L 432.502681 152.784 
L 432.422784 152.2296 
L 432.433534 151.6752 
L 432.546982 151.1208 
L 432.63 151.034424 
L 433.188 150.789908 
L 433.412959 150.5664 
L 433.746 150.379953 
L 434.163867 150.012 
L 434.304 149.887371 
L 434.782144 149.4576 
L 434.862 149.3865 
L 435.42 149.294478 
L 435.978 149.274692 
L 436.536 149.25395 
L 437.094 149.251721 
L 437.652 149.268294 
L 438.21 149.436618 
L 438.247524 149.4576 
L 438.768 149.782302 
L 439.326 149.806121 
L 439.884 149.875746 
L 440.0491 150.012 
L 440.442 150.351097 
L 441 150.545418 
L 441.027419 150.5664 
L 441.558 150.934265 
L 441.733562 151.1208 
L 441.81773 151.6752 
L 442.116 152.107711 
L 442.177961 152.2296 
L 442.314426 152.784 
L 442.323216 153.3384 
L 442.4099 153.8928 
L 442.674 154.212064 
L 442.838071 154.4472 
L 443.232 154.787463 
L 443.434778 155.0016 
L 443.5259 155.556 
L 443.79 155.875264 
L 443.997383 156.1104 
L 444.348 156.403157 
L 444.633051 156.6648 
L 444.906 156.992622 
L 445.089138 157.2192 
L 445.464 157.538152 
L 446.022 157.543902 
L 446.58 157.28403 
L 446.645251 157.2192 
L 447.138 157.02704 
L 447.571045 156.6648 
L 447.696 156.518409 
L 448.032222 156.1104 
L 448.046784 155.556 
L 447.984955 155.0016 
L 447.696 154.669841 
L 447.430871 154.4472 
L 447.138 154.201456 
L 446.58 154.220397 
L 446.022 154.201456 
L 445.785023 153.8928 
L 445.464 153.530933 
L 445.275568 153.3384 
L 444.906 153.013698 
L 444.698784 152.784 
L 444.67481 152.2296 
L 444.348 151.712482 
L 444.326882 151.6752 
L 444.157465 151.1208 
L 444.140784 150.5664 
L 444.111023 150.012 
L 443.79 149.650133 
L 443.601568 149.4576 
L 443.232 149.132898 
L 442.674 148.964761 
L 442.575836 148.9032 
L 442.116 148.569147 
L 441.856099 148.3488 
L 441.558 148.008343 
L 441.292871 147.7944 
L 441 147.548656 
L 440.442 147.440448 
L 439.884 147.42742 
L 439.326 147.414351 
L 438.768 147.301561 
L 438.63879 147.24 
L 438.21 146.952909 
L 437.652 146.891479 
L 437.094 146.891479 
L 436.536 146.891479 
L 435.978 146.891479 
L 435.42 146.891479 
L 434.862 146.891479 
L 434.304 146.891479 
L 433.746 146.977604 
L 433.457133 147.24 
L 433.188 147.463795 
L 432.879465 147.7944 
L 432.693239 148.3488 
L 432.63 148.411631 
L 432.072 148.596655 
L 431.67442 148.9032 
L 431.514 148.994477 
L 430.956 149.151055 
L 430.623249 149.4576 
L 430.398 149.724996 
L 430.1339 150.012 
L 430.047216 150.5664 
L 430.047216 151.1208 
L 430.047216 151.6752 
L 430.047216 152.2296 
L 430.047216 152.784 
L 430.1339 153.3384 
L 430.398 153.670196 
L 430.514602 153.8928 
L 430.956 154.357574 
L 431.044296 154.4472 
L 431.163216 155.0016 
L 431.163216 155.556 
L 431.163216 156.1104 
L 431.163216 156.6648 
L 431.163216 157.2192 
L 431.163216 157.7736 
L 431.163216 158.328 
L 431.163216 158.8824 
L 431.212216 159.4368 
L 431.324192 159.9912 
L 431.514 160.351042 
L 431.56876 160.5456 
L 431.69034 161.1 
L 431.731888 161.6544 
L 431.827354 162.2088 
L 432.072 162.547016 
L 432.162118 162.7632 
L 432.225114 163.3176 
L 432.236862 163.872 
L 432.242811 164.4264 
L 432.249125 164.9808 
L 432.255163 165.5352 
L 432.262535 166.0896 
L 432.275922 166.644 
L 432.30319 167.1984 
L 432.34872 167.7528 
L 432.433169 168.3072 
L 432.577915 168.8616 
L 432.63 168.987143 
L 432.69669 169.416 
L 432.767382 169.9704 
L 432.803116 170.5248 
L 432.810585 171.0792 
L 432.63 171.273439 
L 432.072 171.341018 
L 431.514 171.471534 
L 431.201126 171.6336 
L 430.956 171.695161 
L 430.398 171.784492 
L 429.84 171.818304 
L 429.282 171.895418 
L 428.724 172.025934 
L 428.411126 172.188 
L 428.166 172.249561 
L 427.608 172.338892 
L 427.05 172.372704 
L 426.492 172.527417 
L 426.267521 172.7424 
L 425.934 173.086656 
L 425.730409 173.2968 
L 425.686661 173.8512 
L 425.934 174.114203 
L 426.19345 174.4056 
L 426.492 174.684873 
L 427.05 174.744697 
L 427.608 174.676788 
L 428.166 174.489105 
L 428.312298 174.4056 
L 428.724 174.316064 
L 429.282 174.243148 
L 429.84 174.197443 
L 430.398 174.122388 
L 430.956 173.97756 
L 431.199544 173.8512 
L 431.514 173.7801 
L 432.072 173.690858 
L 432.63 173.655033 
L 432.837216 173.8512 
L 432.886216 174.4056 
L 433.01309 174.96 
L 433.188 175.237516 
L 433.278935 175.5144 
L 433.422048 176.0688 
L 433.575195 176.6232 
L 433.746 176.891747 
L 433.839221 177.1776 
L 433.981573 177.732 
L 434.132815 178.2864 
L 434.304 178.55539 
L 434.397736 178.8408 
L 434.540977 179.3952 
L 434.695001 179.9496 
L 434.862 180.13046 
L 435.009384 180.504 
L 435.069216 181.0584 
L 435.069216 181.6128 
L 435.069216 182.1672 
L 435.069216 182.7216 
L 435.151408 183.276 
L 435.42 183.612081 
L 435.537805 183.8304 
L 435.978 184.360805 
L 436.009686 184.3848 
L 436.536 184.907719 
L 436.567686 184.9392 
L 437.094 185.367378 
L 437.266107 185.4936 
L 437.652 185.786357 
L 438.21 185.800145 
z
" style="fill:#0000ff;"/>
   </g>
   <g id="patch_8">
    <path clip-path="url(#p6faee370fa)" d="M 332.570814 194.364 
L 332.748 194.197086 
L 333.073459 193.8096 
L 333.145981 193.2552 
L 333.231575 192.7008 
L 333.306 192.467634 
L 333.503161 192.1464 
L 333.652261 191.592 
L 333.699819 191.0376 
L 333.763089 190.4832 
L 333.864 190.279792 
L 334.141176 189.9288 
L 334.242313 189.3744 
L 334.316157 188.82 
L 334.422 188.536106 
L 334.625591 188.2656 
L 334.784596 187.7112 
L 334.889882 187.1568 
L 334.98 186.935521 
L 335.219373 186.6024 
L 335.347465 186.048 
L 335.476039 185.4936 
L 335.538 185.348633 
L 335.804471 184.9392 
L 335.928992 184.3848 
L 336.096 183.86903 
L 336.134881 183.8304 
L 336.445699 183.276 
L 336.608218 182.7216 
L 336.654 182.648384 
L 336.983731 182.1672 
L 337.212 181.613088 
L 337.5059 182.1672 
L 337.77 182.486464 
L 337.977383 182.7216 
L 338.328 183.014357 
L 338.886 183.070121 
L 339.444 183.070121 
L 340.002 183.070121 
L 340.56 183.055653 
L 341.118 182.78643 
L 341.183251 182.7216 
L 341.676 182.538692 
L 342.234 182.369477 
L 342.506263 182.1672 
L 342.792 182.062549 
L 343.35 181.967865 
L 343.908 181.67763 
L 343.973251 181.6128 
L 344.466 181.444609 
L 345.024 181.422491 
L 345.582 181.399933 
L 345.976882 181.6128 
L 346.14 181.8678 
L 346.236769 182.1672 
L 346.37998 182.7216 
L 346.526815 183.276 
L 346.698 183.461215 
L 346.845384 183.8304 
L 346.94106 184.3848 
L 347.256 184.898774 
L 347.277118 184.9392 
L 347.439163 185.4936 
L 347.597621 186.048 
L 347.814 186.319116 
L 347.929072 186.6024 
L 348.041097 187.1568 
L 348.193072 187.7112 
L 348.372 187.980688 
L 348.462118 188.2656 
L 348.546713 188.82 
L 348.635342 189.3744 
L 348.93 189.747448 
L 349.031121 189.9288 
L 349.297849 190.4832 
L 349.488 190.672124 
L 349.674776 191.0376 
L 349.7819 191.592 
L 350.046 191.911264 
L 350.253383 192.1464 
L 350.604 192.439157 
L 351.162 192.452945 
L 351.549553 192.1464 
L 351.72 191.977053 
L 352.028535 191.592 
L 352.070784 191.0376 
L 352.070784 190.4832 
L 352.070784 189.9288 
L 352.070784 189.3744 
L 352.070784 188.82 
L 352.03494 188.2656 
L 351.72 187.851761 
L 351.637762 187.7112 
L 351.478416 187.1568 
L 351.162 186.799191 
L 351.039988 186.6024 
L 350.997138 186.048 
L 350.983922 185.4936 
L 350.968498 184.9392 
L 350.892955 184.3848 
L 350.604 184.053041 
L 350.338871 183.8304 
L 350.046 183.584656 
L 349.488 183.603597 
L 349.075931 183.276 
L 348.93 183.049966 
L 348.82947 182.7216 
L 348.701599 182.1672 
L 348.538999 181.6128 
L 348.372 181.406513 
L 348.248887 181.0584 
L 348.372 180.910012 
L 348.93 180.864161 
L 349.488 180.813768 
L 349.888258 180.504 
L 350.046 180.404525 
L 350.503879 179.9496 
L 350.604 179.790215 
L 350.912535 179.3952 
L 350.892955 178.8408 
L 350.604 178.509041 
L 350.338871 178.2864 
L 350.046 178.040656 
L 349.488 178.059597 
L 349.214613 178.2864 
L 348.93 178.422843 
L 348.372 178.492279 
L 347.814 178.492279 
L 347.256 178.472935 
L 347.02481 178.2864 
L 346.698 177.769282 
L 346.676882 177.732 
L 346.507465 177.1776 
L 346.490784 176.6232 
L 346.490784 176.0688 
L 346.490784 175.5144 
L 346.490784 174.96 
L 346.490784 174.4056 
L 346.490784 173.8512 
L 346.490784 173.2968 
L 346.490784 172.7424 
L 346.476222 172.188 
L 346.35342 171.6336 
L 346.14 171.103956 
L 346.133834 171.0792 
L 346.019701 170.5248 
L 345.960313 169.9704 
L 345.938354 169.416 
L 345.869309 168.8616 
L 345.666615 168.3072 
L 345.582 168.202113 
L 345.45431 167.7528 
L 345.421335 167.1984 
L 345.416383 166.644 
L 345.411189 166.0896 
L 345.406516 165.5352 
L 345.401415 164.9808 
L 345.395224 164.4264 
L 345.388592 163.872 
L 345.383474 163.3176 
L 345.360222 162.7632 
L 345.213808 162.2088 
L 345.024 161.848958 
L 344.968666 161.6544 
L 344.819027 161.1 
L 344.732256 160.5456 
L 344.531865 159.9912 
L 344.466 159.91479 
L 344.324874 159.4368 
L 344.238903 158.8824 
L 343.908 158.478703 
L 343.80381 158.328 
L 343.415251 157.7736 
L 343.35 157.70877 
L 343.073086 157.2192 
L 342.792 156.931513 
L 342.619632 156.6648 
L 342.522955 156.1104 
L 342.234 155.778641 
L 341.968871 155.556 
L 341.676 155.310256 
L 341.118 155.329197 
L 340.855559 155.556 
L 340.56 155.835528 
L 340.317842 156.1104 
L 340.002 156.350279 
L 339.66145 156.6648 
L 339.444 156.932196 
L 339.1799 157.2192 
L 339.093216 157.7736 
L 339.093216 158.328 
L 339.093216 158.8824 
L 339.093216 159.4368 
L 339.093216 159.9912 
L 339.093216 160.5456 
L 339.093216 161.1 
L 339.093216 161.6544 
L 339.093216 162.2088 
L 339.093216 162.7632 
L 339.093216 163.3176 
L 339.093216 163.872 
L 339.093216 164.4264 
L 339.093216 164.9808 
L 339.093216 165.5352 
L 339.093216 166.0896 
L 339.093216 166.644 
L 339.093216 167.1984 
L 339.093216 167.7528 
L 339.093216 168.3072 
L 339.093216 168.8616 
L 339.059872 169.416 
L 338.886 169.946308 
L 338.861752 169.9704 
L 338.6219 170.5248 
L 338.521408 171.0792 
L 338.414341 171.6336 
L 338.349118 172.188 
L 338.328 172.233703 
L 338.031437 172.7424 
L 337.936309 173.2968 
L 337.785178 173.8512 
L 337.77 173.883688 
L 337.469877 174.4056 
L 337.397816 174.96 
L 337.324633 175.5144 
L 337.212 175.697862 
L 336.895584 176.0688 
L 336.79601 176.6232 
L 336.705723 177.1776 
L 336.654 177.269901 
L 336.33598 177.732 
L 336.153131 178.2864 
L 336.096 178.428306 
L 335.846253 178.8408 
L 335.70358 179.3952 
L 335.538 179.845981 
L 335.447818 179.9496 
L 335.229465 180.504 
L 335.052624 181.0584 
L 334.98 181.1697 
L 334.613633 181.6128 
L 334.422 181.956643 
L 334.239493 182.1672 
L 333.992722 182.7216 
L 333.864 182.948425 
L 333.622095 183.276 
L 333.463016 183.8304 
L 333.306 184.121797 
L 333.058661 184.3848 
L 332.867514 184.9392 
L 332.748 185.165778 
L 332.475051 185.4936 
L 332.381545 186.048 
L 332.334174 186.6024 
L 332.222617 187.1568 
L 332.19 187.278078 
L 331.986409 187.7112 
L 331.86319 188.2656 
L 331.809998 188.82 
L 331.753443 189.3744 
L 331.632 189.842752 
L 331.566749 189.9288 
L 331.377315 190.4832 
L 331.285853 191.0376 
L 331.239617 191.592 
L 331.145561 192.1464 
L 331.074 192.354685 
L 330.857621 192.7008 
L 330.785045 193.2552 
L 330.819315 193.8096 
L 331.074 194.097067 
L 331.303151 194.364 
L 331.632 194.656757 
L 332.19 194.676908 
z
" style="fill:#0000ff;"/>
   </g>
   <g id="patch_9">
    <path clip-path="url(#p6faee370fa)" d="M 312.589099 198.7992 
L 312.66 198.752238 
L 313.218 198.50035 
L 313.570364 198.2448 
L 313.776 198.121883 
L 314.334 197.852466 
L 314.504217 197.6904 
L 314.892 197.503849 
L 315.303306 197.136 
L 315.45 196.959211 
L 315.77681 196.5816 
L 315.800784 196.0272 
L 315.800784 195.4728 
L 315.800784 194.9184 
L 315.800784 194.364 
L 315.855356 193.8096 
L 316.008 193.599187 
L 316.330427 193.2552 
L 316.566 192.878574 
L 316.744928 192.7008 
L 317.060101 192.1464 
L 317.124 192.035601 
L 317.43894 191.592 
L 317.474784 191.0376 
L 317.474784 190.4832 
L 317.412955 189.9288 
L 317.124 189.597041 
L 316.858871 189.3744 
L 316.566 189.128656 
L 316.008 189.147597 
L 315.745559 189.3744 
L 315.45 189.668052 
L 315.221724 189.9288 
L 315.099216 190.4832 
L 315.082535 191.0376 
L 314.892 191.389723 
L 314.688409 191.592 
L 314.386549 192.1464 
L 314.334 192.20609 
L 313.922315 192.7008 
L 313.776 192.983148 
L 313.536627 193.2552 
L 313.400323 193.8096 
L 313.333628 194.364 
L 313.218 194.545956 
L 312.896977 194.9184 
L 312.66 195.46409 
L 312.651234 195.4728 
L 312.26432 196.0272 
L 312.102 196.24584 
L 311.780977 196.5816 
L 311.544 196.762663 
L 310.986 196.787479 
L 310.428 196.787479 
L 309.87 196.787479 
L 309.312 196.787479 
L 308.754 196.787479 
L 308.196 196.787479 
L 307.638 196.787479 
L 307.08 196.779934 
L 306.522 196.69598 
L 306.276048 196.5816 
L 305.964 196.328559 
L 305.406 196.181068 
L 304.987914 196.0272 
L 304.848 195.90084 
L 304.29 195.66496 
L 303.732 195.513589 
L 303.67197 195.4728 
L 303.174 195.123212 
L 302.806151 194.9184 
L 302.616 194.729476 
L 302.058 194.464468 
L 301.923151 194.364 
L 301.5 194.014412 
L 301.132151 193.8096 
L 300.942 193.620676 
L 300.384 193.355668 
L 300.273078 193.2552 
L 299.826 192.829351 
L 299.705886 192.7008 
L 299.268 192.198312 
L 299.218762 192.1464 
L 299.177278 191.592 
L 299.268 191.501394 
L 299.734805 191.0376 
L 299.826 190.946994 
L 300.292805 190.4832 
L 300.384 190.393574 
L 300.895852 189.9288 
L 300.942 189.888011 
L 301.5 189.674237 
L 301.84617 189.3744 
L 302.058 189.245082 
L 302.616 188.997774 
L 302.802391 188.82 
L 303.174 188.633449 
L 303.585306 188.2656 
L 303.732 188.119852 
L 304.094596 187.7112 
L 304.29 187.22163 
L 304.355251 187.1568 
L 304.656455 186.6024 
L 304.848 186.11344 
L 304.913865 186.048 
L 305.184222 185.4936 
L 305.198784 184.9392 
L 305.198784 184.3848 
L 305.198784 183.8304 
L 305.198784 183.276 
L 305.135123 182.7216 
L 304.848 182.329852 
L 304.764546 182.1672 
L 304.506379 181.6128 
L 304.29 181.38977 
L 304.100238 181.0584 
L 303.732 180.669881 
L 303.516244 180.504 
L 303.174 180.197455 
L 302.616 180.096034 
L 302.130832 179.9496 
L 302.058 179.88477 
L 301.5 179.662509 
L 300.942 179.711772 
L 300.64534 179.9496 
L 300.384 180.068939 
L 299.826 180.301723 
L 299.614492 180.504 
L 299.268 180.680458 
L 298.751239 181.0584 
L 298.71 181.090807 
L 298.152 181.299892 
L 297.813024 181.6128 
L 297.594 181.804107 
L 297.24355 182.1672 
L 297.036 182.429768 
L 296.742273 182.7216 
L 296.478 183.188095 
L 296.393953 183.276 
L 295.994922 183.8304 
L 295.92 183.914434 
L 295.511346 184.3848 
L 295.362 184.667148 
L 295.122627 184.9392 
L 295.011216 185.4936 
L 295.011216 186.048 
L 295.011216 186.6024 
L 295.011216 187.1568 
L 295.011216 187.7112 
L 295.011216 188.2656 
L 295.053465 188.82 
L 295.23482 189.3744 
L 295.362 189.518924 
L 295.503126 189.9288 
L 295.589097 190.4832 
L 295.467548 191.0376 
L 295.362 191.109412 
L 295.273828 191.0376 
L 294.804 190.619454 
L 294.675311 190.4832 
L 294.596784 189.9288 
L 294.596784 189.3744 
L 294.596784 188.82 
L 294.596784 188.2656 
L 294.596784 187.7112 
L 294.57281 187.1568 
L 294.246 186.639682 
L 294.224882 186.6024 
L 294.01481 186.048 
L 293.688 185.530882 
L 293.666882 185.4936 
L 293.481858 184.9392 
L 293.13 184.416037 
L 293.108882 184.3848 
L 292.928354 183.8304 
L 292.735118 183.276 
L 292.572 183.024922 
L 292.472382 182.7216 
L 292.36127 182.1672 
L 292.177118 181.6128 
L 292.014 181.41082 
L 291.890887 181.0584 
L 291.815574 180.504 
L 291.806784 179.9496 
L 291.806784 179.3952 
L 291.78281 178.8408 
L 291.456 178.463189 
L 291.305703 178.2864 
L 290.898 177.899658 
L 290.596655 177.732 
L 290.34 177.511002 
L 289.782 177.287749 
L 289.579853 177.1776 
L 289.224 176.906412 
L 288.666 176.829079 
L 288.108 176.829079 
L 287.55 176.906412 
L 287.252295 177.1776 
L 286.992 177.386551 
L 286.634831 177.732 
L 286.434 178.183521 
L 286.349953 178.2864 
L 286.008626 178.8408 
L 285.876 179.058006 
L 285.581342 179.3952 
L 285.467393 179.9496 
L 285.318 180.386879 
L 285.211358 180.504 
L 284.97425 181.0584 
L 284.866833 181.6128 
L 284.76 181.870857 
L 284.531724 182.1672 
L 284.349658 182.7216 
L 284.243054 183.276 
L 284.202 183.360241 
L 283.90373 183.8304 
L 283.784531 184.3848 
L 283.644 184.739322 
L 283.465072 184.9392 
L 283.276535 185.4936 
L 283.086 185.947193 
L 282.984538 186.048 
L 282.774375 186.6024 
L 282.669187 187.1568 
L 282.528 187.511322 
L 282.349072 187.7112 
L 282.162472 188.2656 
L 282.021723 188.82 
L 281.97 188.934668 
L 281.643695 189.3744 
L 281.412 189.72682 
L 281.288887 189.3744 
L 281.213574 188.82 
L 281.204784 188.2656 
L 281.204784 187.7112 
L 281.204784 187.1568 
L 281.204784 186.6024 
L 281.204784 186.048 
L 281.204784 185.4936 
L 281.204784 184.9392 
L 281.204784 184.3848 
L 281.204784 183.8304 
L 281.204784 183.276 
L 281.204784 182.7216 
L 281.204784 182.1672 
L 281.204784 181.6128 
L 281.204784 181.0584 
L 281.204784 180.504 
L 281.204784 179.9496 
L 281.204784 179.3952 
L 281.204784 178.8408 
L 281.204784 178.2864 
L 281.204784 177.732 
L 281.204784 177.1776 
L 281.204784 176.6232 
L 281.204784 176.0688 
L 281.204784 175.5144 
L 281.204784 174.96 
L 281.204784 174.4056 
L 281.204784 173.8512 
L 281.213574 173.2968 
L 281.250617 172.7424 
L 281.325555 172.188 
L 281.412 171.847602 
L 281.53918 171.6336 
L 281.645919 171.0792 
L 281.731459 170.5248 
L 281.806493 169.9704 
L 281.879882 169.416 
L 281.97 168.932759 
L 282.008197 168.8616 
L 282.192433 168.3072 
L 282.311298 167.7528 
L 282.320784 167.1984 
L 282.320784 166.644 
L 282.320784 166.0896 
L 282.320784 165.5352 
L 282.320784 164.9808 
L 282.320784 164.4264 
L 282.320784 163.872 
L 282.320784 163.3176 
L 282.320784 162.7632 
L 282.320784 162.2088 
L 282.320784 161.6544 
L 282.320784 161.1 
L 282.320784 160.5456 
L 282.320784 159.9912 
L 282.320784 159.4368 
L 282.320784 158.8824 
L 282.320784 158.328 
L 282.258955 157.7736 
L 281.97 157.430576 
L 281.834345 157.2192 
L 281.412 156.799579 
L 281.276345 156.6648 
L 280.854 156.254072 
L 280.588871 156.1104 
L 280.296 155.864656 
L 279.738 155.883597 
L 279.475559 156.1104 
L 279.18 156.404052 
L 278.951724 156.6648 
L 278.829216 157.2192 
L 278.829216 157.7736 
L 278.829216 158.328 
L 278.829216 158.8824 
L 278.818466 159.4368 
L 278.622 159.875295 
L 278.505343 159.9912 
L 278.064 160.194745 
L 277.631277 160.5456 
L 277.506 160.635998 
L 276.948 160.773838 
L 276.586976 161.1 
L 276.39 161.267778 
L 276.009366 161.6544 
L 275.832 161.830622 
L 275.451366 162.2088 
L 275.274 162.375771 
L 274.857794 162.7632 
L 274.716 162.886594 
L 274.158 163.050741 
L 273.762878 163.3176 
L 273.6 163.407089 
L 273.042 163.663253 
L 272.78182 163.872 
L 272.484 164.020836 
L 272.007813 164.4264 
L 271.926 164.48859 
L 271.368 164.658938 
L 271.00107 164.9808 
L 270.81 165.123678 
L 270.252 165.350034 
L 270.065632 165.5352 
L 269.694 165.798587 
L 269.28719 166.0896 
L 269.136 166.183375 
L 268.688674 166.644 
L 268.578 166.737574 
L 268.02 167.036334 
L 267.856882 167.1984 
L 267.462 167.426771 
L 267.04853 167.7528 
L 266.904 167.842336 
L 266.346 167.973147 
L 265.788 168.145134 
L 265.579284 168.3072 
L 265.23 168.457676 
L 264.672 168.62919 
L 264.306834 168.8616 
L 264.114 168.938825 
L 263.556 169.170256 
L 263.25129 169.416 
L 262.998 169.53144 
L 262.44 169.653002 
L 261.941834 169.9704 
L 261.882 170.002807 
L 261.324 170.158713 
L 260.766 170.253612 
L 260.224375 170.5248 
L 260.208 170.530959 
L 259.65 170.73882 
L 259.092 170.870453 
L 258.750399 171.0792 
L 258.534 171.156277 
L 257.976 171.340843 
L 257.625383 171.6336 
L 257.418 171.761459 
L 256.86 171.930207 
L 256.497725 172.188 
L 256.302 172.294619 
L 255.78608 172.7424 
L 255.744 172.774807 
L 255.186 172.940634 
L 254.628 172.948279 
L 254.07 173.069997 
L 253.807559 173.2968 
L 253.512 173.590452 
L 253.283724 173.8512 
L 253.2479 174.4056 
L 253.512 174.724864 
L 253.719383 174.96 
L 254.07 175.252757 
L 254.628 175.308521 
L 255.186 175.308521 
L 255.744 175.308521 
L 256.302 175.308521 
L 256.86 175.308521 
L 257.418 175.308521 
L 257.976 175.308521 
L 258.534 175.266545 
L 258.921553 174.96 
L 259.092 174.790653 
L 259.400535 174.4056 
L 259.411459 173.8512 
L 259.65 173.584073 
L 259.973476 173.2968 
L 260.208 173.163333 
L 260.766 173.000193 
L 261.025467 172.7424 
L 261.324 172.567198 
L 261.882 172.467466 
L 262.28339 172.188 
L 262.44 172.114402 
L 262.998 171.988665 
L 263.556 171.739554 
L 263.66798 171.6336 
L 264.114 171.43552 
L 264.672 171.256974 
L 264.913877 171.0792 
L 265.23 170.948584 
L 265.788 170.765144 
L 266.175171 170.5248 
L 266.346 170.459883 
L 266.904 170.299168 
L 267.406525 169.9704 
L 267.462 169.937993 
L 268.02 169.780183 
L 268.510224 169.416 
L 268.578 169.355199 
L 269.136 169.050183 
L 269.530882 169.416 
L 269.694 169.704341 
L 269.765561 169.9704 
L 269.85677 170.5248 
L 269.90825 171.0792 
L 270.004661 171.6336 
L 270.243234 172.188 
L 270.252 172.199121 
L 270.381076 172.7424 
L 270.435248 173.2968 
L 270.5459 173.8512 
L 270.81 174.138204 
L 271.041837 174.4056 
L 271.368 174.705437 
L 271.926 174.718508 
L 272.133216 174.96 
L 272.133216 175.5144 
L 272.133216 176.0688 
L 272.133216 176.6232 
L 272.133216 177.1776 
L 272.133216 177.732 
L 272.133216 178.2864 
L 272.133216 178.8408 
L 272.133216 179.3952 
L 272.133216 179.9496 
L 272.133216 180.504 
L 272.133216 181.0584 
L 272.133216 181.6128 
L 272.133216 182.1672 
L 272.133216 182.7216 
L 272.133216 183.276 
L 272.133216 183.8304 
L 272.133216 184.3848 
L 272.133216 184.9392 
L 272.133216 185.4936 
L 272.133216 186.048 
L 272.133216 186.6024 
L 272.133216 187.1568 
L 272.124426 187.7112 
L 272.066507 188.2656 
L 271.99269 188.82 
L 271.926 189.248857 
L 271.873915 189.3744 
L 271.729169 189.9288 
L 271.64472 190.4832 
L 271.604977 191.0376 
L 271.575216 191.592 
L 271.575216 192.1464 
L 271.575216 192.7008 
L 271.575216 193.2552 
L 271.496689 193.8096 
L 271.368 193.944379 
L 270.954604 194.364 
L 270.81 194.646777 
L 270.581724 194.9184 
L 270.459216 195.4728 
L 270.459216 196.0272 
L 270.459216 196.5816 
L 270.459216 197.136 
L 270.5459 197.6904 
L 270.81 198.009664 
L 271.017383 198.2448 
L 271.368 198.537557 
L 271.926 198.551345 
L 272.313553 198.2448 
L 272.484 198.075453 
L 272.792535 197.6904 
L 272.834784 197.136 
L 272.954147 196.5816 
L 273.042 196.492934 
L 273.500929 196.0272 
L 273.6 195.867815 
L 273.908535 195.4728 
L 273.950784 194.9184 
L 274.060439 194.364 
L 274.158 194.204615 
L 274.466535 193.8096 
L 274.446955 193.2552 
L 274.158 192.923441 
L 274.011847 192.7008 
L 273.950784 192.1464 
L 273.956354 191.592 
L 273.99169 191.0376 
L 274.015493 190.4832 
L 274.088745 189.9288 
L 274.158 189.495819 
L 274.210085 189.3744 
L 274.354831 188.82 
L 274.43928 188.2656 
L 274.508784 187.7112 
L 274.508784 187.1568 
L 274.508784 186.6024 
L 274.508784 186.048 
L 274.508784 185.4936 
L 274.508784 184.9392 
L 274.508784 184.3848 
L 274.508784 183.8304 
L 274.508784 183.276 
L 274.508784 182.7216 
L 274.508784 182.1672 
L 274.508784 181.6128 
L 274.508784 181.0584 
L 274.508784 180.504 
L 274.508784 179.9496 
L 274.508784 179.3952 
L 274.508784 178.8408 
L 274.508784 178.2864 
L 274.508784 177.732 
L 274.508784 177.1776 
L 274.508784 176.6232 
L 274.508784 176.0688 
L 274.508784 175.5144 
L 274.508784 174.96 
L 274.508784 174.4056 
L 274.508784 173.8512 
L 274.508784 173.2968 
L 274.508784 172.7424 
L 274.508784 172.188 
L 274.508784 171.6336 
L 274.508784 171.0792 
L 274.48481 170.5248 
L 274.158 170.147189 
L 274.001165 169.9704 
L 273.6 169.621879 
L 273.232151 169.416 
L 273.042 169.227076 
L 272.834784 168.8616 
L 272.772955 168.3072 
L 272.484 167.975441 
L 272.218871 167.7528 
L 271.926 167.482565 
L 271.706976 167.1984 
L 271.926 167.045266 
L 272.473279 166.644 
L 272.484 166.634418 
L 273.042 166.370965 
L 273.476087 166.0896 
L 273.6 166.02246 
L 274.158 165.759265 
L 274.443419 165.5352 
L 274.716 165.414479 
L 275.274 165.142866 
L 275.444217 164.9808 
L 275.832 164.798992 
L 276.286325 164.4264 
L 276.39 164.318738 
L 276.918505 163.872 
L 276.948 163.842696 
L 277.476505 163.3176 
L 277.506 163.294326 
L 278.064 162.82803 
L 278.129251 162.7632 
L 278.622 162.572891 
L 279.18 162.27363 
L 279.245251 162.2088 
L 279.738 162.014657 
L 279.945216 162.2088 
L 279.945216 162.7632 
L 279.945216 163.3176 
L 279.945216 163.872 
L 279.945216 164.4264 
L 279.945216 164.9808 
L 279.945216 165.5352 
L 279.945216 166.0896 
L 279.945216 166.644 
L 279.945216 167.1984 
L 279.926727 167.7528 
L 279.824445 168.3072 
L 279.738 168.739646 
L 279.672749 168.8616 
L 279.559072 169.416 
L 279.443518 169.9704 
L 279.370535 170.5248 
L 279.275153 171.0792 
L 279.241961 171.6336 
L 279.18 171.81548 
L 278.957567 172.188 
L 278.891045 172.7424 
L 278.829216 173.2968 
L 278.829216 173.8512 
L 278.829216 174.4056 
L 278.829216 174.96 
L 278.829216 175.5144 
L 278.829216 176.0688 
L 278.829216 176.6232 
L 278.829216 177.1776 
L 278.829216 177.732 
L 278.829216 178.2864 
L 278.829216 178.8408 
L 278.829216 179.3952 
L 278.829216 179.9496 
L 278.829216 180.504 
L 278.829216 181.0584 
L 278.829216 181.6128 
L 278.829216 182.1672 
L 278.829216 182.7216 
L 278.829216 183.276 
L 278.829216 183.8304 
L 278.829216 184.3848 
L 278.829216 184.9392 
L 278.829216 185.4936 
L 278.829216 186.048 
L 278.829216 186.6024 
L 278.829216 187.1568 
L 278.829216 187.7112 
L 278.829216 188.2656 
L 278.829216 188.82 
L 278.878216 189.3744 
L 279.114749 189.9288 
L 279.18 190.001162 
L 279.327384 190.4832 
L 279.42306 191.0376 
L 279.672749 191.592 
L 279.738 191.664362 
L 279.885384 192.1464 
L 279.945216 192.7008 
L 279.945216 193.2552 
L 279.945216 193.8096 
L 279.945216 194.364 
L 280.007045 194.9184 
L 280.296 195.261424 
L 280.451907 195.4728 
L 280.854 195.822388 
L 281.412 196.006218 
L 281.449524 196.0272 
L 281.97 196.351902 
L 282.528 196.375721 
L 283.086 196.333745 
L 283.473553 196.0272 
L 283.644 195.857853 
L 283.952535 195.4728 
L 283.994784 194.9184 
L 283.994784 194.364 
L 283.994784 193.8096 
L 283.994784 193.2552 
L 283.994784 192.7008 
L 283.994784 192.1464 
L 283.994784 191.592 
L 283.994784 191.0376 
L 283.994784 190.4832 
L 284.008592 189.9288 
L 284.12098 189.3744 
L 284.202 189.199828 
L 284.474949 188.82 
L 284.608018 188.2656 
L 284.76 187.828321 
L 284.866642 187.7112 
L 285.111858 187.1568 
L 285.23698 186.6024 
L 285.318 186.394912 
L 285.554538 186.048 
L 285.72329 185.4936 
L 285.876 185.056321 
L 285.982642 184.9392 
L 286.226784 184.3848 
L 286.343882 183.8304 
L 286.434 183.623734 
L 286.688685 183.276 
L 286.780261 182.7216 
L 286.982895 182.1672 
L 286.992 182.149402 
L 287.30694 181.6128 
L 287.409469 181.0584 
L 287.55 180.687166 
L 287.713118 180.504 
L 287.946352 179.9496 
L 288.108 179.765007 
L 288.480209 179.3952 
L 288.666 179.24944 
L 288.990792 179.3952 
L 289.224 179.610183 
L 289.431216 179.9496 
L 289.431216 180.504 
L 289.473465 181.0584 
L 289.65482 181.6128 
L 289.782 181.757324 
L 289.921881 182.1672 
L 290.018977 182.7216 
L 290.21282 183.276 
L 290.34 183.420524 
L 290.479881 183.8304 
L 290.57119 184.3848 
L 290.898 184.835919 
L 290.959961 184.9392 
L 291.125097 185.4936 
L 291.390135 186.048 
L 291.456 186.11344 
L 291.67521 186.6024 
L 292.014 187.060807 
L 292.075961 187.1568 
L 292.213521 187.7112 
L 292.221216 188.2656 
L 292.221216 188.82 
L 292.221216 189.3744 
L 292.221216 189.9288 
L 292.221216 190.4832 
L 292.3079 191.0376 
L 292.572 191.369396 
L 292.686814 191.592 
L 293.13 192.058229 
L 293.214706 192.1464 
L 293.419408 192.7008 
L 293.688 193.024422 
L 293.895383 193.2552 
L 294.246 193.547957 
L 294.804 193.603721 
L 295.362 193.603721 
L 295.92 193.561745 
L 296.31758 193.2552 
L 296.478 193.15466 
L 297.036 193.164594 
L 297.127195 193.2552 
L 297.594 193.718994 
L 297.685195 193.8096 
L 298.152 194.273394 
L 298.243195 194.364 
L 298.71 194.81786 
L 298.829758 194.9184 
L 299.268 195.284263 
L 299.601521 195.4728 
L 299.826 195.687783 
L 300.384 195.944284 
L 300.492361 196.0272 
L 300.942 196.393063 
L 301.275521 196.5816 
L 301.5 196.796583 
L 302.058 197.053084 
L 302.172306 197.136 
L 302.616 197.485695 
L 303.174 197.663644 
L 303.241324 197.6904 
L 303.732 197.961588 
L 304.29 198.143843 
L 304.541776 198.2448 
L 304.848 198.450497 
L 305.406 198.60656 
L 305.895167 198.7992 
L 305.964 198.86403 
L 306.522 199.127968 
L 307.08 199.147721 
L 307.638 199.147721 
L 308.196 199.147721 
L 308.754 199.147721 
L 309.312 199.147721 
L 309.87 199.147721 
L 310.428 199.147721 
L 310.986 199.147721 
L 311.544 199.147721 
L 312.102 199.123902 
z
" style="fill:#0000ff;"/>
   </g>
   <g id="patch_10">
    <path clip-path="url(#p6faee370fa)" d="M 365.271845 193.2552 
L 365.67 193.106834 
L 366.228 192.987891 
L 366.63984 192.7008 
L 366.786 192.6297 
L 367.344 192.50864 
L 367.902 192.425673 
L 368.46 192.252354 
L 368.639298 192.1464 
L 369.018 192.056864 
L 369.576 191.983948 
L 370.134 191.938243 
L 370.692 191.794277 
L 370.964263 191.592 
L 371.25 191.487349 
L 371.808 191.391655 
L 372.366 191.239877 
L 372.638263 191.0376 
L 372.924 190.932949 
L 373.482 190.832788 
L 373.884093 190.4832 
L 374.04 190.341558 
L 374.407465 189.9288 
L 374.598 189.457905 
L 374.682047 189.3744 
L 375.071294 188.82 
L 375.156 188.734516 
L 375.627961 188.2656 
L 375.714 188.178793 
L 376.18463 187.7112 
L 376.272 187.623474 
L 376.741704 187.1568 
L 376.83 187.026165 
L 377.214096 186.6024 
L 377.388 186.368113 
L 377.64969 186.048 
L 377.946 185.671374 
L 378.124928 185.4936 
L 378.439428 184.9392 
L 378.504 184.838442 
L 378.834903 184.3848 
L 378.840222 183.8304 
L 378.690368 183.276 
L 378.504 182.926571 
L 378.445012 182.7216 
L 378.296784 182.1672 
L 378.20769 181.6128 
L 377.991568 181.0584 
L 377.946 181.00763 
L 377.799294 180.504 
L 377.729298 179.9496 
L 377.591909 179.3952 
L 377.388 178.952568 
L 377.358348 178.8408 
L 377.232144 178.2864 
L 377.15681 177.732 
L 376.83 177.234239 
L 376.785146 177.1776 
L 376.38421 176.6232 
L 376.272 176.511714 
L 375.904151 176.0688 
L 375.714 175.872239 
L 375.449727 175.5144 
L 375.156 175.149675 
L 375.00652 174.96 
L 374.598 174.576385 
L 374.466612 174.4056 
L 374.04 173.876302 
L 374.009088 173.8512 
L 373.482 173.327513 
L 373.451088 173.2968 
L 372.924 172.895307 
L 372.759929 172.7424 
L 372.366 172.394211 
L 371.973745 172.188 
L 371.808 172.030269 
L 371.25 171.814176 
L 370.948647 171.6336 
L 370.692 171.395772 
L 370.134 171.178187 
L 369.959285 171.0792 
L 369.576 170.777571 
L 369.018 170.647171 
L 368.552234 170.5248 
L 368.46 170.45936 
L 367.902 170.260262 
L 367.344 170.172902 
L 366.786 170.093246 
L 366.390137 169.9704 
L 366.228 169.84404 
L 365.67 169.670563 
L 365.112 169.602535 
L 364.554 169.558657 
L 363.996 169.456789 
L 363.848842 169.416 
L 363.438 169.213723 
L 362.88 169.080603 
L 362.322 168.975432 
L 362.078551 168.8616 
L 361.764 168.60605 
L 361.206 168.461986 
L 360.818217 168.3072 
L 360.648 168.145134 
L 360.09 167.924053 
L 359.721808 167.7528 
L 359.532 167.564217 
L 358.974 167.32702 
L 358.776826 167.1984 
L 358.416 166.891855 
L 358.003931 166.644 
L 357.858 166.49901 
L 357.3 166.221523 
L 357.169265 166.0896 
L 356.742 165.576672 
L 356.690942 165.5352 
L 356.184 165.133797 
L 356.056681 164.9808 
L 355.976784 164.4264 
L 355.980078 163.872 
L 356.00766 163.3176 
L 356.138194 162.7632 
L 356.184 162.70273 
L 356.568847 162.2088 
L 356.742 162.058834 
L 357.3 161.71923 
L 357.365251 161.6544 
L 357.858 161.465997 
L 358.416 161.16483 
L 358.481251 161.1 
L 358.974 160.914341 
L 359.532 160.824873 
L 360.09 160.67196 
L 360.333544 160.5456 
L 360.648 160.4745 
L 361.206 160.385258 
L 361.764 160.345255 
L 362.322 160.270473 
L 362.88 160.11756 
L 363.123544 159.9912 
L 363.438 159.9201 
L 363.996 159.830858 
L 364.554 159.794054 
L 365.112 159.785321 
L 365.67 159.785321 
L 366.228 159.785321 
L 366.786 159.790855 
L 367.344 159.82948 
L 367.902 159.901664 
L 368.313702 159.9912 
L 368.46 160.074705 
L 369.018 160.272565 
L 369.576 160.355291 
L 370.134 160.408466 
L 370.546537 160.5456 
L 370.692 160.67196 
L 371.25 160.887133 
L 371.808 160.961603 
L 372.220537 161.1 
L 372.366 161.22636 
L 372.924 161.52174 
L 373.052001 161.6544 
L 373.482 162.174456 
L 373.518858 162.2088 
L 374.04 162.655756 
L 374.13234 162.7632 
L 374.400839 163.3176 
L 374.598 163.513489 
L 374.794368 163.872 
L 374.863097 164.4264 
L 374.965849 164.9808 
L 375.001292 165.5352 
L 375.156 165.863244 
L 375.207723 166.0896 
L 375.21772 166.644 
L 375.274588 167.1984 
L 375.328365 167.7528 
L 375.358778 168.3072 
L 375.4499 168.8616 
L 375.714 169.158441 
L 375.943151 169.416 
L 376.272 169.708757 
L 376.83 169.722545 
L 377.217553 169.416 
L 377.388 169.246653 
L 377.696535 168.8616 
L 377.738784 168.3072 
L 377.709023 167.7528 
L 377.632646 167.1984 
L 377.550723 166.644 
L 377.472047 166.0896 
L 377.388 165.887113 
L 377.328681 165.5352 
L 377.282669 164.9808 
L 377.218716 164.4264 
L 377.213287 163.872 
L 377.15681 163.3176 
L 376.83 162.894823 
L 376.746546 162.7632 
L 376.494433 162.2088 
L 376.272 161.979681 
L 376.080196 161.6544 
L 375.714 161.249242 
L 375.576861 161.1 
L 375.156 160.681854 
L 375.018861 160.5456 
L 374.598 160.127454 
L 374.462345 159.9912 
L 374.04 159.571579 
L 373.845492 159.4368 
L 373.482 159.130255 
L 372.924 159.029514 
L 372.438832 158.8824 
L 372.366 158.81757 
L 371.808 158.569492 
L 371.25 158.475051 
L 370.764832 158.328 
L 370.692 158.26317 
L 370.134 158.035243 
L 369.576 157.967743 
L 369.018 157.926414 
L 368.46 157.835161 
L 368.214874 157.7736 
L 367.902 157.611534 
L 367.344 157.486509 
L 366.786 157.425079 
L 366.228 157.425079 
L 365.67 157.425079 
L 365.112 157.425079 
L 364.554 157.425079 
L 363.996 157.486509 
L 363.438 157.611534 
L 363.125126 157.7736 
L 362.88 157.835161 
L 362.322 157.925106 
L 361.764 157.96483 
L 361.206 158.040909 
L 360.648 158.165934 
L 360.335126 158.328 
L 360.09 158.389561 
L 359.532 158.478892 
L 358.974 158.512704 
L 358.416 158.602934 
L 358.04174 158.8824 
L 357.858 158.973257 
L 357.3 159.130255 
L 356.90242 159.4368 
L 356.742 159.527657 
L 356.184 159.684655 
L 355.831452 159.9912 
L 355.626 160.122971 
L 355.068 160.462095 
L 354.983953 160.5456 
L 354.51 160.775298 
L 354.159554 161.1 
L 353.952 161.358615 
L 353.679051 161.6544 
L 353.601216 162.2088 
L 353.601216 162.7632 
L 353.601216 163.3176 
L 353.601216 163.872 
L 353.601216 164.4264 
L 353.601216 164.9808 
L 353.683408 165.5352 
L 353.952 165.871281 
L 354.066814 166.0896 
L 354.51 166.620739 
L 354.540198 166.644 
L 355.068 167.168397 
L 355.098198 167.1984 
L 355.626 167.631471 
L 355.740705 167.7528 
L 356.184 168.125392 
L 356.452445 168.3072 
L 356.742 168.586473 
L 357.234749 168.8616 
L 357.3 168.92643 
L 357.858 169.312483 
L 357.997367 169.416 
L 358.416 169.759914 
L 358.974 169.8993 
L 359.115784 169.9704 
L 359.532 170.263157 
L 360.09 170.4339 
L 360.341776 170.5248 
L 360.648 170.730497 
L 361.206 170.880059 
L 361.695167 171.0792 
L 361.764 171.14403 
L 362.322 171.412018 
L 362.88 171.46912 
L 363.438 171.528949 
L 363.895509 171.6336 
L 363.996 171.69843 
L 364.554 171.886641 
L 365.112 171.975133 
L 365.67 172.064031 
L 366.166716 172.188 
L 366.228 172.233274 
L 366.786 172.445793 
L 367.344 172.543065 
L 367.902 172.650698 
L 368.176086 172.7424 
L 368.46 172.931324 
L 369.018 173.114039 
L 369.404408 173.2968 
L 369.576 173.458473 
L 370.134 173.733704 
L 370.342008 173.8512 
L 370.692 174.104241 
L 371.25 174.316934 
L 371.344342 174.4056 
L 371.808 174.915163 
L 371.863525 174.96 
L 372.366 175.470851 
L 372.408835 175.5144 
L 372.924 175.93824 
L 373.026075 176.0688 
L 373.322841 176.6232 
L 373.482 176.781332 
L 373.72506 177.1776 
L 374.04 177.490508 
L 374.222323 177.732 
L 374.598 178.271115 
L 374.610729 178.2864 
L 374.809853 178.8408 
L 375.023744 179.3952 
L 375.156 179.526603 
L 375.325211 179.9496 
L 375.405465 180.504 
L 375.461646 181.0584 
L 375.563423 181.6128 
L 375.648749 182.1672 
L 375.547001 182.7216 
L 375.480081 183.276 
L 375.43272 183.8304 
L 375.397437 184.3848 
L 375.35354 184.9392 
L 375.288553 185.4936 
L 375.156 185.674908 
L 374.653242 186.048 
L 374.598 186.102414 
L 374.090403 186.6024 
L 374.04 186.649025 
L 373.662443 187.1568 
L 373.482 187.336079 
L 373.095864 187.7112 
L 372.924 187.925564 
L 372.615465 188.2656 
L 372.366 188.78137 
L 372.324863 188.82 
L 371.808 188.978211 
L 371.25 189.074563 
L 370.711643 189.3744 
L 370.692 189.383446 
L 370.134 189.533355 
L 369.576 189.628963 
L 369.018 189.766734 
L 368.705126 189.9288 
L 368.46 189.990361 
L 367.902 190.080306 
L 367.344 190.12003 
L 366.786 190.203927 
L 366.343413 190.4832 
L 366.228 190.534589 
L 365.67 190.67536 
L 365.112 190.859826 
L 364.910824 191.0376 
L 364.554 191.177224 
L 363.996 191.239069 
L 363.438 191.243479 
L 362.88 191.243479 
L 362.322 191.243479 
L 361.764 191.243479 
L 361.206 191.243479 
L 360.648 191.227525 
L 360.380438 191.0376 
L 360.648 190.874668 
L 361.206 190.54803 
L 361.271251 190.4832 
L 361.764 190.299355 
L 362.322 189.99363 
L 362.387251 189.9288 
L 362.88 189.73757 
L 363.293798 189.3744 
L 363.438 189.205926 
L 363.774222 188.82 
L 363.726955 188.2656 
L 363.438 187.954057 
L 363.12033 187.7112 
L 362.88 187.496217 
L 362.322 187.473372 
L 361.986716 187.7112 
L 361.764 187.802015 
L 361.206 187.959055 
L 360.80842 188.2656 
L 360.648 188.356877 
L 360.09 188.513455 
L 359.737452 188.82 
L 359.532 188.951103 
L 358.974 189.290895 
L 358.889953 189.3744 
L 358.416 189.604098 
L 358.056363 189.9288 
L 357.858 190.211148 
L 357.618627 190.4832 
L 357.507216 191.0376 
L 357.507216 191.592 
L 357.507216 192.1464 
L 357.5939 192.7008 
L 357.858 193.020064 
L 358.065383 193.2552 
L 358.416 193.547957 
L 358.974 193.603721 
L 359.532 193.603721 
L 360.09 193.603721 
L 360.648 193.603721 
L 361.206 193.603721 
L 361.764 193.603721 
L 362.322 193.603721 
L 362.88 193.603721 
L 363.438 193.603721 
L 363.996 193.603721 
L 364.554 193.589253 
L 365.112 193.40019 
z
" style="fill:#0000ff;"/>
   </g>
   <g id="patch_11">
    <path clip-path="url(#p6faee370fa)" d="M 397.748263 191.592 
L 398.034 191.487349 
L 398.592 191.390531 
L 399.15 191.239877 
L 399.422263 191.0376 
L 399.708 190.932949 
L 400.266 190.831721 
L 400.667165 190.4832 
L 400.824 190.337452 
L 401.186596 189.9288 
L 401.382 189.43923 
L 401.447251 189.3744 
L 401.750373 188.82 
L 401.94 188.33043 
L 402.005251 188.2656 
L 402.306455 187.7112 
L 402.498 187.22163 
L 402.563251 187.1568 
L 402.834222 186.6024 
L 402.848784 186.048 
L 402.848784 185.4936 
L 402.848784 184.9392 
L 402.848784 184.3848 
L 402.82481 183.8304 
L 402.563865 183.276 
L 402.498 183.21056 
L 402.265321 182.7216 
L 401.94 182.204865 
L 401.918882 182.1672 
L 401.72927 181.6128 
L 401.382 181.072491 
L 401.371941 181.0584 
L 401.081209 180.504 
L 400.824 180.153909 
L 400.709954 179.9496 
L 400.429118 179.3952 
L 400.266 179.233134 
L 400.056492 178.8408 
L 399.708 178.335284 
L 399.667051 178.2864 
L 399.26221 177.732 
L 399.15 177.620514 
L 398.782151 177.1776 
L 398.592 176.981039 
L 398.327727 176.6232 
L 398.034 176.258475 
L 397.881248 176.0688 
L 397.476 175.688714 
L 397.338861 175.5144 
L 396.918 174.98649 
L 396.886826 174.96 
L 396.36 174.559497 
L 396.225798 174.4056 
L 395.802 173.876977 
L 395.771088 173.8512 
L 395.244 173.327513 
L 395.213802 173.2968 
L 394.686 172.892585 
L 394.542662 172.7424 
L 394.128 172.370701 
L 393.885163 172.188 
L 393.57 171.87487 
L 393.239718 171.6336 
L 393.012 171.415439 
L 392.56621 171.0792 
L 392.454 170.967714 
L 391.896 170.666442 
L 391.710146 170.5248 
L 391.338 170.208832 
L 390.78 170.093778 
L 390.482999 169.9704 
L 390.222 169.755417 
L 389.664 169.565539 
L 389.233999 169.416 
L 389.106 169.310046 
L 388.548 169.097048 
L 387.99 168.913485 
L 387.854964 168.8616 
L 387.432 168.618533 
L 386.874 168.500394 
L 386.316 168.328182 
L 386.280544 168.3072 
L 385.758 167.974382 
L 385.2 167.780005 
L 385.132676 167.7528 
L 384.642 167.481612 
L 384.084 167.361332 
L 383.703963 167.1984 
L 383.526 167.036334 
L 382.968 166.832403 
L 382.41 166.676407 
L 382.373471 166.644 
L 381.852 166.103354 
L 381.839484 166.0896 
L 381.680453 165.5352 
L 381.694913 164.9808 
L 381.852 164.664259 
L 382.074433 164.4264 
L 382.41 163.91063 
L 382.448881 163.872 
L 382.968 163.651653 
L 383.367236 163.3176 
L 383.526 163.211456 
L 384.084 163.064829 
L 384.395971 162.7632 
L 384.642 162.611632 
L 385.2 162.499813 
L 385.510278 162.2088 
L 385.758 162.065497 
L 386.316 161.981872 
L 386.709574 161.6544 
L 386.874 161.546769 
L 387.432 161.462146 
L 387.99 161.357793 
L 388.377891 161.1 
L 388.548 161.0289 
L 389.106 160.941013 
L 389.664 161.003804 
L 389.874406 161.1 
L 390.222 161.362396 
L 390.78 161.494763 
L 391.249524 161.6544 
L 391.338 161.737905 
L 391.896 161.994663 
L 392.454 162.112604 
L 392.664406 162.2088 
L 393.012 162.471196 
L 393.57 162.60204 
L 393.824912 162.7632 
L 394.128 163.111554 
L 394.335383 163.3176 
L 394.686 163.610357 
L 395.244 163.624145 
L 395.631553 163.3176 
L 395.802 163.148253 
L 396.110535 162.7632 
L 396.152784 162.2088 
L 396.103784 161.6544 
L 395.802 161.310463 
L 395.599595 161.1 
L 395.244 160.790232 
L 394.686 160.676681 
L 394.35046 160.5456 
L 394.128 160.356676 
L 393.57 160.149812 
L 393.1324 159.9912 
L 393.012 159.890393 
L 392.454 159.675232 
L 391.896 159.573404 
L 391.56046 159.4368 
L 391.338 159.247876 
L 390.78 159.066245 
L 390.222 158.923189 
L 390.132285 158.8824 
L 389.664 158.595309 
L 389.106 158.595309 
L 388.548 158.720334 
L 388.235126 158.8824 
L 387.99 158.943961 
L 387.432 159.035214 
L 386.874 159.076543 
L 386.316 159.165612 
L 385.949175 159.4368 
L 385.758 159.528502 
L 385.2 159.675232 
L 384.642 159.92576 
L 384.576135 159.9912 
L 384.084 160.239055 
L 383.720508 160.5456 
L 383.526 160.666652 
L 382.968 160.897723 
L 382.756492 161.1 
L 382.41 161.279093 
L 381.89408 161.6544 
L 381.852 161.686807 
L 381.294 161.895892 
L 380.955024 162.2088 
L 380.736 162.415015 
L 380.40919 162.7632 
L 380.178 163.234095 
L 380.093953 163.3176 
L 379.748869 163.872 
L 379.62 164.096395 
L 379.332877 164.4264 
L 379.269216 164.9808 
L 379.269216 165.5352 
L 379.269216 166.0896 
L 379.3559 166.644 
L 379.62 166.975796 
L 379.737805 167.1984 
L 380.178 167.728805 
L 380.209686 167.7528 
L 380.736 168.180978 
L 380.862153 168.3072 
L 381.294 168.656895 
L 381.852 168.834844 
L 381.919324 168.8616 
L 382.41 169.132788 
L 382.968 169.313367 
L 383.219776 169.416 
L 383.526 169.621697 
L 384.084 169.781863 
L 384.573167 169.9704 
L 384.642 170.03523 
L 385.2 170.315541 
L 385.758 170.418656 
L 385.998454 170.5248 
L 386.316 170.770544 
L 386.874 170.930406 
L 387.334468 171.0792 
L 387.432 171.162705 
L 387.99 171.385901 
L 388.548 171.564082 
L 388.73093 171.6336 
L 389.106 171.860403 
L 389.664 171.998405 
L 390.180863 172.188 
L 390.222 172.22663 
L 390.78 172.571142 
L 391.004423 172.7424 
L 391.338 173.062954 
L 391.667593 173.2968 
L 391.896 173.517798 
L 392.32682 173.8512 
L 392.454 173.97756 
L 393.012 174.3063 
L 393.100296 174.4056 
L 393.57 174.936873 
L 393.597606 174.96 
L 394.128 175.41266 
L 394.215414 175.5144 
L 394.686 176.045936 
L 394.712298 176.0688 
L 395.244 176.597071 
L 395.269763 176.6232 
L 395.802 177.081749 
L 395.886706 177.1776 
L 396.201245 177.732 
L 396.36 177.889731 
L 396.658533 178.2864 
L 396.918 178.544193 
L 397.159437 178.8408 
L 397.476 179.238967 
L 397.614322 179.3952 
L 398.034 179.944844 
L 398.037161 179.9496 
L 398.33031 180.504 
L 398.592 180.869747 
L 398.696045 181.0584 
L 399.084749 181.6128 
L 399.15 181.67763 
L 399.365527 182.1672 
L 399.642135 182.7216 
L 399.708 182.78704 
L 399.937854 183.276 
L 400.266 183.727946 
L 400.327961 183.8304 
L 400.459408 184.3848 
L 400.451903 184.9392 
L 400.439116 185.4936 
L 400.413384 186.048 
L 400.306792 186.6024 
L 400.266 186.662115 
L 399.915216 187.1568 
L 399.798985 187.7112 
L 399.708 187.845504 
L 399.367888 188.2656 
L 399.15 188.472557 
L 398.728551 188.82 
L 398.592 188.916628 
L 398.034 189.013194 
L 397.476 189.350308 
L 397.450303 189.3744 
L 396.918 189.529898 
L 396.36 189.580279 
L 395.802 189.580279 
L 395.244 189.580279 
L 394.686 189.580279 
L 394.128 189.580279 
L 393.57 189.580279 
L 393.012 189.580279 
L 392.454 189.580279 
L 391.896 189.580279 
L 391.338 189.580279 
L 390.78 189.580279 
L 390.222 189.580279 
L 389.664 189.580279 
L 389.106 189.580279 
L 388.548 189.580279 
L 387.99 189.580279 
L 387.432 189.580279 
L 386.874 189.580279 
L 386.316 189.580279 
L 385.758 189.580279 
L 385.2 189.580279 
L 384.642 189.580279 
L 384.084 189.527908 
L 383.526 189.383446 
L 383.514757 189.3744 
L 382.968 188.953336 
L 382.840681 188.82 
L 382.880147 188.2656 
L 382.968 188.176934 
L 383.436758 187.7112 
L 383.526 187.597556 
L 383.877858 187.1568 
L 383.978669 186.6024 
L 384.084 186.318506 
L 384.287591 186.048 
L 384.425298 185.4936 
L 384.372955 184.9392 
L 384.084 184.627657 
L 383.76633 184.3848 
L 383.526 184.169817 
L 382.968 184.169817 
L 382.743521 184.3848 
L 382.41 184.651513 
L 382.128914 184.9392 
L 382.011238 185.4936 
L 381.884617 186.048 
L 381.852 186.093555 
L 381.471366 186.6024 
L 381.294 186.778622 
L 380.904868 187.1568 
L 380.736 187.450452 
L 380.507724 187.7112 
L 380.385216 188.2656 
L 380.385216 188.82 
L 380.4719 189.3744 
L 380.736 189.706196 
L 380.852602 189.9288 
L 381.294 190.393574 
L 381.384208 190.4832 
L 381.852 190.938125 
L 381.98536 191.0376 
L 382.41 191.377863 
L 382.968 191.487349 
L 383.253737 191.592 
L 383.526 191.794277 
L 384.084 191.931097 
L 384.642 191.940521 
L 385.2 191.940521 
L 385.758 191.940521 
L 386.316 191.940521 
L 386.874 191.940521 
L 387.432 191.940521 
L 387.99 191.940521 
L 388.548 191.940521 
L 389.106 191.940521 
L 389.664 191.940521 
L 390.222 191.940521 
L 390.78 191.940521 
L 391.338 191.940521 
L 391.896 191.940521 
L 392.454 191.940521 
L 393.012 191.940521 
L 393.57 191.940521 
L 394.128 191.940521 
L 394.686 191.940521 
L 395.244 191.940521 
L 395.802 191.940521 
L 396.36 191.940521 
L 396.918 191.931097 
L 397.476 191.794277 
z
" style="fill:#0000ff;"/>
   </g>
   <g id="patch_12">
    <path clip-path="url(#p6faee370fa)" d="M 340.56 180.594815 
L 340.002 180.697194 
L 339.444 180.634502 
L 339.178871 180.504 
L 338.886 180.258256 
L 338.328 180.277197 
L 338.006538 179.9496 
L 338.154941 179.3952 
L 338.328 178.953806 
L 338.42362 178.8408 
L 338.636535 178.2864 
L 338.80498 177.732 
L 338.886 177.557428 
L 339.158949 177.1776 
L 339.268864 176.6232 
L 339.444 176.188423 
L 339.545462 176.0688 
L 339.790147 175.5144 
L 339.860874 174.96 
L 339.998805 174.4056 
L 340.002 174.394997 
L 340.243905 173.8512 
L 340.339575 173.2968 
L 340.454669 172.7424 
L 340.56 172.393154 
L 340.705931 172.188 
L 340.843192 171.6336 
L 340.919474 171.0792 
L 341.068786 170.5248 
L 341.118 170.340732 
L 341.304368 169.9704 
L 341.459298 169.416 
L 341.468784 168.8616 
L 341.468784 168.3072 
L 341.468784 167.7528 
L 341.468784 167.1984 
L 341.468784 166.644 
L 341.468784 166.0896 
L 341.468784 165.5352 
L 341.468784 164.9808 
L 341.468784 164.4264 
L 341.468784 163.872 
L 341.468784 163.3176 
L 341.468784 162.7632 
L 341.468784 162.2088 
L 341.468784 161.6544 
L 341.468784 161.1 
L 341.468784 160.5456 
L 341.468784 159.9912 
L 341.631466 159.4368 
L 341.676 159.394887 
L 341.706761 159.4368 
L 341.877749 159.9912 
L 342.036839 160.5456 
L 342.234 160.741489 
L 342.403284 161.1 
L 342.458278 161.6544 
L 342.702373 162.2088 
L 342.792 162.297849 
L 342.956113 162.7632 
L 342.999216 163.3176 
L 342.999216 163.872 
L 342.999216 164.4264 
L 342.999216 164.9808 
L 342.999216 165.5352 
L 342.999216 166.0896 
L 342.999216 166.644 
L 342.999216 167.1984 
L 343.048216 167.7528 
L 343.13658 168.3072 
L 343.35 168.650395 
L 343.421561 168.8616 
L 343.51277 169.416 
L 343.562987 169.9704 
L 343.633023 170.5248 
L 343.771236 171.0792 
L 343.908 171.356844 
L 343.969961 171.6336 
L 344.091163 172.188 
L 344.115216 172.7424 
L 344.115216 173.2968 
L 344.115216 173.8512 
L 344.115216 174.4056 
L 344.115216 174.96 
L 344.115216 175.5144 
L 344.115216 176.0688 
L 344.115216 176.6232 
L 344.115216 177.1776 
L 344.171342 177.732 
L 344.400135 178.2864 
L 344.466 178.35184 
L 344.69719 178.8408 
L 344.466 179.046679 
L 343.908 179.124012 
L 343.541175 179.3952 
L 343.35 179.486477 
L 342.792 179.636692 
L 342.251914 179.9496 
L 342.234 179.958646 
L 341.676 180.109237 
L 341.118 180.211243 
L 340.732107 180.504 
z
" style="fill:#ffffff;"/>
   </g>
   <g id="patch_13">
    <path clip-path="url(#p6faee370fa)" d="M 456.066 180.544789 
L 455.508 180.62466 
L 454.95 180.667122 
L 454.392 180.698143 
L 453.834 180.660217 
L 453.276 180.536407 
L 453.186292 180.504 
L 452.718 180.250959 
L 452.16 180.145767 
L 451.602 180.07026 
L 451.206137 179.9496 
L 451.044 179.82324 
L 450.486 179.523059 
L 450.363596 179.3952 
L 450.095386 178.8408 
L 449.928 178.674494 
L 449.681779 178.2864 
L 449.37 177.907979 
L 449.257803 177.732 
L 449.13002 177.1776 
L 448.812 176.761415 
L 448.73098 176.6232 
L 448.702004 176.0688 
L 448.812 175.902247 
L 449.148329 175.5144 
L 449.37 175.18779 
L 449.59524 174.96 
L 449.928 174.583374 
L 450.106928 174.4056 
L 450.486 173.85991 
L 450.494766 173.8512 
L 450.997785 173.2968 
L 451.044 173.258928 
L 451.472679 172.7424 
L 451.602 172.596652 
L 451.986516 172.188 
L 452.16 171.985694 
L 452.499035 171.6336 
L 452.718 171.358806 
L 453.276 171.408573 
L 453.378124 171.6336 
L 453.643849 172.188 
L 453.834 172.376924 
L 454.041216 172.7424 
L 454.392 173.140977 
L 454.569937 173.2968 
L 454.95 173.621502 
L 455.508 173.645321 
L 456.066 173.645321 
L 456.624 173.645321 
L 457.182 173.645321 
L 457.74 173.645321 
L 458.298 173.603345 
L 458.685553 173.2968 
L 458.856 173.127453 
L 459.164535 172.7424 
L 459.144955 172.188 
L 459.414 171.982121 
L 459.972 172.128535 
L 460.032797 172.188 
L 460.423358 172.7424 
L 460.53 172.84957 
L 460.782622 173.2968 
L 461.088 173.716865 
L 461.180082 173.8512 
L 461.561953 174.4056 
L 461.320679 174.96 
L 461.088 175.455711 
L 461.02893 175.5144 
L 460.78973 176.0688 
L 460.67549 176.6232 
L 460.53 176.817464 
L 460.183739 177.1776 
L 459.972 177.574269 
L 459.813245 177.732 
L 459.45738 178.2864 
L 459.414 178.335243 
L 458.996984 178.8408 
L 458.856 179.00221 
L 458.521021 179.3952 
L 458.298 179.605686 
L 457.94393 179.9496 
L 457.74 180.130434 
L 457.182 180.250959 
L 456.624 180.37764 
L 456.295186 180.504 
z
" style="fill:#ffffff;"/>
   </g>
   <g id="patch_14">
    <path clip-path="url(#p6faee370fa)" d="M 466.11 176.205054 
L 465.972861 176.0688 
L 465.552 175.555085 
L 465.501597 175.5144 
L 465.309116 174.96 
L 465.552 174.791042 
L 466.005645 174.4056 
L 466.11 174.320534 
L 466.225134 174.4056 
L 466.317216 174.96 
L 466.317216 175.5144 
L 466.266835 176.0688 
z
" style="fill:#ffffff;"/>
   </g>
   <g id="patch_15">
    <path clip-path="url(#p6faee370fa)" d="M 337.77 180.657339 
L 337.718277 180.504 
L 337.77 180.357328 
L 337.924334 180.504 
z
" style="fill:#ffffff;"/>
   </g>
   <g id="patch_16">
    <path clip-path="url(#p6faee370fa)" d="M 298.152 189.496015 
L 297.876431 189.3744 
L 297.594 189.105612 
L 297.471467 188.82 
L 297.395574 188.2656 
L 297.386784 187.7112 
L 297.386784 187.1568 
L 297.386784 186.6024 
L 297.386784 186.048 
L 297.458104 185.4936 
L 297.594 185.324905 
L 297.949175 184.9392 
L 298.152 184.664406 
L 298.424949 184.3848 
L 298.71 183.95676 
L 298.83718 183.8304 
L 299.258469 183.276 
L 299.268 183.266065 
L 299.826 182.979393 
L 300.188275 182.7216 
L 300.384 182.63128 
L 300.942 182.369477 
L 301.228611 182.1672 
L 301.5 182.071004 
L 301.771389 182.1672 
L 302.058 182.369477 
L 302.393567 182.7216 
L 302.616 182.942598 
L 302.802776 183.276 
L 302.823216 183.8304 
L 302.823216 184.3848 
L 302.815521 184.9392 
L 302.685383 185.4936 
L 302.616 185.572384 
L 302.114606 186.048 
L 302.058 186.119102 
L 301.575398 186.6024 
L 301.5 186.663952 
L 301.09187 187.1568 
L 300.942 187.290141 
L 300.39359 187.7112 
L 300.384 187.720246 
L 299.826 187.946648 
L 299.461783 188.2656 
L 299.268 188.407765 
L 298.844202 188.82 
L 298.71 188.947859 
L 298.280689 189.3744 
z
" style="fill:#ffffff;"/>
   </g>
  </g>
 </g>
 <defs>
  <clipPath id="p6faee370fa">
   <rect height="567.7056" width="762.228" x="122.94" y="88.4736"/>
  </clipPath>
 </defs>
</svg>
