<?xml version="1.0" encoding="utf-8" standalone="no"?>
<!DOCTYPE svg PUBLIC "-//W3C//DTD SVG 1.1//EN"
  "http://www.w3.org/Graphics/SVG/1.1/DTD/svg11.dtd">
<!-- Created with matplotlib (https://matplotlib.org/) -->
<svg height="737.28pt" version="1.1" viewBox="0 0 983.52 737.28" width="983.52pt" xmlns="http://www.w3.org/2000/svg" xmlns:xlink="http://www.w3.org/1999/xlink">
 <defs>
  <style type="text/css">
*{stroke-linecap:butt;stroke-linejoin:round;}
  </style>
 </defs>
 <g id="figure_1">
  <g id="patch_1">
   <path d="M 0 737.28 
L 983.52 737.28 
L 983.52 0 
L 0 0 
z
" style="fill:none;"/>
  </g>
  <g id="axes_1">
   <g id="patch_2">
    <path clip-path="url(#p464db486e3)" d="M 533.457553 150.5664 
L 533.628 150.397053 
L 533.936535 150.012 
L 533.916955 149.4576 
L 533.628 149.114576 
L 533.490861 148.9032 
L 533.07 148.485054 
L 532.932861 148.3488 
L 532.512 147.93961 
L 532.263642 147.7944 
L 531.954 147.532004 
L 531.396 147.541359 
L 531.046008 147.7944 
L 530.838 147.885677 
L 530.28 148.056043 
L 529.951151 148.3488 
L 529.722 148.642452 
L 529.493724 148.9032 
L 529.449051 149.4576 
L 529.722 149.785422 
L 529.901148 150.012 
L 530.28 150.335359 
L 530.838 150.376091 
L 531.396 150.389551 
L 531.954 150.474698 
L 532.126107 150.5664 
L 532.512 150.859157 
L 533.07 150.872945 
z
" style="fill:#0000ff;"/>
   </g>
   <g id="patch_3">
    <path clip-path="url(#p464db486e3)" d="M 394.515553 184.9392 
L 394.686 184.775278 
L 395.00094 184.3848 
L 395.244 184.156429 
L 395.65747 183.8304 
L 395.802 183.738227 
L 396.36 183.538396 
L 396.658768 183.276 
L 396.918 183.136867 
L 397.476 182.899374 
L 397.662391 182.7216 
L 398.034 182.546883 
L 398.592 182.23203 
L 398.657251 182.1672 
L 399.15 181.986053 
L 399.708 181.961321 
L 400.266 181.961321 
L 400.824 181.961321 
L 401.382 181.961321 
L 401.94 181.961321 
L 402.498 181.961321 
L 403.056 181.965731 
L 403.614 181.993614 
L 404.172 182.012811 
L 404.73 182.062549 
L 405.288 182.126411 
L 405.587705 182.1672 
L 405.846 182.250705 
L 406.404 182.369477 
L 406.962 182.438388 
L 407.52 182.486152 
L 408.078 182.515721 
L 408.636 182.515721 
L 409.194 182.515721 
L 409.752 182.515721 
L 410.31 182.515721 
L 410.868 182.533197 
L 411.426 182.700618 
L 411.466689 182.7216 
L 411.984 183.034508 
L 412.542 183.055653 
L 412.952658 182.7216 
L 413.1 182.562767 
L 413.421023 182.1672 
L 413.450784 181.6128 
L 413.570147 181.0584 
L 413.658 180.969734 
L 414.116929 180.504 
L 414.216 180.344615 
L 414.524535 179.9496 
L 414.484592 179.3952 
L 414.216 179.083146 
L 413.950871 178.8408 
L 413.658 178.595056 
L 413.1 178.613997 
L 412.826613 178.8408 
L 412.542 179.003332 
L 412.014912 179.3952 
L 411.984 179.421329 
L 411.570604 179.9496 
L 411.426 180.115156 
L 410.868 180.155479 
L 410.31 180.155479 
L 409.752 180.155479 
L 409.194 180.150048 
L 408.636 180.145865 
L 408.078 180.13702 
L 407.52 180.11851 
L 406.962 180.103989 
L 406.404 180.054251 
L 405.846 179.990389 
L 405.546295 179.9496 
L 405.288 179.866095 
L 404.73 179.747323 
L 404.172 179.678412 
L 403.614 179.630648 
L 403.056 179.601079 
L 402.498 179.601079 
L 401.94 179.601079 
L 401.382 179.601079 
L 400.824 179.601079 
L 400.266 179.601079 
L 399.708 179.601079 
L 399.15 179.601079 
L 398.592 179.678412 
L 398.225175 179.9496 
L 398.034 180.040415 
L 397.476 180.197455 
L 397.112508 180.504 
L 396.918 180.621621 
L 396.36 180.820572 
L 396.103353 181.0584 
L 395.802 181.21893 
L 395.244 181.506846 
L 395.137358 181.6128 
L 394.686 181.813145 
L 394.478784 181.6128 
L 394.478784 181.0584 
L 394.487574 180.504 
L 394.524617 179.9496 
L 394.594553 179.3952 
L 394.686 178.986154 
L 394.770047 178.8408 
L 394.91152 178.2864 
L 395.027298 177.732 
L 395.036784 177.1776 
L 395.036784 176.6232 
L 395.097464 176.0688 
L 395.244 175.846196 
L 395.432915 176.0688 
L 395.802 176.368637 
L 396.36 176.417321 
L 396.918 176.375345 
L 397.305553 176.0688 
L 397.476 175.909967 
L 397.797023 175.5144 
L 398.034 175.280347 
L 398.38022 174.96 
L 398.592 174.806082 
L 399.077823 174.4056 
L 399.15 174.332158 
L 399.708 174.00491 
L 399.862708 173.8512 
L 400.266 173.561552 
L 400.592859 173.2968 
L 400.824 173.169241 
L 401.382 172.904466 
L 401.585291 172.7424 
L 401.94 172.613142 
L 402.498 172.525917 
L 403.056 172.345731 
L 403.284497 172.188 
L 403.614 172.083167 
L 404.172 171.99677 
L 404.73 171.891393 
L 405.088144 171.6336 
L 405.288 171.545743 
L 405.846 171.46469 
L 406.404 171.432131 
L 406.962 171.366473 
L 407.52 171.190185 
L 407.763348 171.0792 
L 408.078 171.017639 
L 408.636 170.943805 
L 409.194 170.912499 
L 409.752 170.878752 
L 410.31 170.873321 
L 410.868 170.873321 
L 411.426 170.873321 
L 411.984 170.873321 
L 412.542 170.831345 
L 412.929553 170.5248 
L 413.1 170.317765 
L 413.366256 169.9704 
L 413.388955 169.416 
L 413.1 169.084241 
L 412.834871 168.8616 
L 412.542 168.615856 
L 411.984 168.513079 
L 411.426 168.513079 
L 410.868 168.513079 
L 410.31 168.513079 
L 409.752 168.513079 
L 409.194 168.542648 
L 408.636 168.608559 
L 408.078 168.73524 
L 407.749186 168.8616 
L 407.52 168.902389 
L 406.962 168.98226 
L 406.404 169.026149 
L 405.846 169.055743 
L 405.288 169.109455 
L 404.73 169.35117 
L 404.657168 169.416 
L 404.172 169.572003 
L 403.614 169.651448 
L 403.056 169.792626 
L 402.767236 169.9704 
L 402.498 170.05501 
L 401.94 170.211892 
L 401.382 170.45997 
L 401.309168 170.5248 
L 400.824 170.670621 
L 400.266 170.777734 
L 399.928671 171.0792 
L 399.708 171.23462 
L 399.15 171.47989 
L 398.995292 171.6336 
L 398.592 171.927998 
L 398.269808 172.188 
L 398.034 172.345152 
L 397.656257 172.7424 
L 397.476 172.890711 
L 396.918 173.14309 
L 396.763292 173.2968 
L 396.36 173.584341 
L 396.031082 173.8512 
L 395.802 174.008352 
L 395.424257 174.4056 
L 395.244 174.679901 
L 395.06804 174.4056 
L 395.036784 173.8512 
L 395.036784 173.2968 
L 395.036784 172.7424 
L 395.036784 172.188 
L 395.036784 171.6336 
L 395.036784 171.0792 
L 395.036784 170.5248 
L 395.036784 169.9704 
L 395.036784 169.416 
L 395.036784 168.8616 
L 395.036784 168.3072 
L 395.036784 167.7528 
L 395.036784 167.1984 
L 395.036784 166.644 
L 395.036784 166.0896 
L 395.036784 165.5352 
L 395.036784 164.9808 
L 395.036784 164.4264 
L 395.036784 163.872 
L 395.036784 163.3176 
L 395.036784 162.7632 
L 395.036784 162.2088 
L 395.036784 161.6544 
L 395.036784 161.1 
L 394.956891 160.5456 
L 394.849118 159.9912 
L 394.686 159.559457 
L 394.661821 159.4368 
L 394.569654 158.8824 
L 394.51969 158.328 
L 394.478784 157.7736 
L 394.478784 157.2192 
L 394.478784 156.6648 
L 394.45481 156.1104 
L 394.128 155.593282 
L 394.106882 155.556 
L 393.928378 155.0016 
L 393.57 154.476981 
L 393.548882 154.4472 
L 393.57 154.420883 
L 394.128 154.241321 
L 394.686 154.241321 
L 395.244 154.241321 
L 395.802 154.241321 
L 396.36 154.241321 
L 396.918 154.241321 
L 397.476 154.205708 
L 398.034 154.130628 
L 398.592 153.998754 
L 398.855167 153.8928 
L 399.15 153.841411 
L 399.708 153.764556 
L 400.266 153.727563 
L 400.824 153.692455 
L 401.382 153.686921 
L 401.94 153.686921 
L 402.498 153.686921 
L 403.056 153.686921 
L 403.614 153.686921 
L 404.172 153.686921 
L 404.73 153.686921 
L 405.288 153.686921 
L 405.846 153.686921 
L 406.404 153.686921 
L 406.962 153.686921 
L 407.52 153.686921 
L 408.078 153.686921 
L 408.636 153.686921 
L 409.194 153.686921 
L 409.752 153.692455 
L 410.31 153.72617 
L 410.868 153.764556 
L 411.426 153.852011 
L 411.595398 153.8928 
L 411.984 154.070574 
L 412.542 154.185382 
L 413.1 154.25978 
L 413.658 154.325457 
L 414.012709 154.4472 
L 414.216 154.609266 
L 414.774 154.815941 
L 415.168882 155.0016 
L 415.332 155.163666 
L 415.6259 155.556 
L 415.89 155.875264 
L 416.097383 156.1104 
L 416.448 156.403157 
L 417.006 156.458921 
L 417.564 156.458921 
L 418.122 156.435102 
L 418.524948 156.1104 
L 418.68 155.951567 
L 419.001023 155.556 
L 418.988535 155.0016 
L 418.68 154.651327 
L 418.505877 154.4472 
L 418.122 154.106937 
L 417.572766 153.8928 
L 417.564 153.88409 
L 417.006 153.500574 
L 416.704647 153.3384 
L 416.448 153.100572 
L 415.89 152.882987 
L 415.719553 152.784 
L 415.332 152.477455 
L 414.774 152.376714 
L 414.288832 152.2296 
L 414.216 152.16477 
L 413.658 151.916692 
L 413.1 151.861735 
L 412.542 151.825421 
L 411.984 151.7463 
L 411.603176 151.6752 
L 411.426 151.591695 
L 410.868 151.429456 
L 410.31 151.350498 
L 409.752 151.326679 
L 409.194 151.326679 
L 408.636 151.326679 
L 408.078 151.326679 
L 407.52 151.326679 
L 406.962 151.326679 
L 406.404 151.326679 
L 405.846 151.326679 
L 405.288 151.326679 
L 404.73 151.326679 
L 404.172 151.326679 
L 403.614 151.326679 
L 403.056 151.326679 
L 402.498 151.326679 
L 401.94 151.326679 
L 401.382 151.326679 
L 400.824 151.326679 
L 400.266 151.356248 
L 399.708 151.437372 
L 399.15 151.569246 
L 398.886833 151.6752 
L 398.592 151.726589 
L 398.034 151.803444 
L 397.476 151.838998 
L 396.918 151.86643 
L 396.36 151.881079 
L 395.802 151.881079 
L 395.244 151.881079 
L 394.686 151.881079 
L 394.128 151.881079 
L 393.57 151.881079 
L 393.012 151.958412 
L 392.645175 152.2296 
L 392.454 152.320457 
L 391.896 152.491243 
L 391.567151 152.784 
L 391.338 153.077652 
L 391.109724 153.3384 
L 390.987216 153.8928 
L 391.043342 154.4472 
L 391.338 154.877221 
L 391.399961 155.0016 
L 391.565097 155.556 
L 391.896 156.009642 
L 391.957961 156.1104 
L 392.095521 156.6648 
L 392.103216 157.2192 
L 392.103216 157.7736 
L 392.12719 158.328 
L 392.183109 158.8824 
L 392.290882 159.4368 
L 392.454 159.868543 
L 392.478179 159.9912 
L 392.569823 160.5456 
L 392.643627 161.1 
L 392.661216 161.6544 
L 392.661216 162.2088 
L 392.661216 162.7632 
L 392.661216 163.3176 
L 392.661216 163.872 
L 392.661216 164.4264 
L 392.661216 164.9808 
L 392.661216 165.5352 
L 392.661216 166.0896 
L 392.661216 166.644 
L 392.661216 167.1984 
L 392.661216 167.7528 
L 392.661216 168.3072 
L 392.661216 168.8616 
L 392.661216 169.416 
L 392.661216 169.9704 
L 392.661216 170.5248 
L 392.661216 171.0792 
L 392.661216 171.6336 
L 392.661216 172.188 
L 392.661216 172.7424 
L 392.661216 173.2968 
L 392.661216 173.8512 
L 392.661216 174.4056 
L 392.661216 174.96 
L 392.661216 175.5144 
L 392.661216 176.0688 
L 392.661216 176.6232 
L 392.661216 177.1776 
L 392.642727 177.732 
L 392.545404 178.2864 
L 392.515961 178.8408 
L 392.454 179.019877 
L 392.22848 179.3952 
L 392.165045 179.9496 
L 392.103216 180.504 
L 392.103216 181.0584 
L 392.103216 181.6128 
L 392.103216 182.1672 
L 392.103216 182.7216 
L 392.103216 183.276 
L 392.1899 183.8304 
L 392.454 184.162196 
L 392.571805 184.3848 
L 393.012 184.83866 
L 393.184107 184.9392 
L 393.57 185.231957 
L 394.128 185.245745 
z
" style="fill:#0000ff;"/>
   </g>
   <g id="patch_4">
    <path clip-path="url(#p464db486e3)" d="M 473.193553 188.2656 
L 473.364 188.096253 
L 473.672535 187.7112 
L 473.714784 187.1568 
L 473.714784 186.6024 
L 473.714784 186.048 
L 473.714784 185.4936 
L 473.700222 184.9392 
L 473.53891 184.3848 
L 473.364 184.111904 
L 473.266457 183.8304 
L 473.12402 183.276 
L 472.972999 182.7216 
L 472.806 182.515313 
L 472.682357 182.1672 
L 472.594147 181.6128 
L 472.438151 181.0584 
L 472.248 180.698212 
L 472.19208 180.504 
L 472.041966 179.9496 
L 471.9541 179.3952 
L 471.74907 178.8408 
L 471.69 178.772113 
L 471.549469 178.2864 
L 471.487222 177.732 
L 471.482784 177.1776 
L 471.482784 176.6232 
L 471.482784 176.0688 
L 471.482784 175.5144 
L 471.482784 174.96 
L 471.482784 174.4056 
L 471.482784 173.8512 
L 471.482784 173.2968 
L 471.482784 172.7424 
L 471.562958 172.188 
L 471.69 172.08746 
L 471.840219 172.188 
L 472.248 172.506952 
L 472.806 172.527097 
L 473.364 172.390277 
L 473.636263 172.188 
L 473.922 172.083349 
L 474.48 171.982121 
L 475.038 171.739554 
L 475.155881 171.6336 
L 475.596 171.482533 
L 476.154 171.350388 
L 476.536294 171.0792 
L 476.712 170.998703 
L 477.27 170.87555 
L 477.828 170.58963 
L 477.893251 170.5248 
L 478.386 170.336397 
L 478.944 170.03523 
L 479.009251 169.9704 
L 479.502 169.781997 
L 480.06 169.48083 
L 480.125251 169.416 
L 480.618 169.22477 
L 481.022489 168.8616 
L 481.176 168.679297 
L 481.508192 168.3072 
L 481.588571 167.7528 
L 481.712882 167.1984 
L 481.734 167.135487 
L 481.981339 166.644 
L 482.100455 166.0896 
L 482.186669 165.5352 
L 482.292 165.210694 
L 482.458999 164.9808 
L 482.622903 164.4264 
L 482.744669 163.872 
L 482.85 163.588106 
L 483.053591 163.3176 
L 483.191298 162.7632 
L 483.200784 162.2088 
L 483.200784 161.6544 
L 483.200784 161.1 
L 483.200784 160.5456 
L 483.200784 159.9912 
L 483.138955 159.4368 
L 482.85 159.093776 
L 482.714345 158.8824 
L 482.292 158.462779 
L 482.160612 158.328 
L 481.734 157.90414 
L 481.598345 157.7736 
L 481.176 157.353979 
L 480.968617 157.2192 
L 480.618 156.926443 
L 480.06 156.841649 
L 479.502 156.760996 
L 479.164037 156.6648 
L 478.944 156.51981 
L 478.386 156.372043 
L 477.828 156.385527 
L 477.385413 156.6648 
L 477.27 156.716189 
L 476.712 156.858943 
L 476.154 157.041426 
L 475.952824 157.2192 
L 475.596 157.361344 
L 475.038 157.480843 
L 474.687383 157.7736 
L 474.48 157.894652 
L 473.922 158.125723 
L 473.710492 158.328 
L 473.364 158.507093 
L 472.84808 158.8824 
L 472.806 158.914807 
L 472.248 159.123892 
L 471.899629 159.4368 
L 471.69 159.607555 
L 471.285006 159.9912 
L 471.132 160.130428 
L 470.87871 159.9912 
L 470.574 159.745456 
L 470.016 159.764397 
L 469.753559 159.9912 
L 469.458 160.244315 
L 469.189408 160.5456 
L 469.107216 161.1 
L 469.107216 161.6544 
L 469.096368 162.2088 
L 469.017802 162.7632 
L 468.9 162.989778 
L 468.627051 163.3176 
L 468.543646 163.872 
L 468.500347 164.4264 
L 468.434444 164.9808 
L 468.432118 165.5352 
L 468.351105 166.0896 
L 468.342 166.141844 
L 468.178882 166.644 
L 468.087315 167.1984 
L 468.02706 167.7528 
L 467.985646 168.3072 
L 467.953284 168.8616 
L 467.932673 169.416 
L 467.874118 169.9704 
L 467.793105 170.5248 
L 467.784 170.577044 
L 467.620882 171.0792 
L 467.529315 171.6336 
L 467.467584 172.188 
L 467.414637 172.7424 
L 467.384347 173.2968 
L 467.318444 173.8512 
L 467.25293 174.4056 
L 467.226 174.589017 
L 467.10885 174.96 
L 467.00048 175.5144 
L 466.936862 176.0688 
L 466.892278 176.6232 
L 466.856637 177.1776 
L 466.826347 177.732 
L 466.760444 178.2864 
L 466.69493 178.8408 
L 466.668 179.024217 
L 466.55085 179.3952 
L 466.44248 179.9496 
L 466.378862 180.504 
L 466.35306 181.0584 
L 466.317216 181.6128 
L 466.399408 182.1672 
L 466.668 182.490822 
L 466.875383 182.7216 
L 467.226 183.014357 
L 467.784 183.028145 
L 468.171553 182.7216 
L 468.342 182.514565 
L 468.608256 182.1672 
L 468.698354 181.6128 
L 468.730716 181.0584 
L 468.739257 180.504 
L 468.803179 179.9496 
L 468.870348 179.3952 
L 468.9 179.1922 
L 469.458 179.200642 
L 469.51276 179.3952 
L 469.632713 179.9496 
L 469.669853 180.504 
L 469.7519 181.0584 
L 470.016 181.466001 
L 470.077961 181.6128 
L 470.143543 182.1672 
L 470.187547 182.7216 
L 470.219922 183.276 
L 470.27573 183.8304 
L 470.337462 184.3848 
L 470.442204 184.9392 
L 470.550475 185.4936 
L 470.334627 186.048 
L 470.3099 186.6024 
L 470.574 186.934196 
L 470.691805 187.1568 
L 471.132 187.620594 
L 471.223195 187.7112 
L 471.69 188.16506 
L 471.862107 188.2656 
L 472.248 188.558357 
L 472.806 188.572145 
z
" style="fill:#0000ff;"/>
   </g>
   <g id="patch_5">
    <path clip-path="url(#p464db486e3)" d="M 501.536263 198.2448 
L 501.822 198.127755 
L 502.38 198.009352 
L 502.938 197.868174 
L 503.226764 197.6904 
L 503.496 197.609903 
L 504.054 197.488931 
L 504.538753 197.136 
L 504.612 197.081504 
L 505.17 196.687554 
L 505.276642 196.5816 
L 505.728 196.272944 
L 505.975339 196.0272 
L 506.286 195.791752 
L 506.630865 195.4728 
L 506.844 195.249005 
L 507.266513 194.9184 
L 507.402 194.836791 
L 507.870301 194.364 
L 507.96 194.250356 
L 508.311858 193.8096 
L 508.429659 193.2552 
L 508.518 192.987701 
L 508.696928 192.7008 
L 508.843321 192.1464 
L 508.988147 191.592 
L 509.076 191.351509 
L 509.279591 191.0376 
L 509.432354 190.4832 
L 509.546147 189.9288 
L 509.634 189.656695 
L 509.80891 189.3744 
L 509.975298 188.82 
L 509.984784 188.2656 
L 509.984784 187.7112 
L 509.984784 187.1568 
L 509.984784 186.6024 
L 509.984784 186.048 
L 509.984784 185.4936 
L 509.984784 184.9392 
L 509.984784 184.3848 
L 509.984784 183.8304 
L 509.984784 183.276 
L 509.984784 182.7216 
L 509.984784 182.1672 
L 509.984784 181.6128 
L 509.906949 181.0584 
L 509.804805 180.504 
L 509.634 180.027803 
L 509.618822 179.9496 
L 509.528239 179.3952 
L 509.468383 178.8408 
L 509.407033 178.2864 
L 509.370658 177.732 
L 509.279591 177.1776 
L 509.076 176.685287 
L 509.060822 176.6232 
L 508.969226 176.0688 
L 508.910383 175.5144 
L 508.864147 174.96 
L 508.718405 174.4056 
L 508.518 173.974836 
L 508.485383 173.8512 
L 508.3492 173.2968 
L 508.273445 172.7424 
L 508.156831 172.188 
L 507.96 171.769105 
L 507.924451 171.6336 
L 507.791115 171.0792 
L 507.71209 170.5248 
L 507.595522 169.9704 
L 507.402 169.562287 
L 507.363816 169.416 
L 507.247495 168.8616 
L 507.186473 168.3072 
L 507.098685 167.7528 
L 506.909251 167.1984 
L 506.844 167.098557 
L 506.738669 166.644 
L 506.68196 166.0896 
L 506.653373 165.5352 
L 506.611459 164.9808 
L 506.475808 164.4264 
L 506.286 164.144697 
L 506.195882 163.872 
L 506.129323 163.3176 
L 506.121138 162.7632 
L 506.114453 162.2088 
L 506.108002 161.6544 
L 506.101904 161.1 
L 506.094455 160.5456 
L 506.087474 159.9912 
L 506.078784 159.4368 
L 506.078784 158.8824 
L 506.078784 158.328 
L 506.016955 157.7736 
L 505.728 157.441841 
L 505.462871 157.2192 
L 505.17 156.973456 
L 504.612 156.992397 
L 504.054 156.973456 
L 503.496 156.992397 
L 503.233559 157.2192 
L 502.938 157.512852 
L 502.709724 157.7736 
L 502.582778 158.328 
L 502.453009 158.8824 
L 502.38 158.997354 
L 502.049097 159.4368 
L 501.854617 159.9912 
L 501.822 160.039307 
L 501.471216 160.5456 
L 501.264 161.06137 
L 501.225119 161.1 
L 500.897545 161.6544 
L 500.706 162.06381 
L 500.560069 162.2088 
L 500.321246 162.7632 
L 500.148 163.107456 
L 499.944409 163.3176 
L 499.733471 163.872 
L 499.59 164.146301 
L 499.342661 164.4264 
L 499.153838 164.9808 
L 499.032 165.199606 
L 498.750914 165.5352 
L 498.567692 166.0896 
L 498.474 166.272325 
L 498.192914 166.644 
L 498.192914 167.1984 
L 498.474 167.502216 
L 498.67252 167.7528 
L 499.032 168.086853 
L 499.59 168.202549 
L 499.875737 168.3072 
L 500.148 168.509477 
L 500.706 168.646297 
L 501.264 168.655721 
L 501.822 168.655721 
L 502.38 168.613745 
L 502.77758 168.3072 
L 502.938 168.20666 
L 503.404805 167.7528 
L 503.496 167.662194 
L 503.962805 167.1984 
L 504.054 167.107794 
L 504.612 167.08878 
L 504.663723 167.1984 
L 504.755584 167.7528 
L 504.801627 168.3072 
L 504.868216 168.8616 
L 504.969595 169.416 
L 505.17 169.846764 
L 505.202617 169.9704 
L 505.328201 170.5248 
L 505.394406 171.0792 
L 505.531169 171.6336 
L 505.728 172.052495 
L 505.763549 172.188 
L 505.884317 172.7424 
L 505.937508 173.2968 
L 506.036494 173.8512 
L 506.286 174.299992 
L 506.324184 174.4056 
L 506.449371 174.96 
L 506.4815 175.5144 
L 506.530555 176.0688 
L 506.657632 176.6232 
L 506.844 176.889142 
L 506.940821 177.1776 
L 507.001984 177.732 
L 507.024502 178.2864 
L 507.06321 178.8408 
L 507.133408 179.3952 
L 507.265236 179.9496 
L 507.402 180.299118 
L 507.440184 180.504 
L 507.524444 181.0584 
L 507.593452 181.6128 
L 507.609216 182.1672 
L 507.609216 182.7216 
L 507.609216 183.276 
L 507.609216 183.8304 
L 507.609216 184.3848 
L 507.609216 184.9392 
L 507.609216 185.4936 
L 507.609216 186.048 
L 507.609216 186.6024 
L 507.609216 187.1568 
L 507.609216 187.7112 
L 507.609216 188.2656 
L 507.561238 188.82 
L 507.402 189.209725 
L 507.243245 189.3744 
L 507.082397 189.9288 
L 507.003238 190.4832 
L 506.853105 191.0376 
L 506.844 191.055213 
L 506.527584 191.592 
L 506.393397 192.1464 
L 506.286 192.482183 
L 506.140069 192.7008 
L 505.728 193.183785 
L 505.656121 193.2552 
L 505.17 193.757207 
L 505.117267 193.8096 
L 504.612 194.024785 
L 504.175783 194.364 
L 504.054 194.453166 
L 503.496 194.667674 
L 503.216585 194.9184 
L 502.938 195.095538 
L 502.38 195.389295 
L 502.295953 195.4728 
L 501.822 195.66403 
L 501.264 195.987892 
L 501.21666 196.0272 
L 500.706 196.162655 
L 500.56148 196.0272 
L 500.319185 195.4728 
L 500.148 195.269494 
L 499.971313 194.9184 
L 499.76491 194.364 
L 499.59 194.18289 
L 499.418343 193.8096 
L 499.177931 193.2552 
L 499.032 193.072303 
L 498.894214 192.7008 
L 498.78894 192.1464 
L 498.474 191.610364 
L 498.464601 191.592 
L 498.32151 191.0376 
L 498.328571 190.4832 
L 498.449821 189.9288 
L 498.474 189.838596 
L 498.684102 189.3744 
L 498.825858 188.82 
L 498.886571 188.2656 
L 499.002075 187.7112 
L 499.032 187.598346 
L 499.235591 187.1568 
L 499.408784 186.6024 
L 499.59 186.217119 
L 499.753118 186.048 
L 499.995476 185.4936 
L 500.148 185.203995 
L 500.361119 184.9392 
L 500.619661 184.3848 
L 500.706 184.221044 
L 500.972256 183.8304 
L 501.243927 183.276 
L 501.264 183.24388 
L 501.637605 182.7216 
L 501.822 182.520258 
L 502.130535 182.1672 
L 502.38 181.75779 
L 502.525931 181.6128 
L 502.894914 181.0584 
L 502.938 181.002045 
L 503.326228 180.504 
L 503.496 180.26388 
L 503.757913 179.9496 
L 504.054 179.544387 
L 504.204156 179.3952 
L 504.548101 178.8408 
L 504.612 178.692123 
L 504.87369 178.2864 
L 504.906658 177.732 
L 504.612 177.394806 
L 504.338782 177.1776 
L 504.054 176.939772 
L 503.496 176.950797 
L 503.250633 177.1776 
L 502.938 177.385419 
L 502.605808 177.732 
L 502.38 178.026398 
L 502.11831 178.2864 
L 501.874262 178.8408 
L 501.822 178.901956 
L 501.299906 179.3952 
L 501.264 179.442055 
L 500.867248 179.9496 
L 500.706 180.177204 
L 500.437408 180.504 
L 500.148 180.90469 
L 499.993292 181.0584 
L 499.736315 181.6128 
L 499.59 181.827164 
L 499.281465 182.1672 
L 499.032 182.590197 
L 498.899744 182.7216 
L 498.626524 183.276 
L 498.474 183.562189 
L 498.257621 183.8304 
L 497.995643 184.3848 
L 497.916 184.530878 
L 497.638824 184.9392 
L 497.361123 185.4936 
L 497.358 185.500881 
L 497.076914 186.048 
L 496.979768 186.6024 
L 496.829652 187.1568 
L 496.8 187.268568 
L 496.596091 187.7112 
L 496.505342 188.2656 
L 496.421768 188.82 
L 496.271652 189.3744 
L 496.242 189.486168 
L 496.038091 189.9288 
L 495.953045 190.4832 
L 495.947342 191.0376 
L 496.031898 191.592 
L 496.242 192.109568 
L 496.251105 192.1464 
L 496.373714 192.7008 
L 496.45741 193.2552 
L 496.552661 193.8096 
L 496.791234 194.364 
L 496.8 194.387098 
L 496.869585 194.9184 
L 496.987747 195.4728 
L 497.085051 196.0272 
L 497.358 196.332779 
L 497.523091 196.5816 
L 497.916 196.949449 
L 498.184445 197.136 
L 498.474 197.415273 
L 498.877292 197.6904 
L 499.032 197.84411 
L 499.59 198.122069 
L 499.749865 198.2448 
L 500.148 198.563752 
L 500.706 198.583897 
L 501.264 198.447077 
z
" style="fill:#0000ff;"/>
   </g>
   <g id="patch_6">
    <path clip-path="url(#p464db486e3)" d="M 523.684491 172.7424 
L 524.142 172.637749 
L 524.7 172.57792 
L 525.258 172.511359 
L 525.669334 172.188 
L 525.816 172.072635 
L 526.374 171.678874 
L 526.419568 171.6336 
L 526.932 171.241266 
L 527.095118 171.0792 
L 527.49 170.793736 
L 527.760682 170.5248 
L 528.048 170.304453 
L 528.40748 169.9704 
L 528.606 169.768094 
L 529.0311 169.416 
L 529.164 169.32427 
L 529.676137 168.8616 
L 529.722 168.820377 
L 530.28 168.584544 
L 530.576618 168.3072 
L 530.838 168.141793 
L 531.270353 167.7528 
L 531.396 167.571117 
L 531.704535 167.1984 
L 531.668949 166.644 
L 531.396 166.355436 
L 531.102711 166.0896 
L 530.838 165.843856 
L 530.28 165.874617 
L 530.019001 166.0896 
L 529.722 166.220102 
L 529.164 166.560495 
L 529.079953 166.644 
L 528.606 166.873698 
L 528.255554 167.1984 
L 528.048 167.36362 
L 527.620645 167.7528 
L 527.49 167.867478 
L 526.977608 168.3072 
L 526.932 168.349806 
L 526.374 168.778095 
L 526.289953 168.8616 
L 525.816 169.142797 
L 525.486917 169.416 
L 525.258 169.611902 
L 524.941115 169.9704 
L 524.7 170.154094 
L 524.142 170.335876 
L 523.772967 170.5248 
L 523.584 170.576189 
L 523.026 170.676306 
L 522.468 170.71696 
L 521.91 170.717994 
L 521.352 170.687854 
L 520.794 170.660195 
L 520.297104 170.5248 
L 520.236 170.473051 
L 519.678 170.239345 
L 519.12 170.166665 
L 518.562 170.135637 
L 518.004 170.019055 
L 517.927166 169.9704 
L 517.446 169.632483 
L 516.888 169.515445 
L 516.616611 169.416 
L 516.33 169.213723 
L 515.772 169.054794 
L 515.214 168.894007 
L 515.18103 168.8616 
L 515.156008 168.3072 
L 515.214 168.254728 
L 515.772 167.979603 
L 516.008513 167.7528 
L 516.33 167.55472 
L 516.741464 167.1984 
L 516.888 167.085941 
L 517.446 166.727505 
L 517.530047 166.644 
L 518.004 166.389437 
L 518.330163 166.0896 
L 518.562 165.883385 
L 519.087339 165.5352 
L 519.12 165.512052 
L 519.678 165.169724 
L 519.869926 164.9808 
L 520.236 164.721107 
L 520.652216 164.4264 
L 520.794 164.349569 
L 521.352 163.955505 
L 521.436047 163.872 
L 521.91 163.617437 
L 522.236163 163.3176 
L 522.468 163.159034 
L 522.891798 162.7632 
L 523.026 162.50885 
L 523.270646 162.2088 
L 523.376784 161.6544 
L 523.376784 161.1 
L 523.376784 160.5456 
L 523.34094 159.9912 
L 523.026 159.577361 
L 522.941702 159.4368 
L 522.690433 158.8824 
L 522.468 158.627401 
L 522.267169 158.328 
L 521.91 157.952936 
L 521.697251 157.7736 
L 521.352 157.486509 
L 520.794 157.425079 
L 520.236 157.425079 
L 519.678 157.425079 
L 519.12 157.425079 
L 518.562 157.425079 
L 518.004 157.425079 
L 517.446 157.425079 
L 516.888 157.535772 
L 516.614181 157.7736 
L 516.33 157.936758 
L 515.772 158.216514 
L 515.65979 158.328 
L 515.214 158.664239 
L 514.986282 158.8824 
L 514.656 159.175384 
L 514.392886 159.4368 
L 514.098 159.64416 
L 513.733669 159.9912 
L 513.54 160.208811 
L 513.22506 160.5456 
L 512.982 160.937934 
L 512.818882 161.1 
L 512.604256 161.6544 
L 512.424 161.944865 
L 512.166791 162.2088 
L 511.987277 162.7632 
L 511.866 162.998336 
L 511.6019 163.3176 
L 511.515216 163.872 
L 511.515216 164.4264 
L 511.515216 164.9808 
L 511.515216 165.5352 
L 511.515216 166.0896 
L 511.515216 166.644 
L 511.577045 167.1984 
L 511.866 167.576921 
L 511.959692 167.7528 
L 512.169315 168.3072 
L 512.424 168.577565 
L 512.587151 168.8616 
L 512.818882 169.416 
L 512.982 169.578066 
L 513.198702 169.9704 
L 513.54 170.33238 
L 513.737226 170.5248 
L 514.098 170.860197 
L 514.656 171.0081 
L 514.797784 171.0792 
L 515.214 171.371957 
L 515.772 171.5427 
L 516.023776 171.6336 
L 516.33 171.839297 
L 516.888 171.988859 
L 517.377167 172.188 
L 517.446 172.25283 
L 518.004 172.527097 
L 518.562 172.574993 
L 519.12 172.614156 
L 519.678 172.691011 
L 519.972833 172.7424 
L 520.236 172.848354 
L 520.794 172.980228 
L 521.352 173.055308 
L 521.91 173.090921 
L 522.468 173.076453 
L 523.026 172.995441 
L 523.584 172.80723 
z
" style="fill:#0000ff;"/>
   </g>
   <g id="patch_7">
    <path clip-path="url(#p464db486e3)" d="M 488.495251 171.6336 
L 488.988 171.443291 
L 489.546 171.14403 
L 489.611251 171.0792 
L 490.104 170.885057 
L 490.515306 170.5248 
L 490.662 170.382308 
L 491.22 170.295102 
L 491.778 170.369949 
L 492.336 170.484011 
L 492.463844 170.5248 
L 492.894 170.751603 
L 493.452 170.858853 
L 494.01 170.858853 
L 494.568 170.630754 
L 494.685881 170.5248 
L 495.126 170.371676 
L 495.684 170.241588 
L 496.066294 169.9704 
L 496.242 169.889903 
L 496.8 169.759914 
L 497.197138 169.416 
L 497.358 169.216556 
L 497.659784 168.8616 
L 497.646955 168.3072 
L 497.358 167.995657 
L 497.113566 167.7528 
L 496.8 167.465709 
L 496.242 167.460218 
L 495.684 167.636406 
L 495.126 167.575026 
L 494.568 167.473527 
L 494.01 167.413703 
L 493.452 167.36884 
L 492.894 167.326644 
L 492.715917 167.1984 
L 492.686784 166.644 
L 492.686784 166.0896 
L 492.686784 165.5352 
L 492.686784 164.9808 
L 492.686784 164.4264 
L 492.686784 163.872 
L 492.66281 163.3176 
L 492.374881 162.7632 
L 492.336 162.722329 
L 492.168493 162.2088 
L 492.025339 161.6544 
L 491.778 161.338902 
L 491.670689 161.1 
L 491.54681 160.5456 
L 491.22 160.178417 
L 491.053369 159.9912 
L 490.662 159.642679 
L 490.294151 159.4368 
L 490.104 159.247876 
L 489.546 158.983865 
L 489.326632 158.8824 
L 488.988 158.629359 
L 488.43 158.644572 
L 488.156181 158.8824 
L 487.872 159.176052 
L 487.643724 159.4368 
L 487.521216 159.9912 
L 487.314 160.197079 
L 486.756 160.318797 
L 486.493559 160.5456 
L 486.198 160.839252 
L 485.969724 161.1 
L 485.9339 161.6544 
L 485.855527 162.2088 
L 485.661118 162.7632 
L 485.64 162.791635 
L 485.275408 163.3176 
L 485.082 163.788495 
L 484.997953 163.872 
L 484.695578 164.4264 
L 484.524 164.795611 
L 484.345072 164.9808 
L 484.120867 165.5352 
L 483.966 165.826597 
L 483.718661 166.0896 
L 483.53635 166.644 
L 483.408 166.8742 
L 483.126914 167.1984 
L 482.942772 167.7528 
L 482.85 167.942741 
L 482.577051 168.3072 
L 482.568914 168.8616 
L 482.85 169.222568 
L 482.952124 169.416 
L 483.217849 169.9704 
L 483.408 170.159324 
L 483.615216 170.5248 
L 483.966 170.904375 
L 484.200703 171.0792 
L 484.524 171.366291 
L 485.082 171.466193 
L 485.64 171.528949 
L 486.097509 171.6336 
L 486.198 171.69843 
L 486.756 171.886641 
L 487.314 171.967653 
L 487.872 171.952552 
L 488.43 171.69843 
z
" style="fill:#0000ff;"/>
   </g>
   <g id="patch_8">
    <path clip-path="url(#p464db486e3)" d="M 474.48 169.556216 
L 473.922 169.657492 
L 473.67894 169.416 
L 473.922 169.099428 
L 474.161373 168.8616 
L 474.48 168.413154 
L 474.586642 168.3072 
L 474.983744 167.7528 
L 475.038 167.655064 
L 475.346535 167.1984 
L 475.332658 166.644 
L 475.038 166.317273 
L 474.753819 166.0896 
L 474.48 165.851772 
L 473.922 165.851772 
L 473.648181 166.0896 
L 473.364 166.25932 
L 472.999891 166.644 
L 472.806 166.88356 
L 472.497465 167.1984 
L 472.248 167.525997 
L 472.019724 167.7528 
L 471.69 168.26857 
L 471.482784 167.7528 
L 471.482784 167.1984 
L 471.482784 166.644 
L 471.482784 166.0896 
L 471.482784 165.5352 
L 471.482784 164.9808 
L 471.482784 164.4264 
L 471.491474 163.872 
L 471.69 163.48768 
L 471.868477 163.3176 
L 472.248 163.145472 
L 472.806 162.82803 
L 472.871251 162.7632 
L 473.364 162.572891 
L 473.909741 162.2088 
L 473.922 162.199103 
L 474.48 161.952587 
L 475.005301 161.6544 
L 475.038 161.637444 
L 475.596 161.385271 
L 476.069061 161.1 
L 476.154 161.05519 
L 476.712 160.814744 
L 477.137377 160.5456 
L 477.27 160.487894 
L 477.828 160.297745 
L 478.191492 159.9912 
L 478.386 159.874158 
L 478.944 159.716073 
L 479.281774 159.4368 
L 479.502 159.320279 
L 480.06 159.31456 
L 480.194202 159.4368 
L 480.618 159.857864 
L 480.745319 159.9912 
L 480.825216 160.5456 
L 480.825216 161.1 
L 480.825216 161.6544 
L 480.825216 162.2088 
L 480.777987 162.7632 
L 480.627105 163.3176 
L 480.618 163.337116 
L 480.316216 163.872 
L 480.152373 164.4264 
L 480.06 164.703284 
L 479.88509 164.9808 
L 479.765342 165.5352 
L 479.682585 166.0896 
L 479.615533 166.644 
L 479.502 167.027388 
L 479.37482 167.1984 
L 478.944 167.446255 
L 478.54642 167.7528 
L 478.386 167.843657 
L 477.828 168.000655 
L 477.43042 168.3072 
L 477.27 168.397598 
L 476.712 168.539738 
L 476.24358 168.8616 
L 476.154 168.912989 
L 475.596 169.05283 
L 475.038 169.238226 
L 474.836824 169.416 
z
" style="fill:#ffffff;"/>
   </g>
   <g id="patch_9">
    <path clip-path="url(#p464db486e3)" d="M 516.33 164.689787 
L 516.105722 164.4264 
L 516.239882 163.872 
L 516.33 163.639774 
L 516.558276 163.3176 
L 516.685222 162.7632 
L 516.774467 162.2088 
L 516.888 161.867454 
L 517.051118 161.6544 
L 517.229298 161.1 
L 517.304874 160.5456 
L 517.446 160.174366 
L 517.609118 159.9912 
L 518.004 159.785321 
L 518.562 159.785321 
L 519.12 159.785321 
L 519.678 159.785321 
L 520.236 159.785321 
L 520.603849 159.9912 
L 520.794 160.180124 
L 520.981747 160.5456 
L 521.001216 161.1 
L 520.817561 161.6544 
L 520.794 161.675614 
L 520.236 161.921527 
L 519.836341 162.2088 
L 519.678 162.312325 
L 519.238259 162.7632 
L 519.12 162.857716 
L 518.562 163.155534 
L 518.398882 163.3176 
L 518.004 163.547298 
L 517.644363 163.872 
L 517.446 164.028208 
L 516.888 164.244716 
L 516.705136 164.4264 
z
" style="fill:#ffffff;"/>
   </g>
   <g id="patch_10">
    <path clip-path="url(#p464db486e3)" d="M 533.46758 171.0792 
L 533.628 170.97866 
L 534.094805 170.5248 
L 534.186 170.434194 
L 534.652805 169.9704 
L 534.744 169.879794 
L 535.200807 169.416 
L 535.302 169.256615 
L 535.610535 168.8616 
L 535.590955 168.3072 
L 535.302 167.975441 
L 535.180557 167.7528 
L 535.146609 167.1984 
L 535.146609 166.644 
L 535.146609 166.0896 
L 535.146609 165.5352 
L 535.146609 164.9808 
L 535.146609 164.4264 
L 535.19469 163.872 
L 535.302 163.331582 
L 535.310766 163.3176 
L 535.521578 162.7632 
L 535.643298 162.2088 
L 535.652784 161.6544 
L 535.652784 161.1 
L 535.570592 160.5456 
L 535.302 160.233546 
L 535.036871 159.9912 
L 534.744 159.745456 
L 534.186 159.764397 
L 533.923559 159.9912 
L 533.628 160.244315 
L 533.359408 160.5456 
L 533.277216 161.1 
L 533.277216 161.6544 
L 533.261545 162.2088 
L 533.139255 162.7632 
L 533.07 163.084811 
L 532.95285 163.3176 
L 532.8059 163.872 
L 532.733778 164.4264 
L 532.664371 164.9808 
L 532.547282 165.5352 
L 532.512 165.688738 
L 532.33709 166.0896 
L 532.221057 166.644 
L 532.160142 167.1984 
L 532.119617 167.7528 
L 532.025561 168.3072 
L 531.954 168.594585 
L 531.808069 168.8616 
L 531.665045 169.416 
L 531.603216 169.9704 
L 531.6899 170.5248 
L 531.954 170.844064 
L 532.161383 171.0792 
L 532.512 171.371957 
L 533.07 171.385745 
z
" style="fill:#0000ff;"/>
   </g>
   <g id="patch_11">
    <path clip-path="url(#p464db486e3)" d="M 501.822 166.218087 
L 501.264 166.28768 
L 501.090754 166.0896 
L 501.264 165.745344 
L 501.467591 165.5352 
L 501.670812 164.9808 
L 501.822 164.696635 
L 502.069339 164.4264 
L 502.249843 163.872 
L 502.38 163.6418 
L 502.661086 163.3176 
L 502.837397 162.7632 
L 502.938 162.593853 
L 503.246535 162.2088 
L 503.430342 161.6544 
L 503.496 161.560188 
L 503.560991 161.6544 
L 503.65877 162.2088 
L 503.667547 162.7632 
L 503.676585 163.3176 
L 503.686535 163.872 
L 503.624001 164.4264 
L 503.496 164.562654 
L 503.075139 164.9808 
L 502.938 165.117054 
L 502.517139 165.5352 
L 502.38 165.671454 
L 501.959139 166.0896 
z
" style="fill:#ffffff;"/>
   </g>
   <g id="patch_12">
    <path clip-path="url(#p464db486e3)" d="M 515.214 162.717676 
L 515.051205 162.2088 
L 515.214 162.00906 
L 515.357067 162.2088 
z
" style="fill:#ffffff;"/>
   </g>
   <g id="patch_13">
    <path clip-path="url(#p464db486e3)" d="M 514.098 165.809501 
L 513.968384 165.5352 
L 513.933887 164.9808 
L 513.919121 164.4264 
L 513.932785 163.872 
L 514.098 163.558248 
L 514.331919 163.3176 
L 514.561939 162.7632 
L 514.656 162.651457 
L 515.142918 162.7632 
L 514.912216 163.3176 
L 514.824494 163.872 
L 514.656 164.30004 
L 514.52882 164.4264 
L 514.383051 164.9808 
L 514.24961 165.5352 
z
" style="fill:#ffffff;"/>
   </g>
   <g id="patch_14">
    <path clip-path="url(#p464db486e3)" d="M 490.104 163.612684 
L 489.971984 163.3176 
L 490.104 163.107137 
L 490.227113 163.3176 
z
" style="fill:#ffffff;"/>
   </g>
   <g id="patch_15">
    <path clip-path="url(#p464db486e3)" d="M 464.501251 166.0896 
L 464.994 165.896501 
L 465.4062 165.5352 
L 465.552 165.366726 
L 465.888222 164.9808 
L 465.840955 164.4264 
L 465.552 164.114857 
L 465.23433 163.872 
L 464.994 163.657017 
L 464.436 163.634172 
L 464.100716 163.872 
L 463.878 163.961986 
L 463.32 164.035054 
L 462.762 164.036549 
L 462.204 164.04091 
L 461.646 164.04244 
L 461.088 164.046429 
L 460.53 164.048849 
L 459.972 164.05142 
L 459.414 164.054908 
L 458.856 164.058535 
L 458.298 164.062309 
L 457.74 164.064254 
L 457.182 164.069245 
L 456.624 164.071335 
L 456.066 164.077879 
L 455.508 164.077879 
L 454.95 164.055845 
L 454.392 163.99266 
L 454.126871 163.872 
L 453.834 163.626256 
L 453.276 163.523479 
L 452.718 163.523479 
L 452.16 163.645197 
L 451.897559 163.872 
L 451.602 164.154348 
L 451.362627 164.4264 
L 451.3379 164.9808 
L 451.602 165.312596 
L 451.78784 165.5352 
L 452.16 165.838436 
L 452.718 165.92512 
L 453.276 165.984949 
L 453.733509 166.0896 
L 453.834 166.15443 
L 454.392 166.342641 
L 454.95 166.423653 
L 455.508 166.438121 
L 456.066 166.438121 
L 456.624 166.438121 
L 457.182 166.438121 
L 457.74 166.438121 
L 458.298 166.438121 
L 458.856 166.438121 
L 459.414 166.438121 
L 459.972 166.438121 
L 460.53 166.438121 
L 461.088 166.438121 
L 461.646 166.438121 
L 462.204 166.438121 
L 462.762 166.438121 
L 463.32 166.438121 
L 463.878 166.423653 
L 464.436 166.15443 
z
" style="fill:#0000ff;"/>
   </g>
   <g id="patch_16">
    <path clip-path="url(#p464db486e3)" d="M 487.314 165.556182 
L 486.756 165.734644 
L 486.639295 165.5352 
L 486.756 165.329154 
L 487.050658 164.9808 
L 487.222553 164.4264 
L 487.314 164.281749 
L 487.441042 164.4264 
L 487.565199 164.9808 
L 487.338621 165.5352 
z
" style="fill:#ffffff;"/>
   </g>
   <g id="patch_17">
    <path clip-path="url(#p464db486e3)" d="M 487.872 169.507277 
L 487.314 169.602535 
L 486.756 169.559243 
L 486.198 169.467389 
L 486.021987 169.416 
L 485.64 169.213723 
L 485.321373 168.8616 
L 485.494119 168.3072 
L 485.64 168.186762 
L 486.198 167.89779 
L 486.343931 167.7528 
L 486.756 167.546921 
L 487.178305 167.1984 
L 487.314 167.098446 
L 487.872 166.858983 
L 488.43 166.9096 
L 488.555319 167.1984 
L 488.67306 167.7528 
L 488.988 168.143278 
L 489.094288 168.3072 
L 489.075414 168.8616 
L 488.988 168.943693 
L 488.43 169.109455 
L 488.03242 169.416 
z
" style="fill:#ffffff;"/>
   </g>
   <g id="patch_18">
    <path clip-path="url(#p464db486e3)" d="M 419.861251 187.7112 
L 420.354 187.520891 
L 420.807645 187.1568 
L 420.912 187.066194 
L 421.378805 186.6024 
L 421.47 186.511794 
L 421.936805 186.048 
L 422.028 185.957394 
L 422.527329 185.4936 
L 422.586 185.440569 
L 423.144 185.08419 
L 423.289931 184.9392 
L 423.702 184.655988 
L 423.983422 184.3848 
L 424.26 184.183284 
L 424.648209 183.8304 
L 424.818 183.692637 
L 425.29295 183.276 
L 425.376 183.201927 
L 425.934 182.805105 
L 426.018047 182.7216 
L 426.492 182.420241 
L 426.755114 182.1672 
L 427.05 181.977702 
L 427.608 182.084717 
L 427.74834 182.1672 
L 428.166 182.481574 
L 428.724 182.55712 
L 429.282 182.616949 
L 429.713174 182.7216 
L 429.84 182.805105 
L 430.398 182.992788 
L 430.956 183.187784 
L 431.046208 183.276 
L 431.514 183.730925 
L 431.686107 183.8304 
L 432.072 184.123157 
L 432.63 184.178921 
L 433.188 184.178921 
L 433.746 184.178921 
L 434.304 184.178921 
L 434.862 184.178921 
L 435.42 184.136945 
L 435.807553 183.8304 
L 435.978 183.661053 
L 436.286535 183.276 
L 436.328784 182.7216 
L 436.371162 182.1672 
L 436.536 181.901364 
L 436.808949 181.6128 
L 437.052063 181.0584 
L 437.094 180.99434 
L 437.435298 180.504 
L 437.505294 179.9496 
L 437.630882 179.3952 
L 437.652 179.332287 
L 437.899339 178.8408 
L 437.993298 178.2864 
L 438.002784 177.732 
L 438.002784 177.1776 
L 438.002784 176.6232 
L 437.97881 176.0688 
L 437.652 175.551682 
L 437.630882 175.5144 
L 437.445858 174.96 
L 437.094 174.560501 
L 436.873774 174.4056 
L 436.536 174.126327 
L 435.978 174.057079 
L 435.42 174.057079 
L 434.862 174.057079 
L 434.304 174.057079 
L 433.746 174.126327 
L 433.303413 174.4056 
L 433.188 174.456989 
L 432.63 174.59776 
L 432.072 174.782226 
L 431.870824 174.96 
L 431.514 175.099624 
L 430.956 175.214563 
L 430.60983 175.5144 
L 430.398 175.658072 
L 429.975655 176.0688 
L 429.84 176.203579 
L 429.417655 176.6232 
L 429.282 176.75374 
L 428.855388 177.1776 
L 428.724 177.312379 
L 428.301655 177.732 
L 428.166 177.866779 
L 427.743655 178.2864 
L 427.608 178.421179 
L 427.185655 178.8408 
L 427.05 178.963556 
L 426.492 178.902361 
L 426.390587 178.8408 
L 425.934 178.512032 
L 425.376 178.347961 
L 425.24679 178.2864 
L 424.818 177.999309 
L 424.26 177.926143 
L 423.702 177.884814 
L 423.144 177.793561 
L 422.898874 177.732 
L 422.586 177.569934 
L 422.028 177.444909 
L 421.47 177.439243 
L 420.912 177.66717 
L 420.839168 177.732 
L 420.354 177.879737 
L 419.796 177.986563 
L 419.404058 178.2864 
L 419.238 178.377677 
L 418.68 178.534255 
L 418.28242 178.8408 
L 418.122 178.932077 
L 417.564 179.102443 
L 417.260912 179.3952 
L 417.006 179.678797 
L 416.7419 179.9496 
L 416.622713 180.504 
L 416.519561 181.0584 
L 416.448 181.255249 
L 416.219724 181.6128 
L 416.097216 182.1672 
L 416.028658 182.7216 
L 415.89 183.179097 
L 415.805953 183.276 
L 415.601045 183.8304 
L 415.6259 184.3848 
L 415.89 184.681641 
L 416.105756 184.9392 
L 416.448 185.245745 
L 417.006 185.258152 
L 417.392148 184.9392 
L 417.564 184.790704 
L 417.710536 184.9392 
L 417.771216 185.4936 
L 417.771216 186.048 
L 417.771216 186.6024 
L 417.849051 187.1568 
L 418.122 187.484622 
L 418.305138 187.7112 
L 418.68 188.030152 
L 419.238 188.035902 
L 419.796 187.77603 
z
" style="fill:#0000ff;"/>
   </g>
   <g id="patch_19">
    <path clip-path="url(#p464db486e3)" d="M 433.746 181.815406 
L 433.188 181.818679 
L 432.63 181.739298 
L 432.495798 181.6128 
L 432.072 181.200565 
L 431.832364 181.0584 
L 431.514 180.787212 
L 430.956 180.690535 
L 430.398 180.646657 
L 429.84 180.555389 
L 429.651033 180.504 
L 429.282 180.204546 
L 429.192758 179.9496 
L 429.282 179.860934 
L 429.750758 179.3952 
L 429.84 179.306534 
L 430.308758 178.8408 
L 430.398 178.752134 
L 430.866758 178.2864 
L 430.956 178.197734 
L 431.424758 177.732 
L 431.514 177.643784 
L 432.072 177.32259 
L 432.231845 177.1776 
L 432.63 177.029234 
L 433.188 176.910291 
L 433.59984 176.6232 
L 433.746 176.5521 
L 434.304 176.434797 
L 434.862 176.417321 
L 435.42 176.417321 
L 435.597205 176.6232 
L 435.604952 177.1776 
L 435.621749 177.732 
L 435.596419 178.2864 
L 435.533533 178.8408 
L 435.42 179.16887 
L 435.24509 179.3952 
L 435.047903 179.9496 
L 434.862 180.403193 
L 434.760538 180.504 
L 434.432293 181.0584 
L 434.304 181.300746 
L 434.035408 181.6128 
z
" style="fill:#ffffff;"/>
   </g>
   <g id="patch_20">
    <path clip-path="url(#p464db486e3)" d="M 420.912 183.95106 
L 420.354 183.984789 
L 419.796 183.951111 
L 419.530871 183.8304 
L 419.238 183.584656 
L 418.68 183.603597 
L 418.399176 183.276 
L 418.567828 182.7216 
L 418.68 182.554428 
L 418.99494 182.1672 
L 419.238 181.696305 
L 419.322047 181.6128 
L 419.663374 181.0584 
L 419.796 180.898694 
L 420.153371 180.504 
L 420.354 180.327151 
L 420.912 180.151877 
L 421.184263 179.9496 
L 421.47 179.844949 
L 422.028 179.79515 
L 422.586 179.860064 
L 422.997702 179.9496 
L 423.144 180.033105 
L 423.702 180.220788 
L 424.26 180.307833 
L 424.818 180.483018 
L 424.842939 180.504 
L 424.818 180.564006 
L 424.554886 181.0584 
L 424.26 181.264611 
L 423.885675 181.6128 
L 423.702 181.761183 
L 423.22858 182.1672 
L 423.144 182.240479 
L 422.586 182.638095 
L 422.501953 182.7216 
L 422.028 183.022959 
L 421.764886 183.276 
L 421.47 183.482211 
L 421.086123 183.8304 
z
" style="fill:#ffffff;"/>
   </g>
   <g id="patch_21">
    <path clip-path="url(#p464db486e3)" d="M 418.122 184.074329 
L 418.024261 183.8304 
L 418.122 183.633424 
L 418.367513 183.8304 
z
" style="fill:#ffffff;"/>
   </g>
   <g id="patch_22">
    <path clip-path="url(#p464db486e3)" d="M 439.262679 457.1496 
L 439.326 457.128618 
L 439.884 457.004508 
L 440.442 456.943721 
L 441 456.797477 
L 441.272263 456.5952 
L 441.558 456.490549 
L 442.116 456.401057 
L 442.674 456.389321 
L 443.232 456.389321 
L 443.79 456.347345 
L 444.177553 456.0408 
L 444.348 455.871453 
L 444.656535 455.4864 
L 444.698784 454.932 
L 444.636955 454.3776 
L 444.348 454.045841 
L 444.082871 453.8232 
L 443.79 453.577456 
L 443.232 453.596397 
L 442.969559 453.8232 
L 442.674 453.965089 
L 442.116 454.019465 
L 441.558 454.090509 
L 441.021469 454.3776 
L 441 454.386646 
L 440.442 454.534476 
L 439.884 454.628764 
L 439.326 454.826046 
L 439.179201 454.932 
L 438.768 455.0448 
L 438.21 455.106429 
L 437.652 455.13565 
L 437.094 455.137879 
L 436.536 455.137879 
L 435.978 455.137879 
L 435.42 455.137879 
L 434.862 455.137879 
L 434.304 455.098501 
L 434.139511 454.932 
L 433.891931 454.3776 
L 433.746 454.192282 
L 433.594805 453.8232 
L 433.534147 453.2688 
L 433.554455 452.7144 
L 433.565415 452.16 
L 433.575993 451.6056 
L 433.632521 451.0512 
L 433.746 450.870853 
L 434.065603 450.4968 
L 434.304 450.120174 
L 434.482928 449.9424 
L 434.797428 449.388 
L 434.862 449.318358 
L 435.328805 448.8336 
L 435.42 448.742994 
L 435.886805 448.2792 
L 435.978 448.188594 
L 436.444805 447.7248 
L 436.536 447.634194 
L 436.992807 447.1704 
L 437.094 447.02115 
L 437.415023 446.616 
L 437.483506 446.0616 
L 437.550452 445.5072 
L 437.652 444.994303 
L 437.675525 444.9528 
L 437.871578 444.3984 
L 437.988222 443.844 
L 437.960535 443.2896 
L 437.652 442.777406 
L 437.630882 442.7352 
L 437.435298 442.1808 
L 437.094 441.800457 
L 436.836261 441.6264 
L 436.536 441.373359 
L 435.978 441.277879 
L 435.42 441.277879 
L 434.862 441.277879 
L 434.304 441.277879 
L 433.746 441.424123 
L 433.518932 441.6264 
L 433.188 441.805679 
L 432.825003 442.1808 
L 432.63 442.42036 
L 432.321465 442.7352 
L 432.072 443.062797 
L 431.843724 443.2896 
L 431.514 443.80537 
L 431.475119 443.844 
L 430.956 444.282006 
L 430.83885 444.3984 
L 430.414652 444.9528 
L 430.398 444.9728 
L 429.949514 445.5072 
L 429.84 445.637807 
L 429.531465 446.0616 
L 429.282 446.389197 
L 429.053724 446.616 
L 428.724 447.13177 
L 428.685119 447.1704 
L 428.240922 447.7248 
L 428.166 447.805936 
L 427.736001 448.2792 
L 427.608 448.538854 
L 427.368627 448.8336 
L 427.335051 449.388 
L 427.608 449.715822 
L 427.815383 449.9424 
L 428.166 450.235157 
L 428.724 450.290921 
L 429.282 450.290921 
L 429.84 450.248945 
L 430.227553 449.9424 
L 430.398 449.773053 
L 430.706535 449.388 
L 430.686955 448.8336 
L 430.744261 448.2792 
L 430.956 448.019621 
L 431.252736 447.7248 
L 431.514 447.394465 
L 431.73952 447.1704 
L 432.072 446.716807 
L 432.173462 446.616 
L 432.617052 446.0616 
L 432.63 446.048259 
L 433.098013 445.5072 
L 433.188 445.416396 
L 433.501938 445.5072 
L 433.41919 446.0616 
L 433.323747 446.616 
L 433.188 447.126493 
L 433.156685 447.1704 
L 432.919408 447.7248 
L 432.801547 448.2792 
L 432.63 448.624853 
L 432.419898 448.8336 
L 432.124523 449.388 
L 432.072 449.449156 
L 431.663274 449.9424 
L 431.514 450.187071 
L 431.236824 450.4968 
L 431.163216 451.0512 
L 431.163216 451.6056 
L 431.163216 452.16 
L 431.151404 452.7144 
L 430.956 453.053817 
L 430.739621 453.2688 
L 430.530626 453.8232 
L 430.398 454.094655 
L 430.158627 454.3776 
L 430.1339 454.932 
L 430.398 455.219004 
L 430.578443 455.4864 
L 430.956 455.839331 
L 431.38682 456.0408 
L 431.514 456.16716 
L 432.072 456.452654 
L 432.31441 456.5952 
L 432.63 456.874473 
L 433.188 457.077062 
L 433.310528 457.1496 
L 433.746 457.468552 
L 434.304 457.498121 
L 434.862 457.498121 
L 435.42 457.498121 
L 435.978 457.498121 
L 436.536 457.498121 
L 437.094 457.498121 
L 437.652 457.498121 
L 438.21 457.488697 
L 438.768 457.395344 
z
" style="fill:#0000ff;"/>
   </g>
   <g id="patch_23">
    <path clip-path="url(#p464db486e3)" d="M 433.746 445.189934 
L 433.688981 444.9528 
L 433.746 444.89483 
L 433.797723 444.9528 
z
" style="fill:#ffffff;"/>
   </g>
   <g id="patch_24">
    <path clip-path="url(#p464db486e3)" d="M 429.12158 482.0976 
L 429.282 481.998125 
L 429.749792 481.5432 
L 429.84 481.453574 
L 430.307792 480.9888 
L 430.398 480.899174 
L 430.855879 480.4344 
L 430.956 480.275015 
L 431.264535 479.88 
L 431.244955 479.3256 
L 430.956 478.993841 
L 430.690871 478.7712 
L 430.398 478.525456 
L 429.84 478.544397 
L 429.632784 478.2168 
L 429.632784 477.6624 
L 429.632784 477.108 
L 429.632784 476.5536 
L 429.632784 475.9992 
L 429.632784 475.4448 
L 429.632784 474.8904 
L 429.632784 474.336 
L 429.632784 473.7816 
L 429.632784 473.2272 
L 429.60881 472.6728 
L 429.320881 472.1184 
L 429.282 472.077529 
L 429.114493 471.564 
L 428.971339 471.0096 
L 428.724 470.694102 
L 428.617215 470.4552 
L 428.524479 469.9008 
L 428.516784 469.3464 
L 428.516784 468.792 
L 428.516784 468.2376 
L 428.516784 467.6832 
L 428.516784 467.1288 
L 428.516784 466.5744 
L 428.516784 466.02 
L 428.516784 465.4656 
L 428.49281 464.9112 
L 428.166 464.394082 
L 428.144882 464.3568 
L 427.950473 463.8024 
L 427.608 463.421 
L 427.350261 463.248 
L 427.05 462.994959 
L 426.492 462.899479 
L 425.934 462.899479 
L 425.376 463.021197 
L 425.113559 463.248 
L 424.818 463.541652 
L 424.589724 463.8024 
L 424.462778 464.3568 
L 424.351447 464.9112 
L 424.26 465.070585 
L 424.132958 464.9112 
L 424.052784 464.3568 
L 424.052784 463.8024 
L 424.061574 463.248 
L 424.098617 462.6936 
L 424.170973 462.1392 
L 424.26 461.68321 
L 424.312733 461.5848 
L 424.48552 461.0304 
L 424.601298 460.476 
L 424.818 460.255653 
L 425.228658 459.9216 
L 425.376 459.762767 
L 425.697023 459.3672 
L 425.697023 458.8128 
L 425.376 458.450933 
L 425.187568 458.2584 
L 424.818 457.933698 
L 424.26 457.765561 
L 424.119045 457.704 
L 423.702 457.432812 
L 423.144 457.477197 
L 422.881559 457.704 
L 422.586 457.986348 
L 422.346627 458.2584 
L 422.234142 458.8128 
L 422.22554 459.3672 
L 422.213903 459.9216 
L 422.201192 460.476 
L 422.116617 461.0304 
L 422.028 461.48639 
L 421.975267 461.5848 
L 421.80248 462.1392 
L 421.739045 462.6936 
L 421.677216 463.248 
L 421.677216 463.8024 
L 421.677216 464.3568 
L 421.677216 464.9112 
L 421.677216 465.4656 
L 421.677216 466.02 
L 421.677216 466.5744 
L 421.677216 467.1288 
L 421.677216 467.6832 
L 421.677216 468.2376 
L 421.677216 468.792 
L 421.672778 469.3464 
L 421.561404 469.9008 
L 421.47 470.060185 
L 421.161465 470.4552 
L 421.00387 471.0096 
L 420.912 471.199541 
L 420.639051 471.564 
L 420.561216 472.1184 
L 420.6479 472.6728 
L 420.912 472.992064 
L 421.11274 473.2272 
L 421.47 473.527037 
L 422.028 473.561253 
L 422.438658 473.2272 
L 422.586 473.103051 
L 422.950592 472.6728 
L 423.144 472.18323 
L 423.209251 472.1184 
L 423.512373 471.564 
L 423.702 471.07443 
L 423.767251 471.0096 
L 424.070373 470.4552 
L 424.26 469.96563 
L 424.325251 469.9008 
L 424.628373 469.3464 
L 424.818 468.85683 
L 424.883251 468.792 
L 425.186373 468.2376 
L 425.376 467.74803 
L 425.441251 467.6832 
L 425.744373 467.1288 
L 425.934 466.63923 
L 426.137922 467.1288 
L 426.141216 467.6832 
L 426.141216 468.2376 
L 426.141216 468.792 
L 426.141216 469.3464 
L 426.141216 469.9008 
L 426.190216 470.4552 
L 426.492 470.965451 
L 426.513118 471.0096 
L 426.661284 471.564 
L 426.744795 472.1184 
L 427.05 472.51722 
L 427.135831 472.6728 
L 427.197975 473.2272 
L 427.218494 473.7816 
L 427.22634 474.336 
L 427.234952 474.8904 
L 427.251749 475.4448 
L 427.257216 475.9992 
L 427.257216 476.5536 
L 427.257216 477.108 
L 427.257216 477.6624 
L 427.257216 478.2168 
L 427.257216 478.7712 
L 427.257216 479.3256 
L 427.257216 479.88 
L 427.257216 480.4344 
L 427.257216 480.9888 
L 427.3439 481.5432 
L 427.608 481.862464 
L 427.815383 482.0976 
L 428.166 482.390357 
L 428.724 482.404145 
z
" style="fill:#0000ff;"/>
   </g>
   <g id="patch_25">
    <path clip-path="url(#p464db486e3)" d="M 393.284263 522.0144 
L 393.57 521.909749 
L 394.128 521.808521 
L 394.558958 521.46 
L 394.686 521.315349 
L 395.01281 520.9056 
L 395.036784 520.3512 
L 395.036784 519.7968 
L 395.036784 519.2424 
L 394.954592 518.688 
L 394.686 518.375946 
L 394.420871 518.1336 
L 394.128 517.887856 
L 393.57 517.906797 
L 393.307559 518.1336 
L 393.012 518.382421 
L 392.739051 518.688 
L 392.628713 519.2424 
L 392.454 519.713295 
L 392.249027 519.2424 
L 392.246784 518.688 
L 392.246784 518.1336 
L 392.246784 517.5792 
L 392.246784 517.0248 
L 392.246784 516.4704 
L 392.246784 515.916 
L 392.246784 515.3616 
L 392.246784 514.8072 
L 392.246784 514.2528 
L 392.246784 513.6984 
L 392.246784 513.144 
L 392.246784 512.5896 
L 392.246784 512.0352 
L 392.246784 511.4808 
L 392.246784 510.9264 
L 392.246784 510.372 
L 392.246784 509.8176 
L 392.246784 509.2632 
L 392.246784 508.7088 
L 392.21094 508.1544 
L 391.896 507.740561 
L 391.811702 507.6 
L 391.554379 507.0456 
L 391.338 506.82257 
L 391.146196 506.4912 
L 390.78 506.086042 
L 390.642861 505.9368 
L 390.222 505.52761 
L 389.964261 505.3824 
L 389.664 505.129359 
L 389.106 505.129359 
L 388.756008 505.3824 
L 388.548 505.473677 
L 387.99 505.644043 
L 387.661151 505.9368 
L 387.432 506.230452 
L 387.203724 506.4912 
L 387.051125 507.0456 
L 386.874 507.45501 
L 386.728069 507.6 
L 386.443664 508.1544 
L 386.316 508.35256 
L 386.00106 508.7088 
L 385.790617 509.2632 
L 385.758 509.304173 
L 385.709581 509.2632 
L 385.550784 508.7088 
L 385.550784 508.1544 
L 385.550784 507.6 
L 385.550784 507.0456 
L 385.550784 506.4912 
L 385.550784 505.9368 
L 385.550784 505.3824 
L 385.550784 504.828 
L 385.550784 504.2736 
L 385.550784 503.7192 
L 385.550784 503.1648 
L 385.550784 502.6104 
L 385.550784 502.056 
L 385.550784 501.5016 
L 385.550784 500.9472 
L 385.550784 500.3928 
L 385.487123 499.8384 
L 385.2 499.312958 
L 385.184935 499.284 
L 384.864433 498.7296 
L 384.642 498.500481 
L 384.451271 498.1752 
L 384.084 497.795995 
L 383.797989 497.6208 
L 383.526 497.375056 
L 382.968 497.431876 
L 382.770162 497.6208 
L 382.41 497.965056 
L 382.206409 498.1752 
L 382.1459 498.7296 
L 382.41 499.250159 
L 382.423585 499.284 
L 382.684808 499.8384 
L 382.968 500.119765 
L 383.133617 500.3928 
L 383.159452 500.9472 
L 383.175216 501.5016 
L 383.175216 502.056 
L 383.175216 502.6104 
L 383.175216 503.1648 
L 383.175216 503.7192 
L 383.175216 504.2736 
L 383.175216 504.828 
L 383.175216 505.3824 
L 383.175216 505.9368 
L 383.175216 506.4912 
L 383.175216 507.0456 
L 383.175216 507.6 
L 383.175216 508.1544 
L 383.175216 508.7088 
L 383.175216 509.2632 
L 383.175216 509.8176 
L 383.175216 510.372 
L 383.175216 510.9264 
L 383.175216 511.4808 
L 383.175216 512.0352 
L 383.175216 512.5896 
L 383.175216 513.144 
L 383.2619 513.6984 
L 383.526 514.017664 
L 383.6911 514.2528 
L 384.084 514.591897 
L 384.642 514.786218 
L 384.682689 514.8072 
L 385.2 515.120108 
L 385.758 515.141253 
L 386.168658 514.8072 
L 386.316 514.648367 
L 386.637023 514.2528 
L 386.666784 513.6984 
L 386.666784 513.144 
L 386.666784 512.5896 
L 386.702422 512.0352 
L 386.874 511.715787 
L 387.102276 511.4808 
L 387.322081 510.9264 
L 387.432 510.755657 
L 387.753023 510.372 
L 387.980895 509.8176 
L 387.99 509.806189 
L 388.379843 509.2632 
L 388.548 508.997364 
L 388.820949 508.7088 
L 389.064063 508.1544 
L 389.106 508.097433 
L 389.189745 508.1544 
L 389.664 508.452754 
L 389.823314 508.7088 
L 389.841205 509.2632 
L 389.858544 509.8176 
L 389.871216 510.372 
L 389.871216 510.9264 
L 389.871216 511.4808 
L 389.871216 512.0352 
L 389.871216 512.5896 
L 389.871216 513.144 
L 389.871216 513.6984 
L 389.871216 514.2528 
L 389.871216 514.8072 
L 389.871216 515.3616 
L 389.871216 515.916 
L 389.871216 516.4704 
L 389.871216 517.0248 
L 389.871216 517.5792 
L 389.871216 518.1336 
L 389.871216 518.688 
L 389.871216 519.2424 
L 389.871216 519.7968 
L 389.871216 520.3512 
L 389.9579 520.9056 
L 390.222 521.224864 
L 390.3871 521.46 
L 390.78 521.799097 
L 391.338 521.993418 
L 391.38048 522.0144 
L 391.896 522.320945 
L 392.454 522.353497 
L 393.012 522.216677 
z
" style="fill:#0000ff;"/>
   </g>
   <g id="patch_26">
    <path clip-path="url(#p464db486e3)" d="M 671.283553 552.5064 
L 671.454 552.341091 
L 671.767294 551.952 
L 671.823363 551.3976 
L 671.867171 550.8432 
L 671.990882 550.2888 
L 672.012 550.225887 
L 672.259339 549.7344 
L 672.348222 549.18 
L 672.300955 548.6256 
L 672.012 548.314057 
L 671.845708 548.0712 
L 671.804784 547.5168 
L 671.804784 546.9624 
L 671.804784 546.408 
L 671.741123 545.8536 
L 671.454 545.334667 
L 671.436498 545.2992 
L 671.112379 544.7448 
L 670.896 544.52177 
L 670.716608 544.1904 
L 670.688784 543.636 
L 670.896 543.452155 
L 671.454 543.507756 
L 672.012 543.626954 
L 672.042194 543.636 
L 672.57 543.873828 
L 673.128 543.970053 
L 673.686 543.948908 
L 674.066814 543.636 
L 674.244 543.459957 
L 674.55894 543.0816 
L 674.545784 542.5272 
L 674.244 542.203141 
L 673.974867 541.9728 
L 673.686 541.710404 
L 673.128 541.601308 
L 672.57 541.546644 
L 672.023193 541.4184 
L 672.012 541.40969 
L 671.454 541.172656 
L 670.896 541.078137 
L 670.688784 540.864 
L 670.688784 540.3096 
L 670.688784 539.7552 
L 670.688784 539.2008 
L 670.688784 538.6464 
L 670.688784 538.092 
L 670.688784 537.5376 
L 670.688784 536.9832 
L 670.688784 536.4288 
L 670.688784 535.8744 
L 670.688784 535.32 
L 670.688784 534.7656 
L 670.688784 534.2112 
L 670.688784 533.6568 
L 670.688784 533.1024 
L 670.688784 532.548 
L 670.688784 531.9936 
L 670.688784 531.4392 
L 670.688784 530.8848 
L 670.626955 530.3304 
L 670.338 529.987376 
L 670.202345 529.776 
L 669.78 529.356379 
L 669.644345 529.2216 
L 669.222 528.810872 
L 668.956871 528.6672 
L 668.664 528.421456 
L 668.106 528.440397 
L 667.843559 528.6672 
L 667.548 528.960852 
L 667.319724 529.2216 
L 667.197216 529.776 
L 667.12799 530.3304 
L 666.99 530.613177 
L 666.761724 530.8848 
L 666.639216 531.4392 
L 666.639216 531.9936 
L 666.561321 532.548 
L 666.432 532.684254 
L 666.020153 533.1024 
L 665.874 533.385177 
L 665.645724 533.6568 
L 665.523216 534.2112 
L 665.523216 534.7656 
L 665.523216 535.32 
L 665.514526 535.8744 
L 665.491484 536.4288 
L 665.457216 536.9832 
L 665.316 537.204744 
L 665.007465 537.5376 
L 664.875802 538.092 
L 664.758 538.241327 
L 664.229975 538.6464 
L 664.2 538.67442 
L 663.670202 539.2008 
L 663.642 539.224074 
L 663.146386 539.7552 
L 663.084 539.812064 
L 662.526 539.979423 
L 662.109238 540.3096 
L 661.968 540.400457 
L 661.41 540.571243 
L 661.081151 540.864 
L 660.852 541.157652 
L 660.623724 541.4184 
L 660.579051 541.9728 
L 660.852 542.300622 
L 661.035138 542.5272 
L 661.41 542.846152 
L 661.968 542.875721 
L 662.526 542.875721 
L 663.084 542.875721 
L 663.642 542.875721 
L 664.2 542.875721 
L 664.758 542.875721 
L 665.316 542.875721 
L 665.874 542.875721 
L 666.432 542.875721 
L 666.99 542.875721 
L 667.548 542.875721 
L 668.106 542.881255 
L 668.313216 543.0816 
L 668.313216 543.636 
L 668.313216 544.1904 
L 668.376877 544.7448 
L 668.664 545.270242 
L 668.678199 545.2992 
L 669.005621 545.8536 
L 669.222 546.068583 
L 669.408776 546.408 
L 669.429216 546.9624 
L 669.429216 547.5168 
L 669.429216 548.0712 
L 669.429216 548.6256 
L 669.429216 549.18 
L 669.429216 549.7344 
L 669.429216 550.2888 
L 669.429216 550.8432 
L 669.429216 551.3976 
L 669.5159 551.952 
L 669.78 552.271264 
L 669.987383 552.5064 
L 670.338 552.799157 
L 670.896 552.812945 
z
" style="fill:#0000ff;"/>
   </g>
   <g id="patch_27">
    <path clip-path="url(#p464db486e3)" d="M 668.106 540.515479 
L 667.548 540.515479 
L 666.99 540.515479 
L 666.432 540.515479 
L 665.874 540.423991 
L 665.783325 540.3096 
L 665.874 540.220434 
L 666.342255 539.7552 
L 666.432 539.624565 
L 666.793129 539.2008 
L 666.99 538.901399 
L 667.212433 538.6464 
L 667.506063 538.092 
L 667.548 538.001876 
L 667.835123 537.5376 
L 667.898784 536.9832 
L 667.898784 536.4288 
L 667.901027 535.8744 
L 667.921904 535.32 
L 667.935263 534.7656 
L 668.106 534.294705 
L 668.313216 534.7656 
L 668.313216 535.32 
L 668.313216 535.8744 
L 668.313216 536.4288 
L 668.313216 536.9832 
L 668.313216 537.5376 
L 668.313216 538.092 
L 668.313216 538.6464 
L 668.313216 539.2008 
L 668.313216 539.7552 
L 668.313216 540.3096 
z
" style="fill:#ffffff;"/>
   </g>
   <g id="patch_28">
    <path clip-path="url(#p464db486e3)" d="M 506.909251 554.1696 
L 507.402 553.975457 
L 507.833511 553.6152 
L 507.96 553.468809 
L 508.296222 553.0608 
L 508.310784 552.5064 
L 508.248955 551.952 
L 507.96 551.620241 
L 507.694871 551.3976 
L 507.402 551.151856 
L 506.844 551.049079 
L 506.286 551.049079 
L 505.728 551.049079 
L 505.17 551.049079 
L 504.612 551.049079 
L 504.054 551.049079 
L 503.496 551.049079 
L 502.938 551.049079 
L 502.38 551.049079 
L 501.822 551.049079 
L 501.264 551.049079 
L 500.706 551.036394 
L 500.505371 550.8432 
L 500.498784 550.2888 
L 500.617704 549.7344 
L 500.706 549.643794 
L 501.172805 549.18 
L 501.264 549.076318 
L 501.630455 548.6256 
L 501.822 548.13664 
L 501.887865 548.0712 
L 502.158222 547.5168 
L 502.172784 546.9624 
L 502.172784 546.408 
L 502.172784 545.8536 
L 502.172784 545.2992 
L 502.172784 544.7448 
L 502.172784 544.1904 
L 502.172784 543.636 
L 502.172784 543.0816 
L 502.172784 542.5272 
L 502.172784 541.9728 
L 502.110955 541.4184 
L 501.822 541.086641 
L 501.556871 540.864 
L 501.264 540.618256 
L 500.706 540.515479 
L 500.148 540.515479 
L 499.59 540.515479 
L 499.032 540.592812 
L 498.665175 540.864 
L 498.474 540.955277 
L 497.916 541.111855 
L 497.583249 541.4184 
L 497.358 541.685796 
L 497.0939 541.9728 
L 497.007216 542.5272 
L 497.007216 543.0816 
L 497.007216 543.636 
L 497.007216 544.1904 
L 497.007216 544.7448 
L 497.007216 545.2992 
L 497.089408 545.8536 
L 497.358 546.177222 
L 497.565383 546.408 
L 497.916 546.700757 
L 498.474 546.714545 
L 498.861553 546.408 
L 499.032 546.200965 
L 499.298256 545.8536 
L 499.382784 545.2992 
L 499.382784 544.7448 
L 499.382784 544.1904 
L 499.382784 543.636 
L 499.390479 543.0816 
L 499.59 542.916363 
L 499.797216 543.0816 
L 499.797216 543.636 
L 499.797216 544.1904 
L 499.797216 544.7448 
L 499.797216 545.2992 
L 499.797216 545.8536 
L 499.797216 546.408 
L 499.791646 546.9624 
L 499.680985 547.5168 
L 499.59 547.623661 
L 499.057945 548.0712 
L 499.032 548.095662 
L 498.611329 548.6256 
L 498.474 548.908377 
L 498.245724 549.18 
L 498.123216 549.7344 
L 498.123216 550.2888 
L 498.123216 550.8432 
L 498.123216 551.3976 
L 498.2099 551.952 
L 498.474 552.271264 
L 498.6391 552.5064 
L 499.032 552.845497 
L 499.59 553.039818 
L 499.627524 553.0608 
L 500.148 553.385502 
L 500.706 553.409321 
L 501.264 553.409321 
L 501.822 553.409321 
L 502.38 553.409321 
L 502.938 553.409321 
L 503.496 553.409321 
L 504.054 553.409321 
L 504.612 553.409321 
L 504.930627 553.6152 
L 505.17 553.877401 
L 505.383135 554.1696 
L 505.728 554.488552 
L 506.286 554.482508 
L 506.844 554.23443 
z
" style="fill:#0000ff;"/>
   </g>
   <g id="patch_29">
    <path clip-path="url(#p464db486e3)" d="M 664.598135 569.1384 
L 664.758 569.003581 
L 665.108784 568.584 
L 665.210669 568.0296 
L 665.316 567.745706 
L 665.519591 567.4752 
L 665.671222 566.9208 
L 665.768669 566.3664 
L 665.874 566.082506 
L 666.077591 565.812 
L 666.229222 565.2576 
L 666.326669 564.7032 
L 666.432 564.419306 
L 666.635591 564.1488 
L 666.773298 563.5944 
L 666.720955 563.04 
L 666.432 562.728457 
L 666.187566 562.4856 
L 665.874 562.198509 
L 665.316 562.258797 
L 665.079487 562.4856 
L 664.758 562.744512 
L 664.469045 563.04 
L 664.346095 563.5944 
L 664.2 564.044097 
L 664.104922 564.1488 
L 663.835408 564.7032 
L 663.642 565.1043 
L 663.300379 564.7032 
L 663.084 564.48017 
L 662.904695 564.1488 
L 662.876784 563.5944 
L 662.876784 563.04 
L 662.876784 562.4856 
L 662.876784 561.9312 
L 662.876784 561.3768 
L 662.876784 560.8224 
L 662.876784 560.268 
L 662.876784 559.7136 
L 662.876784 559.1592 
L 662.876784 558.6048 
L 662.876784 558.0504 
L 662.820658 557.496 
L 662.716151 556.9416 
L 662.526 556.478501 
L 662.504882 556.3872 
L 662.404557 555.8328 
L 662.365335 555.2784 
L 662.347922 554.724 
L 662.341904 554.1696 
L 662.336373 553.6152 
L 662.332498 553.0608 
L 662.327474 552.5064 
L 662.318784 551.952 
L 662.318784 551.3976 
L 662.318784 550.8432 
L 662.318784 550.2888 
L 662.318784 549.7344 
L 662.318784 549.18 
L 662.318784 548.6256 
L 662.256955 548.0712 
L 661.968 547.739441 
L 661.702871 547.5168 
L 661.41 547.271056 
L 660.852 547.289997 
L 660.589559 547.5168 
L 660.294 547.810452 
L 660.065724 548.0712 
L 659.943216 548.6256 
L 659.943216 549.18 
L 659.943216 549.7344 
L 659.943216 550.2888 
L 659.943216 550.8432 
L 659.943216 551.3976 
L 659.943216 551.952 
L 659.943216 552.5064 
L 659.943216 553.0608 
L 659.943216 553.6152 
L 659.943216 554.1696 
L 659.943216 554.724 
L 659.943216 555.2784 
L 659.931404 555.8328 
L 659.736 556.303695 
L 659.651953 556.3872 
L 659.309954 556.9416 
L 659.178 557.145727 
L 658.869465 557.496 
L 658.71187 558.0504 
L 658.62 558.209785 
L 658.311465 558.6048 
L 658.153447 559.1592 
L 658.062 559.349141 
L 657.789051 559.7136 
L 657.695545 560.268 
L 657.669617 560.8224 
L 657.504 561.045358 
L 657.137977 561.3768 
L 656.946 561.664689 
L 656.712081 561.9312 
L 656.388 562.402095 
L 656.303953 562.4856 
L 655.83 562.715298 
L 655.470363 563.04 
L 655.272 563.197084 
L 654.830974 563.04 
L 654.714 562.940119 
L 654.562191 562.4856 
L 654.541635 561.9312 
L 654.523465 561.3768 
L 654.507966 560.8224 
L 654.506784 560.268 
L 654.506784 559.7136 
L 654.506784 559.1592 
L 654.530752 558.6048 
L 654.714 558.11523 
L 654.779251 558.0504 
L 655.082373 557.496 
L 655.272 557.00643 
L 655.337251 556.9416 
L 655.608222 556.3872 
L 655.622784 555.8328 
L 655.622784 555.2784 
L 655.622784 554.724 
L 655.622784 554.1696 
L 655.622784 553.6152 
L 655.622784 553.0608 
L 655.622784 552.5064 
L 655.622784 551.952 
L 655.622784 551.3976 
L 655.622784 550.8432 
L 655.622784 550.2888 
L 655.58694 549.7344 
L 655.272 549.320561 
L 655.188942 549.18 
L 654.936433 548.6256 
L 654.714 548.396481 
L 654.547239 548.0712 
L 654.448724 547.5168 
L 654.156 547.181444 
L 653.890871 546.9624 
L 653.598 546.716656 
L 653.04 546.613879 
L 652.482 546.613879 
L 651.924 546.735597 
L 651.661559 546.9624 
L 651.366 547.256052 
L 651.137724 547.5168 
L 650.808 547.778443 
L 650.504912 548.0712 
L 650.25 548.324468 
L 649.955342 548.6256 
L 649.78387 549.18 
L 649.692 549.289351 
L 649.271139 549.7344 
L 649.134 549.870654 
L 648.722153 550.2888 
L 648.576 550.571577 
L 648.347724 550.8432 
L 648.225216 551.3976 
L 648.161067 551.952 
L 648.018 552.306522 
L 647.839072 552.5064 
L 647.655404 553.0608 
L 647.511723 553.6152 
L 647.46 553.729868 
L 647.178914 554.1696 
L 647.171045 554.724 
L 647.46 555.035543 
L 647.704434 555.2784 
L 648.018 555.565491 
L 648.576 555.578237 
L 648.93326 555.2784 
L 649.134 555.124503 
L 649.487027 554.724 
L 649.617925 554.1696 
L 649.692 554.067986 
L 650.048354 553.6152 
L 650.25 553.084892 
L 650.274248 553.0608 
L 650.685596 552.5064 
L 650.808 552.346576 
L 651.16207 551.952 
L 651.366 551.651681 
L 651.613339 551.3976 
L 651.914742 550.8432 
L 651.924 550.832822 
L 652.355294 550.2888 
L 652.482 550.128976 
L 653.04 549.930289 
L 653.227747 550.2888 
L 653.247216 550.8432 
L 653.247216 551.3976 
L 653.247216 551.952 
L 653.247216 552.5064 
L 653.247216 553.0608 
L 653.247216 553.6152 
L 653.247216 554.1696 
L 653.247216 554.724 
L 653.247216 555.2784 
L 653.242778 555.8328 
L 653.131447 556.3872 
L 653.04 556.546585 
L 652.731465 556.9416 
L 652.573447 557.496 
L 652.482 557.685941 
L 652.209051 558.0504 
L 652.131216 558.6048 
L 652.131216 559.1592 
L 652.131216 559.7136 
L 652.131216 560.268 
L 652.131216 560.8224 
L 652.131216 561.3768 
L 652.131216 561.9312 
L 652.131216 562.4856 
L 652.131216 563.04 
L 652.2179 563.5944 
L 652.482 563.926196 
L 652.599805 564.1488 
L 653.04 564.612594 
L 653.131195 564.7032 
L 653.598 565.15706 
L 653.770107 565.2576 
L 654.156 565.550357 
L 654.714 565.606121 
L 655.272 565.606121 
L 655.83 565.606121 
L 656.388 565.564145 
L 656.775553 565.2576 
L 656.946 565.099931 
L 657.268427 564.7032 
L 657.504 564.424188 
L 657.798656 564.1488 
L 658.062 563.980923 
L 658.509939 563.5944 
L 658.62 563.449749 
L 658.94681 563.04 
L 659.178 562.849691 
L 659.631645 562.4856 
L 659.736 562.356995 
L 660.066903 561.9312 
L 660.086784 561.3768 
L 660.086784 560.8224 
L 660.112592 560.268 
L 660.294 559.77843 
L 660.501216 560.268 
L 660.501216 560.8224 
L 660.501216 561.3768 
L 660.501216 561.9312 
L 660.501216 562.4856 
L 660.501216 563.04 
L 660.501216 563.5944 
L 660.501216 564.1488 
L 660.570914 564.7032 
L 660.852 565.064168 
L 660.951174 565.2576 
L 661.1842 565.812 
L 661.41 566.036343 
L 661.574862 566.3664 
L 661.601545 566.9208 
L 661.617216 567.4752 
L 661.617216 568.0296 
L 661.7039 568.584 
L 661.968 568.903264 
L 662.175383 569.1384 
L 662.526 569.431157 
L 663.084 569.486921 
L 663.642 569.486921 
L 664.2 569.457352 
z
" style="fill:#0000ff;"/>
   </g>
   <g id="patch_30">
    <path clip-path="url(#p464db486e3)" d="M 318.07958 569.6928 
L 318.24 569.571471 
L 318.767802 569.1384 
L 318.798 569.114701 
L 319.356 568.863273 
L 319.914 568.71036 
L 320.157544 568.584 
L 320.472 568.5129 
L 321.03 568.426346 
L 321.588 568.405473 
L 322.146 568.394694 
L 322.704 568.387735 
L 323.262 568.454173 
L 323.469383 568.584 
L 323.82 568.876757 
L 324.378 568.890545 
L 324.765553 568.584 
L 324.936 568.478397 
L 325.494 568.378121 
L 326.052 568.378121 
L 326.61 568.378121 
L 327.168 568.378121 
L 327.726 568.378121 
L 328.284 568.378121 
L 328.842 568.378121 
L 329.4 568.378121 
L 329.958 568.378121 
L 330.516 568.378121 
L 331.074 568.378121 
L 331.632 568.378121 
L 332.19 568.378121 
L 332.748 568.378121 
L 333.306 568.378121 
L 333.864 568.336145 
L 334.251553 568.0296 
L 334.422 567.822565 
L 334.688256 567.4752 
L 334.710955 566.9208 
L 334.422 566.589041 
L 334.156871 566.3664 
L 333.864 566.120656 
L 333.306 566.017879 
L 332.748 566.017879 
L 332.19 566.017879 
L 331.632 566.017879 
L 331.074 566.017879 
L 330.516 566.017879 
L 329.958 566.017879 
L 329.4 566.017879 
L 328.842 566.017879 
L 328.284 566.017879 
L 327.726 566.017879 
L 327.168 566.017879 
L 326.61 566.017879 
L 326.340955 565.812 
L 326.052 565.480241 
L 325.786871 565.2576 
L 325.494 565.011856 
L 325.287966 564.7032 
L 325.300592 564.1488 
L 325.310837 563.5944 
L 325.323993 563.04 
L 325.388669 562.4856 
L 325.494 562.224718 
L 325.71952 561.9312 
L 325.845966 561.3768 
L 325.960909 560.8224 
L 326.052 560.540896 
L 326.22691 560.268 
L 326.39575 559.7136 
L 326.415456 559.1592 
L 326.424184 558.6048 
L 326.432795 558.0504 
L 326.439189 557.496 
L 326.447297 556.9416 
L 326.558528 556.3872 
L 326.61 556.279296 
L 326.900943 555.8328 
L 326.989922 555.2784 
L 327.062669 554.724 
L 327.168 554.408521 
L 327.34291 554.1696 
L 327.509298 553.6152 
L 327.518784 553.0608 
L 327.518784 552.5064 
L 327.518784 551.952 
L 327.518784 551.3976 
L 327.48294 550.8432 
L 327.168 550.429361 
L 327.084546 550.2888 
L 326.826379 549.7344 
L 326.61 549.51137 
L 326.430608 549.18 
L 326.340955 548.6256 
L 326.052 548.293841 
L 325.786871 548.0712 
L 325.494 547.825456 
L 324.936 547.844397 
L 324.662613 548.0712 
L 324.378 548.214872 
L 323.955655 548.6256 
L 323.82 548.760379 
L 323.397655 549.18 
L 323.262 549.309892 
L 322.834735 549.7344 
L 322.704 549.854286 
L 322.146 550.265427 
L 322.122475 550.2888 
L 321.588 550.460799 
L 321.03 550.647311 
L 320.809643 550.8432 
L 320.472 550.982824 
L 319.914 551.118327 
L 319.624445 551.3976 
L 319.356 551.63716 
L 319.047465 551.952 
L 318.798 552.344334 
L 318.634882 552.5064 
L 318.412448 553.0608 
L 318.24 553.405056 
L 318.036409 553.6152 
L 317.692059 554.1696 
L 317.682 554.199599 
L 317.442627 554.724 
L 317.4179 555.2784 
L 317.682 555.565404 
L 317.920822 555.8328 
L 318.24 556.125557 
L 318.798 556.151752 
L 319.172862 555.8328 
L 319.356 555.689528 
L 319.729113 555.2784 
L 319.914 554.909189 
L 320.092928 554.724 
L 320.35802 554.1696 
L 320.472 554.004613 
L 320.773784 553.6152 
L 321.03 553.20579 
L 321.189845 553.0608 
L 321.588 552.874131 
L 322.146 552.736165 
L 322.534729 552.5064 
L 322.704 552.447464 
L 323.262 552.295914 
L 323.701594 551.952 
L 323.82 551.861394 
L 324.286805 551.3976 
L 324.378 551.307974 
L 324.936 551.114388 
L 325.122776 551.3976 
L 325.143216 551.952 
L 325.143216 552.5064 
L 325.143216 553.0608 
L 325.096674 553.6152 
L 324.936 553.996531 
L 324.769001 554.1696 
L 324.634216 554.724 
L 324.539437 555.2784 
L 324.387105 555.8328 
L 324.378 555.854131 
L 324.089045 556.3872 
L 324.027216 556.9416 
L 324.027216 557.496 
L 324.027216 558.0504 
L 324.027216 558.6048 
L 324.027216 559.1592 
L 323.979987 559.7136 
L 323.82 560.094931 
L 323.653001 560.268 
L 323.50198 560.8224 
L 323.359543 561.3768 
L 323.262 561.658304 
L 323.08709 561.9312 
L 322.973045 562.4856 
L 322.911216 563.04 
L 322.911216 563.5944 
L 322.911216 564.1488 
L 322.911216 564.7032 
L 322.911216 565.2576 
L 322.911216 565.812 
L 322.704 566.017879 
L 322.146 566.017879 
L 321.588 566.017879 
L 321.03 566.079309 
L 320.472 566.204334 
L 320.159126 566.3664 
L 319.914 566.427961 
L 319.356 566.518589 
L 318.798 566.559499 
L 318.24 566.682972 
L 317.955218 566.9208 
L 317.682 567.083332 
L 317.154912 567.4752 
L 317.124 567.501329 
L 316.710604 568.0296 
L 316.566 568.312377 
L 316.337724 568.584 
L 316.297408 569.1384 
L 316.566 569.462022 
L 316.773383 569.6928 
L 317.124 569.985557 
L 317.682 569.999345 
z
" style="fill:#0000ff;"/>
   </g>
   <g id="patch_31">
    <path clip-path="url(#p464db486e3)" d="M 485.469553 566.9208 
L 485.64 566.751453 
L 485.948535 566.3664 
L 485.990784 565.812 
L 485.928955 565.2576 
L 485.64 564.925841 
L 485.374871 564.7032 
L 485.082 564.457456 
L 484.524 564.476397 
L 484.261559 564.7032 
L 483.966 564.860284 
L 483.408 564.909079 
L 482.85 564.909079 
L 482.292 564.909079 
L 481.734 564.909079 
L 481.176 564.909079 
L 480.618 564.909079 
L 480.06 564.879261 
L 479.502 564.799396 
L 479.164037 564.7032 
L 478.944 564.55821 
L 478.386 564.410443 
L 477.828 564.354679 
L 477.27 564.354679 
L 476.712 564.354679 
L 476.154 564.354679 
L 475.774928 564.1488 
L 476.154 563.913352 
L 476.498865 563.5944 
L 476.712 563.435834 
L 477.172938 563.04 
L 477.27 562.926431 
L 477.796585 562.4856 
L 477.828 562.455597 
L 478.355802 561.9312 
L 478.386 561.907791 
L 478.844929 561.3768 
L 478.944 561.180816 
L 479.210256 560.8224 
L 479.294784 560.268 
L 479.294784 559.7136 
L 479.294784 559.1592 
L 479.294784 558.6048 
L 479.294784 558.0504 
L 479.294784 557.496 
L 479.294784 556.9416 
L 479.294784 556.3872 
L 479.294784 555.8328 
L 479.294784 555.2784 
L 479.294784 554.724 
L 479.294784 554.1696 
L 479.294784 553.6152 
L 479.232955 553.0608 
L 478.944 552.717776 
L 478.806861 552.5064 
L 478.386 552.088254 
L 478.248861 551.952 
L 477.828 551.42409 
L 477.806882 551.3976 
L 477.611298 550.8432 
L 477.27 550.462857 
L 477.012261 550.2888 
L 476.712 550.035759 
L 476.154 549.940279 
L 475.596 549.940279 
L 475.038 549.940279 
L 474.48 549.940279 
L 473.922 549.940279 
L 473.364 550.061997 
L 473.090613 550.2888 
L 472.806 550.43401 
L 472.385139 550.8432 
L 472.248 550.977219 
L 471.824889 551.3976 
L 471.69 551.533854 
L 471.269139 551.952 
L 471.132 552.088254 
L 470.720153 552.5064 
L 470.574 552.789177 
L 470.345724 553.0608 
L 470.223216 553.6152 
L 470.223216 554.1696 
L 470.223216 554.724 
L 470.223216 555.2784 
L 470.223216 555.8328 
L 470.223216 556.3872 
L 470.292914 556.9416 
L 470.574 557.2658 
L 470.757487 557.496 
L 471.132 557.826049 
L 471.69 557.954204 
L 471.900406 558.0504 
L 472.248 558.312796 
L 472.806 558.44364 
L 473.275524 558.6048 
L 473.364 558.688305 
L 473.922 558.904637 
L 474.48 558.904637 
L 474.83726 558.6048 
L 475.038 558.405356 
L 475.339784 558.0504 
L 475.326955 557.496 
L 475.038 557.184457 
L 474.82196 556.9416 
L 474.48 556.625632 
L 473.922 556.442453 
L 473.770999 556.3872 
L 473.364 556.149372 
L 472.806 556.027998 
L 472.606479 555.8328 
L 472.598784 555.2784 
L 472.602183 554.724 
L 472.628002 554.1696 
L 472.775535 553.6152 
L 472.806 553.583513 
L 473.277493 553.0608 
L 473.364 552.97619 
L 473.922 552.545708 
L 473.961563 552.5064 
L 474.48 552.343278 
L 475.038 552.323492 
L 475.596 552.331971 
L 475.802034 552.5064 
L 476.154 552.926905 
L 476.256075 553.0608 
L 476.556881 553.6152 
L 476.712 553.769319 
L 476.873383 554.1696 
L 476.889125 554.724 
L 476.907404 555.2784 
L 476.919216 555.8328 
L 476.919216 556.3872 
L 476.919216 556.9416 
L 476.919216 557.496 
L 476.919216 558.0504 
L 476.919216 558.6048 
L 476.919216 559.1592 
L 476.919216 559.7136 
L 476.870005 560.268 
L 476.712 560.446313 
L 476.204282 560.8224 
L 476.154 560.865474 
L 475.748355 561.3768 
L 475.596 561.521488 
L 475.038 561.781594 
L 474.887423 561.9312 
L 474.48 562.206134 
L 474.142041 562.4856 
L 473.922 562.645424 
L 473.534802 563.04 
L 473.364 563.18521 
L 472.952153 563.5944 
L 472.806 563.877177 
L 472.577724 564.1488 
L 472.455216 564.7032 
L 472.455216 565.2576 
L 472.5419 565.812 
L 472.806 566.131264 
L 473.013383 566.3664 
L 473.364 566.659157 
L 473.922 566.714921 
L 474.48 566.714921 
L 475.038 566.714921 
L 475.596 566.714921 
L 476.154 566.714921 
L 476.712 566.724535 
L 477.27 566.732397 
L 477.828 566.742273 
L 478.386 566.770518 
L 478.944 566.880011 
L 479.071844 566.9208 
L 479.502 567.147603 
L 480.06 567.254853 
L 480.618 567.269321 
L 481.176 567.269321 
L 481.734 567.269321 
L 482.292 567.269321 
L 482.85 567.269321 
L 483.408 567.269321 
L 483.966 567.269321 
L 484.524 567.269321 
L 485.082 567.227345 
z
" style="fill:#0000ff;"/>
   </g>
   <g id="patch_32">
    <path clip-path="url(#p464db486e3)" d="M 497.210658 570.8016 
L 497.358 570.646437 
L 497.683459 570.2472 
L 497.738795 569.6928 
L 497.916 569.20323 
L 497.981251 569.1384 
L 498.252222 568.584 
L 498.266784 568.0296 
L 498.266784 567.4752 
L 498.204955 566.9208 
L 497.916 566.589041 
L 497.650871 566.3664 
L 497.358 566.120656 
L 496.8 566.139597 
L 496.369844 566.3664 
L 496.242 566.40971 
L 496.199606 566.3664 
L 495.900379 565.812 
L 495.684 565.58897 
L 495.504608 565.2576 
L 495.476784 564.7032 
L 495.476784 564.1488 
L 495.476784 563.5944 
L 495.476784 563.04 
L 495.476784 562.4856 
L 495.476784 561.9312 
L 495.476784 561.3768 
L 495.476784 560.8224 
L 495.476784 560.268 
L 495.476784 559.7136 
L 495.476784 559.1592 
L 495.476784 558.6048 
L 495.476784 558.0504 
L 495.476784 557.496 
L 495.476784 556.9416 
L 495.476784 556.3872 
L 495.476784 555.8328 
L 495.476784 555.2784 
L 495.476784 554.724 
L 495.414955 554.1696 
L 495.126 553.837841 
L 494.860871 553.6152 
L 494.568 553.369456 
L 494.01 553.388397 
L 493.747559 553.6152 
L 493.452 553.908852 
L 493.223724 554.1696 
L 493.101216 554.724 
L 493.101216 555.2784 
L 493.101216 555.8328 
L 493.101216 556.3872 
L 493.101216 556.9416 
L 493.101216 557.496 
L 493.101216 558.0504 
L 493.101216 558.6048 
L 493.096778 559.1592 
L 493.051165 559.7136 
L 492.903105 560.268 
L 492.894 560.289331 
L 492.605045 560.8224 
L 492.5315 561.3768 
L 492.509116 561.9312 
L 492.428651 562.4856 
L 492.336 562.588494 
L 491.904768 563.04 
L 491.778 563.174779 
L 491.355655 563.5944 
L 491.22 563.729179 
L 490.797655 564.1488 
L 490.662 564.283579 
L 490.239655 564.7032 
L 490.104 564.831059 
L 489.546 564.909079 
L 488.988 564.888684 
L 488.814051 564.7032 
L 488.784078 564.1488 
L 488.780784 563.5944 
L 488.780784 563.04 
L 488.780784 562.4856 
L 488.780784 561.9312 
L 488.780784 561.3768 
L 488.780784 560.8224 
L 488.780784 560.268 
L 488.780784 559.7136 
L 488.780784 559.1592 
L 488.780784 558.6048 
L 488.780784 558.0504 
L 488.780784 557.496 
L 488.780784 556.9416 
L 488.780784 556.3872 
L 488.780784 555.8328 
L 488.988 555.584945 
L 489.375553 555.2784 
L 489.546 555.109053 
L 489.854535 554.724 
L 489.896784 554.1696 
L 489.86094 553.6152 
L 489.546 553.201361 
L 489.462546 553.0608 
L 489.204379 552.5064 
L 488.988 552.28337 
L 488.798238 551.952 
L 488.43 551.55449 
L 488.172261 551.3976 
L 487.872 551.144559 
L 487.314 551.159772 
L 487.040181 551.3976 
L 486.756 551.679948 
L 486.516627 551.952 
L 486.405216 552.5064 
L 486.405216 553.0608 
L 486.405216 553.6152 
L 486.405216 554.1696 
L 486.405216 554.724 
L 486.405216 555.2784 
L 486.405216 555.8328 
L 486.405216 556.3872 
L 486.405216 556.9416 
L 486.405216 557.496 
L 486.405216 558.0504 
L 486.405216 558.6048 
L 486.405216 559.1592 
L 486.405216 559.7136 
L 486.405216 560.268 
L 486.405216 560.8224 
L 486.405216 561.3768 
L 486.405216 561.9312 
L 486.405216 562.4856 
L 486.405216 563.04 
L 486.405216 563.5944 
L 486.405216 564.1488 
L 486.405216 564.7032 
L 486.405216 565.2576 
L 486.4919 565.812 
L 486.756 566.131264 
L 486.9211 566.3664 
L 487.314 566.705497 
L 487.872 566.899818 
L 487.909524 566.9208 
L 488.43 567.245502 
L 488.988 567.269321 
L 489.546 567.269321 
L 490.104 567.269321 
L 490.662 567.227345 
L 491.05958 566.9208 
L 491.22 566.821325 
L 491.687792 566.3664 
L 491.778 566.276774 
L 492.245792 565.812 
L 492.336 565.722374 
L 492.803792 565.2576 
L 492.894 565.167974 
L 493.009134 565.2576 
L 493.170914 565.812 
L 493.452 566.172968 
L 493.553121 566.3664 
L 493.819849 566.9208 
L 494.01 567.109724 
L 494.196776 567.4752 
L 494.217216 568.0296 
L 494.217216 568.584 
L 494.217216 569.1384 
L 494.3039 569.6928 
L 494.568 570.012064 
L 494.732071 570.2472 
L 495.126 570.587463 
L 495.684 570.780618 
L 495.724689 570.8016 
L 496.242 571.114508 
L 496.8 571.135653 
z
" style="fill:#0000ff;"/>
   </g>
  </g>
 </g>
 <defs>
  <clipPath id="p464db486e3">
   <rect height="567.7056" width="762.228" x="122.94" y="88.4736"/>
  </clipPath>
 </defs>
</svg>
