<?xml version="1.0" encoding="utf-8" standalone="no"?>
<!DOCTYPE svg PUBLIC "-//W3C//DTD SVG 1.1//EN"
  "http://www.w3.org/Graphics/SVG/1.1/DTD/svg11.dtd">
<!-- Created with matplotlib (https://matplotlib.org/) -->
<svg height="737.28pt" version="1.1" viewBox="0 0 983.52 737.28" width="983.52pt" xmlns="http://www.w3.org/2000/svg" xmlns:xlink="http://www.w3.org/1999/xlink">
 <defs>
  <style type="text/css">
*{stroke-linecap:butt;stroke-linejoin:round;}
  </style>
 </defs>
 <g id="figure_1">
  <g id="patch_1">
   <path d="M 0 737.28 
L 983.52 737.28 
L 983.52 0 
L 0 0 
z
" style="fill:none;"/>
  </g>
  <g id="axes_1">
   <g id="patch_2">
    <path clip-path="url(#p946e12b471)" d="M 631.665553 566.3664 
L 631.836 566.205062 
L 632.15402 565.812 
L 632.309702 565.2576 
L 632.394 565.170314 
L 632.864147 564.7032 
L 632.952 564.6014 
L 633.321273 564.1488 
L 633.51 563.65923 
L 633.575251 563.5944 
L 633.891581 563.04 
L 634.068 562.703473 
L 634.287288 562.4856 
L 634.622328 561.9312 
L 634.626 561.927794 
L 635.097961 561.3768 
L 635.184 561.289514 
L 635.685623 560.8224 
L 635.742 560.756793 
L 636.3 560.399403 
L 636.432256 560.268 
L 636.858 559.940403 
L 637.098858 559.7136 
L 637.416 559.515058 
L 637.803198 559.1592 
L 637.974 559.019271 
L 638.436631 558.6048 
L 638.532 558.508364 
L 638.93839 558.0504 
L 639.09 557.813628 
L 639.381668 557.496 
L 639.648 557.200973 
L 639.902685 556.9416 
L 640.206 556.488007 
L 640.307462 556.3872 
L 640.688668 555.8328 
L 640.764 555.729444 
L 641.211523 555.2784 
L 641.322 555.153606 
L 641.710469 554.724 
L 641.88 554.583116 
L 642.247173 554.1696 
L 642.438 553.898808 
L 642.714976 553.6152 
L 642.996 553.29321 
L 643.229919 553.0608 
L 643.554 552.67648 
L 643.725185 552.5064 
L 644.112 552.035505 
L 644.196047 551.952 
L 644.636669 551.3976 
L 644.67 551.363544 
L 645.143253 550.8432 
L 645.228 550.74146 
L 645.739911 550.2888 
L 645.786 550.250192 
L 646.256147 549.7344 
L 646.344 549.647114 
L 646.814147 549.18 
L 646.902 549.092274 
L 647.371704 548.6256 
L 647.46 548.5172 
L 647.976148 548.0712 
L 648.018 548.029013 
L 648.522174 547.5168 
L 648.576 547.474864 
L 649.065837 546.9624 
L 649.134 546.888061 
L 649.692 546.55299 
L 649.837931 546.408 
L 650.25 546.115996 
L 650.571337 545.8536 
L 650.808 545.724414 
L 651.272215 545.2992 
L 651.366 545.174559 
L 651.757314 544.7448 
L 651.924 544.514942 
L 652.190256 544.1904 
L 652.482 543.813774 
L 652.660928 543.636 
L 653.030579 543.0816 
L 653.04 543.071665 
L 653.598 542.784993 
L 653.956144 542.5272 
L 654.156 542.434452 
L 654.714 542.175077 
L 654.925508 541.9728 
L 655.272 541.796342 
L 655.83 541.48323 
L 655.895251 541.4184 
L 656.388 541.184486 
L 656.946 540.92944 
L 657.011865 540.864 
L 657.504 540.675597 
L 657.958935 540.3096 
L 658.062 540.219974 
L 658.62 539.82003 
L 658.685251 539.7552 
L 659.178 539.564891 
L 659.736 539.26563 
L 659.801251 539.2008 
L 660.294 539.010491 
L 660.747645 538.6464 
L 660.852 538.555794 
L 661.318805 538.092 
L 661.41 538.00288 
L 661.878301 537.5376 
L 661.968 537.449429 
L 662.437256 536.9832 
L 662.526 536.8839 
L 663.057162 536.4288 
L 663.084 536.406481 
L 663.642 535.957905 
L 663.726047 535.8744 
L 664.2 535.684183 
L 664.634543 535.32 
L 664.758 535.200144 
L 665.195366 534.7656 
L 665.316 534.596253 
L 665.624535 534.2112 
L 665.666784 533.6568 
L 665.604955 533.1024 
L 665.316 532.770641 
L 665.050871 532.548 
L 664.758 532.302256 
L 664.2 532.199479 
L 663.642 532.321197 
L 663.379559 532.548 
L 663.084 532.841652 
L 662.855724 533.1024 
L 662.733216 533.6568 
L 662.526 533.904655 
L 662.173452 534.2112 
L 661.968 534.35641 
L 661.547139 534.7656 
L 661.41 534.901854 
L 660.989139 535.32 
L 660.852 535.455477 
L 660.430357 535.8744 
L 660.294 536.022795 
L 659.765733 536.4288 
L 659.736 536.452653 
L 659.27868 536.9832 
L 659.178 537.073186 
L 658.62 537.191357 
L 658.190773 537.5376 
L 658.062 537.627998 
L 657.504 537.768777 
L 657.135805 538.092 
L 656.946 538.235672 
L 656.496794 538.6464 
L 656.388 538.737257 
L 655.83 538.894255 
L 655.43242 539.2008 
L 655.272 539.291657 
L 654.714 539.448655 
L 654.350508 539.7552 
L 654.156 539.874539 
L 653.598 540.107323 
L 653.386492 540.3096 
L 653.04 540.500167 
L 652.482 540.701934 
L 652.311783 540.864 
L 651.924 541.097247 
L 651.585024 541.4184 
L 651.366 541.619476 
L 651.033808 541.9728 
L 650.808 542.264804 
L 650.5439 542.5272 
L 650.302262 543.0816 
L 650.25 543.13957 
L 649.818099 543.636 
L 649.692 543.773762 
L 649.134 544.028334 
L 648.970882 544.1904 
L 648.576 544.482404 
L 648.248478 544.7448 
L 648.018 544.899493 
L 647.630802 545.2992 
L 647.46 545.461732 
L 646.932912 545.8536 
L 646.902 545.884313 
L 646.374912 546.408 
L 646.344 546.433102 
L 645.917388 546.9624 
L 645.786 547.115307 
L 645.258912 547.5168 
L 645.228 547.548013 
L 644.701415 548.0712 
L 644.67 548.096813 
L 644.245521 548.6256 
L 644.112 548.759688 
L 643.697879 549.18 
L 643.554 549.34161 
L 643.176443 549.7344 
L 642.996 549.941908 
L 642.584972 550.2888 
L 642.438 550.465019 
L 642.149045 550.8432 
L 641.88 551.170797 
L 641.651724 551.3976 
L 641.322 551.82564 
L 641.19482 551.952 
L 640.764 552.310839 
L 640.567169 552.5064 
L 640.206 552.920533 
L 640.064822 553.0608 
L 639.648 553.55037 
L 639.582749 553.6152 
L 639.228725 554.1696 
L 639.09 554.34937 
L 638.677237 554.724 
L 638.532 554.901855 
L 638.226834 555.2784 
L 637.974 555.703779 
L 637.851537 555.8328 
L 637.416 556.23349 
L 637.261292 556.3872 
L 636.858 556.941312 
L 636.85771 556.9416 
L 636.3 557.34229 
L 636.145292 557.496 
L 635.742 557.928727 
L 635.619537 558.0504 
L 635.184 558.304963 
L 634.873822 558.6048 
L 634.626 558.79744 
L 634.22965 559.1592 
L 634.068 559.323704 
L 633.541415 559.7136 
L 633.51 559.745081 
L 632.983686 560.268 
L 632.952 560.29449 
L 632.540153 560.8224 
L 632.394 561.026527 
L 632.085465 561.3768 
L 631.836 561.86576 
L 631.770135 561.9312 
L 631.527465 562.4856 
L 631.369447 563.04 
L 631.278 563.149351 
L 630.72 563.269698 
L 630.512784 563.04 
L 630.512784 562.4856 
L 630.512784 561.9312 
L 630.512784 561.3768 
L 630.512784 560.8224 
L 630.512784 560.268 
L 630.512784 559.7136 
L 630.512784 559.1592 
L 630.512784 558.6048 
L 630.55601 558.0504 
L 630.72 557.727704 
L 630.936379 557.496 
L 631.236276 556.9416 
L 631.278 556.851476 
L 631.565123 556.3872 
L 631.628784 555.8328 
L 631.629966 555.2784 
L 631.637474 554.724 
L 631.641552 554.1696 
L 631.646464 553.6152 
L 631.65199 553.0608 
L 631.657121 552.5064 
L 631.66371 551.952 
L 631.692416 551.3976 
L 631.814882 550.8432 
L 631.836 550.759838 
L 632.039909 550.2888 
L 632.177298 549.7344 
L 632.186784 549.18 
L 632.186784 548.6256 
L 632.186784 548.0712 
L 632.186784 547.5168 
L 632.186784 546.9624 
L 632.186784 546.408 
L 632.186784 545.8536 
L 632.186784 545.2992 
L 632.186784 544.7448 
L 632.186784 544.1904 
L 632.186784 543.636 
L 632.186784 543.0816 
L 632.186784 542.5272 
L 632.200592 541.9728 
L 632.31298 541.4184 
L 632.394 541.210912 
L 632.630538 540.864 
L 632.799952 540.3096 
L 632.952 539.872321 
L 633.058642 539.7552 
L 633.288222 539.2008 
L 633.302784 538.6464 
L 633.302784 538.092 
L 633.302784 537.5376 
L 633.302784 536.9832 
L 633.302784 536.4288 
L 633.303858 535.8744 
L 633.315456 535.32 
L 633.325048 534.7656 
L 633.334438 534.2112 
L 633.342921 533.6568 
L 633.352079 533.1024 
L 633.453106 532.548 
L 633.51 532.417709 
L 633.782949 531.9936 
L 633.871632 531.4392 
L 633.97783 530.8848 
L 634.068 530.603296 
L 634.24291 530.3304 
L 634.409298 529.776 
L 634.418784 529.2216 
L 634.418784 528.6672 
L 634.418784 528.1128 
L 634.418784 527.5584 
L 634.418784 527.004 
L 634.418784 526.4496 
L 634.418784 525.8952 
L 634.418784 525.3408 
L 634.418784 524.7864 
L 634.418784 524.232 
L 634.418784 523.6776 
L 634.404222 523.1232 
L 634.24291 522.5688 
L 634.068 522.295904 
L 633.97783 522.0144 
L 633.871534 521.46 
L 633.784977 520.9056 
L 633.51 520.507829 
L 633.438207 520.3512 
L 633.346561 519.7968 
L 633.339189 519.2424 
L 633.332002 518.688 
L 633.323224 518.1336 
L 633.3145 517.5792 
L 633.27881 517.0248 
L 633.053462 516.4704 
L 632.952 516.350777 
L 632.808158 515.916 
L 632.752479 515.3616 
L 632.65098 514.8072 
L 632.500642 514.2528 
L 632.394 513.922956 
L 632.361383 513.6984 
L 632.294919 513.144 
L 632.239928 512.5896 
L 632.230561 512.0352 
L 632.224716 511.4808 
L 632.219287 510.9264 
L 632.214313 510.372 
L 632.208184 509.8176 
L 632.201528 509.2632 
L 632.195474 508.7088 
L 632.186784 508.1544 
L 632.186784 507.6 
L 632.186784 507.0456 
L 632.186784 506.4912 
L 632.186784 505.9368 
L 632.186784 505.3824 
L 632.186784 504.828 
L 632.186784 504.2736 
L 632.186784 503.7192 
L 632.172222 503.1648 
L 632.06152 502.6104 
L 631.888733 502.056 
L 631.836 501.95759 
L 631.747383 501.5016 
L 631.676622 500.9472 
L 631.658795 500.3928 
L 631.651904 499.8384 
L 631.646373 499.284 
L 631.641647 498.7296 
L 631.637474 498.1752 
L 631.628784 497.6208 
L 631.628784 497.0664 
L 631.628784 496.512 
L 631.628784 495.9576 
L 631.628784 495.4032 
L 631.60481 494.8488 
L 631.379462 494.2944 
L 631.278 494.174777 
L 631.10296 493.74 
L 630.956538 493.1856 
L 630.72 492.880872 
L 630.613215 492.6312 
L 630.520479 492.0768 
L 630.512784 491.5224 
L 630.512784 490.968 
L 630.512784 490.4136 
L 630.512784 489.8592 
L 630.512784 489.3048 
L 630.512784 488.7504 
L 630.512784 488.196 
L 630.48881 487.6416 
L 630.263462 487.0872 
L 630.162 486.967577 
L 630.010348 486.5328 
L 629.91894 485.9784 
L 629.604 485.499523 
L 629.563208 485.424 
L 629.439138 484.8696 
L 629.430128 484.3152 
L 629.420837 483.7608 
L 629.408596 483.2064 
L 629.396784 482.652 
L 629.396784 482.0976 
L 629.396784 481.5432 
L 629.396784 480.9888 
L 629.396784 480.4344 
L 629.396784 479.88 
L 629.396784 479.3256 
L 629.396784 478.7712 
L 629.396784 478.2168 
L 629.396784 477.6624 
L 629.376903 477.108 
L 629.265578 476.5536 
L 629.069525 475.9992 
L 629.046 475.957697 
L 628.945909 475.4448 
L 628.873635 474.8904 
L 628.80294 474.336 
L 628.488 473.810956 
L 628.471348 473.7816 
L 628.249459 473.2272 
L 627.93 472.784436 
L 627.865322 472.6728 
L 627.766561 472.1184 
L 627.757635 471.564 
L 627.748592 471.0096 
L 627.737434 470.4552 
L 627.700146 469.9008 
L 627.437865 469.3464 
L 627.372 469.28096 
L 627.14081 468.792 
L 626.814 468.274882 
L 626.792882 468.2376 
L 626.623465 467.6832 
L 626.606784 467.1288 
L 626.606784 466.5744 
L 626.58281 466.02 
L 626.321865 465.4656 
L 626.256 465.40016 
L 626.066464 464.9112 
L 625.931919 464.3568 
L 625.698 464.04065 
L 625.599772 463.8024 
L 625.533138 463.248 
L 625.524051 462.6936 
L 625.515761 462.1392 
L 625.503456 461.5848 
L 625.477452 461.0304 
L 625.343909 460.476 
L 625.14 460.033368 
L 625.110348 459.9216 
L 624.984144 459.3672 
L 624.912903 458.8128 
L 624.647865 458.2584 
L 624.582 458.19296 
L 624.34202 457.704 
L 624.024 457.189191 
L 624.002882 457.1496 
L 623.833465 456.5952 
L 623.816784 456.0408 
L 623.816784 455.4864 
L 623.79281 454.932 
L 623.504881 454.3776 
L 623.466 454.336729 
L 623.301584 453.8232 
L 623.155339 453.2688 
L 622.908 452.953302 
L 622.801167 452.7144 
L 622.709574 452.16 
L 622.700784 451.6056 
L 622.700784 451.0512 
L 622.700784 450.4968 
L 622.700784 449.9424 
L 622.700784 449.388 
L 622.700784 448.8336 
L 622.700784 448.2792 
L 622.700784 447.7248 
L 622.700784 447.1704 
L 622.700784 446.616 
L 622.700784 446.0616 
L 622.700784 445.5072 
L 622.700784 444.9528 
L 622.700784 444.3984 
L 622.700784 443.844 
L 622.700784 443.2896 
L 622.700784 442.7352 
L 622.700784 442.1808 
L 622.700784 441.6264 
L 622.700784 441.072 
L 622.700784 440.5176 
L 622.700784 439.9632 
L 622.700784 439.4088 
L 622.700784 438.8544 
L 622.700784 438.3 
L 622.700784 437.7456 
L 622.700784 437.1912 
L 622.700784 436.6368 
L 622.700784 436.0824 
L 622.700784 435.528 
L 622.700784 434.9736 
L 622.700784 434.4192 
L 622.700784 433.8648 
L 622.700784 433.3104 
L 622.700784 432.756 
L 622.700784 432.2016 
L 622.700784 431.6472 
L 622.700784 431.0928 
L 622.700784 430.5384 
L 622.700784 429.984 
L 622.700784 429.4296 
L 622.700784 428.8752 
L 622.700784 428.3208 
L 622.686222 427.7664 
L 622.513118 427.212 
L 622.35 427.01002 
L 622.226887 426.6576 
L 622.128222 426.1032 
L 621.792 425.717274 
L 621.661265 425.5488 
L 621.234 425.124292 
L 621.113391 424.9944 
L 621.029027 424.44 
L 620.977784 423.8856 
L 620.676 423.541663 
L 620.418261 423.3312 
L 620.118 423.078159 
L 619.56 423.078159 
L 619.210008 423.3312 
L 619.002 423.422057 
L 618.444 423.592843 
L 618.115151 423.8856 
L 617.886 424.179252 
L 617.657724 424.44 
L 617.328 424.701643 
L 616.999151 424.9944 
L 616.77 425.288052 
L 616.541724 425.5488 
L 616.370104 426.1032 
L 616.212 426.382728 
L 615.969842 426.6576 
L 615.654 426.910371 
L 615.316513 427.212 
L 615.096 427.505652 
L 614.867724 427.7664 
L 614.719408 428.3208 
L 614.538 428.534937 
L 614.163675 428.8752 
L 613.98 429.168852 
L 613.751724 429.4296 
L 613.629216 429.984 
L 613.550689 430.5384 
L 613.422 430.691307 
L 612.894912 431.0928 
L 612.864 431.117747 
L 612.436735 431.6472 
L 612.306 431.791261 
L 611.77662 432.2016 
L 611.748 432.227729 
L 611.325655 432.756 
L 611.19 432.908907 
L 610.662912 433.3104 
L 610.632 433.335502 
L 610.21415 433.8648 
L 610.074 434.061454 
L 609.757437 434.4192 
L 609.534307 434.9736 
L 609.516 434.993532 
L 609.008643 435.528 
L 608.958 435.585155 
L 608.470128 436.0824 
L 608.4 436.169002 
L 607.928811 436.6368 
L 607.842 436.70936 
L 607.350872 437.1912 
L 607.284 437.247183 
L 606.726 437.609718 
L 606.589236 437.7456 
L 606.168 437.985479 
L 605.82745 438.3 
L 605.61 438.52066 
L 605.298221 438.8544 
L 605.052 439.34336 
L 604.986135 439.4088 
L 604.687408 439.9632 
L 604.494 440.240256 
L 604.214855 440.5176 
L 603.936 440.883076 
L 603.745849 441.072 
L 603.443962 441.6264 
L 603.378 441.693767 
L 602.943034 442.1808 
L 602.82 442.314819 
L 602.288112 442.7352 
L 602.262 442.759662 
L 601.841329 443.2896 
L 601.704 443.493727 
L 601.395465 443.844 
L 601.146 444.33296 
L 601.080135 444.3984 
L 600.82798 444.9528 
L 600.588 445.44176 
L 600.522135 445.5072 
L 600.060912 446.0616 
L 600.03 446.087729 
L 599.607655 446.616 
L 599.472 446.74654 
L 599.045388 447.1704 
L 598.914 447.316148 
L 598.385051 447.7248 
L 598.356 447.753663 
L 597.827051 448.2792 
L 597.798 448.304302 
L 597.371388 448.8336 
L 597.24 448.968379 
L 596.826604 449.388 
L 596.682 449.570303 
L 596.349808 449.9424 
L 596.124 450.294523 
L 595.902222 449.9424 
L 595.916784 449.388 
L 595.916784 448.8336 
L 595.916784 448.2792 
L 595.916784 447.7248 
L 595.916784 447.1704 
L 595.916784 446.616 
L 595.916784 446.0616 
L 595.916784 445.5072 
L 595.916784 444.9528 
L 595.916784 444.3984 
L 595.916784 443.844 
L 595.916784 443.2896 
L 595.916784 442.7352 
L 595.916784 442.1808 
L 595.916784 441.6264 
L 595.916784 441.072 
L 595.916784 440.5176 
L 595.916784 439.9632 
L 595.916784 439.4088 
L 595.916784 438.8544 
L 595.916784 438.3 
L 595.916784 437.7456 
L 595.916784 437.1912 
L 595.902222 436.6368 
L 595.769909 436.0824 
L 595.566 435.673944 
L 595.524946 435.528 
L 595.411495 434.9736 
L 595.33481 434.4192 
L 595.008 433.996423 
L 594.924982 433.8648 
L 594.666379 433.3104 
L 594.45 433.08737 
L 594.270608 432.756 
L 594.242784 432.2016 
L 594.242784 431.6472 
L 594.242784 431.0928 
L 594.242784 430.5384 
L 594.242784 429.984 
L 594.242784 429.4296 
L 594.242784 428.8752 
L 594.242784 428.3208 
L 594.242784 427.7664 
L 594.242784 427.212 
L 594.242784 426.6576 
L 594.242784 426.1032 
L 594.242784 425.5488 
L 594.242784 424.9944 
L 594.242784 424.44 
L 594.242784 423.8856 
L 594.242784 423.3312 
L 594.242784 422.7768 
L 594.242784 422.2224 
L 594.242784 421.668 
L 594.242784 421.1136 
L 594.242784 420.5592 
L 594.242784 420.0048 
L 594.242784 419.4504 
L 594.242784 418.896 
L 594.242784 418.3416 
L 594.242784 417.7872 
L 594.242784 417.2328 
L 594.242784 416.6784 
L 594.242784 416.124 
L 594.242784 415.5696 
L 594.242784 415.0152 
L 594.242784 414.4608 
L 594.242784 413.9064 
L 594.242784 413.352 
L 594.242784 412.7976 
L 594.242784 412.2432 
L 594.242784 411.6888 
L 594.242784 411.1344 
L 594.242784 410.58 
L 594.242784 410.0256 
L 594.242784 409.4712 
L 594.242784 408.9168 
L 594.21881 408.3624 
L 593.993462 407.808 
L 593.892 407.688377 
L 593.727283 407.2536 
L 593.570538 406.6992 
L 593.334 406.394472 
L 593.227167 406.1448 
L 593.135574 405.5904 
L 593.126784 405.036 
L 593.126784 404.4816 
L 593.126784 403.9272 
L 593.126784 403.3728 
L 593.126784 402.8184 
L 593.126784 402.264 
L 593.126784 401.7096 
L 593.126784 401.1552 
L 593.126784 400.6008 
L 593.126784 400.0464 
L 593.126784 399.492 
L 593.126784 398.9376 
L 593.126784 398.3832 
L 593.126784 397.8288 
L 593.10281 397.2744 
L 592.877462 396.72 
L 592.776 396.600377 
L 592.60096 396.1656 
L 592.454538 395.6112 
L 592.218 395.306472 
L 592.111215 395.0568 
L 592.018479 394.5024 
L 592.010784 393.948 
L 592.010784 393.3936 
L 592.010784 392.8392 
L 592.010784 392.2848 
L 592.010784 391.7304 
L 592.010784 391.176 
L 592.010784 390.6216 
L 592.010784 390.0672 
L 592.010784 389.5128 
L 592.010784 388.9584 
L 592.010784 388.404 
L 592.010784 387.8496 
L 592.010784 387.2952 
L 592.010784 386.7408 
L 592.010784 386.1864 
L 592.010784 385.632 
L 592.010784 385.0776 
L 592.010784 384.5232 
L 592.010784 383.9688 
L 592.010784 383.4144 
L 591.97494 382.86 
L 591.66 382.323398 
L 591.649346 382.3056 
L 591.361467 381.7512 
L 591.102 381.391262 
L 590.985663 381.1968 
L 590.67118 380.6424 
L 590.544 380.51604 
L 590.356253 380.088 
L 590.336784 379.5336 
L 590.336784 378.9792 
L 590.336784 378.4248 
L 590.336784 377.8704 
L 590.336784 377.316 
L 590.336784 376.7616 
L 590.336784 376.2072 
L 590.336784 375.6528 
L 590.336784 375.0984 
L 590.336784 374.544 
L 590.336784 373.9896 
L 590.336784 373.4352 
L 590.336784 372.8808 
L 590.31281 372.3264 
L 590.087462 371.772 
L 589.986 371.652377 
L 589.81096 371.2176 
L 589.664538 370.6632 
L 589.428 370.358472 
L 589.321215 370.1088 
L 589.228479 369.5544 
L 589.220784 369 
L 589.220784 368.4456 
L 589.220784 367.8912 
L 589.220784 367.3368 
L 589.220784 366.7824 
L 589.220784 366.228 
L 589.220784 365.6736 
L 589.220784 365.1192 
L 589.220784 364.5648 
L 589.220784 364.0104 
L 589.220784 363.456 
L 589.220784 362.9016 
L 589.220784 362.3472 
L 589.206222 361.7928 
L 589.048928 361.2384 
L 588.87 361.019006 
L 588.746941 360.684 
L 588.653298 360.1296 
L 588.377865 359.5752 
L 588.312 359.50976 
L 588.08081 359.0208 
L 587.754 358.503682 
L 587.732882 358.4664 
L 587.563465 357.912 
L 587.546784 357.3576 
L 587.546784 356.8032 
L 587.546784 356.2488 
L 587.546784 355.6944 
L 587.546784 355.14 
L 587.483123 354.5856 
L 587.196 354.060158 
L 587.180827 354.0312 
L 586.854379 353.4768 
L 586.638 353.25377 
L 586.458695 352.9224 
L 586.430784 352.368 
L 586.430784 351.8136 
L 586.430784 351.2592 
L 586.430784 350.7048 
L 586.430784 350.1504 
L 586.430784 349.596 
L 586.430784 349.0416 
L 586.430784 348.4872 
L 586.430784 347.9328 
L 586.430784 347.3784 
L 586.430784 346.824 
L 586.430784 346.2696 
L 586.367123 345.7152 
L 586.08 345.189758 
L 586.066494 345.1608 
L 585.825588 344.6064 
L 585.522 344.273457 
L 585.38584 344.052 
L 585.346516 343.4976 
L 585.331465 342.9432 
L 585.315966 342.3888 
L 585.314784 341.8344 
L 585.314784 341.28 
L 585.314784 340.7256 
L 585.314784 340.1712 
L 585.314784 339.6168 
L 585.314784 339.0624 
L 585.314784 338.508 
L 585.314784 337.9536 
L 585.314784 337.3992 
L 585.314784 336.8448 
L 585.314784 336.2904 
L 585.314784 335.736 
L 585.314784 335.1816 
L 585.314784 334.6272 
L 585.314784 334.0728 
L 585.314784 333.5184 
L 585.314784 332.964 
L 585.314784 332.4096 
L 585.314784 331.8552 
L 585.314784 331.3008 
L 585.314784 330.7464 
L 585.314784 330.192 
L 585.314784 329.6376 
L 585.314784 329.0832 
L 585.314784 328.5288 
L 585.314784 327.9744 
L 585.314784 327.42 
L 585.314784 326.8656 
L 585.314784 326.3112 
L 585.314784 325.7568 
L 585.314784 325.2024 
L 585.314784 324.648 
L 585.314784 324.0936 
L 585.314784 323.5392 
L 585.314784 322.9848 
L 585.314784 322.4304 
L 585.314784 321.876 
L 585.314784 321.3216 
L 585.314784 320.7672 
L 585.314784 320.2128 
L 585.314784 319.6584 
L 585.314784 319.104 
L 585.314784 318.5496 
L 585.314784 317.9952 
L 585.314784 317.4408 
L 585.314784 316.8864 
L 585.314784 316.332 
L 585.314784 315.7776 
L 585.314784 315.2232 
L 585.29081 314.6688 
L 584.964 314.151682 
L 584.942882 314.1144 
L 584.773465 313.56 
L 584.756784 313.0056 
L 584.756784 312.4512 
L 584.756784 311.8968 
L 584.756784 311.3424 
L 584.756784 310.788 
L 584.756784 310.2336 
L 584.756784 309.6792 
L 584.756784 309.1248 
L 584.756784 308.5704 
L 584.694955 308.016 
L 584.406 307.684241 
L 584.140871 307.4616 
L 583.848 307.215856 
L 583.29 307.234797 
L 583.027559 307.4616 
L 582.732 307.755252 
L 582.503724 308.016 
L 582.381216 308.5704 
L 582.174 308.832043 
L 581.845151 309.1248 
L 581.616 309.404328 
L 581.373842 309.6792 
L 581.058 309.919079 
L 580.697931 310.2336 
L 580.5 310.377272 
L 580.077655 310.788 
L 579.942 310.91854 
L 579.515388 311.3424 
L 579.384 311.47294 
L 578.96615 311.8968 
L 578.826 312.080277 
L 578.416813 312.4512 
L 578.268 312.634206 
L 577.965997 313.0056 
L 577.71 313.469716 
L 577.625953 313.56 
L 577.216931 314.1144 
L 577.152 314.186112 
L 576.724025 314.6688 
L 576.594 314.803579 
L 576.171655 315.2232 
L 576.036 315.376107 
L 575.508912 315.7776 
L 575.478 315.802547 
L 575.050735 316.332 
L 574.92 316.476061 
L 574.39062 316.8864 
L 574.362 316.914835 
L 573.83262 317.4408 
L 573.804 317.465747 
L 573.376735 317.9952 
L 573.246 318.139261 
L 572.71662 318.5496 
L 572.688 318.574547 
L 572.260735 319.104 
L 572.13 319.248061 
L 571.60062 319.6584 
L 571.572 319.686835 
L 571.04262 320.2128 
L 571.014 320.237747 
L 570.586735 320.7672 
L 570.456 320.897092 
L 570.028735 321.3216 
L 569.898 321.460903 
L 569.34 321.744597 
L 569.207744 321.876 
L 568.782 322.203597 
L 568.541142 322.4304 
L 568.224 322.709589 
L 567.951439 322.9848 
L 567.666 323.181726 
L 567.273572 323.5392 
L 567.108 323.701732 
L 566.580912 324.0936 
L 566.55 324.124313 
L 566.022912 324.648 
L 565.992 324.673102 
L 565.565388 325.2024 
L 565.434 325.348148 
L 564.905051 325.7568 
L 564.876 325.785663 
L 564.347051 326.3112 
L 564.318 326.340063 
L 563.789051 326.8656 
L 563.76 326.890702 
L 563.34215 327.42 
L 563.202 327.605994 
L 562.826045 327.9744 
L 562.644 328.232054 
L 562.396661 328.5288 
L 562.17834 329.0832 
L 562.086 329.190644 
L 561.623022 329.6376 
L 561.528 329.755645 
L 561.186702 330.192 
L 560.97 330.471012 
L 560.692824 330.7464 
L 560.46362 331.3008 
L 560.412 331.357651 
L 559.85777 331.8552 
L 559.854 331.859102 
L 559.345678 332.4096 
L 559.296 332.45866 
L 558.896005 332.964 
L 558.738 333.131818 
L 558.233794 333.5184 
L 558.18 333.570745 
L 557.780023 334.0728 
L 557.622 334.224995 
L 557.064 334.453419 
L 556.88909 334.6272 
L 556.506 334.885255 
L 556.102955 335.1816 
L 555.948 335.273941 
L 555.43093 335.736 
L 555.39 335.772211 
L 554.832 335.962928 
L 554.457191 336.2904 
L 554.274 336.427399 
L 553.716 336.645688 
L 553.507729 336.8448 
L 553.158 337.000298 
L 552.6 337.119927 
L 552.30145 337.3992 
L 552.042 337.698609 
L 551.802627 337.9536 
L 551.787315 338.508 
L 552.042 338.795467 
L 552.264252 339.0624 
L 552.6 339.362237 
L 553.158 339.410921 
L 553.716 339.381352 
L 554.274 339.324796 
L 554.832 339.240174 
L 555.39 339.07111 
L 555.409529 339.0624 
L 555.948 338.981903 
L 556.506 338.921587 
L 557.064 338.894209 
L 557.622 338.862055 
L 558.18 338.856521 
L 558.738 338.814545 
L 559.125553 338.508 
L 559.296 338.338653 
L 559.604535 337.9536 
L 559.584955 337.3992 
L 559.296 337.067441 
L 559.030871 336.8448 
L 558.738 336.544941 
L 558.484225 336.2904 
L 558.738 336.157755 
L 559.201147 335.736 
L 559.296 335.626162 
L 559.823802 335.1816 
L 559.854 335.150627 
L 560.380826 334.6272 
L 560.412 334.603205 
L 560.878805 334.0728 
L 560.97 333.958409 
L 561.496314 333.5184 
L 561.528 333.494405 
L 561.994805 332.964 
L 562.086 332.832377 
L 562.460742 332.4096 
L 562.644 332.151946 
L 562.891339 331.8552 
L 563.202 331.36563 
L 563.267251 331.3008 
L 563.64705 330.7464 
L 563.76 330.589081 
L 564.049138 330.192 
L 564.318 329.811381 
L 564.49291 329.6376 
L 564.812101 329.0832 
L 564.876 328.996748 
L 565.379318 328.5288 
L 565.434 328.47451 
L 565.941017 327.9744 
L 565.992 327.935337 
L 566.461211 327.42 
L 566.55 327.313001 
L 567.063146 326.8656 
L 567.108 326.821377 
L 567.629105 326.3112 
L 567.666 326.2748 
L 568.191418 325.7568 
L 568.224 325.730474 
L 568.724981 325.2024 
L 568.782 325.139288 
L 569.34 324.77436 
L 569.46718 324.648 
L 569.898 324.317387 
L 570.135776 324.0936 
L 570.456 323.897331 
L 570.845309 323.5392 
L 571.014 323.402823 
L 571.479308 322.9848 
L 571.572 322.874962 
L 572.099802 322.4304 
L 572.13 322.400397 
L 572.657802 321.876 
L 572.688 321.852739 
L 573.157256 321.3216 
L 573.246 321.233429 
L 573.715256 320.7672 
L 573.804 320.66092 
L 574.332949 320.2128 
L 574.362 320.183937 
L 574.890949 319.6584 
L 574.92 319.635139 
L 575.389256 319.104 
L 575.478 318.99772 
L 576.006949 318.5496 
L 576.036 318.526339 
L 576.505256 317.9952 
L 576.594 317.88892 
L 577.122949 317.4408 
L 577.152 317.411937 
L 577.680949 316.8864 
L 577.71 316.863139 
L 578.179256 316.332 
L 578.268 316.209121 
L 578.683809 315.7776 
L 578.826 315.642976 
L 579.181175 315.2232 
L 579.384 314.948406 
L 579.656949 314.6688 
L 579.942 314.25939 
L 580.087931 314.1144 
L 580.446625 313.56 
L 580.5 313.489814 
L 581.028505 313.0056 
L 581.058 312.976296 
L 581.586505 312.4512 
L 581.616 312.427926 
L 582.174 311.96163 
L 582.381216 312.4512 
L 582.381216 313.0056 
L 582.381216 313.56 
L 582.437342 314.1144 
L 582.732 314.544421 
L 582.793961 314.6688 
L 582.931521 315.2232 
L 582.939216 315.7776 
L 582.939216 316.332 
L 582.939216 316.8864 
L 582.939216 317.4408 
L 582.939216 317.9952 
L 582.939216 318.5496 
L 582.939216 319.104 
L 582.939216 319.6584 
L 582.939216 320.2128 
L 582.939216 320.7672 
L 582.939216 321.3216 
L 582.939216 321.876 
L 582.939216 322.4304 
L 582.939216 322.9848 
L 582.939216 323.5392 
L 582.939216 324.0936 
L 582.939216 324.648 
L 582.939216 325.2024 
L 582.939216 325.7568 
L 582.939216 326.3112 
L 582.939216 326.8656 
L 582.939216 327.42 
L 582.939216 327.9744 
L 582.939216 328.5288 
L 582.939216 329.0832 
L 582.939216 329.6376 
L 582.939216 330.192 
L 582.939216 330.7464 
L 582.939216 331.3008 
L 582.939216 331.8552 
L 582.939216 332.4096 
L 582.939216 332.964 
L 582.939216 333.5184 
L 582.939216 334.0728 
L 582.939216 334.6272 
L 582.939216 335.1816 
L 582.939216 335.736 
L 582.939216 336.2904 
L 582.939216 336.8448 
L 582.939216 337.3992 
L 582.939216 337.9536 
L 582.939216 338.508 
L 582.939216 339.0624 
L 582.939216 339.6168 
L 582.939216 340.1712 
L 582.939216 340.7256 
L 582.939216 341.28 
L 582.939216 341.8344 
L 582.939216 342.3888 
L 582.939216 342.9432 
L 582.939216 343.4976 
L 582.939216 344.052 
L 583.002877 344.6064 
L 583.29 345.131842 
L 583.305173 345.1608 
L 583.631621 345.7152 
L 583.848 345.930183 
L 584.035747 346.2696 
L 584.055216 346.824 
L 584.055216 347.3784 
L 584.055216 347.9328 
L 584.055216 348.4872 
L 584.055216 349.0416 
L 584.055216 349.596 
L 584.055216 350.1504 
L 584.055216 350.7048 
L 584.055216 351.2592 
L 584.055216 351.8136 
L 584.055216 352.368 
L 584.055216 352.9224 
L 584.118877 353.4768 
L 584.406 354.002242 
L 584.419506 354.0312 
L 584.660412 354.5856 
L 584.964 354.908952 
L 585.107729 355.14 
L 585.139484 355.6944 
L 585.159404 356.2488 
L 585.171216 356.8032 
L 585.171216 357.3576 
L 585.171216 357.912 
L 585.227342 358.4664 
L 585.456135 359.0208 
L 585.522 359.08624 
L 585.754679 359.5752 
L 586.08 360.025393 
L 586.141961 360.1296 
L 586.307097 360.684 
L 586.474882 361.2384 
L 586.638 361.415215 
L 586.782233 361.7928 
L 586.815205 362.3472 
L 586.822096 362.9016 
L 586.829452 363.456 
L 586.842973 364.0104 
L 586.845216 364.5648 
L 586.845216 365.1192 
L 586.845216 365.6736 
L 586.845216 366.228 
L 586.845216 366.7824 
L 586.845216 367.3368 
L 586.845216 367.8912 
L 586.845216 368.4456 
L 586.845216 369 
L 586.845216 369.5544 
L 586.894216 370.1088 
L 587.094538 370.6632 
L 587.196 370.782823 
L 587.347652 371.2176 
L 587.43906 371.772 
L 587.754 372.219872 
L 587.813636 372.3264 
L 587.918862 372.8808 
L 587.927872 373.4352 
L 587.937163 373.9896 
L 587.954629 374.544 
L 587.961216 375.0984 
L 587.961216 375.6528 
L 587.961216 376.2072 
L 587.961216 376.7616 
L 587.961216 377.316 
L 587.961216 377.8704 
L 587.961216 378.4248 
L 587.961216 378.9792 
L 587.961216 379.5336 
L 587.961216 380.088 
L 588.023045 380.6424 
L 588.312 381.175469 
L 588.321531 381.1968 
L 588.513646 381.7512 
L 588.650422 382.3056 
L 588.87 382.687055 
L 588.926894 382.86 
L 589.036782 383.4144 
L 589.094278 383.9688 
L 589.1639 384.5232 
L 589.30082 385.0776 
L 589.428 385.348833 
L 589.487319 385.632 
L 589.576419 386.1864 
L 589.596494 386.7408 
L 589.60434 387.2952 
L 589.612952 387.8496 
L 589.629749 388.404 
L 589.635216 388.9584 
L 589.635216 389.5128 
L 589.635216 390.0672 
L 589.635216 390.6216 
L 589.635216 391.176 
L 589.635216 391.7304 
L 589.635216 392.2848 
L 589.635216 392.8392 
L 589.635216 393.3936 
L 589.635216 393.948 
L 589.635216 394.5024 
L 589.684216 395.0568 
L 589.884538 395.6112 
L 589.986 395.730823 
L 590.136163 396.1656 
L 590.21719 396.72 
L 590.544 397.241949 
L 590.562307 397.2744 
L 590.691975 397.8288 
L 590.712494 398.3832 
L 590.72034 398.9376 
L 590.728952 399.492 
L 590.745749 400.0464 
L 590.751216 400.6008 
L 590.751216 401.1552 
L 590.751216 401.7096 
L 590.751216 402.264 
L 590.751216 402.8184 
L 590.751216 403.3728 
L 590.751216 403.9272 
L 590.751216 404.4816 
L 590.751216 405.036 
L 590.751216 405.5904 
L 590.800216 406.1448 
L 591.000538 406.6992 
L 591.102 406.818823 
L 591.266717 407.2536 
L 591.423462 407.808 
L 591.66 408.088067 
L 591.784774 408.3624 
L 591.862778 408.9168 
L 591.867216 409.4712 
L 591.867216 410.0256 
L 591.867216 410.58 
L 591.867216 411.1344 
L 591.867216 411.6888 
L 591.867216 412.2432 
L 591.867216 412.7976 
L 591.867216 413.352 
L 591.867216 413.9064 
L 591.867216 414.4608 
L 591.867216 415.0152 
L 591.867216 415.5696 
L 591.867216 416.124 
L 591.867216 416.6784 
L 591.867216 417.2328 
L 591.867216 417.7872 
L 591.867216 418.3416 
L 591.867216 418.896 
L 591.867216 419.4504 
L 591.867216 420.0048 
L 591.867216 420.5592 
L 591.867216 421.1136 
L 591.867216 421.668 
L 591.867216 422.2224 
L 591.867216 422.7768 
L 591.867216 423.3312 
L 591.867216 423.8856 
L 591.867216 424.44 
L 591.867216 424.9944 
L 591.867216 425.5488 
L 591.867216 426.1032 
L 591.867216 426.6576 
L 591.867216 427.212 
L 591.867216 427.7664 
L 591.867216 428.3208 
L 591.867216 428.8752 
L 591.867216 429.4296 
L 591.867216 429.984 
L 591.867216 430.5384 
L 591.867216 431.0928 
L 591.867216 431.6472 
L 591.867216 432.2016 
L 591.867216 432.756 
L 591.930877 433.3104 
L 592.218 433.676784 
L 592.318138 433.8648 
L 592.585849 434.4192 
L 592.776 434.608124 
L 592.982142 434.9736 
L 593.188069 435.528 
L 593.334 435.921025 
L 593.363652 436.0824 
L 593.50031 436.6368 
L 593.518096 437.1912 
L 593.525545 437.7456 
L 593.538973 438.3 
L 593.541216 438.8544 
L 593.541216 439.4088 
L 593.541216 439.9632 
L 593.541216 440.5176 
L 593.541216 441.072 
L 593.541216 441.6264 
L 593.541216 442.1808 
L 593.541216 442.7352 
L 593.541216 443.2896 
L 593.541216 443.844 
L 593.541216 444.3984 
L 593.541216 444.9528 
L 593.541216 445.5072 
L 593.541216 446.0616 
L 593.541216 446.616 
L 593.541216 447.1704 
L 593.541216 447.7248 
L 593.541216 448.2792 
L 593.541216 448.8336 
L 593.536778 449.388 
L 593.425447 449.9424 
L 593.334 450.050492 
L 592.911655 450.4968 
L 592.776 450.631579 
L 592.362604 451.0512 
L 592.218 451.333977 
L 591.989724 451.6056 
L 591.867216 452.16 
L 591.867216 452.7144 
L 591.867216 453.2688 
L 591.867216 453.8232 
L 591.867216 454.3776 
L 591.9539 454.932 
L 592.218 455.251264 
L 592.425383 455.4864 
L 592.776 455.779157 
L 593.334 455.834921 
L 593.892 455.834921 
L 594.45 455.820453 
L 594.860658 455.4864 
L 595.008 455.364435 
L 595.375465 454.932 
L 595.566 454.461105 
L 595.650047 454.3776 
L 596.038004 453.8232 
L 596.124 453.735474 
L 596.593704 453.2688 
L 596.682 453.173994 
L 597.082741 452.7144 
L 597.24 452.503987 
L 597.562427 452.16 
L 597.798 451.783374 
L 597.976928 451.6056 
L 598.292101 451.0512 
L 598.356 450.983116 
L 598.824758 450.4968 
L 598.914 450.408134 
L 599.382758 449.9424 
L 599.472 449.853734 
L 599.940758 449.388 
L 600.03 449.299784 
L 600.499211 448.8336 
L 600.588 448.727966 
L 601.117156 448.2792 
L 601.146 448.250563 
L 601.675177 447.7248 
L 601.704 447.701539 
L 602.173256 447.1704 
L 602.262 447.068 
L 602.630373 446.616 
L 602.82 446.12704 
L 602.885865 446.0616 
L 603.148146 445.5072 
L 603.378 445.01763 
L 603.443251 444.9528 
L 603.906025 444.3984 
L 603.936 444.374405 
L 604.402805 443.844 
L 604.494 443.753394 
L 604.960805 443.2896 
L 605.052 443.175209 
L 605.578314 442.7352 
L 605.61 442.711205 
L 606.076805 442.1808 
L 606.168 442.077118 
L 606.534455 441.6264 
L 606.726 441.117274 
L 606.771568 441.072 
L 607.037779 440.5176 
L 607.284 440.08956 
L 607.41118 439.9632 
L 607.842 439.666593 
L 608.200144 439.4088 
L 608.4 439.314593 
L 608.958 439.056677 
L 609.169508 438.8544 
L 609.516 438.671609 
L 609.930583 438.3 
L 610.074 438.154252 
L 610.444238 437.7456 
L 610.632 437.376389 
L 610.810928 437.1912 
L 611.059843 436.6368 
L 611.19 436.378401 
L 611.442354 436.0824 
L 611.706946 435.528 
L 611.748 435.482687 
L 612.216758 434.9736 
L 612.306 434.884934 
L 612.774758 434.4192 
L 612.864 434.330984 
L 613.333211 433.8648 
L 613.422 433.755031 
L 613.933818 433.3104 
L 613.98 433.274333 
L 614.448758 432.756 
L 614.538 432.649001 
L 615.062927 432.2016 
L 615.096 432.17529 
L 615.55547 431.6472 
L 615.654 431.451216 
L 615.920256 431.0928 
L 616.012479 430.5384 
L 616.212 430.344257 
L 616.643511 429.984 
L 616.77 429.837609 
L 617.106222 429.4296 
L 617.128479 428.8752 
L 617.328 428.681057 
L 617.759511 428.3208 
L 617.886 428.200944 
L 618.323366 427.7664 
L 618.444 427.597053 
L 618.752535 427.212 
L 618.802479 426.6576 
L 619.002 426.46544 
L 619.56 426.521346 
L 619.696428 426.6576 
L 620.118 427.200589 
L 620.127105 427.212 
L 620.265384 427.7664 
L 620.325216 428.3208 
L 620.325216 428.8752 
L 620.325216 429.4296 
L 620.325216 429.984 
L 620.325216 430.5384 
L 620.325216 431.0928 
L 620.325216 431.6472 
L 620.325216 432.2016 
L 620.325216 432.756 
L 620.325216 433.3104 
L 620.325216 433.8648 
L 620.325216 434.4192 
L 620.325216 434.9736 
L 620.325216 435.528 
L 620.325216 436.0824 
L 620.325216 436.6368 
L 620.325216 437.1912 
L 620.325216 437.7456 
L 620.325216 438.3 
L 620.325216 438.8544 
L 620.325216 439.4088 
L 620.325216 439.9632 
L 620.325216 440.5176 
L 620.325216 441.072 
L 620.325216 441.6264 
L 620.325216 442.1808 
L 620.325216 442.7352 
L 620.325216 443.2896 
L 620.325216 443.844 
L 620.325216 444.3984 
L 620.325216 444.9528 
L 620.325216 445.5072 
L 620.325216 446.0616 
L 620.325216 446.616 
L 620.325216 447.1704 
L 620.325216 447.7248 
L 620.325216 448.2792 
L 620.325216 448.8336 
L 620.325216 449.388 
L 620.325216 449.9424 
L 620.325216 450.4968 
L 620.325216 451.0512 
L 620.325216 451.6056 
L 620.325216 452.16 
L 620.374216 452.7144 
L 620.676 453.224651 
L 620.697118 453.2688 
L 620.857492 453.8232 
L 621.017621 454.3776 
L 621.234 454.636916 
L 621.358774 454.932 
L 621.436778 455.4864 
L 621.441216 456.0408 
L 621.441216 456.5952 
L 621.497342 457.1496 
L 621.73293 457.704 
L 621.792 457.762689 
L 622.00741 458.2584 
L 622.35 458.71906 
L 622.411961 458.8128 
L 622.541545 459.3672 
L 622.658253 459.9216 
L 622.908 460.377579 
L 622.943282 460.476 
L 623.080365 461.0304 
L 623.115216 461.5848 
L 623.115216 462.1392 
L 623.115216 462.6936 
L 623.115216 463.248 
L 623.115216 463.8024 
L 623.171342 464.3568 
L 623.400135 464.9112 
L 623.466 464.97664 
L 623.70598 465.4656 
L 624.024 465.911181 
L 624.085961 466.02 
L 624.223521 466.5744 
L 624.231216 467.1288 
L 624.231216 467.6832 
L 624.287342 468.2376 
L 624.516135 468.792 
L 624.582 468.85744 
L 624.814679 469.3464 
L 625.14 469.796593 
L 625.201961 469.9008 
L 625.339521 470.4552 
L 625.347216 471.0096 
L 625.347216 471.564 
L 625.347216 472.1184 
L 625.347216 472.6728 
L 625.410877 473.2272 
L 625.698 473.752642 
L 625.713173 473.7816 
L 626.065849 474.336 
L 626.256 474.524924 
L 626.45354 474.8904 
L 626.582743 475.4448 
L 626.75493 475.9992 
L 626.814 476.10798 
L 626.903288 476.5536 
L 626.998096 477.108 
L 627.021216 477.6624 
L 627.021216 478.2168 
L 627.021216 478.7712 
L 627.021216 479.3256 
L 627.021216 479.88 
L 627.021216 480.4344 
L 627.021216 480.9888 
L 627.021216 481.5432 
L 627.021216 482.0976 
L 627.021216 482.652 
L 627.021216 483.2064 
L 627.021216 483.7608 
L 627.021216 484.3152 
L 627.021216 484.8696 
L 627.070216 485.424 
L 627.270538 485.9784 
L 627.372 486.098023 
L 627.54704 486.5328 
L 627.693462 487.0872 
L 627.93 487.367267 
L 628.055319 487.6416 
L 628.132778 488.196 
L 628.137216 488.7504 
L 628.137216 489.3048 
L 628.137216 489.8592 
L 628.137216 490.4136 
L 628.137216 490.968 
L 628.137216 491.5224 
L 628.137216 492.0768 
L 628.186216 492.6312 
L 628.386538 493.1856 
L 628.488 493.305223 
L 628.638163 493.74 
L 628.71919 494.2944 
L 629.046 494.816349 
L 629.064307 494.8488 
L 629.193975 495.4032 
L 629.214494 495.9576 
L 629.22234 496.512 
L 629.230952 497.0664 
L 629.247749 497.6208 
L 629.253216 498.1752 
L 629.253216 498.7296 
L 629.253216 499.284 
L 629.253216 499.8384 
L 629.253216 500.3928 
L 629.302216 500.9472 
L 629.37848 501.5016 
L 629.551267 502.056 
L 629.604 502.15441 
L 629.693483 502.6104 
L 629.791747 503.1648 
L 629.811216 503.7192 
L 629.811216 504.2736 
L 629.811216 504.828 
L 629.811216 505.3824 
L 629.811216 505.9368 
L 629.811216 506.4912 
L 629.811216 507.0456 
L 629.811216 507.6 
L 629.811216 508.1544 
L 629.811216 508.7088 
L 629.811216 509.2632 
L 629.811216 509.8176 
L 629.811216 510.372 
L 629.811216 510.9264 
L 629.811216 511.4808 
L 629.811216 512.0352 
L 629.811216 512.5896 
L 629.811216 513.144 
L 629.811216 513.6984 
L 629.811216 514.2528 
L 629.860216 514.8072 
L 630.060538 515.3616 
L 630.162 515.481223 
L 630.33704 515.916 
L 630.483462 516.4704 
L 630.72 516.750467 
L 630.845925 517.0248 
L 630.922778 517.5792 
L 630.927216 518.1336 
L 630.927216 518.688 
L 630.927216 519.2424 
L 630.927216 519.7968 
L 630.976216 520.3512 
L 631.10309 520.9056 
L 631.278 521.178496 
L 631.375543 521.46 
L 631.51798 522.0144 
L 631.669001 522.5688 
L 631.836 522.74966 
L 631.984006 523.1232 
L 632.043216 523.6776 
L 632.043216 524.232 
L 632.043216 524.7864 
L 632.043216 525.3408 
L 632.043216 525.8952 
L 632.043216 526.4496 
L 632.043216 527.004 
L 632.043216 527.5584 
L 632.043216 528.1128 
L 632.043216 528.6672 
L 632.043216 529.2216 
L 631.996674 529.776 
L 631.836 530.157331 
L 631.669001 530.3304 
L 631.51798 530.8848 
L 631.375543 531.4392 
L 631.278 531.720704 
L 631.10309 531.9936 
L 630.989045 532.548 
L 630.927216 533.1024 
L 630.927216 533.6568 
L 630.927216 534.2112 
L 630.927216 534.7656 
L 630.927216 535.32 
L 630.927216 535.8744 
L 630.927216 536.4288 
L 630.927216 536.9832 
L 630.927216 537.5376 
L 630.927216 538.092 
L 630.927216 538.6464 
L 630.861788 539.2008 
L 630.72 539.555322 
L 630.541072 539.7552 
L 630.355408 540.3096 
L 630.162 540.763193 
L 630.060538 540.864 
L 629.880914 541.4184 
L 629.811216 541.9728 
L 629.811216 542.5272 
L 629.811216 543.0816 
L 629.811216 543.636 
L 629.811216 544.1904 
L 629.811216 544.7448 
L 629.811216 545.2992 
L 629.811216 545.8536 
L 629.811216 546.408 
L 629.811216 546.9624 
L 629.811216 547.5168 
L 629.811216 548.0712 
L 629.811216 548.6256 
L 629.811216 549.18 
L 629.788096 549.7344 
L 629.633652 550.2888 
L 629.604 550.500012 
L 629.497358 550.8432 
L 629.315045 551.3976 
L 629.253216 551.952 
L 629.253216 552.5064 
L 629.253216 553.0608 
L 629.253216 553.6152 
L 629.253216 554.1696 
L 629.253216 554.724 
L 629.253216 555.2784 
L 629.241404 555.8328 
L 629.046 556.172217 
L 628.829621 556.3872 
L 628.616869 556.9416 
L 628.488 557.165995 
L 628.200877 557.496 
L 628.137216 558.0504 
L 628.137216 558.6048 
L 628.137216 559.1592 
L 628.137216 559.7136 
L 628.137216 560.268 
L 628.137216 560.8224 
L 628.137216 561.3768 
L 628.137216 561.9312 
L 628.137216 562.4856 
L 628.137216 563.04 
L 628.137216 563.5944 
L 628.2239 564.1488 
L 628.488 564.468064 
L 628.652071 564.7032 
L 629.046 565.043463 
L 629.331051 565.2576 
L 629.604 565.597804 
L 629.720602 565.812 
L 630.162 566.266925 
L 630.334107 566.3664 
L 630.72 566.659157 
L 631.278 566.672945 
z
" style="fill:#0000ff;"/>
   </g>
   <g id="patch_3">
    <path clip-path="url(#p946e12b471)" d="M 556.335553 375.6528 
L 556.506 375.483453 
L 556.814535 375.0984 
L 556.856784 374.544 
L 556.856784 373.9896 
L 556.856784 373.4352 
L 556.856784 372.8808 
L 556.82094 372.3264 
L 556.506 371.795917 
L 556.491801 371.772 
L 556.164379 371.2176 
L 555.948 370.99457 
L 555.768608 370.6632 
L 555.740784 370.1088 
L 555.740784 369.5544 
L 555.740784 369 
L 555.740784 368.4456 
L 555.740784 367.8912 
L 555.740784 367.3368 
L 555.740784 366.7824 
L 555.916314 366.228 
L 555.948 366.207018 
L 555.985524 366.228 
L 556.506 366.552702 
L 557.064 366.576521 
L 557.622 366.576521 
L 558.18 366.576521 
L 558.738 366.576521 
L 559.296 366.576521 
L 559.854 366.567097 
L 560.412 366.430277 
L 560.684263 366.228 
L 560.97 366.123349 
L 561.528 366.028665 
L 562.086 365.73843 
L 562.151251 365.6736 
L 562.644 365.490692 
L 563.202 365.321477 
L 563.474263 365.1192 
L 563.76 365.014549 
L 564.318 364.91555 
L 564.750643 364.5648 
L 564.876 364.420149 
L 565.20281 364.0104 
L 565.226784 363.456 
L 565.226784 362.9016 
L 565.226784 362.3472 
L 565.164955 361.7928 
L 564.876 361.449776 
L 564.739643 361.2384 
L 564.318 360.819477 
L 564.182345 360.684 
L 563.76 360.264379 
L 563.624345 360.1296 
L 563.202 359.709979 
L 563.066345 359.5752 
L 562.644 359.155579 
L 562.508345 359.0208 
L 562.086 358.601179 
L 561.948861 358.4664 
L 561.864222 357.912 
L 561.878784 357.3576 
L 561.878784 356.8032 
L 561.878784 356.2488 
L 561.878784 355.6944 
L 561.878784 355.14 
L 561.849023 354.5856 
L 561.528 354.213156 
L 561.353715 354.0312 
L 561.528 353.875377 
L 562.086 353.825321 
L 562.644 353.825321 
L 563.202 353.825321 
L 563.76 353.825321 
L 563.967216 354.0312 
L 563.967216 354.5856 
L 563.967216 355.14 
L 564.023342 355.6944 
L 564.252135 356.2488 
L 564.318 356.31424 
L 564.54919 356.8032 
L 564.876 357.254319 
L 564.937961 357.3576 
L 565.075521 357.912 
L 565.083216 358.4664 
L 565.161051 359.0208 
L 565.434 359.348622 
L 565.602483 359.5752 
L 565.992 359.910475 
L 566.55 360.024949 
L 566.680645 360.1296 
L 566.839408 360.684 
L 567.108 361.007622 
L 567.315383 361.2384 
L 567.666 361.531157 
L 568.224 361.544945 
L 568.611553 361.2384 
L 568.782 361.031365 
L 569.048256 360.684 
L 569.132784 360.1296 
L 569.132784 359.5752 
L 569.083784 359.0208 
L 568.782 358.676863 
L 568.576548 358.4664 
L 568.224 358.159855 
L 567.666 358.058434 
L 567.486208 357.912 
L 567.43481 357.3576 
L 567.173865 356.8032 
L 567.108 356.73776 
L 566.87681 356.2488 
L 566.55 355.731682 
L 566.528882 355.6944 
L 566.359465 355.14 
L 566.342784 354.5856 
L 566.342784 354.0312 
L 566.55 353.825321 
L 567.108 353.825321 
L 567.666 353.783345 
L 568.053553 353.4768 
L 568.224 353.307453 
L 568.532535 352.9224 
L 568.512955 352.368 
L 568.224 352.036241 
L 567.958871 351.8136 
L 567.666 351.567856 
L 567.108 351.458535 
L 566.55 351.445735 
L 566.342784 351.2592 
L 566.342784 350.7048 
L 566.342784 350.1504 
L 566.342784 349.596 
L 566.342784 349.0416 
L 566.342784 348.4872 
L 566.342784 347.9328 
L 566.342784 347.3784 
L 566.342784 346.824 
L 566.342784 346.2696 
L 566.342784 345.7152 
L 566.342784 345.1608 
L 566.342784 344.6064 
L 566.342784 344.052 
L 566.342784 343.4976 
L 566.342784 342.9432 
L 566.342784 342.3888 
L 566.280955 341.8344 
L 565.992 341.491376 
L 565.854861 341.28 
L 565.434 340.861854 
L 565.304679 340.7256 
L 565.164955 340.1712 
L 564.876 339.839441 
L 564.610871 339.6168 
L 564.318 339.371056 
L 563.76 339.389997 
L 563.497559 339.6168 
L 563.202 339.910452 
L 562.973724 340.1712 
L 562.851216 340.7256 
L 562.851216 341.28 
L 562.851216 341.8344 
L 562.844629 342.3888 
L 562.827163 342.9432 
L 562.734985 343.4976 
L 562.644 343.683775 
L 562.366824 344.052 
L 562.207781 344.6064 
L 562.086 344.734259 
L 561.665329 345.1608 
L 561.528 345.443577 
L 561.299724 345.7152 
L 561.177216 346.2696 
L 561.165404 346.824 
L 560.97 347.163417 
L 560.753621 347.3784 
L 560.426199 347.9328 
L 560.412 347.9614 
L 560.123045 348.4872 
L 560.031998 349.0416 
L 559.854 349.291178 
L 559.547199 349.596 
L 559.296 349.796448 
L 558.908916 350.1504 
L 558.738 350.432748 
L 558.498627 350.7048 
L 558.387216 351.2592 
L 558.4739 351.8136 
L 558.738 352.132864 
L 558.9031 352.368 
L 559.296 352.707097 
L 559.854 352.901418 
L 559.878151 352.9224 
L 559.854 352.970448 
L 559.296 353.128279 
L 558.738 353.128279 
L 558.18 353.189709 
L 557.622 353.314734 
L 557.309126 353.4768 
L 557.064 353.538361 
L 556.506 353.629614 
L 555.948 353.670943 
L 555.39 353.778159 
L 555.089739 354.0312 
L 554.832 354.162971 
L 554.274 354.502095 
L 554.189953 354.5856 
L 553.716 354.815298 
L 553.30359 355.14 
L 553.158 355.231277 
L 552.6 355.387855 
L 552.20242 355.6944 
L 552.042 355.785677 
L 551.484 355.956043 
L 551.180912 356.2488 
L 550.926 356.507712 
L 550.637045 356.8032 
L 550.516697 357.3576 
L 550.368 357.839638 
L 550.302749 357.912 
L 550.05306 358.4664 
L 549.958697 359.0208 
L 549.81 359.502838 
L 549.744749 359.5752 
L 549.515342 360.1296 
L 549.459216 360.684 
L 549.5459 361.2384 
L 549.81 361.557664 
L 550.017383 361.7928 
L 550.368 362.085557 
L 550.926 362.099345 
L 551.313553 361.7928 
L 551.484 361.623453 
L 551.792535 361.2384 
L 551.850548 360.684 
L 551.936669 360.1296 
L 552.042 359.97186 
L 552.378222 359.5752 
L 552.567199 359.0208 
L 552.6 358.983615 
L 553.022039 358.4664 
L 553.158 358.292343 
L 553.324631 358.4664 
L 553.365216 359.0208 
L 553.365216 359.5752 
L 553.365216 360.1296 
L 553.365216 360.684 
L 553.365216 361.2384 
L 553.365216 361.7928 
L 553.365216 362.3472 
L 553.365216 362.9016 
L 553.365216 363.456 
L 553.360882 364.0104 
L 553.336879 364.5648 
L 553.33434 365.1192 
L 553.358629 365.6736 
L 553.365216 366.228 
L 553.365216 366.7824 
L 553.365216 367.3368 
L 553.365216 367.8912 
L 553.365216 368.4456 
L 553.365216 369 
L 553.365216 369.5544 
L 553.365216 370.1088 
L 553.365216 370.6632 
L 553.428877 371.2176 
L 553.716 371.743042 
L 553.730199 371.772 
L 554.083849 372.3264 
L 554.274 372.515324 
L 554.460776 372.8808 
L 554.481216 373.4352 
L 554.481216 373.9896 
L 554.481216 374.544 
L 554.5679 375.0984 
L 554.832 375.417664 
L 555.039383 375.6528 
L 555.39 375.945557 
L 555.948 375.959345 
z
" style="fill:#0000ff;"/>
   </g>
   <g id="patch_4">
    <path clip-path="url(#p946e12b471)" d="M 563.76 351.097134 
L 563.202 350.966443 
L 562.644 350.895109 
L 562.086 350.764713 
L 562.016687 350.7048 
L 562.086 350.611494 
L 562.422222 350.1504 
L 562.436784 349.596 
L 562.48001 349.0416 
L 562.644 348.718904 
L 562.860379 348.4872 
L 563.187801 347.9328 
L 563.202 347.903842 
L 563.489123 347.3784 
L 563.552784 346.824 
L 563.671211 346.2696 
L 563.76 346.178994 
L 563.875134 346.2696 
L 563.967216 346.824 
L 563.967216 347.3784 
L 563.967216 347.9328 
L 563.967216 348.4872 
L 563.967216 349.0416 
L 563.967216 349.596 
L 563.967216 350.1504 
L 563.967216 350.7048 
z
" style="fill:#ffffff;"/>
   </g>
   <g id="patch_5">
    <path clip-path="url(#p946e12b471)" d="M 555.948 358.749177 
L 555.781369 358.4664 
L 555.740784 357.912 
L 555.740784 357.3576 
L 555.740784 356.8032 
L 555.776472 356.2488 
L 555.948 356.104249 
L 556.506 356.044095 
L 557.064 355.852131 
L 557.348904 355.6944 
L 557.622 355.6233 
L 558.18 355.535413 
L 558.738 355.498233 
L 559.296 355.526318 
L 559.449177 355.6944 
L 559.480096 356.2488 
L 559.502142 356.8032 
L 559.296 357.051055 
L 558.943452 357.3576 
L 558.738 357.492684 
L 558.18 357.563479 
L 557.622 357.563479 
L 557.064 357.685197 
L 556.790613 357.912 
L 556.506 358.05721 
L 556.094153 358.4664 
z
" style="fill:#ffffff;"/>
   </g>
   <g id="patch_6">
    <path clip-path="url(#p946e12b471)" d="M 560.412 364.019446 
L 559.854 364.164544 
L 559.296 364.20163 
L 558.738 364.213006 
L 558.18 364.211869 
L 557.622 364.199706 
L 557.064 364.186461 
L 556.506 364.071961 
L 556.37679 364.0104 
L 555.948 363.723309 
L 555.740784 363.456 
L 555.740784 362.9016 
L 555.740784 362.3472 
L 555.740784 361.7928 
L 555.740784 361.2384 
L 555.791165 360.684 
L 555.948 360.448864 
L 556.155383 360.684 
L 556.506 360.976757 
L 557.064 361.032521 
L 557.622 361.018053 
L 558.18 360.74883 
L 558.245251 360.684 
L 558.738 360.493691 
L 559.191645 360.1296 
L 559.296 360.044576 
L 559.854 359.956773 
L 560.412 360.047546 
L 560.502208 360.1296 
L 560.97 360.594374 
L 561.060208 360.684 
L 561.528 361.148774 
L 561.618208 361.2384 
L 562.086 361.703174 
L 562.176208 361.7928 
L 562.644 362.257574 
L 562.728298 362.3472 
L 562.815578 362.9016 
L 562.644 363.061237 
L 562.086 363.163243 
L 561.700107 363.456 
L 561.528 363.546815 
L 560.97 363.697492 
L 560.429914 364.0104 
z
" style="fill:#ffffff;"/>
   </g>
   <g id="patch_7">
    <path clip-path="url(#p946e12b471)" d="M 864.339137 438.3 
L 864.522 438.112304 
L 864.823784 437.7456 
L 864.810955 437.1912 
L 864.522 436.869989 
L 864.347032 436.6368 
L 863.964 436.287212 
L 863.596151 436.0824 
L 863.406 435.893476 
L 862.848 435.628468 
L 862.645853 435.528 
L 862.29 435.256812 
L 861.732 435.179479 
L 861.174 435.179479 
L 860.616 435.179479 
L 860.058 435.179479 
L 859.5 435.301197 
L 859.237559 435.528 
L 858.942 435.821652 
L 858.713724 436.0824 
L 858.384 436.288279 
L 857.826 436.409997 
L 857.563559 436.6368 
L 857.268 436.930452 
L 857.039724 437.1912 
L 857.0039 437.7456 
L 857.268 438.064864 
L 857.475383 438.3 
L 857.826 438.592757 
L 858.384 438.648521 
L 858.942 438.648521 
L 859.5 438.648521 
L 860.058 438.606545 
L 860.445553 438.3 
L 860.616 438.130653 
L 860.924535 437.7456 
L 861.174 437.539721 
L 861.732 437.570883 
L 862.065521 437.7456 
L 862.29 437.960583 
L 862.848 438.217084 
L 863.010191 438.3 
L 863.406 438.587091 
L 863.964 438.606545 
z
" style="fill:#0000ff;"/>
   </g>
   <g id="patch_8">
    <path clip-path="url(#p946e12b471)" d="M 595.566 451.11089 
L 595.499086 451.0512 
L 595.566 450.681668 
L 595.618549 451.0512 
z
" style="fill:#ffffff;"/>
   </g>
   <g id="patch_9">
    <path clip-path="url(#p946e12b471)" d="M 595.008 451.663418 
L 594.962392 451.6056 
L 595.008 451.552502 
L 595.055848 451.6056 
z
" style="fill:#ffffff;"/>
   </g>
   <g id="patch_10">
    <path clip-path="url(#p946e12b471)" d="M 594.45 452.232775 
L 594.393623 452.16 
L 594.45 452.103041 
L 594.522691 452.16 
z
" style="fill:#ffffff;"/>
   </g>
  </g>
 </g>
 <defs>
  <clipPath id="p946e12b471">
   <rect height="567.7056" width="762.228" x="122.94" y="88.4736"/>
  </clipPath>
 </defs>
</svg>
