<?xml version="1.0" encoding="utf-8" standalone="no"?>
<!DOCTYPE svg PUBLIC "-//W3C//DTD SVG 1.1//EN"
  "http://www.w3.org/Graphics/SVG/1.1/DTD/svg11.dtd">
<!-- Created with matplotlib (https://matplotlib.org/) -->
<svg height="737.28pt" version="1.1" viewBox="0 0 983.52 737.28" width="983.52pt" xmlns="http://www.w3.org/2000/svg" xmlns:xlink="http://www.w3.org/1999/xlink">
 <defs>
  <style type="text/css">
*{stroke-linecap:butt;stroke-linejoin:round;}
  </style>
 </defs>
 <g id="figure_1">
  <g id="patch_1">
   <path d="M 0 737.28 
L 983.52 737.28 
L 983.52 0 
L 0 0 
z
" style="fill:none;"/>
  </g>
  <g id="axes_1">
   <g id="patch_2">
    <path clip-path="url(#p7aebdc5cad)" d="M 466.46726 178.8408 
L 466.668 178.686903 
L 467.021027 178.2864 
L 467.204882 177.732 
L 467.226 177.684009 
L 467.515138 177.1776 
L 467.732746 176.6232 
L 467.784 176.534607 
L 468.092535 176.0688 
L 468.243817 175.5144 
L 468.342 175.320968 
L 468.623086 174.96 
L 468.774075 174.4056 
L 468.9 174.142182 
L 469.147339 173.8512 
L 469.306608 173.2968 
L 469.458 172.961047 
L 469.661591 172.7424 
L 469.848493 172.188 
L 470.016 171.785187 
L 470.161931 171.6336 
L 470.341321 171.0792 
L 470.574 170.577193 
L 470.626733 170.5248 
L 470.924784 169.9704 
L 471.035179 169.416 
L 471.132 169.190973 
L 471.342406 169.416 
L 471.69 169.747796 
L 471.802025 169.9704 
L 472.093292 170.5248 
L 472.248 170.67851 
L 472.54431 171.0792 
L 472.806 171.347602 
L 472.980947 171.6336 
L 473.013216 172.188 
L 473.013216 172.7424 
L 473.013216 173.2968 
L 473.075045 173.8512 
L 473.364 174.194224 
L 473.520835 174.4056 
L 473.922 174.754121 
L 474.124778 174.96 
L 474.2159 175.5144 
L 474.48 175.833664 
L 474.687383 176.0688 
L 475.038 176.361557 
L 475.596 176.375345 
L 475.983553 176.0688 
L 476.154 175.899453 
L 476.462535 175.5144 
L 476.504784 174.96 
L 476.504784 174.4056 
L 476.504784 173.8512 
L 476.504784 173.2968 
L 476.504784 172.7424 
L 476.442955 172.188 
L 476.154 171.856241 
L 475.888871 171.6336 
L 475.596 171.387856 
L 475.31928 171.0792 
L 475.038 170.594772 
L 475.001849 170.5248 
L 474.545251 169.9704 
L 474.48 169.90557 
L 474.203086 169.416 
L 473.922 169.128313 
L 473.750422 168.8616 
L 473.714784 168.3072 
L 473.714784 167.7528 
L 473.714784 167.1984 
L 473.700222 166.644 
L 473.527118 166.0896 
L 473.364 165.88762 
L 473.240887 165.5352 
L 473.15327 164.9808 
L 472.996151 164.4264 
L 473.364 164.256691 
L 473.922 164.269372 
L 474.48 164.330204 
L 474.928752 164.4264 
L 475.038 164.49123 
L 475.596 164.679441 
L 476.154 164.760453 
L 476.712 164.774921 
L 477.27 164.774921 
L 477.828 164.77715 
L 478.386 164.797892 
L 478.944 164.894564 
L 479.028252 164.9808 
L 478.944 165.130032 
L 478.635465 165.5352 
L 478.386 166.02416 
L 478.320135 166.0896 
L 478.084216 166.644 
L 477.975384 167.1984 
L 477.828 167.680438 
L 477.762749 167.7528 
L 477.51306 168.3072 
L 477.357853 168.8616 
L 477.27 169.133705 
L 477.09509 169.416 
L 476.975342 169.9704 
L 476.919216 170.5248 
L 476.919216 171.0792 
L 476.919216 171.6336 
L 476.919216 172.188 
L 476.919216 172.7424 
L 476.919216 173.2968 
L 476.975342 173.8512 
L 477.27 174.281221 
L 477.331961 174.4056 
L 477.490548 174.96 
L 477.828 175.417608 
L 477.889961 175.5144 
L 478.05919 176.0688 
L 478.386 176.416985 
L 478.583343 176.6232 
L 478.944 176.958475 
L 479.502 177.081404 
L 479.712406 177.1776 
L 480.06 177.439996 
L 480.618 177.57084 
L 481.087524 177.732 
L 481.176 177.815505 
L 481.734 178.060768 
L 482.292 178.066053 
L 482.85 177.985041 
L 483.408 177.79683 
L 483.508491 177.732 
L 483.966 177.627349 
L 484.524 177.564593 
L 485.082 177.502302 
L 485.521496 177.1776 
L 485.64 177.102381 
L 486.198 176.706705 
L 486.282047 176.6232 
L 486.756 176.321841 
L 487.019114 176.0688 
L 487.314 175.86144 
L 487.687231 175.5144 
L 487.872 175.365299 
L 488.316039 174.96 
L 488.43 174.823381 
L 488.778492 174.4056 
L 488.90698 173.8512 
L 488.988 173.676628 
L 489.260949 173.2968 
L 489.381283 172.7424 
L 489.546 172.307623 
L 489.647462 172.188 
L 489.882222 171.6336 
L 489.896784 171.0792 
L 489.896784 170.5248 
L 489.896784 169.9704 
L 489.896784 169.416 
L 489.896784 168.8616 
L 489.896784 168.3072 
L 489.87281 167.7528 
L 489.546 167.235682 
L 489.524882 167.1984 
L 489.339858 166.644 
L 489.053865 166.0896 
L 488.988 166.02416 
L 488.772473 165.5352 
L 488.43 165.172107 
L 488.227618 164.9808 
L 487.872 164.650751 
L 487.322766 164.4264 
L 487.314 164.41769 
L 486.756 164.034174 
L 486.454647 163.872 
L 486.198 163.634172 
L 485.64 163.416587 
L 485.437853 163.3176 
L 485.082 163.046412 
L 484.524 162.956299 
L 483.966 162.915389 
L 483.408 162.824761 
L 483.162874 162.7632 
L 482.85 162.601134 
L 482.292 162.476109 
L 481.734 162.414679 
L 481.176 162.414679 
L 480.618 162.414679 
L 480.06 162.414679 
L 479.502 162.414679 
L 478.944 162.414679 
L 478.386 162.414679 
L 477.828 162.414679 
L 477.27 162.414679 
L 476.712 162.408135 
L 476.154 162.389947 
L 475.596 162.349613 
L 475.038 162.260189 
L 474.849033 162.2088 
L 474.48 162.019876 
L 473.922 161.916043 
L 473.611339 161.6544 
L 473.717027 161.1 
L 473.783917 160.5456 
L 473.922 160.088103 
L 474.006047 159.9912 
L 474.223784 159.4368 
L 474.308453 158.8824 
L 474.428277 158.328 
L 474.48 158.183557 
L 474.719373 157.7736 
L 474.835222 157.2192 
L 474.87523 156.6648 
L 474.931711 156.1104 
L 475.022822 155.556 
L 475.038 155.48008 
L 475.21291 155.0016 
L 475.310949 154.4472 
L 475.388784 153.8928 
L 475.388784 153.3384 
L 475.388784 152.784 
L 475.388784 152.2296 
L 475.388784 151.6752 
L 475.388784 151.1208 
L 475.388784 150.5664 
L 475.374222 150.012 
L 475.216928 149.4576 
L 475.038 149.238206 
L 474.914887 148.9032 
L 474.821298 148.3488 
L 474.48 147.828094 
L 474.458882 147.7944 
L 474.281474 147.24 
L 473.922 146.715141 
L 473.900882 146.6856 
L 473.744002 146.1312 
L 473.656724 145.5768 
L 473.364 145.230248 
L 473.228345 145.0224 
L 472.806 144.494129 
L 472.775088 144.468 
L 472.248 144.076132 
L 471.982871 143.9136 
L 471.69 143.667856 
L 471.132 143.686797 
L 470.858613 143.9136 
L 470.574 144.079156 
L 470.047686 144.468 
L 470.016 144.49449 
L 469.604153 145.0224 
L 469.458 145.305177 
L 469.229724 145.5768 
L 469.107216 146.1312 
L 469.107216 146.6856 
L 469.107216 147.24 
L 469.107216 147.7944 
L 469.107216 148.3488 
L 469.107216 148.9032 
L 469.107216 149.4576 
L 469.107216 150.012 
L 469.107216 150.5664 
L 469.107216 151.1208 
L 469.107216 151.6752 
L 469.107216 152.2296 
L 469.107216 152.784 
L 469.107216 153.3384 
L 469.107216 153.8928 
L 469.107216 154.4472 
L 469.107216 155.0016 
L 469.107216 155.556 
L 469.107216 156.1104 
L 469.107216 156.6648 
L 469.156216 157.2192 
L 469.392749 157.7736 
L 469.458 157.845962 
L 469.606697 158.328 
L 469.70106 158.8824 
L 469.950749 159.4368 
L 470.016 159.509162 
L 470.164006 159.9912 
L 470.223216 160.5456 
L 470.223216 161.1 
L 470.223216 161.6544 
L 470.016 161.860279 
L 469.458 161.860279 
L 468.9 161.860279 
L 468.342 161.860279 
L 467.784 161.860279 
L 467.226 161.955759 
L 466.95388 162.2088 
L 466.668 162.458809 
L 466.379045 162.7632 
L 466.257384 163.3176 
L 466.11 163.799638 
L 466.044749 163.872 
L 465.815342 164.4264 
L 465.855315 164.9808 
L 466.11 165.258405 
L 466.323135 165.5352 
L 466.668 165.854152 
L 467.226 165.841745 
L 467.589492 165.5352 
L 467.784 165.380299 
L 468.135858 164.9808 
L 468.236669 164.4264 
L 468.342 164.298066 
L 468.9 164.236091 
L 469.458 164.236091 
L 470.016 164.240829 
L 470.395072 164.4264 
L 470.272216 164.9808 
L 470.163384 165.5352 
L 470.016 165.950589 
L 469.88882 166.0896 
L 469.662973 166.644 
L 469.563331 167.1984 
L 469.458 167.397552 
L 469.168862 167.7528 
L 469.067784 168.3072 
L 468.932617 168.8616 
L 468.9 168.910863 
L 468.552618 169.416 
L 468.456025 169.9704 
L 468.342 170.134435 
L 468.000702 170.5248 
L 467.821267 171.0792 
L 467.784 171.173459 
L 467.52702 171.6336 
L 467.375329 172.188 
L 467.226 172.549151 
L 467.047072 172.7424 
L 466.832489 173.2968 
L 466.668 173.763295 
L 466.583953 173.8512 
L 466.293248 174.4056 
L 466.131118 174.96 
L 466.11 174.991237 
L 465.758142 175.5144 
L 465.613961 176.0688 
L 465.552 176.16179 
L 465.208133 176.6232 
L 464.994 177.125851 
L 464.941915 177.1776 
L 464.754627 177.732 
L 464.746661 178.2864 
L 464.994 178.556635 
L 465.238434 178.8408 
L 465.552 179.127891 
L 466.11 179.140637 
z
" style="fill:#0000ff;"/>
   </g>
   <g id="patch_3">
    <path clip-path="url(#p7aebdc5cad)" d="M 563.860491 177.732 
L 564.318 177.627349 
L 564.876 177.56752 
L 565.434 177.500959 
L 565.845334 177.1776 
L 565.992 177.078125 
L 566.459792 176.6232 
L 566.55 176.533574 
L 567.017792 176.0688 
L 567.108 175.979174 
L 567.575792 175.5144 
L 567.666 175.426229 
L 568.135256 174.96 
L 568.224 174.870374 
L 568.681879 174.4056 
L 568.782 174.246215 
L 569.090535 173.8512 
L 569.132784 173.2968 
L 569.132784 172.7424 
L 569.132784 172.188 
L 569.132784 171.6336 
L 569.132784 171.0792 
L 569.132784 170.5248 
L 569.050592 169.9704 
L 568.782 169.646778 
L 568.651975 169.416 
L 568.224 168.886378 
L 568.196783 168.8616 
L 567.666 168.334241 
L 567.639888 168.3072 
L 567.108 167.849774 
L 567.025373 167.7528 
L 566.766379 167.1984 
L 566.55 166.947155 
L 566.355565 166.644 
L 565.992 166.265084 
L 565.824696 166.0896 
L 565.434 165.752996 
L 564.876 165.596761 
L 564.76027 165.5352 
L 564.318 165.228655 
L 563.76 165.112498 
L 563.42446 164.9808 
L 563.202 164.791876 
L 562.644 164.610245 
L 562.086 164.467189 
L 562.044946 164.4264 
L 561.930609 163.872 
L 561.930609 163.3176 
L 561.930609 162.7632 
L 561.930609 162.2088 
L 561.930609 161.6544 
L 561.930609 161.1 
L 561.989179 160.5456 
L 562.086 160.376253 
L 562.394535 159.9912 
L 562.436784 159.4368 
L 562.394535 158.8824 
L 562.086 158.521253 
L 561.857951 158.328 
L 561.528 158.056812 
L 560.97 158.040909 
L 560.412 158.244495 
L 560.314468 158.328 
L 559.854 158.465763 
L 559.296 158.533879 
L 558.738 158.655597 
L 558.378127 158.8824 
L 558.18 158.9535 
L 557.622 159.055986 
L 557.064 159.144043 
L 556.724616 159.4368 
L 556.506 159.568571 
L 555.948 159.907695 
L 555.863953 159.9912 
L 555.39 160.220898 
L 555.020432 160.5456 
L 554.832 160.69081 
L 554.411139 161.1 
L 554.274 161.236254 
L 553.862153 161.6544 
L 553.716 161.937177 
L 553.487724 162.2088 
L 553.365216 162.7632 
L 553.365216 163.3176 
L 553.432808 163.872 
L 553.716 164.221772 
L 553.904915 164.4264 
L 554.274 164.726237 
L 554.832 164.813393 
L 555.39 164.876149 
L 555.847509 164.9808 
L 555.948 165.04563 
L 556.506 165.233841 
L 557.064 165.319897 
L 557.622 165.38944 
L 558.13633 165.5352 
L 558.18 165.57383 
L 558.738 165.827957 
L 559.296 165.912751 
L 559.854 166.009103 
L 560.070857 166.0896 
L 560.412 166.316403 
L 560.97 166.446755 
L 561.528 166.603211 
L 561.641011 166.644 
L 562.086 166.892135 
L 562.644 167.027979 
L 563.084119 167.1984 
L 563.202 167.304354 
L 563.76 167.556535 
L 564.318 167.731818 
L 564.340097 167.7528 
L 564.653567 168.3072 
L 564.876 168.562199 
L 565.076831 168.8616 
L 565.434 169.259594 
L 565.542528 169.416 
L 565.992 169.946405 
L 566.023415 169.9704 
L 566.55 170.411231 
L 566.638744 170.5248 
L 566.757216 171.0792 
L 566.757216 171.6336 
L 566.757216 172.188 
L 566.757216 172.7424 
L 566.678689 173.2968 
L 566.55 173.431579 
L 566.127655 173.8512 
L 565.992 173.985979 
L 565.569655 174.4056 
L 565.434 174.535492 
L 565.006735 174.96 
L 564.876 175.094779 
L 564.318 175.325476 
L 563.948967 175.5144 
L 563.76 175.565789 
L 563.202 175.657057 
L 562.644 175.70191 
L 562.086 175.720279 
L 561.528 175.720279 
L 560.97 175.720279 
L 560.412 175.687986 
L 559.854 175.610596 
L 559.516037 175.5144 
L 559.296 175.36941 
L 558.738 175.214563 
L 558.18 175.146535 
L 557.622 175.102657 
L 557.064 174.992407 
L 556.941935 174.96 
L 556.506 174.757723 
L 555.948 174.598794 
L 555.77571 174.4056 
L 555.948 174.21344 
L 556.361003 173.8512 
L 556.506 173.682726 
L 556.842222 173.2968 
L 556.794955 172.7424 
L 556.506 172.430857 
L 556.18833 172.188 
L 555.948 171.973017 
L 555.39 171.950172 
L 555.054716 172.188 
L 554.832 172.278857 
L 554.274 172.449643 
L 554.024535 172.188 
L 554.066784 171.6336 
L 554.03094 171.0792 
L 553.716 170.665361 
L 553.632982 170.5248 
L 553.374379 169.9704 
L 553.158 169.74737 
L 552.978608 169.416 
L 552.950784 168.8616 
L 552.950784 168.3072 
L 552.887123 167.7528 
L 552.6 167.361052 
L 552.516982 167.1984 
L 552.264433 166.644 
L 552.042 166.389001 
L 551.845255 166.0896 
L 551.484 165.710684 
L 551.319929 165.5352 
L 550.926 165.194937 
L 550.376766 164.9808 
L 550.368 164.97209 
L 549.81 164.528661 
L 549.604364 164.4264 
L 549.252 164.17085 
L 548.694 163.978177 
L 548.523553 163.872 
L 548.136 163.565455 
L 547.578 163.464034 
L 547.092832 163.3176 
L 547.02 163.25277 
L 546.462 162.988832 
L 545.904 162.824761 
L 545.802587 162.7632 
L 545.346 162.434432 
L 544.788 162.270361 
L 544.697116 162.2088 
L 544.23 161.862557 
L 543.862151 161.6544 
L 543.672 161.465476 
L 543.464784 161.1 
L 543.541355 160.5456 
L 543.672 160.440949 
L 544.23 160.363703 
L 544.788 160.374347 
L 545.346 160.39477 
L 545.904 160.536554 
L 545.923643 160.5456 
L 546.462 160.845437 
L 547.02 160.939605 
L 547.578 161.090959 
L 547.588 161.1 
L 547.8719 161.6544 
L 548.136 161.973664 
L 548.343383 162.2088 
L 548.694 162.501557 
L 549.252 162.515345 
L 549.639553 162.2088 
L 549.81 162.039453 
L 550.118535 161.6544 
L 550.160784 161.1 
L 550.12494 160.5456 
L 549.81 160.131761 
L 549.725702 159.9912 
L 549.468379 159.4368 
L 549.252 159.21377 
L 549.060196 158.8824 
L 548.694 158.477242 
L 548.481251 158.328 
L 548.136 158.040909 
L 547.578 157.979479 
L 547.02 157.979479 
L 546.462 157.979479 
L 545.904 157.979479 
L 545.346 157.979479 
L 544.788 157.979479 
L 544.23 157.979479 
L 543.672 158.035243 
L 543.114 158.26317 
L 543.041168 158.328 
L 542.556 158.474434 
L 541.998 158.595309 
L 541.674703 158.8824 
L 541.44 159.164748 
L 541.200627 159.4368 
L 541.089216 159.9912 
L 541.089216 160.5456 
L 541.089216 161.1 
L 541.089216 161.6544 
L 541.145342 162.2088 
L 541.44 162.557154 
L 541.588431 162.7632 
L 541.998 163.129063 
L 542.331521 163.3176 
L 542.556 163.532583 
L 543.114 163.789084 
L 543.228382 163.872 
L 543.672 164.221588 
L 544.164135 164.4264 
L 544.23 164.49184 
L 544.788 164.743798 
L 545.346 164.959474 
L 545.378214 164.9808 
L 545.904 165.327043 
L 546.462 165.430549 
L 546.747737 165.5352 
L 547.02 165.737477 
L 547.578 165.926096 
L 547.92697 166.0896 
L 548.136 166.274766 
L 548.694 166.550621 
L 548.859311 166.644 
L 549.252 166.912936 
L 549.81 167.14301 
L 549.863675 167.1984 
L 550.145567 167.7528 
L 550.368 167.973798 
L 550.554776 168.3072 
L 550.575216 168.8616 
L 550.575216 169.416 
L 550.638877 169.9704 
L 550.926 170.336784 
L 551.026138 170.5248 
L 551.293849 171.0792 
L 551.484 171.322327 
L 551.601802 171.6336 
L 551.484 171.768379 
L 550.926 171.999076 
L 550.556967 172.188 
L 550.368 172.239389 
L 549.81 172.330657 
L 549.252 172.37551 
L 548.694 172.393879 
L 548.136 172.393879 
L 547.578 172.393879 
L 547.02 172.393879 
L 546.462 172.393879 
L 545.904 172.393879 
L 545.346 172.393879 
L 544.788 172.393879 
L 544.23 172.393879 
L 543.672 172.299445 
L 543.563446 172.188 
L 543.672 172.051831 
L 544.037528 171.6336 
L 544.23 171.275089 
L 544.427161 171.0792 
L 544.724417 170.5248 
L 544.788 170.376123 
L 545.04969 169.9704 
L 545.082658 169.416 
L 544.788 169.078806 
L 544.514782 168.8616 
L 544.617553 168.3072 
L 544.788 168.100165 
L 545.054256 167.7528 
L 545.056592 167.1984 
L 544.788 166.886346 
L 544.522871 166.644 
L 544.23 166.398256 
L 543.672 166.295479 
L 543.114 166.295479 
L 542.556 166.295479 
L 541.998 166.417197 
L 541.735559 166.644 
L 541.44 166.897115 
L 541.171408 167.1984 
L 541.171408 167.7528 
L 541.44 168.076422 
L 541.647383 168.3072 
L 541.998 168.599957 
L 542.556 168.655721 
L 543.114 168.671675 
L 543.426633 168.8616 
L 543.114 169.070665 
L 542.783097 169.416 
L 542.556 169.710398 
L 542.29431 169.9704 
L 542.050813 170.5248 
L 541.998 170.585956 
L 541.589274 171.0792 
L 541.44 171.361548 
L 541.192291 171.6336 
L 540.882 171.866847 
L 540.689108 171.6336 
L 540.324 171.109203 
L 540.302882 171.0792 
L 540.122251 170.5248 
L 539.766 170.000651 
L 539.744882 169.9704 
L 539.533459 169.416 
L 539.260733 168.8616 
L 539.208 168.809207 
L 539.006251 168.3072 
L 538.65 167.783051 
L 538.628882 167.7528 
L 538.43927 167.1984 
L 538.092 166.748142 
L 538.019722 166.644 
L 537.885858 166.0896 
L 537.534 165.579112 
L 537.504075 165.5352 
L 537.36938 164.9808 
L 537.306903 164.4264 
L 537.179591 163.872 
L 536.976 163.517384 
L 536.914039 163.3176 
L 536.818016 162.7632 
L 536.807434 162.2088 
L 536.795415 161.6544 
L 536.781456 161.1 
L 536.768784 160.5456 
L 536.768784 159.9912 
L 536.712658 159.4368 
L 536.418 159.088446 
L 536.172048 158.8824 
L 535.86 158.629359 
L 535.302 158.644572 
L 535.028181 158.8824 
L 534.744 159.079483 
L 534.41719 159.4368 
L 534.186 159.907695 
L 534.101953 159.9912 
L 533.760626 160.5456 
L 533.628 160.78369 
L 533.355051 161.1 
L 533.272778 161.6544 
L 533.244713 162.2088 
L 533.218673 162.7632 
L 533.15102 163.3176 
L 533.07 163.852597 
L 533.061234 163.872 
L 532.891072 164.4264 
L 532.8059 164.9808 
L 532.748977 165.5352 
L 532.687562 166.0896 
L 532.608821 166.644 
L 532.512 166.979783 
L 532.366069 167.1984 
L 532.195437 167.7528 
L 532.121712 168.3072 
L 531.966304 168.8616 
L 531.954 168.89443 
L 531.685408 169.416 
L 531.595622 169.9704 
L 531.437724 170.5248 
L 531.396 170.568861 
L 531.354063 170.5248 
L 531.1021 169.9704 
L 530.838 169.613951 
L 530.714285 169.416 
L 530.443118 168.8616 
L 530.28 168.699534 
L 530.068147 168.3072 
L 529.722 167.844457 
L 529.658761 167.7528 
L 529.436949 167.1984 
L 529.164 166.902615 
L 529.006816 166.644 
L 528.644881 166.0896 
L 528.606 166.05097 
L 528.37481 165.5352 
L 528.048 165.146553 
L 527.934811 164.9808 
L 527.680151 164.4264 
L 527.49 164.229839 
L 527.299271 163.872 
L 526.932 163.492795 
L 526.653408 163.3176 
L 526.374 163.064559 
L 525.816 163.079772 
L 525.568291 163.3176 
L 525.258 163.637013 
L 525.029724 163.872 
L 525.003315 164.4264 
L 525.258 164.790148 
L 525.340627 164.9808 
L 525.558791 165.5352 
L 525.816 165.808089 
L 525.969445 166.0896 
L 526.184192 166.644 
L 526.374 166.832583 
L 526.555408 167.1984 
L 526.932 167.726514 
L 526.9534 167.7528 
L 527.125408 168.3072 
L 527.285042 168.8616 
L 526.932 169.051697 
L 526.662867 168.8616 
L 526.374 168.599204 
L 525.816 168.634797 
L 525.258 168.468122 
L 525.113574 168.3072 
L 524.7 167.757692 
L 524.696818 167.7528 
L 524.423086 167.1984 
L 524.542463 166.644 
L 524.7 166.436965 
L 524.966256 166.0896 
L 524.968592 165.5352 
L 524.7 165.223146 
L 524.434871 164.9808 
L 524.142 164.735056 
L 523.584 164.632279 
L 523.026 164.49521 
L 522.967919 164.4264 
L 522.829534 163.872 
L 522.762658 163.3176 
L 522.506881 162.7632 
L 522.468 162.717676 
L 522.328119 162.2088 
L 522.269574 161.6544 
L 522.210123 161.1 
L 522.157339 160.5456 
L 522.126379 159.9912 
L 521.994047 159.4368 
L 521.91 159.180171 
L 521.868946 158.8824 
L 521.804669 158.328 
L 521.754609 157.7736 
L 521.735287 157.2192 
L 521.693298 156.6648 
L 521.515118 156.1104 
L 521.352 155.90842 
L 521.228887 155.556 
L 521.14127 155.0016 
L 520.997591 154.4472 
L 521.102535 153.8928 
L 521.180453 153.3384 
L 521.300277 152.784 
L 521.352 152.639557 
L 521.591373 152.2296 
L 521.693298 151.6752 
L 521.702784 151.1208 
L 521.702784 150.5664 
L 521.702784 150.012 
L 521.702784 149.4576 
L 521.640955 148.9032 
L 521.352 148.560176 
L 521.214861 148.3488 
L 520.794 147.930654 
L 520.664679 147.7944 
L 520.524955 147.24 
L 520.236 146.908241 
L 519.970871 146.6856 
L 519.678 146.439856 
L 519.12 146.458797 
L 518.857559 146.6856 
L 518.562 146.979252 
L 518.333724 147.24 
L 518.211216 147.7944 
L 518.211216 148.3488 
L 518.204629 148.9032 
L 518.198544 149.4576 
L 518.193627 150.012 
L 518.188096 150.5664 
L 518.181998 151.1208 
L 518.177116 151.6752 
L 518.172566 152.2296 
L 518.168181 152.784 
L 518.163954 153.3384 
L 518.159391 153.8928 
L 518.109331 154.4472 
L 518.055723 155.0016 
L 518.004 155.433727 
L 517.965119 155.556 
L 517.764627 156.1104 
L 517.658987 156.6648 
L 517.620713 157.2192 
L 517.58894 157.7736 
L 517.446 158.318147 
L 517.437234 158.328 
L 517.157045 158.8824 
L 517.065205 159.4368 
L 516.978118 159.9912 
L 516.888 160.202518 
L 516.638253 160.5456 
L 516.533817 161.1 
L 516.475429 161.6544 
L 516.33 162.198947 
L 516.321234 162.2088 
L 516.035342 162.7632 
L 515.907627 163.3176 
L 515.772 163.57733 
L 515.510087 163.872 
L 515.326714 164.4264 
L 515.214 164.702976 
L 515.016839 164.9808 
L 514.860973 165.5352 
L 514.717961 166.0896 
L 514.656 166.1767 
L 514.301922 166.644 
L 514.098 166.876538 
L 513.765836 167.1984 
L 513.54 167.498719 
L 513.292661 167.7528 
L 513.234633 168.3072 
L 513.287646 168.8616 
L 513.13471 169.416 
L 512.982 169.777151 
L 512.803072 169.9704 
L 512.591582 170.5248 
L 512.424 170.991295 
L 512.339953 171.0792 
L 512.052776 171.6336 
L 511.887118 172.188 
L 511.866 172.219481 
L 511.515216 172.7424 
L 511.369961 173.2968 
L 511.308 173.402822 
L 510.985573 173.8512 
L 510.841447 174.4056 
L 510.75 174.626879 
L 510.510627 174.96 
L 510.502661 175.5144 
L 510.75 175.784635 
L 510.994434 176.0688 
L 511.308 176.355891 
L 511.866 176.368637 
L 512.22326 176.0688 
L 512.424 175.916782 
L 512.779222 175.5144 
L 512.960882 174.96 
L 512.982 174.924082 
L 513.314192 174.4056 
L 513.478039 173.8512 
L 513.54 173.736216 
L 513.848535 173.2968 
L 513.999772 172.7424 
L 514.098 172.548968 
L 514.379086 172.188 
L 514.531226 171.6336 
L 514.656 171.370182 
L 514.903339 171.0792 
L 515.063968 170.5248 
L 515.214 170.189047 
L 515.417591 169.9704 
L 515.606053 169.416 
L 515.772 169.013187 
L 515.917931 168.8616 
L 516.33 168.476903 
L 516.531628 168.3072 
L 516.888 168.178956 
L 517.446 168.125219 
L 518.004 168.045557 
L 518.562 167.89779 
L 518.782037 167.7528 
L 519.12 167.651335 
L 519.678 167.550194 
L 520.236 167.483671 
L 520.794 167.347587 
L 521.09774 167.1984 
L 521.352 167.139464 
L 521.50182 167.1984 
L 521.91 167.546134 
L 522.024046 167.7528 
L 522.304882 168.3072 
L 522.468 168.469266 
L 522.683527 168.8616 
L 523.026 169.263511 
L 523.142037 169.416 
L 523.584 169.94684 
L 523.605476 169.9704 
L 523.951849 170.5248 
L 524.142 170.713724 
L 524.391465 171.0792 
L 524.7 171.402798 
L 524.877877 171.6336 
L 525.258 172.053659 
L 525.371726 172.188 
L 525.807234 172.7424 
L 525.816 172.75111 
L 526.1099 173.2968 
L 526.374 173.567603 
L 526.549851 173.8512 
L 526.6679 174.4056 
L 526.932 174.724864 
L 527.139383 174.96 
L 527.49 175.252757 
L 528.048 175.266545 
L 528.435553 174.96 
L 528.606 174.790653 
L 528.914535 174.4056 
L 528.956784 173.8512 
L 528.956784 173.2968 
L 529.074444 172.7424 
L 529.164 172.627416 
L 529.225961 172.7424 
L 529.33031 173.2968 
L 529.352637 173.8512 
L 529.4579 174.4056 
L 529.722 174.724864 
L 529.929383 174.96 
L 530.28 175.252757 
L 530.838 175.308521 
L 531.396 175.308521 
L 531.954 175.266545 
L 532.341553 174.96 
L 532.512 174.790653 
L 532.820535 174.4056 
L 532.862784 173.8512 
L 532.875647 173.2968 
L 532.98898 172.7424 
L 533.07 172.567828 
L 533.342949 172.188 
L 533.473881 171.6336 
L 533.628 171.196321 
L 533.734642 171.0792 
L 533.974147 170.5248 
L 534.039294 169.9704 
L 534.156348 169.416 
L 534.186 169.304232 
L 534.389909 168.8616 
L 534.536784 168.3072 
L 534.597294 167.7528 
L 534.722882 167.1984 
L 534.744 167.135487 
L 535.008711 166.644 
L 535.302 166.359965 
L 535.465151 166.644 
L 535.794749 167.1984 
L 535.86 167.26323 
L 536.076702 167.7528 
L 536.418 168.212697 
L 536.479961 168.3072 
L 536.650679 168.8616 
L 536.910135 169.416 
L 536.976 169.48144 
L 537.196548 169.9704 
L 537.534 170.428008 
L 537.595961 170.5248 
L 537.754548 171.0792 
L 538.092 171.536808 
L 538.153961 171.6336 
L 538.319097 172.188 
L 538.65 172.591697 
L 538.751121 172.7424 
L 539.017849 173.2968 
L 539.208 173.485724 
L 539.394776 173.8512 
L 539.5019 174.4056 
L 539.766 174.724864 
L 539.96674 174.96 
L 540.324 175.259837 
L 540.882 175.294053 
L 541.292658 174.96 
L 541.44 174.834327 
L 541.802596 174.4056 
L 541.998 174.212311 
L 542.556 174.300949 
L 542.841737 174.4056 
L 543.114 174.607877 
L 543.672 174.744697 
L 544.23 174.754121 
L 544.788 174.754121 
L 545.346 174.754121 
L 545.904 174.754121 
L 546.462 174.754121 
L 547.02 174.754121 
L 547.578 174.754121 
L 548.136 174.754121 
L 548.694 174.754121 
L 549.252 174.739653 
L 549.81 174.658641 
L 550.368 174.47043 
L 550.468491 174.4056 
L 550.926 174.300949 
L 551.484 174.24112 
L 552.042 174.174559 
L 552.453334 173.8512 
L 552.6 173.751725 
L 553.067792 173.2968 
L 553.158 173.207174 
L 553.374857 173.2968 
L 553.365216 173.8512 
L 553.365216 174.4056 
L 553.365216 174.96 
L 553.4519 175.5144 
L 553.716 175.833664 
L 553.8811 176.0688 
L 554.274 176.407897 
L 554.832 176.602218 
L 554.86918 176.6232 
L 555.39 176.949229 
L 555.948 177.01312 
L 556.506 177.072949 
L 556.963509 177.1776 
L 557.064 177.24243 
L 557.622 177.430641 
L 558.18 177.519133 
L 558.738 177.579123 
L 559.296 177.691211 
L 559.423844 177.732 
L 559.854 177.958803 
L 560.412 178.066053 
L 560.97 178.080521 
L 561.528 178.080521 
L 562.086 178.080521 
L 562.644 178.066053 
L 563.202 177.985041 
L 563.76 177.79683 
z
" style="fill:#0000ff;"/>
   </g>
   <g id="patch_4">
    <path clip-path="url(#p7aebdc5cad)" d="M 472.248 158.017912 
L 472.080398 157.7736 
L 471.69 157.226226 
L 471.686805 157.2192 
L 471.566941 156.6648 
L 471.527297 156.1104 
L 471.521506 155.556 
L 471.514516 155.0016 
L 471.507677 154.4472 
L 471.501363 153.8928 
L 471.493534 153.3384 
L 471.482784 152.784 
L 471.482784 152.2296 
L 471.482784 151.6752 
L 471.482784 151.1208 
L 471.482784 150.5664 
L 471.482784 150.012 
L 471.482784 149.4576 
L 471.482784 148.9032 
L 471.482784 148.3488 
L 471.482784 147.7944 
L 471.601734 147.24 
L 471.69 147.115621 
L 471.751961 147.24 
L 471.917097 147.7944 
L 472.248 148.248042 
L 472.309961 148.3488 
L 472.475097 148.9032 
L 472.642882 149.4576 
L 472.806 149.634415 
L 472.953384 150.012 
L 473.013216 150.5664 
L 473.013216 151.1208 
L 473.013216 151.6752 
L 473.013216 152.2296 
L 473.013216 152.784 
L 473.013216 153.3384 
L 473.001404 153.8928 
L 472.930375 154.4472 
L 472.844184 155.0016 
L 472.806 155.212219 
L 472.673744 155.556 
L 472.516862 156.1104 
L 472.457397 156.6648 
L 472.41431 157.2192 
L 472.338118 157.7736 
z
" style="fill:#ffffff;"/>
   </g>
   <g id="patch_5">
    <path clip-path="url(#p7aebdc5cad)" d="M 377.237781 183.8304 
L 377.388 183.671015 
L 377.696535 183.276 
L 377.946 183.070121 
L 378.504 183.070121 
L 379.062 183.070121 
L 379.62 183.070121 
L 380.178 183.070121 
L 380.736 183.070121 
L 381.294 183.070121 
L 381.852 183.070121 
L 382.41 183.070121 
L 382.968 183.070121 
L 383.526 183.070121 
L 384.084 183.070121 
L 384.642 183.070121 
L 385.2 183.034508 
L 385.758 182.959428 
L 386.316 182.827554 
L 386.579167 182.7216 
L 386.874 182.670211 
L 387.432 182.593356 
L 387.99 182.556433 
L 388.548 182.512229 
L 389.106 182.420241 
L 389.664 182.23203 
L 389.764491 182.1672 
L 390.222 182.062549 
L 390.78 181.999793 
L 391.338 181.937502 
L 391.792048 181.6128 
L 391.896 181.548644 
L 392.454 181.236174 
L 392.632928 181.0584 
L 393.012 180.822952 
L 393.356865 180.504 
L 393.57 180.34619 
L 394.021024 179.9496 
L 394.128 179.825052 
L 394.481027 179.3952 
L 394.580669 178.8408 
L 394.686 178.556906 
L 394.889591 178.2864 
L 395.047534 177.732 
L 395.16298 177.1776 
L 395.244 176.970112 
L 395.480538 176.6232 
L 395.639038 176.0688 
L 395.802 175.634023 
L 395.903462 175.5144 
L 396.138222 174.96 
L 396.152784 174.4056 
L 396.152784 173.8512 
L 396.152784 173.2968 
L 396.152784 172.7424 
L 396.152784 172.188 
L 396.152784 171.6336 
L 396.152784 171.0792 
L 396.12881 170.5248 
L 395.867865 169.9704 
L 395.802 169.90496 
L 395.56202 169.416 
L 395.244 168.901191 
L 395.222882 168.8616 
L 395.03327 168.3072 
L 394.686 167.766891 
L 394.675941 167.7528 
L 394.3921 167.1984 
L 394.128 166.911396 
L 393.976812 166.644 
L 393.676642 166.0896 
L 393.57 165.983646 
L 393.35575 165.5352 
L 393.012 165.170897 
L 392.780163 164.9808 
L 392.454 164.680963 
L 391.896 164.559291 
L 391.56046 164.4264 
L 391.338 164.237476 
L 390.78 164.058535 
L 390.222 163.912789 
L 390.132285 163.872 
L 389.664 163.584909 
L 389.106 163.523479 
L 388.548 163.523479 
L 387.99 163.431991 
L 387.898805 163.3176 
L 387.99 163.203209 
L 388.516314 162.7632 
L 388.548 162.739205 
L 389.014805 162.2088 
L 389.106 162.105118 
L 389.472455 161.6544 
L 389.664 161.16544 
L 389.729865 161.1 
L 389.98202 160.5456 
L 390.222 160.05664 
L 390.287865 159.9912 
L 390.54002 159.4368 
L 390.78 158.94784 
L 390.845865 158.8824 
L 391.116222 158.328 
L 391.130784 157.7736 
L 391.130784 157.2192 
L 391.130784 156.6648 
L 391.130784 156.1104 
L 391.130784 155.556 
L 391.130784 155.0016 
L 391.09494 154.4472 
L 390.78 153.910598 
L 390.769941 153.8928 
L 390.476685 153.3384 
L 390.222 153.060795 
L 390.07291 152.784 
L 389.827118 152.2296 
L 389.664 152.067534 
L 389.454492 151.6752 
L 389.106 151.278598 
L 388.968861 151.1208 
L 388.548 150.702654 
L 388.410861 150.5664 
L 387.99 150.03849 
L 387.958314 150.012 
L 387.432 149.613423 
L 387.23126 149.4576 
L 386.874 149.157763 
L 386.316 149.089735 
L 385.758 149.053421 
L 385.2 148.9743 
L 384.819176 148.9032 
L 384.642 148.819695 
L 384.084 148.657456 
L 383.526 148.578498 
L 382.968 148.584248 
L 382.41 148.676397 
L 381.852 148.83837 
L 381.722936 148.9032 
L 381.294 148.983697 
L 380.736 149.062829 
L 380.178 149.093509 
L 379.62 149.151055 
L 379.062 149.39277 
L 378.989168 149.4576 
L 378.504 149.613603 
L 377.946 149.693048 
L 377.388 149.834226 
L 377.099236 150.012 
L 376.83 150.097066 
L 376.272 150.253492 
L 375.714 150.50157 
L 375.641168 150.5664 
L 375.156 150.714137 
L 374.598 150.833709 
L 374.291633 151.1208 
L 374.04 151.333827 
L 373.71319 151.6752 
L 373.482 152.008602 
L 373.274784 151.6752 
L 373.274784 151.1208 
L 373.274784 150.5664 
L 373.192592 150.012 
L 372.924 149.699946 
L 372.658871 149.4576 
L 372.366 149.211856 
L 371.808 149.230797 
L 371.545559 149.4576 
L 371.25 149.710715 
L 370.981408 150.012 
L 370.899216 150.5664 
L 370.899216 151.1208 
L 370.899216 151.6752 
L 370.899216 152.2296 
L 370.899216 152.784 
L 370.899216 153.3384 
L 370.899216 153.8928 
L 370.899216 154.4472 
L 370.899216 155.0016 
L 370.870879 155.556 
L 370.704729 156.1104 
L 370.692 156.130952 
L 370.323396 156.6648 
L 370.134 156.964451 
L 369.911567 157.2192 
L 369.706691 157.7736 
L 369.576 157.960817 
L 369.24919 158.328 
L 369.018 158.661402 
L 368.795567 158.8824 
L 368.474104 159.4368 
L 368.46 159.457352 
L 368.091396 159.9912 
L 367.902 160.290851 
L 367.679567 160.5456 
L 367.358104 161.1 
L 367.344 161.12 
L 367.003888 161.6544 
L 366.786 162.125295 
L 366.701953 162.2088 
L 366.242104 162.7632 
L 366.228 162.799262 
L 365.973315 163.3176 
L 365.877216 163.872 
L 365.9639 164.4264 
L 366.228 164.745664 
L 366.435383 164.9808 
L 366.786 165.273557 
L 367.344 165.287345 
L 367.731553 164.9808 
L 367.902 164.811453 
L 368.210535 164.4264 
L 368.296773 163.872 
L 368.46 163.606164 
L 368.732949 163.3176 
L 368.993543 162.7632 
L 369.018 162.737587 
L 369.411162 162.2088 
L 369.576 161.942964 
L 369.848949 161.6544 
L 370.112909 161.1 
L 370.134 161.069649 
L 370.500367 160.5456 
L 370.692 160.240558 
L 370.870115 160.5456 
L 370.961045 161.1 
L 371.25 161.639849 
L 371.257172 161.6544 
L 371.54631 162.2088 
L 371.808 162.578815 
L 371.917104 162.7632 
L 372.259358 163.3176 
L 372.366 163.423554 
L 372.573216 163.872 
L 372.74909 164.4264 
L 372.924 164.703916 
L 373.014889 164.9808 
L 373.158048 165.5352 
L 373.315001 166.0896 
L 373.482 166.27046 
L 373.629384 166.644 
L 373.72506 167.1984 
L 373.82658 167.7528 
L 374.04 168.218887 
L 374.064179 168.3072 
L 374.186337 168.8616 
L 374.234448 169.416 
L 374.291039 169.9704 
L 374.434882 170.5248 
L 374.598 170.729568 
L 374.717908 171.0792 
L 374.759383 171.6336 
L 374.765079 172.188 
L 374.770365 172.7424 
L 374.775205 173.2968 
L 374.78201 173.8512 
L 374.789452 174.4056 
L 374.802973 174.96 
L 374.805216 175.5144 
L 374.805216 176.0688 
L 374.805216 176.6232 
L 374.805216 177.1776 
L 374.805216 177.732 
L 374.805216 178.2864 
L 374.805216 178.8408 
L 374.834977 179.3952 
L 374.8919 179.9496 
L 374.992882 180.504 
L 375.156 180.903023 
L 375.188617 181.0584 
L 375.269533 181.6128 
L 375.317383 182.1672 
L 375.345627 182.7216 
L 375.425045 183.276 
L 375.714 183.619024 
L 375.91474 183.8304 
L 376.272 184.130237 
L 376.83 184.149352 
z
" style="fill:#0000ff;"/>
   </g>
   <g id="patch_6">
    <path clip-path="url(#p7aebdc5cad)" d="M 435.901533 176.0688 
L 435.978 176.027345 
L 436.536 175.785588 
L 436.826438 175.5144 
L 437.094 175.349072 
L 437.52642 174.96 
L 437.652 174.778317 
L 437.960535 174.4056 
L 437.924949 173.8512 
L 437.652 173.562636 
L 437.358711 173.2968 
L 437.094 173.051056 
L 436.536 173.081817 
L 436.328784 172.7424 
L 436.328784 172.188 
L 436.328784 171.6336 
L 436.328784 171.0792 
L 436.328784 170.5248 
L 436.328784 169.9704 
L 436.328784 169.416 
L 436.328784 168.8616 
L 436.328784 168.3072 
L 436.536 168.094333 
L 437.094 168.286218 
L 437.129148 168.3072 
L 437.652 168.641253 
L 438.21 168.706749 
L 438.768 168.820811 
L 438.895844 168.8616 
L 439.326 169.088403 
L 439.884 169.208934 
L 440.442 169.293682 
L 440.796709 169.416 
L 441 169.578066 
L 441.558 169.761029 
L 442.116 169.848082 
L 442.470709 169.9704 
L 442.674 170.132466 
L 443.232 170.335403 
L 443.79 170.503818 
L 443.820198 170.5248 
L 444.348 170.879865 
L 444.906 171.058218 
L 444.943524 171.0792 
L 445.464 171.403902 
L 446.022 171.427721 
L 446.58 171.427721 
L 447.138 171.427721 
L 447.696 171.427721 
L 448.254 171.427721 
L 448.812 171.413253 
L 449.37 171.332241 
L 449.928 171.14403 
L 450.028491 171.0792 
L 450.486 170.974549 
L 451.044 170.914033 
L 451.602 170.834568 
L 451.98002 170.5248 
L 452.16 170.337104 
L 452.461784 169.9704 
L 452.448955 169.416 
L 452.16 169.094789 
L 451.875819 168.8616 
L 451.602 168.623772 
L 451.044 168.574509 
L 450.486 168.699534 
L 450.173126 168.8616 
L 449.928 168.923161 
L 449.37 169.010557 
L 448.812 169.032853 
L 448.254 169.044508 
L 447.696 169.050906 
L 447.138 169.055839 
L 446.58 169.063069 
L 446.022 169.059834 
L 445.464 168.923161 
L 445.362587 168.8616 
L 444.906 168.532832 
L 444.348 168.368761 
L 444.236482 168.3072 
L 443.79 167.994292 
L 443.232 167.899851 
L 442.746832 167.7528 
L 442.674 167.68797 
L 442.116 167.435259 
L 441.558 167.344221 
L 441.072832 167.1984 
L 441 167.13357 
L 440.442 166.885492 
L 439.884 166.81291 
L 439.326 166.740196 
L 438.988037 166.644 
L 438.768 166.49901 
L 438.21 166.300086 
L 438.010479 166.0896 
L 438.21 165.901197 
L 438.664935 165.5352 
L 438.768 165.438764 
L 439.160384 164.9808 
L 439.326 164.725105 
L 439.609192 164.4264 
L 439.842509 163.872 
L 439.884 163.82294 
L 440.416399 163.3176 
L 440.442 163.291301 
L 440.97353 162.7632 
L 441 162.740205 
L 441.470147 162.2088 
L 441.558 162.104496 
L 442.087581 161.6544 
L 442.116 161.625096 
L 442.644505 161.1 
L 442.674 161.069772 
L 443.201575 160.5456 
L 443.232 160.521605 
L 443.698805 159.9912 
L 443.79 159.859577 
L 444.172912 159.4368 
L 444.348 159.202513 
L 444.60969 158.8824 
L 444.906 158.646952 
L 445.304135 158.328 
L 445.464 158.158653 
L 445.772535 157.7736 
L 445.814784 157.2192 
L 445.765784 156.6648 
L 445.464 156.309844 
L 445.21071 156.1104 
L 444.906 155.864656 
L 444.348 155.872572 
L 444.074181 156.1104 
L 443.79 156.302447 
L 443.457808 156.6648 
L 443.232 157.016923 
L 443.028409 157.2192 
L 442.726262 157.7736 
L 442.674 157.829915 
L 442.255407 158.328 
L 442.116 158.484208 
L 441.606763 158.8824 
L 441.558 158.932528 
L 441.047048 159.4368 
L 441 159.482926 
L 440.610055 159.9912 
L 440.442 160.168461 
L 439.930215 160.5456 
L 439.884 160.592604 
L 439.369505 161.1 
L 439.326 161.144621 
L 438.808531 161.6544 
L 438.768 161.693079 
L 438.381864 162.2088 
L 438.21 162.408567 
L 437.852831 162.7632 
L 437.652 163.062601 
L 437.429567 163.3176 
L 437.190564 163.872 
L 437.094 163.962857 
L 436.536 164.133643 
L 436.328784 163.872 
L 436.328784 163.3176 
L 436.328784 162.7632 
L 436.328784 162.2088 
L 436.328784 161.6544 
L 436.328784 161.1 
L 436.328784 160.5456 
L 436.328784 159.9912 
L 436.328784 159.4368 
L 436.328784 158.8824 
L 436.328784 158.328 
L 436.328784 157.7736 
L 436.328784 157.2192 
L 436.328784 156.6648 
L 436.328784 156.1104 
L 436.328784 155.556 
L 436.314222 155.0016 
L 436.141118 154.4472 
L 435.978 154.24522 
L 435.854941 153.8928 
L 435.766147 153.3384 
L 435.583118 152.784 
L 435.42 152.58202 
L 435.296357 152.2296 
L 435.203298 151.6752 
L 434.862 151.154494 
L 434.840882 151.1208 
L 434.646473 150.5664 
L 434.304 150.19449 
L 434.019819 150.012 
L 433.746 149.774172 
L 433.188 149.766256 
L 432.932269 150.012 
L 432.63 150.233571 
L 432.30319 150.5664 
L 432.072 151.037295 
L 431.987953 151.1208 
L 431.644691 151.6752 
L 431.514 151.862417 
L 431.18719 152.2296 
L 430.956 152.700495 
L 430.871953 152.784 
L 430.526869 153.3384 
L 430.398 153.594476 
L 430.143315 153.8928 
L 430.047216 154.4472 
L 430.047216 155.0016 
L 430.1339 155.556 
L 430.398 155.875264 
L 430.605383 156.1104 
L 430.956 156.403157 
L 431.514 156.416945 
L 431.901553 156.1104 
L 432.072 155.941053 
L 432.380535 155.556 
L 432.422784 155.0016 
L 432.46601 154.4472 
L 432.63 154.181364 
L 432.902949 153.8928 
L 433.166524 153.3384 
L 433.188 153.316204 
L 433.209847 153.3384 
L 433.426397 153.8928 
L 433.680749 154.4472 
L 433.746 154.519562 
L 433.892706 155.0016 
L 433.953216 155.556 
L 433.953216 156.1104 
L 433.953216 156.6648 
L 433.953216 157.2192 
L 433.953216 157.7736 
L 433.953216 158.328 
L 433.953216 158.8824 
L 433.953216 159.4368 
L 433.953216 159.9912 
L 433.953216 160.5456 
L 433.953216 161.1 
L 433.953216 161.6544 
L 433.953216 162.2088 
L 433.953216 162.7632 
L 433.953216 163.3176 
L 433.953216 163.872 
L 433.953216 164.4264 
L 433.953216 164.9808 
L 433.953216 165.5352 
L 433.953216 166.0896 
L 433.953216 166.644 
L 433.953216 167.1984 
L 433.953216 167.7528 
L 433.953216 168.3072 
L 433.953216 168.8616 
L 433.953216 169.416 
L 433.953216 169.9704 
L 433.953216 170.5248 
L 433.953216 171.0792 
L 433.953216 171.6336 
L 433.953216 172.188 
L 433.953216 172.7424 
L 433.953216 173.2968 
L 433.953216 173.8512 
L 433.953216 174.4056 
L 433.953216 174.96 
L 434.0399 175.5144 
L 434.304 175.833664 
L 434.50474 176.0688 
L 434.862 176.368637 
L 435.42 176.381708 
z
" style="fill:#0000ff;"/>
   </g>
   <g id="patch_7">
    <path clip-path="url(#p7aebdc5cad)" d="M 384.642 151.161589 
L 384.084 151.249044 
L 383.526 151.275189 
L 382.968 151.275189 
L 382.41 151.24146 
L 381.852 151.141782 
L 381.760106 151.1208 
L 381.852 151.099818 
L 382.41 151.00014 
L 382.968 150.953393 
L 383.526 150.95036 
L 384.084 150.992556 
L 384.642 151.080011 
L 384.811398 151.1208 
z
" style="fill:#ffffff;"/>
   </g>
   <g id="patch_8">
    <path clip-path="url(#p7aebdc5cad)" d="M 386.316 180.555389 
L 385.758 180.632244 
L 385.2 180.663629 
L 384.642 180.677586 
L 384.084 180.686908 
L 383.526 180.688704 
L 382.968 180.694309 
L 382.41 180.698239 
L 381.852 180.701245 
L 381.294 180.708812 
L 380.736 180.709879 
L 380.178 180.701245 
L 379.62 180.685147 
L 379.062 180.670701 
L 378.504 180.631996 
L 378.242916 180.504 
L 378.504 180.3743 
L 379.062 180.306854 
L 379.62 180.298121 
L 380.178 180.298121 
L 380.736 180.298121 
L 381.294 180.298121 
L 381.852 180.256145 
L 382.239553 179.9496 
L 382.41 179.780253 
L 382.718535 179.3952 
L 382.698955 178.8408 
L 382.41 178.509041 
L 382.144871 178.2864 
L 381.852 178.040656 
L 381.294 177.937879 
L 380.736 177.937879 
L 380.178 177.937879 
L 379.62 177.937879 
L 379.062 177.937879 
L 378.504 177.999309 
L 377.946 178.180446 
L 377.799201 178.2864 
L 377.388 178.3992 
L 377.25522 178.2864 
L 377.204837 177.732 
L 377.200343 177.1776 
L 377.195528 176.6232 
L 377.190559 176.0688 
L 377.189474 175.5144 
L 377.180784 174.96 
L 377.180784 174.4056 
L 377.180784 173.8512 
L 377.180784 173.2968 
L 377.180784 172.7424 
L 377.180784 172.188 
L 377.180784 171.6336 
L 377.166222 171.0792 
L 377.033909 170.5248 
L 376.83 170.082168 
L 376.800348 169.9704 
L 376.664202 169.416 
L 376.58694 168.8616 
L 376.475909 168.3072 
L 376.272 167.864568 
L 376.242348 167.7528 
L 376.117495 167.1984 
L 376.055298 166.644 
L 375.88891 166.0896 
L 375.714 165.807305 
L 375.626147 165.5352 
L 375.481321 164.9808 
L 375.334928 164.4264 
L 375.156 164.207006 
L 375.032887 163.872 
L 374.934222 163.3176 
L 374.598 162.778483 
L 374.588356 162.7632 
L 374.376347 162.2088 
L 374.056246 161.6544 
L 374.04 161.638259 
L 373.853224 161.1 
L 373.741467 160.5456 
L 373.54107 159.9912 
L 373.482 159.907072 
L 373.364198 159.4368 
L 373.312716 158.8824 
L 373.302313 158.328 
L 373.288592 157.7736 
L 373.279222 157.2192 
L 373.303121 156.6648 
L 373.472579 156.1104 
L 373.482 156.095545 
L 373.859099 155.556 
L 374.04 155.312709 
L 374.312949 155.0016 
L 374.556276 154.4472 
L 374.598 154.38314 
L 374.978488 153.8928 
L 375.156 153.610409 
L 375.387257 153.3384 
L 375.714 152.998983 
L 375.999885 152.784 
L 376.272 152.679349 
L 376.83 152.629611 
L 377.388 152.629611 
L 377.946 152.629611 
L 378.504 152.629611 
L 379.062 152.629611 
L 379.62 152.629611 
L 380.178 152.629611 
L 380.736 152.629611 
L 381.294 152.629611 
L 381.852 152.629611 
L 382.41 152.629611 
L 382.968 152.629611 
L 383.526 152.629611 
L 384.084 152.629611 
L 384.642 152.629611 
L 385.2 152.629611 
L 385.758 152.629611 
L 386.316 152.629611 
L 386.874 152.629611 
L 387.432 152.687804 
L 387.531174 152.784 
L 387.735315 153.3384 
L 387.99 153.689816 
L 388.100776 153.8928 
L 388.482749 154.4472 
L 388.548 154.51203 
L 388.738535 155.0016 
L 388.755216 155.556 
L 388.755216 156.1104 
L 388.755216 156.6648 
L 388.755216 157.2192 
L 388.749646 157.7736 
L 388.638985 158.328 
L 388.548 158.447781 
L 388.188526 158.8824 
L 387.99 159.20439 
L 387.756081 159.4368 
L 387.569889 159.9912 
L 387.432 160.18089 
L 387.110834 160.5456 
L 386.874 160.851865 
L 386.624253 161.1 
L 386.359781 161.6544 
L 386.316 161.700534 
L 385.895305 162.2088 
L 385.758 162.354533 
L 385.247182 162.7632 
L 385.2 162.814807 
L 384.798189 163.3176 
L 384.642 163.445065 
L 384.084 163.523479 
L 383.526 163.523479 
L 382.968 163.523479 
L 382.41 163.523479 
L 381.852 163.523479 
L 381.294 163.592727 
L 380.851413 163.872 
L 380.736 163.923389 
L 380.178 164.06416 
L 379.62 164.248626 
L 379.418824 164.4264 
L 379.062 164.567273 
L 378.504 164.632279 
L 377.946 164.632279 
L 377.388 164.753997 
L 377.125559 164.9808 
L 376.83 165.263148 
L 376.590627 165.5352 
L 376.5659 166.0896 
L 376.83 166.408864 
L 376.994071 166.644 
L 377.388 166.984263 
L 377.946 167.177418 
L 377.983524 167.1984 
L 378.504 167.523102 
L 379.062 167.546921 
L 379.62 167.546921 
L 380.178 167.546921 
L 380.736 167.537497 
L 381.294 167.444144 
L 381.788679 167.1984 
L 381.852 167.177418 
L 382.41 167.053909 
L 382.968 166.985533 
L 383.462574 166.644 
L 383.526 166.603211 
L 384.084 166.389437 
L 384.43017 166.0896 
L 384.642 165.962135 
L 385.2 165.883721 
L 385.758 165.894402 
L 386.316 165.903065 
L 386.874 165.911875 
L 387.432 165.92069 
L 387.99 165.928605 
L 388.548 165.941237 
L 389.106 166.0185 
L 389.364206 166.0896 
L 389.664 166.25968 
L 390.222 166.438229 
L 390.78 166.490556 
L 391.296863 166.644 
L 391.338 166.68263 
L 391.656627 167.1984 
L 391.896 167.531521 
L 392.009329 167.7528 
L 392.388749 168.3072 
L 392.454 168.37203 
L 392.669527 168.8616 
L 392.946135 169.416 
L 393.012 169.48144 
L 393.196952 169.9704 
L 393.31302 170.5248 
L 393.57 171.012199 
L 393.594179 171.0792 
L 393.68293 171.6336 
L 393.733439 172.188 
L 393.740007 172.7424 
L 393.747205 173.2968 
L 393.755903 173.8512 
L 393.771749 174.4056 
L 393.711788 174.96 
L 393.57 175.255068 
L 393.333462 175.5144 
L 393.179378 176.0688 
L 393.012 176.503577 
L 392.910538 176.6232 
L 392.717342 177.1776 
L 392.611895 177.732 
L 392.463105 178.2864 
L 392.454 178.296394 
L 391.922636 178.8408 
L 391.896 178.864823 
L 391.338 179.05482 
L 390.963565 179.3952 
L 390.78 179.524575 
L 390.222 179.59885 
L 389.664 179.88416 
L 389.590493 179.9496 
L 389.106 180.090413 
L 388.548 180.127325 
L 387.99 180.185048 
L 387.432 180.250959 
L 386.874 180.398046 
L 386.610833 180.504 
z
" style="fill:#ffffff;"/>
   </g>
   <g id="patch_9">
    <path clip-path="url(#p7aebdc5cad)" d="M 520.236 164.632279 
L 519.678 164.632279 
L 519.12 164.632279 
L 518.562 164.632279 
L 518.004 164.69403 
L 517.82737 164.4264 
L 518.004 163.99386 
L 518.110642 163.872 
L 518.360354 163.3176 
L 518.43118 162.7632 
L 518.562 162.33773 
L 518.668642 162.2088 
L 518.870535 161.6544 
L 518.921474 161.1 
L 519.064968 160.5456 
L 519.12 160.395574 
L 519.443659 159.9912 
L 519.631448 159.4368 
L 519.678 159.295893 
L 519.710617 159.4368 
L 519.774821 159.9912 
L 519.789608 160.5456 
L 519.847284 161.1 
L 519.879646 161.6544 
L 519.927465 162.2088 
L 520.10882 162.7632 
L 520.236 162.924291 
L 520.357443 163.3176 
L 520.433441 163.872 
L 520.527744 164.4264 
z
" style="fill:#ffffff;"/>
   </g>
   <g id="patch_10">
    <path clip-path="url(#p7aebdc5cad)" d="M 560.412 163.80656 
L 559.854 163.607462 
L 559.296 163.52125 
L 558.738 163.440978 
L 558.342137 163.3176 
L 558.18 163.19124 
L 557.622 163.017763 
L 557.064 162.953509 
L 556.506 162.906443 
L 556.125963 162.7632 
L 556.459299 162.2088 
L 556.506 162.167133 
L 557.064 161.925588 
L 557.354438 161.6544 
L 557.622 161.486523 
L 558.18 161.337828 
L 558.592619 161.1 
L 558.738 161.048611 
L 559.296 160.92956 
L 559.854 160.852145 
L 560.412 160.69059 
L 560.567391 161.1 
L 560.567391 161.6544 
L 560.567391 162.2088 
L 560.567391 162.7632 
L 560.567391 163.3176 
z
" style="fill:#ffffff;"/>
   </g>
   <g id="patch_11">
    <path clip-path="url(#p7aebdc5cad)" d="M 415.955251 179.3952 
L 416.448 179.201057 
L 416.859306 178.8408 
L 417.006 178.672326 
L 417.342222 178.2864 
L 417.294955 177.732 
L 417.006 177.420457 
L 416.68833 177.1776 
L 417.006 176.882532 
L 417.564 176.98496 
L 418.033524 177.1776 
L 418.122 177.261105 
L 418.68 177.506368 
L 419.238 177.526121 
L 419.796 177.526121 
L 420.354 177.526121 
L 420.912 177.526121 
L 421.47 177.526121 
L 422.028 177.526121 
L 422.586 177.526121 
L 423.144 177.526121 
L 423.702 177.526121 
L 424.26 177.526121 
L 424.818 177.526121 
L 425.376 177.526121 
L 425.934 177.526121 
L 426.492 177.526121 
L 427.05 177.526121 
L 427.608 177.526121 
L 428.166 177.526121 
L 428.724 177.511653 
L 429.282 177.283554 
L 429.399881 177.1776 
L 429.84 176.993007 
L 430.398 176.858212 
L 430.796634 176.6232 
L 430.956 176.566673 
L 431.514 176.412714 
L 431.932633 176.0688 
L 432.072 175.951687 
L 432.461033 175.5144 
L 432.63 175.197859 
L 432.852433 174.96 
L 433.146063 174.4056 
L 433.188 174.323154 
L 433.489784 173.8512 
L 433.476955 173.2968 
L 433.188 172.975589 
L 432.903819 172.7424 
L 432.63 172.504572 
L 432.072 172.527417 
L 431.847521 172.7424 
L 431.514 172.92802 
L 431.134875 173.2968 
L 430.956 173.4458 
L 430.398 173.580012 
L 430.042147 173.8512 
L 429.84 173.947396 
L 429.282 174.068875 
L 428.724 174.227826 
L 428.47206 174.4056 
L 428.166 174.531179 
L 427.608 174.697604 
L 427.134718 174.96 
L 427.05 174.993116 
L 426.492 175.129709 
L 425.934 175.144704 
L 425.376 175.161469 
L 424.818 175.165879 
L 424.26 175.165879 
L 423.702 175.165879 
L 423.144 175.165879 
L 422.586 175.165879 
L 422.028 175.165879 
L 421.47 175.165879 
L 420.912 175.165879 
L 420.354 175.165879 
L 419.796 175.165879 
L 419.238 175.153194 
L 418.68 175.014977 
L 418.58967 174.96 
L 418.122 174.632528 
L 417.564 174.454824 
L 417.493829 174.4056 
L 417.006 174.061573 
L 416.779033 173.8512 
L 416.824474 173.2968 
L 417.006 173.103255 
L 417.559213 172.7424 
L 417.564 172.738866 
L 418.122 172.405873 
L 418.370259 172.188 
L 418.68 171.978048 
L 419.187669 171.6336 
L 419.238 171.599451 
L 419.796 171.275089 
L 420.005116 171.0792 
L 420.354 170.840687 
L 420.82101 170.5248 
L 420.912 170.463295 
L 421.47 170.14048 
L 421.641185 169.9704 
L 422.028 169.706836 
L 422.45114 169.416 
L 422.586 169.323983 
L 423.144 168.997482 
L 423.280764 168.8616 
L 423.702 168.582588 
L 424.080114 168.3072 
L 424.26 168.185149 
L 424.818 167.847803 
L 424.91362 167.7528 
L 425.376 167.577598 
L 425.934 167.517352 
L 426.332135 167.1984 
L 426.492 167.034478 
L 426.80694 166.644 
L 426.75369 166.0896 
L 426.492 165.795151 
L 426.241563 165.5352 
L 425.934 165.264012 
L 425.376 165.174943 
L 424.818 165.145349 
L 424.26 165.10146 
L 423.702 165.021589 
L 423.472814 164.9808 
L 423.144 164.85444 
L 422.586 164.727759 
L 422.028 164.674255 
L 421.47 164.727759 
L 421.157952 164.9808 
L 420.912 165.101852 
L 420.354 165.332923 
L 420.142492 165.5352 
L 419.796 165.728945 
L 419.238 165.927534 
L 419.067783 166.0896 
L 418.68 166.322847 
L 418.341024 166.644 
L 418.122 166.850215 
L 417.79519 167.1984 
L 417.564 167.531802 
L 417.341567 167.7528 
L 417.138626 168.3072 
L 417.006 168.497038 
L 416.648831 168.8616 
L 416.448 169.161001 
L 416.225567 169.416 
L 415.905065 169.9704 
L 415.89 169.994317 
L 415.57506 170.5248 
L 415.332 170.917134 
L 415.168882 171.0792 
L 414.897715 171.6336 
L 414.774 171.840266 
L 414.519315 172.188 
L 414.336665 172.7424 
L 414.216 172.977536 
L 413.9519 173.2968 
L 413.943051 173.8512 
L 414.216 174.204758 
L 414.317121 174.4056 
L 414.551567 174.96 
L 414.774 175.180998 
L 414.981216 175.5144 
L 415.332 175.903244 
L 415.516669 176.0688 
L 415.89 176.397568 
L 416.448 176.566673 
L 416.607366 176.6232 
L 416.448 176.799024 
L 415.89 176.939772 
L 415.554716 177.1776 
L 415.332 177.267136 
L 414.846819 177.1776 
L 414.774 177.13897 
L 414.566784 176.6232 
L 414.216 176.224623 
L 414.062994 176.0688 
L 413.658 175.708145 
L 413.372561 175.5144 
L 413.1 175.252004 
L 412.550766 174.96 
L 412.542 174.95129 
L 411.984 174.441242 
L 411.951383 174.4056 
L 411.776784 173.8512 
L 411.426 173.328281 
L 411.404882 173.2968 
L 411.214147 172.7424 
L 410.868 172.292867 
L 410.795376 172.188 
L 410.665222 171.6336 
L 410.660784 171.0792 
L 410.660784 170.5248 
L 410.660784 169.9704 
L 410.660784 169.416 
L 410.660784 168.8616 
L 410.598955 168.3072 
L 410.31 167.964176 
L 410.174345 167.7528 
L 409.752 167.333179 
L 409.616345 167.1984 
L 409.194 166.778779 
L 409.019715 166.644 
L 408.636 166.315232 
L 408.078 166.151161 
L 408.001306 166.0896 
L 407.52 165.68041 
L 407.254871 165.5352 
L 406.962 165.289456 
L 406.404 165.308397 
L 405.951201 165.5352 
L 405.846 165.567607 
L 405.808595 165.5352 
L 405.288 165.115819 
L 405.039642 164.9808 
L 404.73 164.718404 
L 404.172 164.735056 
L 403.879129 164.9808 
L 403.614 165.112571 
L 403.056 165.451695 
L 402.971953 165.5352 
L 402.498 165.764898 
L 402.147554 166.0896 
L 401.94 166.28202 
L 401.590707 166.644 
L 401.382 166.936984 
L 401.127315 167.1984 
L 400.824 167.669295 
L 400.739953 167.7528 
L 400.341708 168.3072 
L 400.266 168.392714 
L 399.85961 168.8616 
L 399.708 169.128533 
L 399.453315 169.416 
L 399.345404 169.9704 
L 399.303806 170.5248 
L 399.211961 171.0792 
L 399.15 171.322745 
L 398.986882 171.6336 
L 398.855342 172.188 
L 398.769998 172.7424 
L 398.67302 173.2968 
L 398.592 173.524087 
L 398.375621 173.8512 
L 398.241216 174.4056 
L 398.172658 174.96 
L 398.034 175.417497 
L 397.949953 175.5144 
L 397.745045 176.0688 
L 397.752914 176.6232 
L 398.034 176.984168 
L 398.142528 177.1776 
L 398.592 177.641394 
L 398.683195 177.732 
L 399.15 178.195794 
L 399.241195 178.2864 
L 399.708 178.74026 
L 399.880107 178.8408 
L 400.266 179.133557 
L 400.824 179.189321 
L 401.382 179.189321 
L 401.94 179.189321 
L 402.498 179.189321 
L 403.056 179.189321 
L 403.614 179.179897 
L 404.172 178.96716 
L 404.311914 178.8408 
L 404.73 178.684797 
L 405.288 178.539441 
L 405.600048 178.2864 
L 405.846 178.171518 
L 406.404 178.050952 
L 406.888421 177.732 
L 406.962 177.691211 
L 407.52 177.533766 
L 407.956705 177.1776 
L 408.078 177.070739 
L 408.48439 176.6232 
L 408.636 176.439623 
L 408.985293 176.0688 
L 409.194 175.775816 
L 409.448685 175.5144 
L 409.752 175.213041 
L 409.977808 175.5144 
L 410.31 175.896779 
L 410.448583 176.0688 
L 410.868 176.445986 
L 411.101299 176.6232 
L 411.426 176.937574 
L 411.773898 177.1776 
L 411.984 177.386347 
L 412.54171 177.732 
L 412.542 177.732288 
L 412.762425 178.2864 
L 413.1 178.644847 
L 413.293669 178.8408 
L 413.658 179.179897 
L 414.216 179.374218 
L 414.260436 179.3952 
L 414.774 179.695037 
L 415.332 179.701745 
L 415.89 179.46003 
z
" style="fill:#0000ff;"/>
   </g>
   <g id="patch_12">
    <path clip-path="url(#p7aebdc5cad)" d="M 482.85 175.655842 
L 482.292 175.689602 
L 481.734 175.638369 
L 481.436999 175.5144 
L 481.176 175.299417 
L 480.618 175.13942 
L 480.144047 174.96 
L 480.06 174.876495 
L 479.855027 174.4056 
L 479.502 173.882173 
L 479.480882 173.8512 
L 479.311465 173.2968 
L 479.294784 172.7424 
L 479.294784 172.188 
L 479.294784 171.6336 
L 479.294784 171.0792 
L 479.308592 170.5248 
L 479.396669 169.9704 
L 479.502 169.641414 
L 479.665118 169.416 
L 479.824567 168.8616 
L 479.954669 168.3072 
L 480.06 168.023306 
L 480.263591 167.7528 
L 480.428373 167.1984 
L 480.618 166.70883 
L 480.683251 166.644 
L 480.940567 166.0896 
L 481.176 165.60003 
L 481.241251 165.5352 
L 481.512222 164.9808 
L 481.734 164.800562 
L 482.292 164.821813 
L 482.85 164.891264 
L 483.2006 164.9808 
L 483.408 165.10716 
L 483.966 165.260073 
L 484.524 165.349629 
L 484.918882 165.5352 
L 485.082 165.697266 
L 485.64 166.001874 
L 485.823442 166.0896 
L 486.198 166.351996 
L 486.756 166.608137 
L 486.788617 166.644 
L 486.983097 167.1984 
L 487.314 167.652042 
L 487.375961 167.7528 
L 487.513521 168.3072 
L 487.521216 168.8616 
L 487.521216 169.416 
L 487.521216 169.9704 
L 487.521216 170.5248 
L 487.521216 171.0792 
L 487.463393 171.6336 
L 487.314 171.93851 
L 487.080081 172.188 
L 486.924908 172.7424 
L 486.827561 173.2968 
L 486.756 173.37798 
L 486.290253 173.8512 
L 486.198 173.932109 
L 485.64 174.147807 
L 485.380533 174.4056 
L 485.082 174.579951 
L 484.524 174.757407 
L 484.2546 174.96 
L 483.966 175.081682 
L 483.408 175.296527 
L 483.171813 175.5144 
z
" style="fill:#ffffff;"/>
   </g>
   <g id="patch_13">
    <path clip-path="url(#p7aebdc5cad)" d="M 419.796 169.477505 
L 419.238 169.762006 
L 419.048393 169.416 
L 419.238 169.133332 
L 419.468987 168.8616 
L 419.796 168.34583 
L 419.834881 168.3072 
L 420.354 168.017338 
L 420.730461 167.7528 
L 420.912 167.66595 
L 421.47 167.400677 
L 421.681508 167.1984 
L 422.028 167.040792 
L 422.586 167.057587 
L 422.945769 167.1984 
L 422.586 167.518137 
L 422.337741 167.7528 
L 422.028 167.962752 
L 421.520331 168.3072 
L 421.47 168.341349 
L 420.912 168.665711 
L 420.702884 168.8616 
L 420.354 169.100113 
L 419.88699 169.416 
z
" style="fill:#ffffff;"/>
   </g>
   <g id="patch_14">
    <path clip-path="url(#p7aebdc5cad)" d="M 403.614 176.756091 
L 403.056 176.829079 
L 402.498 176.829079 
L 401.94 176.829079 
L 401.382 176.829079 
L 400.824 176.751687 
L 400.686861 176.6232 
L 400.266 176.178151 
L 400.175882 176.0688 
L 400.266 175.586749 
L 400.304881 175.5144 
L 400.567784 174.96 
L 400.649287 174.4056 
L 400.752439 173.8512 
L 400.824 173.664596 
L 401.063373 173.2968 
L 401.170147 172.7424 
L 401.216383 172.188 
L 401.291882 171.6336 
L 401.382 171.224554 
L 401.466047 171.0792 
L 401.654949 170.5248 
L 401.796912 169.9704 
L 401.94 169.8007 
L 402.29407 169.416 
L 402.498 169.141206 
L 402.770949 168.8616 
L 403.056 168.43356 
L 403.18318 168.3072 
L 403.591523 167.7528 
L 403.614 167.731349 
L 404.172 167.469588 
L 404.73 167.597709 
L 404.872569 167.7528 
L 405.288 168.284605 
L 405.309118 168.3072 
L 405.537465 168.8616 
L 405.846 169.201636 
L 405.989471 169.416 
L 406.319953 169.9704 
L 406.404 170.053905 
L 406.631097 170.5248 
L 406.962 170.916947 
L 407.074604 171.0792 
L 407.341072 171.6336 
L 407.52 171.811374 
L 407.724973 172.188 
L 408.078 172.629568 
L 408.159815 172.7424 
L 408.241697 173.2968 
L 408.078 173.589784 
L 407.823315 173.8512 
L 407.52 174.322095 
L 407.435953 174.4056 
L 407.047618 174.96 
L 406.962 175.058736 
L 406.492172 175.5144 
L 406.404 175.5855 
L 405.846 175.724886 
L 405.288 176.00397 
L 405.219167 176.0688 
L 404.73 176.238415 
L 404.172 176.408217 
L 403.921886 176.6232 
z
" style="fill:#ffffff;"/>
   </g>
   <g id="patch_15">
    <path clip-path="url(#p7aebdc5cad)" d="M 527.49 169.837619 
L 527.312215 169.416 
L 527.49 169.079565 
L 527.642908 169.416 
z
" style="fill:#ffffff;"/>
   </g>
   <g id="patch_16">
    <path clip-path="url(#p7aebdc5cad)" d="M 418.68 169.977104 
L 418.676492 169.9704 
L 418.68 169.965204 
L 418.696527 169.9704 
z
" style="fill:#ffffff;"/>
   </g>
   <g id="patch_17">
    <path clip-path="url(#p7aebdc5cad)" d="M 528.048 170.671127 
L 527.978174 170.5248 
L 528.048 170.337862 
L 528.123861 170.5248 
z
" style="fill:#ffffff;"/>
   </g>
   <g id="patch_18">
    <path clip-path="url(#p7aebdc5cad)" d="M 528.606 171.694823 
L 528.572842 171.6336 
L 528.606 171.550529 
L 528.640077 171.6336 
z
" style="fill:#ffffff;"/>
   </g>
   <g id="patch_19">
    <path clip-path="url(#p7aebdc5cad)" d="M 553.716 172.913174 
L 553.649612 172.7424 
L 553.716 172.631808 
L 553.836504 172.7424 
z
" style="fill:#ffffff;"/>
   </g>
  </g>
 </g>
 <defs>
  <clipPath id="p7aebdc5cad">
   <rect height="567.7056" width="762.228" x="122.94" y="88.4736"/>
  </clipPath>
 </defs>
</svg>
